%TF.GenerationSoftware,KiCad,Pcbnew,(5.1.6)-1*%
%TF.CreationDate,2023-05-03T11:12:58-04:00*%
%TF.ProjectId,MigStorm-ITX,4d696753-746f-4726-9d2d-4954582e6b69,rev?*%
%TF.SameCoordinates,Original*%
%TF.FileFunction,Soldermask,Bot*%
%TF.FilePolarity,Negative*%
%FSLAX46Y46*%
G04 Gerber Fmt 4.6, Leading zero omitted, Abs format (unit mm)*
G04 Created by KiCad (PCBNEW (5.1.6)-1) date 2023-05-03 11:12:58*
%MOMM*%
%LPD*%
G01*
G04 APERTURE LIST*
%ADD10C,6.500000*%
%ADD11C,0.900000*%
%ADD12R,1.900000X1.900000*%
%ADD13C,1.900000*%
%ADD14R,1.000000X0.900000*%
%ADD15R,1.800000X1.800000*%
%ADD16O,1.800000X1.800000*%
%ADD17R,2.250000X2.250000*%
%ADD18C,2.250000*%
%ADD19R,1.750000X1.750000*%
%ADD20C,1.750000*%
%ADD21C,3.550000*%
%ADD22C,2.185000*%
%ADD23C,3.910000*%
%ADD24R,1.300000X1.300000*%
%ADD25C,1.600000*%
%ADD26C,4.900000*%
%ADD27C,1.800000*%
%ADD28R,1.885000X1.885000*%
%ADD29C,1.885000*%
%ADD30C,4.675000*%
%ADD31R,1.700000X1.700000*%
%ADD32O,1.700000X1.700000*%
G04 APERTURE END LIST*
D10*
%TO.C,REF\u002A\u002A*%
X133604000Y-67030600D03*
D11*
X136004000Y-67030600D03*
X135301056Y-68727656D03*
X133604000Y-69430600D03*
X131906944Y-68727656D03*
X131204000Y-67030600D03*
X131906944Y-65333544D03*
X133604000Y-64630600D03*
X135301056Y-65333544D03*
%TD*%
D10*
%TO.C,REF\u002A\u002A*%
X290880800Y-89890600D03*
D11*
X293280800Y-89890600D03*
X292577856Y-91587656D03*
X290880800Y-92290600D03*
X289183744Y-91587656D03*
X288480800Y-89890600D03*
X289183744Y-88193544D03*
X290880800Y-87490600D03*
X292577856Y-88193544D03*
%TD*%
D10*
%TO.C,REF\u002A\u002A*%
X290880800Y-221970600D03*
D11*
X293280800Y-221970600D03*
X292577856Y-223667656D03*
X290880800Y-224370600D03*
X289183744Y-223667656D03*
X288480800Y-221970600D03*
X289183744Y-220273544D03*
X290880800Y-219570600D03*
X292577856Y-220273544D03*
%TD*%
%TO.C,REF\u002A\u002A*%
X135301056Y-220298944D03*
X133604000Y-219596000D03*
X131906944Y-220298944D03*
X131204000Y-221996000D03*
X131906944Y-223693056D03*
X133604000Y-224396000D03*
X135301056Y-223693056D03*
X136004000Y-221996000D03*
D10*
X133604000Y-221996000D03*
%TD*%
%TO.C,C3*%
G36*
G01*
X204112241Y-132606124D02*
X203435876Y-131929760D01*
G75*
G02*
X203435876Y-131545464I192148J192148D01*
G01*
X203935464Y-131045876D01*
G75*
G02*
X204319760Y-131045876I192148J-192148D01*
G01*
X204996124Y-131722240D01*
G75*
G02*
X204996124Y-132106536I-192148J-192148D01*
G01*
X204496536Y-132606124D01*
G75*
G02*
X204112240Y-132606124I-192148J192148D01*
G01*
G37*
G36*
G01*
X202662673Y-134055692D02*
X201986308Y-133379328D01*
G75*
G02*
X201986308Y-132995032I192148J192148D01*
G01*
X202485896Y-132495444D01*
G75*
G02*
X202870192Y-132495444I192148J-192148D01*
G01*
X203546556Y-133171808D01*
G75*
G02*
X203546556Y-133556104I-192148J-192148D01*
G01*
X203046968Y-134055692D01*
G75*
G02*
X202662672Y-134055692I-192148J192148D01*
G01*
G37*
%TD*%
%TO.C,C6*%
G36*
G01*
X203727092Y-143570457D02*
X204403456Y-142894092D01*
G75*
G02*
X204787752Y-142894092I192148J-192148D01*
G01*
X205287340Y-143393680D01*
G75*
G02*
X205287340Y-143777976I-192148J-192148D01*
G01*
X204610976Y-144454340D01*
G75*
G02*
X204226680Y-144454340I-192148J192148D01*
G01*
X203727092Y-143954752D01*
G75*
G02*
X203727092Y-143570456I192148J192148D01*
G01*
G37*
G36*
G01*
X205176660Y-145020025D02*
X205853024Y-144343660D01*
G75*
G02*
X206237320Y-144343660I192148J-192148D01*
G01*
X206736908Y-144843248D01*
G75*
G02*
X206736908Y-145227544I-192148J-192148D01*
G01*
X206060544Y-145903908D01*
G75*
G02*
X205676248Y-145903908I-192148J192148D01*
G01*
X205176660Y-145404320D01*
G75*
G02*
X205176660Y-145020024I192148J192148D01*
G01*
G37*
%TD*%
%TO.C,C7*%
G36*
G01*
X209621660Y-149211025D02*
X210298024Y-148534660D01*
G75*
G02*
X210682320Y-148534660I192148J-192148D01*
G01*
X211181908Y-149034248D01*
G75*
G02*
X211181908Y-149418544I-192148J-192148D01*
G01*
X210505544Y-150094908D01*
G75*
G02*
X210121248Y-150094908I-192148J192148D01*
G01*
X209621660Y-149595320D01*
G75*
G02*
X209621660Y-149211024I192148J192148D01*
G01*
G37*
G36*
G01*
X208172092Y-147761457D02*
X208848456Y-147085092D01*
G75*
G02*
X209232752Y-147085092I192148J-192148D01*
G01*
X209732340Y-147584680D01*
G75*
G02*
X209732340Y-147968976I-192148J-192148D01*
G01*
X209055976Y-148645340D01*
G75*
G02*
X208671680Y-148645340I-192148J192148D01*
G01*
X208172092Y-148145752D01*
G75*
G02*
X208172092Y-147761456I192148J192148D01*
G01*
G37*
%TD*%
%TO.C,C10*%
G36*
G01*
X230057457Y-148062908D02*
X229381092Y-147386544D01*
G75*
G02*
X229381092Y-147002248I192148J192148D01*
G01*
X229880680Y-146502660D01*
G75*
G02*
X230264976Y-146502660I192148J-192148D01*
G01*
X230941340Y-147179024D01*
G75*
G02*
X230941340Y-147563320I-192148J-192148D01*
G01*
X230441752Y-148062908D01*
G75*
G02*
X230057456Y-148062908I-192148J192148D01*
G01*
G37*
G36*
G01*
X231507025Y-146613340D02*
X230830660Y-145936976D01*
G75*
G02*
X230830660Y-145552680I192148J192148D01*
G01*
X231330248Y-145053092D01*
G75*
G02*
X231714544Y-145053092I192148J-192148D01*
G01*
X232390908Y-145729456D01*
G75*
G02*
X232390908Y-146113752I-192148J-192148D01*
G01*
X231891320Y-146613340D01*
G75*
G02*
X231507024Y-146613340I-192148J192148D01*
G01*
G37*
%TD*%
%TO.C,C11*%
G36*
G01*
X238868876Y-136929241D02*
X239545240Y-136252876D01*
G75*
G02*
X239929536Y-136252876I192148J-192148D01*
G01*
X240429124Y-136752464D01*
G75*
G02*
X240429124Y-137136760I-192148J-192148D01*
G01*
X239752760Y-137813124D01*
G75*
G02*
X239368464Y-137813124I-192148J192148D01*
G01*
X238868876Y-137313536D01*
G75*
G02*
X238868876Y-136929240I192148J192148D01*
G01*
G37*
G36*
G01*
X237419308Y-135479673D02*
X238095672Y-134803308D01*
G75*
G02*
X238479968Y-134803308I192148J-192148D01*
G01*
X238979556Y-135302896D01*
G75*
G02*
X238979556Y-135687192I-192148J-192148D01*
G01*
X238303192Y-136363556D01*
G75*
G02*
X237918896Y-136363556I-192148J192148D01*
G01*
X237419308Y-135863968D01*
G75*
G02*
X237419308Y-135479672I192148J192148D01*
G01*
G37*
%TD*%
%TO.C,C12*%
G36*
G01*
X228402308Y-118334673D02*
X229078672Y-117658308D01*
G75*
G02*
X229462968Y-117658308I192148J-192148D01*
G01*
X229962556Y-118157896D01*
G75*
G02*
X229962556Y-118542192I-192148J-192148D01*
G01*
X229286192Y-119218556D01*
G75*
G02*
X228901896Y-119218556I-192148J192148D01*
G01*
X228402308Y-118718968D01*
G75*
G02*
X228402308Y-118334672I192148J192148D01*
G01*
G37*
G36*
G01*
X229851876Y-119784241D02*
X230528240Y-119107876D01*
G75*
G02*
X230912536Y-119107876I192148J-192148D01*
G01*
X231412124Y-119607464D01*
G75*
G02*
X231412124Y-119991760I-192148J-192148D01*
G01*
X230735760Y-120668124D01*
G75*
G02*
X230351464Y-120668124I-192148J192148D01*
G01*
X229851876Y-120168536D01*
G75*
G02*
X229851876Y-119784240I192148J192148D01*
G01*
G37*
%TD*%
%TO.C,C13*%
G36*
G01*
X232354660Y-131050025D02*
X233031024Y-130373660D01*
G75*
G02*
X233415320Y-130373660I192148J-192148D01*
G01*
X233914908Y-130873248D01*
G75*
G02*
X233914908Y-131257544I-192148J-192148D01*
G01*
X233238544Y-131933908D01*
G75*
G02*
X232854248Y-131933908I-192148J192148D01*
G01*
X232354660Y-131434320D01*
G75*
G02*
X232354660Y-131050024I192148J192148D01*
G01*
G37*
G36*
G01*
X230905092Y-129600457D02*
X231581456Y-128924092D01*
G75*
G02*
X231965752Y-128924092I192148J-192148D01*
G01*
X232465340Y-129423680D01*
G75*
G02*
X232465340Y-129807976I-192148J-192148D01*
G01*
X231788976Y-130484340D01*
G75*
G02*
X231404680Y-130484340I-192148J192148D01*
G01*
X230905092Y-129984752D01*
G75*
G02*
X230905092Y-129600456I192148J192148D01*
G01*
G37*
%TD*%
%TO.C,C14*%
G36*
G01*
X214193660Y-146036025D02*
X214870024Y-145359660D01*
G75*
G02*
X215254320Y-145359660I192148J-192148D01*
G01*
X215753908Y-145859248D01*
G75*
G02*
X215753908Y-146243544I-192148J-192148D01*
G01*
X215077544Y-146919908D01*
G75*
G02*
X214693248Y-146919908I-192148J192148D01*
G01*
X214193660Y-146420320D01*
G75*
G02*
X214193660Y-146036024I192148J192148D01*
G01*
G37*
G36*
G01*
X212744092Y-144586457D02*
X213420456Y-143910092D01*
G75*
G02*
X213804752Y-143910092I192148J-192148D01*
G01*
X214304340Y-144409680D01*
G75*
G02*
X214304340Y-144793976I-192148J-192148D01*
G01*
X213627976Y-145470340D01*
G75*
G02*
X213243680Y-145470340I-192148J192148D01*
G01*
X212744092Y-144970752D01*
G75*
G02*
X212744092Y-144586456I192148J192148D01*
G01*
G37*
%TD*%
%TO.C,C15*%
G36*
G01*
X205632092Y-137564241D02*
X206308456Y-136887876D01*
G75*
G02*
X206692752Y-136887876I192148J-192148D01*
G01*
X207192340Y-137387464D01*
G75*
G02*
X207192340Y-137771760I-192148J-192148D01*
G01*
X206515976Y-138448124D01*
G75*
G02*
X206131680Y-138448124I-192148J192148D01*
G01*
X205632092Y-137948536D01*
G75*
G02*
X205632092Y-137564240I192148J192148D01*
G01*
G37*
G36*
G01*
X207081660Y-139013809D02*
X207758024Y-138337444D01*
G75*
G02*
X208142320Y-138337444I192148J-192148D01*
G01*
X208641908Y-138837032D01*
G75*
G02*
X208641908Y-139221328I-192148J-192148D01*
G01*
X207965544Y-139897692D01*
G75*
G02*
X207581248Y-139897692I-192148J192148D01*
G01*
X207081660Y-139398104D01*
G75*
G02*
X207081660Y-139013808I192148J192148D01*
G01*
G37*
%TD*%
%TO.C,C16*%
G36*
G01*
X214827692Y-153445327D02*
X214151328Y-154121692D01*
G75*
G02*
X213767032Y-154121692I-192148J192148D01*
G01*
X213267444Y-153622104D01*
G75*
G02*
X213267444Y-153237808I192148J192148D01*
G01*
X213943808Y-152561444D01*
G75*
G02*
X214328104Y-152561444I192148J-192148D01*
G01*
X214827692Y-153061032D01*
G75*
G02*
X214827692Y-153445328I-192148J-192148D01*
G01*
G37*
G36*
G01*
X213378124Y-151995759D02*
X212701760Y-152672124D01*
G75*
G02*
X212317464Y-152672124I-192148J192148D01*
G01*
X211817876Y-152172536D01*
G75*
G02*
X211817876Y-151788240I192148J192148D01*
G01*
X212494240Y-151111876D01*
G75*
G02*
X212878536Y-151111876I192148J-192148D01*
G01*
X213378124Y-151611464D01*
G75*
G02*
X213378124Y-151995760I-192148J-192148D01*
G01*
G37*
%TD*%
%TO.C,C17*%
G36*
G01*
X217098340Y-147587975D02*
X216421976Y-148264340D01*
G75*
G02*
X216037680Y-148264340I-192148J192148D01*
G01*
X215538092Y-147764752D01*
G75*
G02*
X215538092Y-147380456I192148J192148D01*
G01*
X216214456Y-146704092D01*
G75*
G02*
X216598752Y-146704092I192148J-192148D01*
G01*
X217098340Y-147203680D01*
G75*
G02*
X217098340Y-147587976I-192148J-192148D01*
G01*
G37*
G36*
G01*
X218547908Y-149037543D02*
X217871544Y-149713908D01*
G75*
G02*
X217487248Y-149713908I-192148J192148D01*
G01*
X216987660Y-149214320D01*
G75*
G02*
X216987660Y-148830024I192148J192148D01*
G01*
X217664024Y-148153660D01*
G75*
G02*
X218048320Y-148153660I192148J-192148D01*
G01*
X218547908Y-148653248D01*
G75*
G02*
X218547908Y-149037544I-192148J-192148D01*
G01*
G37*
%TD*%
%TO.C,C18*%
G36*
G01*
X233407876Y-124356241D02*
X234084240Y-123679876D01*
G75*
G02*
X234468536Y-123679876I192148J-192148D01*
G01*
X234968124Y-124179464D01*
G75*
G02*
X234968124Y-124563760I-192148J-192148D01*
G01*
X234291760Y-125240124D01*
G75*
G02*
X233907464Y-125240124I-192148J192148D01*
G01*
X233407876Y-124740536D01*
G75*
G02*
X233407876Y-124356240I192148J192148D01*
G01*
G37*
G36*
G01*
X231958308Y-122906673D02*
X232634672Y-122230308D01*
G75*
G02*
X233018968Y-122230308I192148J-192148D01*
G01*
X233518556Y-122729896D01*
G75*
G02*
X233518556Y-123114192I-192148J-192148D01*
G01*
X232842192Y-123790556D01*
G75*
G02*
X232457896Y-123790556I-192148J192148D01*
G01*
X231958308Y-123290968D01*
G75*
G02*
X231958308Y-122906672I192148J192148D01*
G01*
G37*
%TD*%
%TO.C,C19*%
G36*
G01*
X235524543Y-141243092D02*
X236200908Y-141919456D01*
G75*
G02*
X236200908Y-142303752I-192148J-192148D01*
G01*
X235701320Y-142803340D01*
G75*
G02*
X235317024Y-142803340I-192148J192148D01*
G01*
X234640660Y-142126976D01*
G75*
G02*
X234640660Y-141742680I192148J192148D01*
G01*
X235140248Y-141243092D01*
G75*
G02*
X235524544Y-141243092I192148J-192148D01*
G01*
G37*
G36*
G01*
X234074975Y-142692660D02*
X234751340Y-143369024D01*
G75*
G02*
X234751340Y-143753320I-192148J-192148D01*
G01*
X234251752Y-144252908D01*
G75*
G02*
X233867456Y-144252908I-192148J192148D01*
G01*
X233191092Y-143576544D01*
G75*
G02*
X233191092Y-143192248I192148J192148D01*
G01*
X233690680Y-142692660D01*
G75*
G02*
X234074976Y-142692660I192148J-192148D01*
G01*
G37*
%TD*%
%TO.C,C20*%
G36*
G01*
X237814692Y-127410327D02*
X237138328Y-128086692D01*
G75*
G02*
X236754032Y-128086692I-192148J192148D01*
G01*
X236254444Y-127587104D01*
G75*
G02*
X236254444Y-127202808I192148J192148D01*
G01*
X236930808Y-126526444D01*
G75*
G02*
X237315104Y-126526444I192148J-192148D01*
G01*
X237814692Y-127026032D01*
G75*
G02*
X237814692Y-127410328I-192148J-192148D01*
G01*
G37*
G36*
G01*
X236365124Y-125960759D02*
X235688760Y-126637124D01*
G75*
G02*
X235304464Y-126637124I-192148J192148D01*
G01*
X234804876Y-126137536D01*
G75*
G02*
X234804876Y-125753240I192148J192148D01*
G01*
X235481240Y-125076876D01*
G75*
G02*
X235865536Y-125076876I192148J-192148D01*
G01*
X236365124Y-125576464D01*
G75*
G02*
X236365124Y-125960760I-192148J-192148D01*
G01*
G37*
%TD*%
%TO.C,C21*%
G36*
G01*
X256394000Y-148873738D02*
X256394000Y-149830262D01*
G75*
G02*
X256122262Y-150102000I-271738J0D01*
G01*
X255415738Y-150102000D01*
G75*
G02*
X255144000Y-149830262I0J271738D01*
G01*
X255144000Y-148873738D01*
G75*
G02*
X255415738Y-148602000I271738J0D01*
G01*
X256122262Y-148602000D01*
G75*
G02*
X256394000Y-148873738I0J-271738D01*
G01*
G37*
G36*
G01*
X258444000Y-148873738D02*
X258444000Y-149830262D01*
G75*
G02*
X258172262Y-150102000I-271738J0D01*
G01*
X257465738Y-150102000D01*
G75*
G02*
X257194000Y-149830262I0J271738D01*
G01*
X257194000Y-148873738D01*
G75*
G02*
X257465738Y-148602000I271738J0D01*
G01*
X258172262Y-148602000D01*
G75*
G02*
X258444000Y-148873738I0J-271738D01*
G01*
G37*
%TD*%
%TO.C,C22*%
G36*
G01*
X287937000Y-154910262D02*
X287937000Y-153953738D01*
G75*
G02*
X288208738Y-153682000I271738J0D01*
G01*
X288915262Y-153682000D01*
G75*
G02*
X289187000Y-153953738I0J-271738D01*
G01*
X289187000Y-154910262D01*
G75*
G02*
X288915262Y-155182000I-271738J0D01*
G01*
X288208738Y-155182000D01*
G75*
G02*
X287937000Y-154910262I0J271738D01*
G01*
G37*
G36*
G01*
X285887000Y-154910262D02*
X285887000Y-153953738D01*
G75*
G02*
X286158738Y-153682000I271738J0D01*
G01*
X286865262Y-153682000D01*
G75*
G02*
X287137000Y-153953738I0J-271738D01*
G01*
X287137000Y-154910262D01*
G75*
G02*
X286865262Y-155182000I-271738J0D01*
G01*
X286158738Y-155182000D01*
G75*
G02*
X285887000Y-154910262I0J271738D01*
G01*
G37*
%TD*%
%TO.C,C23*%
G36*
G01*
X258435000Y-164113738D02*
X258435000Y-165070262D01*
G75*
G02*
X258163262Y-165342000I-271738J0D01*
G01*
X257456738Y-165342000D01*
G75*
G02*
X257185000Y-165070262I0J271738D01*
G01*
X257185000Y-164113738D01*
G75*
G02*
X257456738Y-163842000I271738J0D01*
G01*
X258163262Y-163842000D01*
G75*
G02*
X258435000Y-164113738I0J-271738D01*
G01*
G37*
G36*
G01*
X256385000Y-164113738D02*
X256385000Y-165070262D01*
G75*
G02*
X256113262Y-165342000I-271738J0D01*
G01*
X255406738Y-165342000D01*
G75*
G02*
X255135000Y-165070262I0J271738D01*
G01*
X255135000Y-164113738D01*
G75*
G02*
X255406738Y-163842000I271738J0D01*
G01*
X256113262Y-163842000D01*
G75*
G02*
X256385000Y-164113738I0J-271738D01*
G01*
G37*
%TD*%
%TO.C,C24*%
G36*
G01*
X256385000Y-166653738D02*
X256385000Y-167610262D01*
G75*
G02*
X256113262Y-167882000I-271738J0D01*
G01*
X255406738Y-167882000D01*
G75*
G02*
X255135000Y-167610262I0J271738D01*
G01*
X255135000Y-166653738D01*
G75*
G02*
X255406738Y-166382000I271738J0D01*
G01*
X256113262Y-166382000D01*
G75*
G02*
X256385000Y-166653738I0J-271738D01*
G01*
G37*
G36*
G01*
X258435000Y-166653738D02*
X258435000Y-167610262D01*
G75*
G02*
X258163262Y-167882000I-271738J0D01*
G01*
X257456738Y-167882000D01*
G75*
G02*
X257185000Y-167610262I0J271738D01*
G01*
X257185000Y-166653738D01*
G75*
G02*
X257456738Y-166382000I271738J0D01*
G01*
X258163262Y-166382000D01*
G75*
G02*
X258435000Y-166653738I0J-271738D01*
G01*
G37*
%TD*%
%TO.C,C25*%
G36*
G01*
X147194000Y-124430262D02*
X147194000Y-123473738D01*
G75*
G02*
X147465738Y-123202000I271738J0D01*
G01*
X148172262Y-123202000D01*
G75*
G02*
X148444000Y-123473738I0J-271738D01*
G01*
X148444000Y-124430262D01*
G75*
G02*
X148172262Y-124702000I-271738J0D01*
G01*
X147465738Y-124702000D01*
G75*
G02*
X147194000Y-124430262I0J271738D01*
G01*
G37*
G36*
G01*
X149244000Y-124430262D02*
X149244000Y-123473738D01*
G75*
G02*
X149515738Y-123202000I271738J0D01*
G01*
X150222262Y-123202000D01*
G75*
G02*
X150494000Y-123473738I0J-271738D01*
G01*
X150494000Y-124430262D01*
G75*
G02*
X150222262Y-124702000I-271738J0D01*
G01*
X149515738Y-124702000D01*
G75*
G02*
X149244000Y-124430262I0J271738D01*
G01*
G37*
%TD*%
%TO.C,C26*%
G36*
G01*
X154549000Y-123473738D02*
X154549000Y-124430262D01*
G75*
G02*
X154277262Y-124702000I-271738J0D01*
G01*
X153570738Y-124702000D01*
G75*
G02*
X153299000Y-124430262I0J271738D01*
G01*
X153299000Y-123473738D01*
G75*
G02*
X153570738Y-123202000I271738J0D01*
G01*
X154277262Y-123202000D01*
G75*
G02*
X154549000Y-123473738I0J-271738D01*
G01*
G37*
G36*
G01*
X152499000Y-123473738D02*
X152499000Y-124430262D01*
G75*
G02*
X152227262Y-124702000I-271738J0D01*
G01*
X151520738Y-124702000D01*
G75*
G02*
X151249000Y-124430262I0J271738D01*
G01*
X151249000Y-123473738D01*
G75*
G02*
X151520738Y-123202000I271738J0D01*
G01*
X152227262Y-123202000D01*
G75*
G02*
X152499000Y-123473738I0J-271738D01*
G01*
G37*
%TD*%
%TO.C,C27*%
G36*
G01*
X176168000Y-124430262D02*
X176168000Y-123473738D01*
G75*
G02*
X176439738Y-123202000I271738J0D01*
G01*
X177146262Y-123202000D01*
G75*
G02*
X177418000Y-123473738I0J-271738D01*
G01*
X177418000Y-124430262D01*
G75*
G02*
X177146262Y-124702000I-271738J0D01*
G01*
X176439738Y-124702000D01*
G75*
G02*
X176168000Y-124430262I0J271738D01*
G01*
G37*
G36*
G01*
X174118000Y-124430262D02*
X174118000Y-123473738D01*
G75*
G02*
X174389738Y-123202000I271738J0D01*
G01*
X175096262Y-123202000D01*
G75*
G02*
X175368000Y-123473738I0J-271738D01*
G01*
X175368000Y-124430262D01*
G75*
G02*
X175096262Y-124702000I-271738J0D01*
G01*
X174389738Y-124702000D01*
G75*
G02*
X174118000Y-124430262I0J271738D01*
G01*
G37*
%TD*%
%TO.C,C28*%
G36*
G01*
X181482000Y-123473738D02*
X181482000Y-124430262D01*
G75*
G02*
X181210262Y-124702000I-271738J0D01*
G01*
X180503738Y-124702000D01*
G75*
G02*
X180232000Y-124430262I0J271738D01*
G01*
X180232000Y-123473738D01*
G75*
G02*
X180503738Y-123202000I271738J0D01*
G01*
X181210262Y-123202000D01*
G75*
G02*
X181482000Y-123473738I0J-271738D01*
G01*
G37*
G36*
G01*
X179432000Y-123473738D02*
X179432000Y-124430262D01*
G75*
G02*
X179160262Y-124702000I-271738J0D01*
G01*
X178453738Y-124702000D01*
G75*
G02*
X178182000Y-124430262I0J271738D01*
G01*
X178182000Y-123473738D01*
G75*
G02*
X178453738Y-123202000I271738J0D01*
G01*
X179160262Y-123202000D01*
G75*
G02*
X179432000Y-123473738I0J-271738D01*
G01*
G37*
%TD*%
%TO.C,C29*%
G36*
G01*
X149244000Y-150846262D02*
X149244000Y-149889738D01*
G75*
G02*
X149515738Y-149618000I271738J0D01*
G01*
X150222262Y-149618000D01*
G75*
G02*
X150494000Y-149889738I0J-271738D01*
G01*
X150494000Y-150846262D01*
G75*
G02*
X150222262Y-151118000I-271738J0D01*
G01*
X149515738Y-151118000D01*
G75*
G02*
X149244000Y-150846262I0J271738D01*
G01*
G37*
G36*
G01*
X147194000Y-150846262D02*
X147194000Y-149889738D01*
G75*
G02*
X147465738Y-149618000I271738J0D01*
G01*
X148172262Y-149618000D01*
G75*
G02*
X148444000Y-149889738I0J-271738D01*
G01*
X148444000Y-150846262D01*
G75*
G02*
X148172262Y-151118000I-271738J0D01*
G01*
X147465738Y-151118000D01*
G75*
G02*
X147194000Y-150846262I0J271738D01*
G01*
G37*
%TD*%
%TO.C,C30*%
G36*
G01*
X154558000Y-149889738D02*
X154558000Y-150846262D01*
G75*
G02*
X154286262Y-151118000I-271738J0D01*
G01*
X153579738Y-151118000D01*
G75*
G02*
X153308000Y-150846262I0J271738D01*
G01*
X153308000Y-149889738D01*
G75*
G02*
X153579738Y-149618000I271738J0D01*
G01*
X154286262Y-149618000D01*
G75*
G02*
X154558000Y-149889738I0J-271738D01*
G01*
G37*
G36*
G01*
X152508000Y-149889738D02*
X152508000Y-150846262D01*
G75*
G02*
X152236262Y-151118000I-271738J0D01*
G01*
X151529738Y-151118000D01*
G75*
G02*
X151258000Y-150846262I0J271738D01*
G01*
X151258000Y-149889738D01*
G75*
G02*
X151529738Y-149618000I271738J0D01*
G01*
X152236262Y-149618000D01*
G75*
G02*
X152508000Y-149889738I0J-271738D01*
G01*
G37*
%TD*%
%TO.C,C31*%
G36*
G01*
X175914000Y-150846262D02*
X175914000Y-149889738D01*
G75*
G02*
X176185738Y-149618000I271738J0D01*
G01*
X176892262Y-149618000D01*
G75*
G02*
X177164000Y-149889738I0J-271738D01*
G01*
X177164000Y-150846262D01*
G75*
G02*
X176892262Y-151118000I-271738J0D01*
G01*
X176185738Y-151118000D01*
G75*
G02*
X175914000Y-150846262I0J271738D01*
G01*
G37*
G36*
G01*
X173864000Y-150846262D02*
X173864000Y-149889738D01*
G75*
G02*
X174135738Y-149618000I271738J0D01*
G01*
X174842262Y-149618000D01*
G75*
G02*
X175114000Y-149889738I0J-271738D01*
G01*
X175114000Y-150846262D01*
G75*
G02*
X174842262Y-151118000I-271738J0D01*
G01*
X174135738Y-151118000D01*
G75*
G02*
X173864000Y-150846262I0J271738D01*
G01*
G37*
%TD*%
%TO.C,C32*%
G36*
G01*
X181482000Y-149889738D02*
X181482000Y-150846262D01*
G75*
G02*
X181210262Y-151118000I-271738J0D01*
G01*
X180503738Y-151118000D01*
G75*
G02*
X180232000Y-150846262I0J271738D01*
G01*
X180232000Y-149889738D01*
G75*
G02*
X180503738Y-149618000I271738J0D01*
G01*
X181210262Y-149618000D01*
G75*
G02*
X181482000Y-149889738I0J-271738D01*
G01*
G37*
G36*
G01*
X179432000Y-149889738D02*
X179432000Y-150846262D01*
G75*
G02*
X179160262Y-151118000I-271738J0D01*
G01*
X178453738Y-151118000D01*
G75*
G02*
X178182000Y-150846262I0J271738D01*
G01*
X178182000Y-149889738D01*
G75*
G02*
X178453738Y-149618000I271738J0D01*
G01*
X179160262Y-149618000D01*
G75*
G02*
X179432000Y-149889738I0J-271738D01*
G01*
G37*
%TD*%
%TO.C,C41*%
G36*
G01*
X181239000Y-202154262D02*
X181239000Y-201197738D01*
G75*
G02*
X181510738Y-200926000I271738J0D01*
G01*
X182217262Y-200926000D01*
G75*
G02*
X182489000Y-201197738I0J-271738D01*
G01*
X182489000Y-202154262D01*
G75*
G02*
X182217262Y-202426000I-271738J0D01*
G01*
X181510738Y-202426000D01*
G75*
G02*
X181239000Y-202154262I0J271738D01*
G01*
G37*
G36*
G01*
X179189000Y-202154262D02*
X179189000Y-201197738D01*
G75*
G02*
X179460738Y-200926000I271738J0D01*
G01*
X180167262Y-200926000D01*
G75*
G02*
X180439000Y-201197738I0J-271738D01*
G01*
X180439000Y-202154262D01*
G75*
G02*
X180167262Y-202426000I-271738J0D01*
G01*
X179460738Y-202426000D01*
G75*
G02*
X179189000Y-202154262I0J271738D01*
G01*
G37*
%TD*%
D12*
%TO.C,D1*%
X225425000Y-219837000D03*
D13*
X227965000Y-219837000D03*
%TD*%
D14*
%TO.C,D5*%
X220361000Y-82931000D03*
X222361000Y-83881000D03*
X222361000Y-81981000D03*
%TD*%
%TO.C,D6*%
X230378000Y-82108000D03*
X230378000Y-84008000D03*
X228378000Y-83058000D03*
%TD*%
D15*
%TO.C,J1*%
X266827000Y-101854000D03*
D16*
X269367000Y-101854000D03*
X271907000Y-101854000D03*
X274447000Y-101854000D03*
X276987000Y-101854000D03*
X279527000Y-101854000D03*
%TD*%
D17*
%TO.C,J2*%
X280207000Y-222005000D03*
D18*
X276007000Y-222005000D03*
X271807000Y-222005000D03*
X267607000Y-222005000D03*
X263407000Y-222005000D03*
X259207000Y-222005000D03*
X255007000Y-222005000D03*
X250807000Y-222005000D03*
X246607000Y-222005000D03*
X242407000Y-222005000D03*
X238207000Y-222005000D03*
X234007000Y-222005000D03*
X280207000Y-217805000D03*
X276007000Y-217805000D03*
X271807000Y-217805000D03*
X267607000Y-217805000D03*
X263407000Y-217805000D03*
X259207000Y-217805000D03*
X255007000Y-217805000D03*
X250807000Y-217805000D03*
X246607000Y-217805000D03*
X242407000Y-217805000D03*
X238207000Y-217805000D03*
X234007000Y-217805000D03*
%TD*%
D15*
%TO.C,J3*%
X199517000Y-218821000D03*
D16*
X199517000Y-221361000D03*
%TD*%
D15*
%TO.C,J4*%
X195961000Y-218821000D03*
D16*
X195961000Y-221361000D03*
%TD*%
D15*
%TO.C,J5*%
X213614000Y-88265000D03*
D16*
X213614000Y-90805000D03*
X213614000Y-93345000D03*
%TD*%
%TO.C,J6*%
X192405000Y-221361000D03*
D15*
X192405000Y-218821000D03*
%TD*%
D19*
%TO.C,J7*%
X243556000Y-65776000D03*
D20*
X246156000Y-65776000D03*
X241456000Y-65776000D03*
X248256000Y-65776000D03*
X241456000Y-68276000D03*
X248256000Y-68276000D03*
D19*
X243556000Y-72776000D03*
D20*
X246156000Y-72776000D03*
X241456000Y-72776000D03*
X248256000Y-72776000D03*
X241456000Y-75276000D03*
X248256000Y-75276000D03*
D21*
X251606000Y-62776000D03*
X244856000Y-61976000D03*
X238106000Y-62776000D03*
X251606000Y-72776000D03*
X238106000Y-72776000D03*
%TD*%
D15*
%TO.C,J8*%
X209931000Y-218821000D03*
D16*
X209931000Y-221361000D03*
%TD*%
%TO.C,J9*%
X206375000Y-221361000D03*
D15*
X206375000Y-218821000D03*
%TD*%
D16*
%TO.C,J10*%
X173736000Y-85598000D03*
X173736000Y-83058000D03*
D15*
X173736000Y-80518000D03*
%TD*%
D22*
%TO.C,J11*%
X164656000Y-199503000D03*
X144656000Y-199503000D03*
%TD*%
D16*
%TO.C,J12*%
X194564000Y-92075000D03*
D15*
X194564000Y-89535000D03*
%TD*%
D13*
%TO.C,J13*%
X266010000Y-72028000D03*
X274320000Y-72028000D03*
X271550000Y-72028000D03*
X268780000Y-72028000D03*
X264625000Y-74868000D03*
X267395000Y-74868000D03*
X275705000Y-74868000D03*
X272935000Y-74868000D03*
X266010000Y-65278000D03*
X274320000Y-65278000D03*
X271550000Y-65278000D03*
X268780000Y-65278000D03*
X264625000Y-68118000D03*
X267395000Y-68118000D03*
X275705000Y-68118000D03*
X272935000Y-68118000D03*
X270165000Y-74868000D03*
X270165000Y-68118000D03*
D23*
X257675000Y-73278000D03*
X257675000Y-65278000D03*
X282655000Y-65278000D03*
X282655000Y-73278000D03*
%TD*%
D24*
%TO.C,J14*%
X165862000Y-70358000D03*
D25*
X167232000Y-67818000D03*
X168602000Y-70358000D03*
X169972000Y-67818000D03*
X171342000Y-70358000D03*
X172712000Y-67818000D03*
X174082000Y-70358000D03*
X175452000Y-67818000D03*
X176822000Y-70358000D03*
D26*
X158847000Y-69088000D03*
X183837000Y-69088000D03*
%TD*%
D27*
%TO.C,J15*%
X195326000Y-60396000D03*
X195326000Y-67396000D03*
%TD*%
D28*
%TO.C,J16*%
X214066000Y-71374000D03*
D29*
X216356000Y-71374000D03*
X218646000Y-71374000D03*
X220936000Y-71374000D03*
X223226000Y-71374000D03*
X212921000Y-68834000D03*
X215211000Y-68834000D03*
X217501000Y-68834000D03*
X219791000Y-68834000D03*
X222081000Y-68834000D03*
X214066000Y-66294000D03*
X216356000Y-66294000D03*
X218646000Y-66294000D03*
X220936000Y-66294000D03*
X223226000Y-66294000D03*
D30*
X205896000Y-68834000D03*
X230886000Y-68834000D03*
%TD*%
%TO.C,R7*%
G36*
G01*
X220495241Y-125494124D02*
X219818876Y-124817760D01*
G75*
G02*
X219818876Y-124433464I192148J192148D01*
G01*
X220318464Y-123933876D01*
G75*
G02*
X220702760Y-123933876I192148J-192148D01*
G01*
X221379124Y-124610240D01*
G75*
G02*
X221379124Y-124994536I-192148J-192148D01*
G01*
X220879536Y-125494124D01*
G75*
G02*
X220495240Y-125494124I-192148J192148D01*
G01*
G37*
G36*
G01*
X219045673Y-126943692D02*
X218369308Y-126267328D01*
G75*
G02*
X218369308Y-125883032I192148J192148D01*
G01*
X218868896Y-125383444D01*
G75*
G02*
X219253192Y-125383444I192148J-192148D01*
G01*
X219929556Y-126059808D01*
G75*
G02*
X219929556Y-126444104I-192148J-192148D01*
G01*
X219429968Y-126943692D01*
G75*
G02*
X219045672Y-126943692I-192148J192148D01*
G01*
G37*
%TD*%
%TO.C,R24*%
G36*
G01*
X174000000Y-212314262D02*
X174000000Y-211357738D01*
G75*
G02*
X174271738Y-211086000I271738J0D01*
G01*
X174978262Y-211086000D01*
G75*
G02*
X175250000Y-211357738I0J-271738D01*
G01*
X175250000Y-212314262D01*
G75*
G02*
X174978262Y-212586000I-271738J0D01*
G01*
X174271738Y-212586000D01*
G75*
G02*
X174000000Y-212314262I0J271738D01*
G01*
G37*
G36*
G01*
X171950000Y-212314262D02*
X171950000Y-211357738D01*
G75*
G02*
X172221738Y-211086000I271738J0D01*
G01*
X172928262Y-211086000D01*
G75*
G02*
X173200000Y-211357738I0J-271738D01*
G01*
X173200000Y-212314262D01*
G75*
G02*
X172928262Y-212586000I-271738J0D01*
G01*
X172221738Y-212586000D01*
G75*
G02*
X171950000Y-212314262I0J271738D01*
G01*
G37*
%TD*%
%TO.C,R29*%
G36*
G01*
X151989262Y-200015000D02*
X151032738Y-200015000D01*
G75*
G02*
X150761000Y-199743262I0J271738D01*
G01*
X150761000Y-199036738D01*
G75*
G02*
X151032738Y-198765000I271738J0D01*
G01*
X151989262Y-198765000D01*
G75*
G02*
X152261000Y-199036738I0J-271738D01*
G01*
X152261000Y-199743262D01*
G75*
G02*
X151989262Y-200015000I-271738J0D01*
G01*
G37*
G36*
G01*
X151989262Y-202065000D02*
X151032738Y-202065000D01*
G75*
G02*
X150761000Y-201793262I0J271738D01*
G01*
X150761000Y-201086738D01*
G75*
G02*
X151032738Y-200815000I271738J0D01*
G01*
X151989262Y-200815000D01*
G75*
G02*
X152261000Y-201086738I0J-271738D01*
G01*
X152261000Y-201793262D01*
G75*
G02*
X151989262Y-202065000I-271738J0D01*
G01*
G37*
%TD*%
%TO.C,R30*%
G36*
G01*
X162022262Y-204841000D02*
X161065738Y-204841000D01*
G75*
G02*
X160794000Y-204569262I0J271738D01*
G01*
X160794000Y-203862738D01*
G75*
G02*
X161065738Y-203591000I271738J0D01*
G01*
X162022262Y-203591000D01*
G75*
G02*
X162294000Y-203862738I0J-271738D01*
G01*
X162294000Y-204569262D01*
G75*
G02*
X162022262Y-204841000I-271738J0D01*
G01*
G37*
G36*
G01*
X162022262Y-206891000D02*
X161065738Y-206891000D01*
G75*
G02*
X160794000Y-206619262I0J271738D01*
G01*
X160794000Y-205912738D01*
G75*
G02*
X161065738Y-205641000I271738J0D01*
G01*
X162022262Y-205641000D01*
G75*
G02*
X162294000Y-205912738I0J-271738D01*
G01*
X162294000Y-206619262D01*
G75*
G02*
X162022262Y-206891000I-271738J0D01*
G01*
G37*
%TD*%
%TO.C,R31*%
G36*
G01*
X159482262Y-206873000D02*
X158525738Y-206873000D01*
G75*
G02*
X158254000Y-206601262I0J271738D01*
G01*
X158254000Y-205894738D01*
G75*
G02*
X158525738Y-205623000I271738J0D01*
G01*
X159482262Y-205623000D01*
G75*
G02*
X159754000Y-205894738I0J-271738D01*
G01*
X159754000Y-206601262D01*
G75*
G02*
X159482262Y-206873000I-271738J0D01*
G01*
G37*
G36*
G01*
X159482262Y-204823000D02*
X158525738Y-204823000D01*
G75*
G02*
X158254000Y-204551262I0J271738D01*
G01*
X158254000Y-203844738D01*
G75*
G02*
X158525738Y-203573000I271738J0D01*
G01*
X159482262Y-203573000D01*
G75*
G02*
X159754000Y-203844738I0J-271738D01*
G01*
X159754000Y-204551262D01*
G75*
G02*
X159482262Y-204823000I-271738J0D01*
G01*
G37*
%TD*%
%TO.C,R32*%
G36*
G01*
X151989262Y-206873000D02*
X151032738Y-206873000D01*
G75*
G02*
X150761000Y-206601262I0J271738D01*
G01*
X150761000Y-205894738D01*
G75*
G02*
X151032738Y-205623000I271738J0D01*
G01*
X151989262Y-205623000D01*
G75*
G02*
X152261000Y-205894738I0J-271738D01*
G01*
X152261000Y-206601262D01*
G75*
G02*
X151989262Y-206873000I-271738J0D01*
G01*
G37*
G36*
G01*
X151989262Y-204823000D02*
X151032738Y-204823000D01*
G75*
G02*
X150761000Y-204551262I0J271738D01*
G01*
X150761000Y-203844738D01*
G75*
G02*
X151032738Y-203573000I271738J0D01*
G01*
X151989262Y-203573000D01*
G75*
G02*
X152261000Y-203844738I0J-271738D01*
G01*
X152261000Y-204551262D01*
G75*
G02*
X151989262Y-204823000I-271738J0D01*
G01*
G37*
%TD*%
%TO.C,R33*%
G36*
G01*
X147036262Y-206891000D02*
X146079738Y-206891000D01*
G75*
G02*
X145808000Y-206619262I0J271738D01*
G01*
X145808000Y-205912738D01*
G75*
G02*
X146079738Y-205641000I271738J0D01*
G01*
X147036262Y-205641000D01*
G75*
G02*
X147308000Y-205912738I0J-271738D01*
G01*
X147308000Y-206619262D01*
G75*
G02*
X147036262Y-206891000I-271738J0D01*
G01*
G37*
G36*
G01*
X147036262Y-204841000D02*
X146079738Y-204841000D01*
G75*
G02*
X145808000Y-204569262I0J271738D01*
G01*
X145808000Y-203862738D01*
G75*
G02*
X146079738Y-203591000I271738J0D01*
G01*
X147036262Y-203591000D01*
G75*
G02*
X147308000Y-203862738I0J-271738D01*
G01*
X147308000Y-204569262D01*
G75*
G02*
X147036262Y-204841000I-271738J0D01*
G01*
G37*
%TD*%
%TO.C,R63*%
G36*
G01*
X218568000Y-60295262D02*
X218568000Y-59338738D01*
G75*
G02*
X218839738Y-59067000I271738J0D01*
G01*
X219546262Y-59067000D01*
G75*
G02*
X219818000Y-59338738I0J-271738D01*
G01*
X219818000Y-60295262D01*
G75*
G02*
X219546262Y-60567000I-271738J0D01*
G01*
X218839738Y-60567000D01*
G75*
G02*
X218568000Y-60295262I0J271738D01*
G01*
G37*
G36*
G01*
X220618000Y-60295262D02*
X220618000Y-59338738D01*
G75*
G02*
X220889738Y-59067000I271738J0D01*
G01*
X221596262Y-59067000D01*
G75*
G02*
X221868000Y-59338738I0J-271738D01*
G01*
X221868000Y-60295262D01*
G75*
G02*
X221596262Y-60567000I-271738J0D01*
G01*
X220889738Y-60567000D01*
G75*
G02*
X220618000Y-60295262I0J271738D01*
G01*
G37*
%TD*%
%TO.C,R64*%
G36*
G01*
X218918262Y-85606000D02*
X217961738Y-85606000D01*
G75*
G02*
X217690000Y-85334262I0J271738D01*
G01*
X217690000Y-84627738D01*
G75*
G02*
X217961738Y-84356000I271738J0D01*
G01*
X218918262Y-84356000D01*
G75*
G02*
X219190000Y-84627738I0J-271738D01*
G01*
X219190000Y-85334262D01*
G75*
G02*
X218918262Y-85606000I-271738J0D01*
G01*
G37*
G36*
G01*
X218918262Y-83556000D02*
X217961738Y-83556000D01*
G75*
G02*
X217690000Y-83284262I0J271738D01*
G01*
X217690000Y-82577738D01*
G75*
G02*
X217961738Y-82306000I271738J0D01*
G01*
X218918262Y-82306000D01*
G75*
G02*
X219190000Y-82577738I0J-271738D01*
G01*
X219190000Y-83284262D01*
G75*
G02*
X218918262Y-83556000I-271738J0D01*
G01*
G37*
%TD*%
%TO.C,R65*%
G36*
G01*
X226792262Y-83665000D02*
X225835738Y-83665000D01*
G75*
G02*
X225564000Y-83393262I0J271738D01*
G01*
X225564000Y-82686738D01*
G75*
G02*
X225835738Y-82415000I271738J0D01*
G01*
X226792262Y-82415000D01*
G75*
G02*
X227064000Y-82686738I0J-271738D01*
G01*
X227064000Y-83393262D01*
G75*
G02*
X226792262Y-83665000I-271738J0D01*
G01*
G37*
G36*
G01*
X226792262Y-85715000D02*
X225835738Y-85715000D01*
G75*
G02*
X225564000Y-85443262I0J271738D01*
G01*
X225564000Y-84736738D01*
G75*
G02*
X225835738Y-84465000I271738J0D01*
G01*
X226792262Y-84465000D01*
G75*
G02*
X227064000Y-84736738I0J-271738D01*
G01*
X227064000Y-85443262D01*
G75*
G02*
X226792262Y-85715000I-271738J0D01*
G01*
G37*
%TD*%
D25*
%TO.C,S1*%
X208606000Y-212979000D03*
X208606000Y-206479000D03*
X213106000Y-212979000D03*
X213106000Y-206479000D03*
%TD*%
%TO.C,S2*%
X206248000Y-206479000D03*
X206248000Y-212979000D03*
X201748000Y-206479000D03*
X201748000Y-212979000D03*
%TD*%
D31*
%TO.C,IC7*%
X184531000Y-221996000D03*
D32*
X176911000Y-188976000D03*
X184531000Y-219456000D03*
X176911000Y-191516000D03*
X184531000Y-216916000D03*
X176911000Y-194056000D03*
X184531000Y-214376000D03*
X176911000Y-196596000D03*
X184531000Y-211836000D03*
X176911000Y-199136000D03*
X184531000Y-209296000D03*
X176911000Y-201676000D03*
X184531000Y-206756000D03*
X176911000Y-204216000D03*
X184531000Y-204216000D03*
X176911000Y-206756000D03*
X184531000Y-201676000D03*
X176911000Y-209296000D03*
X184531000Y-199136000D03*
X176911000Y-211836000D03*
X184531000Y-196596000D03*
X176911000Y-214376000D03*
X184531000Y-194056000D03*
X176911000Y-216916000D03*
X184531000Y-191516000D03*
X176911000Y-219456000D03*
X184531000Y-188976000D03*
X176911000Y-221996000D03*
%TD*%
D15*
%TO.C,J17*%
X280289000Y-206121000D03*
D16*
X280289000Y-208661000D03*
%TD*%
D31*
%TO.C,U2*%
X260604000Y-116332000D03*
D32*
X283464000Y-195072000D03*
X260604000Y-118872000D03*
X283464000Y-192532000D03*
X260604000Y-121412000D03*
X283464000Y-189992000D03*
X260604000Y-123952000D03*
X283464000Y-187452000D03*
X260604000Y-126492000D03*
X283464000Y-184912000D03*
X260604000Y-129032000D03*
X283464000Y-182372000D03*
X260604000Y-131572000D03*
X283464000Y-179832000D03*
X260604000Y-134112000D03*
X283464000Y-177292000D03*
X260604000Y-136652000D03*
X283464000Y-174752000D03*
X260604000Y-139192000D03*
X283464000Y-172212000D03*
X260604000Y-141732000D03*
X283464000Y-169672000D03*
X260604000Y-144272000D03*
X283464000Y-167132000D03*
X260604000Y-146812000D03*
X283464000Y-164592000D03*
X260604000Y-149352000D03*
X283464000Y-162052000D03*
X260604000Y-151892000D03*
X283464000Y-159512000D03*
X260604000Y-154432000D03*
X283464000Y-156972000D03*
X260604000Y-156972000D03*
X283464000Y-154432000D03*
X260604000Y-159512000D03*
X283464000Y-151892000D03*
X260604000Y-162052000D03*
X283464000Y-149352000D03*
X260604000Y-164592000D03*
X283464000Y-146812000D03*
X260604000Y-167132000D03*
X283464000Y-144272000D03*
X260604000Y-169672000D03*
X283464000Y-141732000D03*
X260604000Y-172212000D03*
X283464000Y-139192000D03*
X260604000Y-174752000D03*
X283464000Y-136652000D03*
X260604000Y-177292000D03*
X283464000Y-134112000D03*
X260604000Y-179832000D03*
X283464000Y-131572000D03*
X260604000Y-182372000D03*
X283464000Y-129032000D03*
X260604000Y-184912000D03*
X283464000Y-126492000D03*
X260604000Y-187452000D03*
X283464000Y-123952000D03*
X260604000Y-189992000D03*
X283464000Y-121412000D03*
X260604000Y-192532000D03*
X283464000Y-118872000D03*
X260604000Y-195072000D03*
X283464000Y-116332000D03*
%TD*%
M02*
