%TF.GenerationSoftware,KiCad,Pcbnew,(5.1.6)-1*%
%TF.CreationDate,2023-05-03T11:12:57-04:00*%
%TF.ProjectId,MigStorm-ITX,4d696753-746f-4726-9d2d-4954582e6b69,rev?*%
%TF.SameCoordinates,Original*%
%TF.FileFunction,Paste,Top*%
%TF.FilePolarity,Positive*%
%FSLAX46Y46*%
G04 Gerber Fmt 4.6, Leading zero omitted, Abs format (unit mm)*
G04 Created by KiCad (PCBNEW (5.1.6)-1) date 2023-05-03 11:12:57*
%MOMM*%
%LPD*%
G01*
G04 APERTURE LIST*
%ADD10R,1.600000X3.500000*%
%ADD11R,0.900000X0.800000*%
%ADD12R,1.825000X0.700000*%
%ADD13R,0.600000X1.200000*%
%ADD14R,1.475000X0.300000*%
%ADD15R,1.100000X2.500000*%
%ADD16R,1.700000X2.300000*%
%ADD17R,2.800000X1.700000*%
%ADD18R,3.300000X1.700000*%
%ADD19R,2.500000X2.600000*%
%ADD20R,2.800000X2.200000*%
%ADD21R,2.600000X2.800000*%
%ADD22C,0.100000*%
%ADD23R,1.295000X0.600000*%
%ADD24R,5.500000X2.000000*%
%ADD25R,2.000000X4.500000*%
%ADD26R,4.250000X2.050000*%
%ADD27R,3.150000X1.800000*%
%ADD28R,1.050000X0.550000*%
G04 APERTURE END LIST*
%TO.C,C1*%
G36*
G01*
X240725000Y-171519001D02*
X240725000Y-170618999D01*
G75*
G02*
X240974999Y-170369000I249999J0D01*
G01*
X241625001Y-170369000D01*
G75*
G02*
X241875000Y-170618999I0J-249999D01*
G01*
X241875000Y-171519001D01*
G75*
G02*
X241625001Y-171769000I-249999J0D01*
G01*
X240974999Y-171769000D01*
G75*
G02*
X240725000Y-171519001I0J249999D01*
G01*
G37*
G36*
G01*
X238675000Y-171519001D02*
X238675000Y-170618999D01*
G75*
G02*
X238924999Y-170369000I249999J0D01*
G01*
X239575001Y-170369000D01*
G75*
G02*
X239825000Y-170618999I0J-249999D01*
G01*
X239825000Y-171519001D01*
G75*
G02*
X239575001Y-171769000I-249999J0D01*
G01*
X238924999Y-171769000D01*
G75*
G02*
X238675000Y-171519001I0J249999D01*
G01*
G37*
%TD*%
%TO.C,C2*%
G36*
G01*
X234248000Y-171519001D02*
X234248000Y-170618999D01*
G75*
G02*
X234497999Y-170369000I249999J0D01*
G01*
X235148001Y-170369000D01*
G75*
G02*
X235398000Y-170618999I0J-249999D01*
G01*
X235398000Y-171519001D01*
G75*
G02*
X235148001Y-171769000I-249999J0D01*
G01*
X234497999Y-171769000D01*
G75*
G02*
X234248000Y-171519001I0J249999D01*
G01*
G37*
G36*
G01*
X232198000Y-171519001D02*
X232198000Y-170618999D01*
G75*
G02*
X232447999Y-170369000I249999J0D01*
G01*
X233098001Y-170369000D01*
G75*
G02*
X233348000Y-170618999I0J-249999D01*
G01*
X233348000Y-171519001D01*
G75*
G02*
X233098001Y-171769000I-249999J0D01*
G01*
X232447999Y-171769000D01*
G75*
G02*
X232198000Y-171519001I0J249999D01*
G01*
G37*
%TD*%
%TO.C,C4*%
G36*
G01*
X238802000Y-162883001D02*
X238802000Y-161982999D01*
G75*
G02*
X239051999Y-161733000I249999J0D01*
G01*
X239702001Y-161733000D01*
G75*
G02*
X239952000Y-161982999I0J-249999D01*
G01*
X239952000Y-162883001D01*
G75*
G02*
X239702001Y-163133000I-249999J0D01*
G01*
X239051999Y-163133000D01*
G75*
G02*
X238802000Y-162883001I0J249999D01*
G01*
G37*
G36*
G01*
X240852000Y-162883001D02*
X240852000Y-161982999D01*
G75*
G02*
X241101999Y-161733000I249999J0D01*
G01*
X241752001Y-161733000D01*
G75*
G02*
X242002000Y-161982999I0J-249999D01*
G01*
X242002000Y-162883001D01*
G75*
G02*
X241752001Y-163133000I-249999J0D01*
G01*
X241101999Y-163133000D01*
G75*
G02*
X240852000Y-162883001I0J249999D01*
G01*
G37*
%TD*%
%TO.C,C5*%
G36*
G01*
X232325000Y-162883001D02*
X232325000Y-161982999D01*
G75*
G02*
X232574999Y-161733000I249999J0D01*
G01*
X233225001Y-161733000D01*
G75*
G02*
X233475000Y-161982999I0J-249999D01*
G01*
X233475000Y-162883001D01*
G75*
G02*
X233225001Y-163133000I-249999J0D01*
G01*
X232574999Y-163133000D01*
G75*
G02*
X232325000Y-162883001I0J249999D01*
G01*
G37*
G36*
G01*
X234375000Y-162883001D02*
X234375000Y-161982999D01*
G75*
G02*
X234624999Y-161733000I249999J0D01*
G01*
X235275001Y-161733000D01*
G75*
G02*
X235525000Y-161982999I0J-249999D01*
G01*
X235525000Y-162883001D01*
G75*
G02*
X235275001Y-163133000I-249999J0D01*
G01*
X234624999Y-163133000D01*
G75*
G02*
X234375000Y-162883001I0J249999D01*
G01*
G37*
%TD*%
%TO.C,C8*%
G36*
G01*
X227951044Y-158384353D02*
X227314647Y-157747956D01*
G75*
G02*
X227314647Y-157394404I176776J176776D01*
G01*
X227774268Y-156934783D01*
G75*
G02*
X228127820Y-156934783I176776J-176776D01*
G01*
X228764217Y-157571180D01*
G75*
G02*
X228764217Y-157924732I-176776J-176776D01*
G01*
X228304596Y-158384353D01*
G75*
G02*
X227951044Y-158384353I-176776J176776D01*
G01*
G37*
G36*
G01*
X229400612Y-156934785D02*
X228764215Y-156298388D01*
G75*
G02*
X228764215Y-155944836I176776J176776D01*
G01*
X229223836Y-155485215D01*
G75*
G02*
X229577388Y-155485215I176776J-176776D01*
G01*
X230213785Y-156121612D01*
G75*
G02*
X230213785Y-156475164I-176776J-176776D01*
G01*
X229754164Y-156934785D01*
G75*
G02*
X229400612Y-156934785I-176776J176776D01*
G01*
G37*
%TD*%
%TO.C,C9*%
G36*
G01*
X221539172Y-159713431D02*
X222175569Y-160349828D01*
G75*
G02*
X222175569Y-160703380I-176776J-176776D01*
G01*
X221715948Y-161163001D01*
G75*
G02*
X221362396Y-161163001I-176776J176776D01*
G01*
X220725999Y-160526604D01*
G75*
G02*
X220725999Y-160173052I176776J176776D01*
G01*
X221185620Y-159713431D01*
G75*
G02*
X221539172Y-159713431I176776J-176776D01*
G01*
G37*
G36*
G01*
X220089604Y-161162999D02*
X220726001Y-161799396D01*
G75*
G02*
X220726001Y-162152948I-176776J-176776D01*
G01*
X220266380Y-162612569D01*
G75*
G02*
X219912828Y-162612569I-176776J176776D01*
G01*
X219276431Y-161976172D01*
G75*
G02*
X219276431Y-161622620I176776J176776D01*
G01*
X219736052Y-161162999D01*
G75*
G02*
X220089604Y-161162999I176776J-176776D01*
G01*
G37*
%TD*%
%TO.C,C33*%
G36*
G01*
X204657000Y-195776001D02*
X204657000Y-194875999D01*
G75*
G02*
X204906999Y-194626000I249999J0D01*
G01*
X205557001Y-194626000D01*
G75*
G02*
X205807000Y-194875999I0J-249999D01*
G01*
X205807000Y-195776001D01*
G75*
G02*
X205557001Y-196026000I-249999J0D01*
G01*
X204906999Y-196026000D01*
G75*
G02*
X204657000Y-195776001I0J249999D01*
G01*
G37*
G36*
G01*
X202607000Y-195776001D02*
X202607000Y-194875999D01*
G75*
G02*
X202856999Y-194626000I249999J0D01*
G01*
X203507001Y-194626000D01*
G75*
G02*
X203757000Y-194875999I0J-249999D01*
G01*
X203757000Y-195776001D01*
G75*
G02*
X203507001Y-196026000I-249999J0D01*
G01*
X202856999Y-196026000D01*
G75*
G02*
X202607000Y-195776001I0J249999D01*
G01*
G37*
%TD*%
%TO.C,C34*%
G36*
G01*
X191068000Y-195776001D02*
X191068000Y-194875999D01*
G75*
G02*
X191317999Y-194626000I249999J0D01*
G01*
X191968001Y-194626000D01*
G75*
G02*
X192218000Y-194875999I0J-249999D01*
G01*
X192218000Y-195776001D01*
G75*
G02*
X191968001Y-196026000I-249999J0D01*
G01*
X191317999Y-196026000D01*
G75*
G02*
X191068000Y-195776001I0J249999D01*
G01*
G37*
G36*
G01*
X193118000Y-195776001D02*
X193118000Y-194875999D01*
G75*
G02*
X193367999Y-194626000I249999J0D01*
G01*
X194018001Y-194626000D01*
G75*
G02*
X194268000Y-194875999I0J-249999D01*
G01*
X194268000Y-195776001D01*
G75*
G02*
X194018001Y-196026000I-249999J0D01*
G01*
X193367999Y-196026000D01*
G75*
G02*
X193118000Y-195776001I0J249999D01*
G01*
G37*
%TD*%
%TO.C,C36*%
G36*
G01*
X144466000Y-174047999D02*
X144466000Y-174948001D01*
G75*
G02*
X144216001Y-175198000I-249999J0D01*
G01*
X143565999Y-175198000D01*
G75*
G02*
X143316000Y-174948001I0J249999D01*
G01*
X143316000Y-174047999D01*
G75*
G02*
X143565999Y-173798000I249999J0D01*
G01*
X144216001Y-173798000D01*
G75*
G02*
X144466000Y-174047999I0J-249999D01*
G01*
G37*
G36*
G01*
X142416000Y-174047999D02*
X142416000Y-174948001D01*
G75*
G02*
X142166001Y-175198000I-249999J0D01*
G01*
X141515999Y-175198000D01*
G75*
G02*
X141266000Y-174948001I0J249999D01*
G01*
X141266000Y-174047999D01*
G75*
G02*
X141515999Y-173798000I249999J0D01*
G01*
X142166001Y-173798000D01*
G75*
G02*
X142416000Y-174047999I0J-249999D01*
G01*
G37*
%TD*%
%TO.C,C37*%
G36*
G01*
X133915999Y-171256000D02*
X134816001Y-171256000D01*
G75*
G02*
X135066000Y-171505999I0J-249999D01*
G01*
X135066000Y-172156001D01*
G75*
G02*
X134816001Y-172406000I-249999J0D01*
G01*
X133915999Y-172406000D01*
G75*
G02*
X133666000Y-172156001I0J249999D01*
G01*
X133666000Y-171505999D01*
G75*
G02*
X133915999Y-171256000I249999J0D01*
G01*
G37*
G36*
G01*
X133915999Y-173306000D02*
X134816001Y-173306000D01*
G75*
G02*
X135066000Y-173555999I0J-249999D01*
G01*
X135066000Y-174206001D01*
G75*
G02*
X134816001Y-174456000I-249999J0D01*
G01*
X133915999Y-174456000D01*
G75*
G02*
X133666000Y-174206001I0J249999D01*
G01*
X133666000Y-173555999D01*
G75*
G02*
X133915999Y-173306000I249999J0D01*
G01*
G37*
%TD*%
%TO.C,C39*%
G36*
G01*
X134816001Y-163788000D02*
X133915999Y-163788000D01*
G75*
G02*
X133666000Y-163538001I0J249999D01*
G01*
X133666000Y-162887999D01*
G75*
G02*
X133915999Y-162638000I249999J0D01*
G01*
X134816001Y-162638000D01*
G75*
G02*
X135066000Y-162887999I0J-249999D01*
G01*
X135066000Y-163538001D01*
G75*
G02*
X134816001Y-163788000I-249999J0D01*
G01*
G37*
G36*
G01*
X134816001Y-161738000D02*
X133915999Y-161738000D01*
G75*
G02*
X133666000Y-161488001I0J249999D01*
G01*
X133666000Y-160837999D01*
G75*
G02*
X133915999Y-160588000I249999J0D01*
G01*
X134816001Y-160588000D01*
G75*
G02*
X135066000Y-160837999I0J-249999D01*
G01*
X135066000Y-161488001D01*
G75*
G02*
X134816001Y-161738000I-249999J0D01*
G01*
G37*
%TD*%
%TO.C,C42*%
G36*
G01*
X156007000Y-92525001D02*
X156007000Y-91624999D01*
G75*
G02*
X156256999Y-91375000I249999J0D01*
G01*
X156907001Y-91375000D01*
G75*
G02*
X157157000Y-91624999I0J-249999D01*
G01*
X157157000Y-92525001D01*
G75*
G02*
X156907001Y-92775000I-249999J0D01*
G01*
X156256999Y-92775000D01*
G75*
G02*
X156007000Y-92525001I0J249999D01*
G01*
G37*
G36*
G01*
X158057000Y-92525001D02*
X158057000Y-91624999D01*
G75*
G02*
X158306999Y-91375000I249999J0D01*
G01*
X158957001Y-91375000D01*
G75*
G02*
X159207000Y-91624999I0J-249999D01*
G01*
X159207000Y-92525001D01*
G75*
G02*
X158957001Y-92775000I-249999J0D01*
G01*
X158306999Y-92775000D01*
G75*
G02*
X158057000Y-92525001I0J249999D01*
G01*
G37*
%TD*%
%TO.C,C43*%
G36*
G01*
X162121000Y-92525001D02*
X162121000Y-91624999D01*
G75*
G02*
X162370999Y-91375000I249999J0D01*
G01*
X163021001Y-91375000D01*
G75*
G02*
X163271000Y-91624999I0J-249999D01*
G01*
X163271000Y-92525001D01*
G75*
G02*
X163021001Y-92775000I-249999J0D01*
G01*
X162370999Y-92775000D01*
G75*
G02*
X162121000Y-92525001I0J249999D01*
G01*
G37*
G36*
G01*
X160071000Y-92525001D02*
X160071000Y-91624999D01*
G75*
G02*
X160320999Y-91375000I249999J0D01*
G01*
X160971001Y-91375000D01*
G75*
G02*
X161221000Y-91624999I0J-249999D01*
G01*
X161221000Y-92525001D01*
G75*
G02*
X160971001Y-92775000I-249999J0D01*
G01*
X160320999Y-92775000D01*
G75*
G02*
X160071000Y-92525001I0J249999D01*
G01*
G37*
%TD*%
%TO.C,C44*%
G36*
G01*
X153102000Y-80067999D02*
X153102000Y-80968001D01*
G75*
G02*
X152852001Y-81218000I-249999J0D01*
G01*
X152201999Y-81218000D01*
G75*
G02*
X151952000Y-80968001I0J249999D01*
G01*
X151952000Y-80067999D01*
G75*
G02*
X152201999Y-79818000I249999J0D01*
G01*
X152852001Y-79818000D01*
G75*
G02*
X153102000Y-80067999I0J-249999D01*
G01*
G37*
G36*
G01*
X155152000Y-80067999D02*
X155152000Y-80968001D01*
G75*
G02*
X154902001Y-81218000I-249999J0D01*
G01*
X154251999Y-81218000D01*
G75*
G02*
X154002000Y-80968001I0J249999D01*
G01*
X154002000Y-80067999D01*
G75*
G02*
X154251999Y-79818000I249999J0D01*
G01*
X154902001Y-79818000D01*
G75*
G02*
X155152000Y-80067999I0J-249999D01*
G01*
G37*
%TD*%
%TO.C,C45*%
G36*
G01*
X151934000Y-89223001D02*
X151934000Y-88322999D01*
G75*
G02*
X152183999Y-88073000I249999J0D01*
G01*
X152834001Y-88073000D01*
G75*
G02*
X153084000Y-88322999I0J-249999D01*
G01*
X153084000Y-89223001D01*
G75*
G02*
X152834001Y-89473000I-249999J0D01*
G01*
X152183999Y-89473000D01*
G75*
G02*
X151934000Y-89223001I0J249999D01*
G01*
G37*
G36*
G01*
X153984000Y-89223001D02*
X153984000Y-88322999D01*
G75*
G02*
X154233999Y-88073000I249999J0D01*
G01*
X154884001Y-88073000D01*
G75*
G02*
X155134000Y-88322999I0J-249999D01*
G01*
X155134000Y-89223001D01*
G75*
G02*
X154884001Y-89473000I-249999J0D01*
G01*
X154233999Y-89473000D01*
G75*
G02*
X153984000Y-89223001I0J249999D01*
G01*
G37*
%TD*%
%TO.C,C46*%
G36*
G01*
X190830000Y-95815999D02*
X190830000Y-96716001D01*
G75*
G02*
X190580001Y-96966000I-249999J0D01*
G01*
X189929999Y-96966000D01*
G75*
G02*
X189680000Y-96716001I0J249999D01*
G01*
X189680000Y-95815999D01*
G75*
G02*
X189929999Y-95566000I249999J0D01*
G01*
X190580001Y-95566000D01*
G75*
G02*
X190830000Y-95815999I0J-249999D01*
G01*
G37*
G36*
G01*
X188780000Y-95815999D02*
X188780000Y-96716001D01*
G75*
G02*
X188530001Y-96966000I-249999J0D01*
G01*
X187879999Y-96966000D01*
G75*
G02*
X187630000Y-96716001I0J249999D01*
G01*
X187630000Y-95815999D01*
G75*
G02*
X187879999Y-95566000I249999J0D01*
G01*
X188530001Y-95566000D01*
G75*
G02*
X188780000Y-95815999I0J-249999D01*
G01*
G37*
%TD*%
%TO.C,C47*%
G36*
G01*
X199566000Y-95815999D02*
X199566000Y-96716001D01*
G75*
G02*
X199316001Y-96966000I-249999J0D01*
G01*
X198665999Y-96966000D01*
G75*
G02*
X198416000Y-96716001I0J249999D01*
G01*
X198416000Y-95815999D01*
G75*
G02*
X198665999Y-95566000I249999J0D01*
G01*
X199316001Y-95566000D01*
G75*
G02*
X199566000Y-95815999I0J-249999D01*
G01*
G37*
G36*
G01*
X201616000Y-95815999D02*
X201616000Y-96716001D01*
G75*
G02*
X201366001Y-96966000I-249999J0D01*
G01*
X200715999Y-96966000D01*
G75*
G02*
X200466000Y-96716001I0J249999D01*
G01*
X200466000Y-95815999D01*
G75*
G02*
X200715999Y-95566000I249999J0D01*
G01*
X201366001Y-95566000D01*
G75*
G02*
X201616000Y-95815999I0J-249999D01*
G01*
G37*
%TD*%
%TO.C,C48*%
G36*
G01*
X165403000Y-88576999D02*
X165403000Y-89477001D01*
G75*
G02*
X165153001Y-89727000I-249999J0D01*
G01*
X164502999Y-89727000D01*
G75*
G02*
X164253000Y-89477001I0J249999D01*
G01*
X164253000Y-88576999D01*
G75*
G02*
X164502999Y-88327000I249999J0D01*
G01*
X165153001Y-88327000D01*
G75*
G02*
X165403000Y-88576999I0J-249999D01*
G01*
G37*
G36*
G01*
X167453000Y-88576999D02*
X167453000Y-89477001D01*
G75*
G02*
X167203001Y-89727000I-249999J0D01*
G01*
X166552999Y-89727000D01*
G75*
G02*
X166303000Y-89477001I0J249999D01*
G01*
X166303000Y-88576999D01*
G75*
G02*
X166552999Y-88327000I249999J0D01*
G01*
X167203001Y-88327000D01*
G75*
G02*
X167453000Y-88576999I0J-249999D01*
G01*
G37*
%TD*%
%TO.C,C49*%
G36*
G01*
X190821000Y-87433999D02*
X190821000Y-88334001D01*
G75*
G02*
X190571001Y-88584000I-249999J0D01*
G01*
X189920999Y-88584000D01*
G75*
G02*
X189671000Y-88334001I0J249999D01*
G01*
X189671000Y-87433999D01*
G75*
G02*
X189920999Y-87184000I249999J0D01*
G01*
X190571001Y-87184000D01*
G75*
G02*
X190821000Y-87433999I0J-249999D01*
G01*
G37*
G36*
G01*
X188771000Y-87433999D02*
X188771000Y-88334001D01*
G75*
G02*
X188521001Y-88584000I-249999J0D01*
G01*
X187870999Y-88584000D01*
G75*
G02*
X187621000Y-88334001I0J249999D01*
G01*
X187621000Y-87433999D01*
G75*
G02*
X187870999Y-87184000I249999J0D01*
G01*
X188521001Y-87184000D01*
G75*
G02*
X188771000Y-87433999I0J-249999D01*
G01*
G37*
%TD*%
%TO.C,C50*%
G36*
G01*
X199575000Y-87433999D02*
X199575000Y-88334001D01*
G75*
G02*
X199325001Y-88584000I-249999J0D01*
G01*
X198674999Y-88584000D01*
G75*
G02*
X198425000Y-88334001I0J249999D01*
G01*
X198425000Y-87433999D01*
G75*
G02*
X198674999Y-87184000I249999J0D01*
G01*
X199325001Y-87184000D01*
G75*
G02*
X199575000Y-87433999I0J-249999D01*
G01*
G37*
G36*
G01*
X201625000Y-87433999D02*
X201625000Y-88334001D01*
G75*
G02*
X201375001Y-88584000I-249999J0D01*
G01*
X200724999Y-88584000D01*
G75*
G02*
X200475000Y-88334001I0J249999D01*
G01*
X200475000Y-87433999D01*
G75*
G02*
X200724999Y-87184000I249999J0D01*
G01*
X201375001Y-87184000D01*
G75*
G02*
X201625000Y-87433999I0J-249999D01*
G01*
G37*
%TD*%
D10*
%TO.C,C51*%
X190246000Y-78105000D03*
X190246000Y-83705000D03*
%TD*%
%TO.C,C52*%
X199009000Y-83699000D03*
X199009000Y-78099000D03*
%TD*%
D11*
%TO.C,D2*%
X204597000Y-77663000D03*
X204597000Y-79563000D03*
X206597000Y-78613000D03*
%TD*%
%TO.C,D3*%
X218186000Y-86360000D03*
X216186000Y-87310000D03*
X216186000Y-85410000D03*
%TD*%
%TO.C,D4*%
X222393000Y-77663000D03*
X222393000Y-79563000D03*
X224393000Y-78613000D03*
%TD*%
D12*
%TO.C,IC1*%
X154057000Y-174498000D03*
X154057000Y-173228000D03*
X154057000Y-171958000D03*
X154057000Y-170688000D03*
X154057000Y-169418000D03*
X154057000Y-168148000D03*
X154057000Y-166878000D03*
X154057000Y-165608000D03*
X146933000Y-165608000D03*
X146933000Y-166878000D03*
X146933000Y-168148000D03*
X146933000Y-169418000D03*
X146933000Y-170688000D03*
X146933000Y-171958000D03*
X146933000Y-173228000D03*
X146933000Y-174498000D03*
%TD*%
D13*
%TO.C,IC2*%
X239334000Y-164739000D03*
X241234000Y-164739000D03*
X241234000Y-167239000D03*
X240284000Y-167239000D03*
X239334000Y-167239000D03*
%TD*%
%TO.C,IC3*%
X232857000Y-167239000D03*
X233807000Y-167239000D03*
X234757000Y-167239000D03*
X234757000Y-164739000D03*
X232857000Y-164739000D03*
%TD*%
D14*
%TO.C,IC4*%
X269516000Y-122520000D03*
X269516000Y-123020000D03*
X269516000Y-123520000D03*
X269516000Y-124020000D03*
X269516000Y-124520000D03*
X269516000Y-125020000D03*
X269516000Y-125520000D03*
X269516000Y-126020000D03*
X269516000Y-126520000D03*
X269516000Y-127020000D03*
X269516000Y-127520000D03*
X269516000Y-128020000D03*
X269516000Y-128520000D03*
X269516000Y-129020000D03*
X269516000Y-129520000D03*
X269516000Y-130020000D03*
X269516000Y-130520000D03*
X269516000Y-131020000D03*
X269516000Y-131520000D03*
X269516000Y-132020000D03*
X269516000Y-132520000D03*
X269516000Y-133020000D03*
X269516000Y-133520000D03*
X269516000Y-134020000D03*
X277092000Y-134020000D03*
X277092000Y-133520000D03*
X277092000Y-133020000D03*
X277092000Y-132520000D03*
X277092000Y-132020000D03*
X277092000Y-131520000D03*
X277092000Y-131020000D03*
X277092000Y-130520000D03*
X277092000Y-130020000D03*
X277092000Y-129520000D03*
X277092000Y-129020000D03*
X277092000Y-128520000D03*
X277092000Y-128020000D03*
X277092000Y-127520000D03*
X277092000Y-127020000D03*
X277092000Y-126520000D03*
X277092000Y-126020000D03*
X277092000Y-125520000D03*
X277092000Y-125020000D03*
X277092000Y-124520000D03*
X277092000Y-124020000D03*
X277092000Y-123520000D03*
X277092000Y-123020000D03*
X277092000Y-122520000D03*
%TD*%
%TO.C,IC5*%
X277092000Y-151222000D03*
X277092000Y-151722000D03*
X277092000Y-152222000D03*
X277092000Y-152722000D03*
X277092000Y-153222000D03*
X277092000Y-153722000D03*
X277092000Y-154222000D03*
X277092000Y-154722000D03*
X277092000Y-155222000D03*
X277092000Y-155722000D03*
X277092000Y-156222000D03*
X277092000Y-156722000D03*
X277092000Y-157222000D03*
X277092000Y-157722000D03*
X277092000Y-158222000D03*
X277092000Y-158722000D03*
X277092000Y-159222000D03*
X277092000Y-159722000D03*
X277092000Y-160222000D03*
X277092000Y-160722000D03*
X277092000Y-161222000D03*
X277092000Y-161722000D03*
X277092000Y-162222000D03*
X277092000Y-162722000D03*
X269516000Y-162722000D03*
X269516000Y-162222000D03*
X269516000Y-161722000D03*
X269516000Y-161222000D03*
X269516000Y-160722000D03*
X269516000Y-160222000D03*
X269516000Y-159722000D03*
X269516000Y-159222000D03*
X269516000Y-158722000D03*
X269516000Y-158222000D03*
X269516000Y-157722000D03*
X269516000Y-157222000D03*
X269516000Y-156722000D03*
X269516000Y-156222000D03*
X269516000Y-155722000D03*
X269516000Y-155222000D03*
X269516000Y-154722000D03*
X269516000Y-154222000D03*
X269516000Y-153722000D03*
X269516000Y-153222000D03*
X269516000Y-152722000D03*
X269516000Y-152222000D03*
X269516000Y-151722000D03*
X269516000Y-151222000D03*
%TD*%
%TO.C,IC6*%
X269516000Y-177892000D03*
X269516000Y-178392000D03*
X269516000Y-178892000D03*
X269516000Y-179392000D03*
X269516000Y-179892000D03*
X269516000Y-180392000D03*
X269516000Y-180892000D03*
X269516000Y-181392000D03*
X269516000Y-181892000D03*
X269516000Y-182392000D03*
X269516000Y-182892000D03*
X269516000Y-183392000D03*
X269516000Y-183892000D03*
X269516000Y-184392000D03*
X269516000Y-184892000D03*
X269516000Y-185392000D03*
X269516000Y-185892000D03*
X269516000Y-186392000D03*
X269516000Y-186892000D03*
X269516000Y-187392000D03*
X269516000Y-187892000D03*
X269516000Y-188392000D03*
X269516000Y-188892000D03*
X269516000Y-189392000D03*
X277092000Y-189392000D03*
X277092000Y-188892000D03*
X277092000Y-188392000D03*
X277092000Y-187892000D03*
X277092000Y-187392000D03*
X277092000Y-186892000D03*
X277092000Y-186392000D03*
X277092000Y-185892000D03*
X277092000Y-185392000D03*
X277092000Y-184892000D03*
X277092000Y-184392000D03*
X277092000Y-183892000D03*
X277092000Y-183392000D03*
X277092000Y-182892000D03*
X277092000Y-182392000D03*
X277092000Y-181892000D03*
X277092000Y-181392000D03*
X277092000Y-180892000D03*
X277092000Y-180392000D03*
X277092000Y-179892000D03*
X277092000Y-179392000D03*
X277092000Y-178892000D03*
X277092000Y-178392000D03*
X277092000Y-177892000D03*
%TD*%
D15*
%TO.C,J11*%
X161531000Y-211103000D03*
X159031000Y-211603000D03*
X156531000Y-211903000D03*
X154031000Y-211903000D03*
X151531000Y-211603000D03*
X149031000Y-211603000D03*
X146531000Y-211603000D03*
X144906000Y-211603000D03*
X164031000Y-214003000D03*
D16*
X141531000Y-214103000D03*
D17*
X144106000Y-197003000D03*
D18*
X163006000Y-197003000D03*
D19*
X168656000Y-219823000D03*
X141256000Y-219823000D03*
%TD*%
D20*
%TO.C,J15*%
X191626000Y-59296000D03*
D21*
X191526000Y-68696000D03*
D20*
X199026000Y-61296000D03*
%TD*%
%TO.C,R1*%
G36*
G01*
X256371000Y-156521999D02*
X256371000Y-157422001D01*
G75*
G02*
X256121001Y-157672000I-249999J0D01*
G01*
X255470999Y-157672000D01*
G75*
G02*
X255221000Y-157422001I0J249999D01*
G01*
X255221000Y-156521999D01*
G75*
G02*
X255470999Y-156272000I249999J0D01*
G01*
X256121001Y-156272000D01*
G75*
G02*
X256371000Y-156521999I0J-249999D01*
G01*
G37*
G36*
G01*
X254321000Y-156521999D02*
X254321000Y-157422001D01*
G75*
G02*
X254071001Y-157672000I-249999J0D01*
G01*
X253420999Y-157672000D01*
G75*
G02*
X253171000Y-157422001I0J249999D01*
G01*
X253171000Y-156521999D01*
G75*
G02*
X253420999Y-156272000I249999J0D01*
G01*
X254071001Y-156272000D01*
G75*
G02*
X254321000Y-156521999I0J-249999D01*
G01*
G37*
%TD*%
%TO.C,R2*%
G36*
G01*
X254321000Y-159061999D02*
X254321000Y-159962001D01*
G75*
G02*
X254071001Y-160212000I-249999J0D01*
G01*
X253420999Y-160212000D01*
G75*
G02*
X253171000Y-159962001I0J249999D01*
G01*
X253171000Y-159061999D01*
G75*
G02*
X253420999Y-158812000I249999J0D01*
G01*
X254071001Y-158812000D01*
G75*
G02*
X254321000Y-159061999I0J-249999D01*
G01*
G37*
G36*
G01*
X256371000Y-159061999D02*
X256371000Y-159962001D01*
G75*
G02*
X256121001Y-160212000I-249999J0D01*
G01*
X255470999Y-160212000D01*
G75*
G02*
X255221000Y-159962001I0J249999D01*
G01*
X255221000Y-159061999D01*
G75*
G02*
X255470999Y-158812000I249999J0D01*
G01*
X256121001Y-158812000D01*
G75*
G02*
X256371000Y-159061999I0J-249999D01*
G01*
G37*
%TD*%
%TO.C,R3*%
G36*
G01*
X266376999Y-107883000D02*
X267277001Y-107883000D01*
G75*
G02*
X267527000Y-108132999I0J-249999D01*
G01*
X267527000Y-108783001D01*
G75*
G02*
X267277001Y-109033000I-249999J0D01*
G01*
X266376999Y-109033000D01*
G75*
G02*
X266127000Y-108783001I0J249999D01*
G01*
X266127000Y-108132999D01*
G75*
G02*
X266376999Y-107883000I249999J0D01*
G01*
G37*
G36*
G01*
X266376999Y-105833000D02*
X267277001Y-105833000D01*
G75*
G02*
X267527000Y-106082999I0J-249999D01*
G01*
X267527000Y-106733001D01*
G75*
G02*
X267277001Y-106983000I-249999J0D01*
G01*
X266376999Y-106983000D01*
G75*
G02*
X266127000Y-106733001I0J249999D01*
G01*
X266127000Y-106082999D01*
G75*
G02*
X266376999Y-105833000I249999J0D01*
G01*
G37*
%TD*%
%TO.C,R4*%
G36*
G01*
X268916999Y-107883000D02*
X269817001Y-107883000D01*
G75*
G02*
X270067000Y-108132999I0J-249999D01*
G01*
X270067000Y-108783001D01*
G75*
G02*
X269817001Y-109033000I-249999J0D01*
G01*
X268916999Y-109033000D01*
G75*
G02*
X268667000Y-108783001I0J249999D01*
G01*
X268667000Y-108132999D01*
G75*
G02*
X268916999Y-107883000I249999J0D01*
G01*
G37*
G36*
G01*
X268916999Y-105833000D02*
X269817001Y-105833000D01*
G75*
G02*
X270067000Y-106082999I0J-249999D01*
G01*
X270067000Y-106733001D01*
G75*
G02*
X269817001Y-106983000I-249999J0D01*
G01*
X268916999Y-106983000D01*
G75*
G02*
X268667000Y-106733001I0J249999D01*
G01*
X268667000Y-106082999D01*
G75*
G02*
X268916999Y-105833000I249999J0D01*
G01*
G37*
%TD*%
%TO.C,R5*%
G36*
G01*
X271456999Y-105833000D02*
X272357001Y-105833000D01*
G75*
G02*
X272607000Y-106082999I0J-249999D01*
G01*
X272607000Y-106733001D01*
G75*
G02*
X272357001Y-106983000I-249999J0D01*
G01*
X271456999Y-106983000D01*
G75*
G02*
X271207000Y-106733001I0J249999D01*
G01*
X271207000Y-106082999D01*
G75*
G02*
X271456999Y-105833000I249999J0D01*
G01*
G37*
G36*
G01*
X271456999Y-107883000D02*
X272357001Y-107883000D01*
G75*
G02*
X272607000Y-108132999I0J-249999D01*
G01*
X272607000Y-108783001D01*
G75*
G02*
X272357001Y-109033000I-249999J0D01*
G01*
X271456999Y-109033000D01*
G75*
G02*
X271207000Y-108783001I0J249999D01*
G01*
X271207000Y-108132999D01*
G75*
G02*
X271456999Y-107883000I249999J0D01*
G01*
G37*
%TD*%
%TO.C,R6*%
G36*
G01*
X273996999Y-107901000D02*
X274897001Y-107901000D01*
G75*
G02*
X275147000Y-108150999I0J-249999D01*
G01*
X275147000Y-108801001D01*
G75*
G02*
X274897001Y-109051000I-249999J0D01*
G01*
X273996999Y-109051000D01*
G75*
G02*
X273747000Y-108801001I0J249999D01*
G01*
X273747000Y-108150999D01*
G75*
G02*
X273996999Y-107901000I249999J0D01*
G01*
G37*
G36*
G01*
X273996999Y-105851000D02*
X274897001Y-105851000D01*
G75*
G02*
X275147000Y-106100999I0J-249999D01*
G01*
X275147000Y-106751001D01*
G75*
G02*
X274897001Y-107001000I-249999J0D01*
G01*
X273996999Y-107001000D01*
G75*
G02*
X273747000Y-106751001I0J249999D01*
G01*
X273747000Y-106100999D01*
G75*
G02*
X273996999Y-105851000I249999J0D01*
G01*
G37*
%TD*%
%TO.C,R8*%
G36*
G01*
X210604612Y-153505785D02*
X209968215Y-152869388D01*
G75*
G02*
X209968215Y-152515836I176776J176776D01*
G01*
X210427836Y-152056215D01*
G75*
G02*
X210781388Y-152056215I176776J-176776D01*
G01*
X211417785Y-152692612D01*
G75*
G02*
X211417785Y-153046164I-176776J-176776D01*
G01*
X210958164Y-153505785D01*
G75*
G02*
X210604612Y-153505785I-176776J176776D01*
G01*
G37*
G36*
G01*
X209155044Y-154955353D02*
X208518647Y-154318956D01*
G75*
G02*
X208518647Y-153965404I176776J176776D01*
G01*
X208978268Y-153505783D01*
G75*
G02*
X209331820Y-153505783I176776J-176776D01*
G01*
X209968217Y-154142180D01*
G75*
G02*
X209968217Y-154495732I-176776J-176776D01*
G01*
X209508596Y-154955353D01*
G75*
G02*
X209155044Y-154955353I-176776J176776D01*
G01*
G37*
%TD*%
%TO.C,R9*%
G36*
G01*
X213017612Y-166967785D02*
X212381215Y-166331388D01*
G75*
G02*
X212381215Y-165977836I176776J176776D01*
G01*
X212840836Y-165518215D01*
G75*
G02*
X213194388Y-165518215I176776J-176776D01*
G01*
X213830785Y-166154612D01*
G75*
G02*
X213830785Y-166508164I-176776J-176776D01*
G01*
X213371164Y-166967785D01*
G75*
G02*
X213017612Y-166967785I-176776J176776D01*
G01*
G37*
G36*
G01*
X211568044Y-168417353D02*
X210931647Y-167780956D01*
G75*
G02*
X210931647Y-167427404I176776J176776D01*
G01*
X211391268Y-166967783D01*
G75*
G02*
X211744820Y-166967783I176776J-176776D01*
G01*
X212381217Y-167604180D01*
G75*
G02*
X212381217Y-167957732I-176776J-176776D01*
G01*
X211921596Y-168417353D01*
G75*
G02*
X211568044Y-168417353I-176776J176776D01*
G01*
G37*
%TD*%
%TO.C,R10*%
G36*
G01*
X190458000Y-213925999D02*
X190458000Y-214826001D01*
G75*
G02*
X190208001Y-215076000I-249999J0D01*
G01*
X189557999Y-215076000D01*
G75*
G02*
X189308000Y-214826001I0J249999D01*
G01*
X189308000Y-213925999D01*
G75*
G02*
X189557999Y-213676000I249999J0D01*
G01*
X190208001Y-213676000D01*
G75*
G02*
X190458000Y-213925999I0J-249999D01*
G01*
G37*
G36*
G01*
X188408000Y-213925999D02*
X188408000Y-214826001D01*
G75*
G02*
X188158001Y-215076000I-249999J0D01*
G01*
X187507999Y-215076000D01*
G75*
G02*
X187258000Y-214826001I0J249999D01*
G01*
X187258000Y-213925999D01*
G75*
G02*
X187507999Y-213676000I249999J0D01*
G01*
X188158001Y-213676000D01*
G75*
G02*
X188408000Y-213925999I0J-249999D01*
G01*
G37*
%TD*%
%TO.C,R11*%
G36*
G01*
X222954001Y-220412000D02*
X222053999Y-220412000D01*
G75*
G02*
X221804000Y-220162001I0J249999D01*
G01*
X221804000Y-219511999D01*
G75*
G02*
X222053999Y-219262000I249999J0D01*
G01*
X222954001Y-219262000D01*
G75*
G02*
X223204000Y-219511999I0J-249999D01*
G01*
X223204000Y-220162001D01*
G75*
G02*
X222954001Y-220412000I-249999J0D01*
G01*
G37*
G36*
G01*
X222954001Y-222462000D02*
X222053999Y-222462000D01*
G75*
G02*
X221804000Y-222212001I0J249999D01*
G01*
X221804000Y-221561999D01*
G75*
G02*
X222053999Y-221312000I249999J0D01*
G01*
X222954001Y-221312000D01*
G75*
G02*
X223204000Y-221561999I0J-249999D01*
G01*
X223204000Y-222212001D01*
G75*
G02*
X222954001Y-222462000I-249999J0D01*
G01*
G37*
%TD*%
%TO.C,R14*%
G36*
G01*
X188390000Y-210496999D02*
X188390000Y-211397001D01*
G75*
G02*
X188140001Y-211647000I-249999J0D01*
G01*
X187489999Y-211647000D01*
G75*
G02*
X187240000Y-211397001I0J249999D01*
G01*
X187240000Y-210496999D01*
G75*
G02*
X187489999Y-210247000I249999J0D01*
G01*
X188140001Y-210247000D01*
G75*
G02*
X188390000Y-210496999I0J-249999D01*
G01*
G37*
G36*
G01*
X190440000Y-210496999D02*
X190440000Y-211397001D01*
G75*
G02*
X190190001Y-211647000I-249999J0D01*
G01*
X189539999Y-211647000D01*
G75*
G02*
X189290000Y-211397001I0J249999D01*
G01*
X189290000Y-210496999D01*
G75*
G02*
X189539999Y-210247000I249999J0D01*
G01*
X190190001Y-210247000D01*
G75*
G02*
X190440000Y-210496999I0J-249999D01*
G01*
G37*
%TD*%
%TO.C,R15*%
G36*
G01*
X215731000Y-218370999D02*
X215731000Y-219271001D01*
G75*
G02*
X215481001Y-219521000I-249999J0D01*
G01*
X214830999Y-219521000D01*
G75*
G02*
X214581000Y-219271001I0J249999D01*
G01*
X214581000Y-218370999D01*
G75*
G02*
X214830999Y-218121000I249999J0D01*
G01*
X215481001Y-218121000D01*
G75*
G02*
X215731000Y-218370999I0J-249999D01*
G01*
G37*
G36*
G01*
X213681000Y-218370999D02*
X213681000Y-219271001D01*
G75*
G02*
X213431001Y-219521000I-249999J0D01*
G01*
X212780999Y-219521000D01*
G75*
G02*
X212531000Y-219271001I0J249999D01*
G01*
X212531000Y-218370999D01*
G75*
G02*
X212780999Y-218121000I249999J0D01*
G01*
X213431001Y-218121000D01*
G75*
G02*
X213681000Y-218370999I0J-249999D01*
G01*
G37*
%TD*%
%TO.C,R16*%
G36*
G01*
X144466000Y-168713999D02*
X144466000Y-169614001D01*
G75*
G02*
X144216001Y-169864000I-249999J0D01*
G01*
X143565999Y-169864000D01*
G75*
G02*
X143316000Y-169614001I0J249999D01*
G01*
X143316000Y-168713999D01*
G75*
G02*
X143565999Y-168464000I249999J0D01*
G01*
X144216001Y-168464000D01*
G75*
G02*
X144466000Y-168713999I0J-249999D01*
G01*
G37*
G36*
G01*
X142416000Y-168713999D02*
X142416000Y-169614001D01*
G75*
G02*
X142166001Y-169864000I-249999J0D01*
G01*
X141515999Y-169864000D01*
G75*
G02*
X141266000Y-169614001I0J249999D01*
G01*
X141266000Y-168713999D01*
G75*
G02*
X141515999Y-168464000I249999J0D01*
G01*
X142166001Y-168464000D01*
G75*
G02*
X142416000Y-168713999I0J-249999D01*
G01*
G37*
%TD*%
%TO.C,R17*%
G36*
G01*
X143316000Y-166312001D02*
X143316000Y-165411999D01*
G75*
G02*
X143565999Y-165162000I249999J0D01*
G01*
X144216001Y-165162000D01*
G75*
G02*
X144466000Y-165411999I0J-249999D01*
G01*
X144466000Y-166312001D01*
G75*
G02*
X144216001Y-166562000I-249999J0D01*
G01*
X143565999Y-166562000D01*
G75*
G02*
X143316000Y-166312001I0J249999D01*
G01*
G37*
G36*
G01*
X141266000Y-166312001D02*
X141266000Y-165411999D01*
G75*
G02*
X141515999Y-165162000I249999J0D01*
G01*
X142166001Y-165162000D01*
G75*
G02*
X142416000Y-165411999I0J-249999D01*
G01*
X142416000Y-166312001D01*
G75*
G02*
X142166001Y-166562000I-249999J0D01*
G01*
X141515999Y-166562000D01*
G75*
G02*
X141266000Y-166312001I0J249999D01*
G01*
G37*
%TD*%
%TO.C,R19*%
G36*
G01*
X211633172Y-159332431D02*
X212269569Y-159968828D01*
G75*
G02*
X212269569Y-160322380I-176776J-176776D01*
G01*
X211809948Y-160782001D01*
G75*
G02*
X211456396Y-160782001I-176776J176776D01*
G01*
X210819999Y-160145604D01*
G75*
G02*
X210819999Y-159792052I176776J176776D01*
G01*
X211279620Y-159332431D01*
G75*
G02*
X211633172Y-159332431I176776J-176776D01*
G01*
G37*
G36*
G01*
X210183604Y-160781999D02*
X210820001Y-161418396D01*
G75*
G02*
X210820001Y-161771948I-176776J-176776D01*
G01*
X210360380Y-162231569D01*
G75*
G02*
X210006828Y-162231569I-176776J176776D01*
G01*
X209370431Y-161595172D01*
G75*
G02*
X209370431Y-161241620I176776J176776D01*
G01*
X209830052Y-160781999D01*
G75*
G02*
X210183604Y-160781999I176776J-176776D01*
G01*
G37*
%TD*%
%TO.C,R20*%
G36*
G01*
X188398999Y-220786000D02*
X189299001Y-220786000D01*
G75*
G02*
X189549000Y-221035999I0J-249999D01*
G01*
X189549000Y-221686001D01*
G75*
G02*
X189299001Y-221936000I-249999J0D01*
G01*
X188398999Y-221936000D01*
G75*
G02*
X188149000Y-221686001I0J249999D01*
G01*
X188149000Y-221035999D01*
G75*
G02*
X188398999Y-220786000I249999J0D01*
G01*
G37*
G36*
G01*
X188398999Y-218736000D02*
X189299001Y-218736000D01*
G75*
G02*
X189549000Y-218985999I0J-249999D01*
G01*
X189549000Y-219636001D01*
G75*
G02*
X189299001Y-219886000I-249999J0D01*
G01*
X188398999Y-219886000D01*
G75*
G02*
X188149000Y-219636001I0J249999D01*
G01*
X188149000Y-218985999D01*
G75*
G02*
X188398999Y-218736000I249999J0D01*
G01*
G37*
%TD*%
%TO.C,R21*%
G36*
G01*
X239706999Y-81195000D02*
X240607001Y-81195000D01*
G75*
G02*
X240857000Y-81444999I0J-249999D01*
G01*
X240857000Y-82095001D01*
G75*
G02*
X240607001Y-82345000I-249999J0D01*
G01*
X239706999Y-82345000D01*
G75*
G02*
X239457000Y-82095001I0J249999D01*
G01*
X239457000Y-81444999D01*
G75*
G02*
X239706999Y-81195000I249999J0D01*
G01*
G37*
G36*
G01*
X239706999Y-83245000D02*
X240607001Y-83245000D01*
G75*
G02*
X240857000Y-83494999I0J-249999D01*
G01*
X240857000Y-84145001D01*
G75*
G02*
X240607001Y-84395000I-249999J0D01*
G01*
X239706999Y-84395000D01*
G75*
G02*
X239457000Y-84145001I0J249999D01*
G01*
X239457000Y-83494999D01*
G75*
G02*
X239706999Y-83245000I249999J0D01*
G01*
G37*
%TD*%
%TO.C,R22*%
G36*
G01*
X242627999Y-81213000D02*
X243528001Y-81213000D01*
G75*
G02*
X243778000Y-81462999I0J-249999D01*
G01*
X243778000Y-82113001D01*
G75*
G02*
X243528001Y-82363000I-249999J0D01*
G01*
X242627999Y-82363000D01*
G75*
G02*
X242378000Y-82113001I0J249999D01*
G01*
X242378000Y-81462999D01*
G75*
G02*
X242627999Y-81213000I249999J0D01*
G01*
G37*
G36*
G01*
X242627999Y-83263000D02*
X243528001Y-83263000D01*
G75*
G02*
X243778000Y-83512999I0J-249999D01*
G01*
X243778000Y-84163001D01*
G75*
G02*
X243528001Y-84413000I-249999J0D01*
G01*
X242627999Y-84413000D01*
G75*
G02*
X242378000Y-84163001I0J249999D01*
G01*
X242378000Y-83512999D01*
G75*
G02*
X242627999Y-83263000I249999J0D01*
G01*
G37*
%TD*%
%TO.C,R23*%
G36*
G01*
X245421999Y-81213000D02*
X246322001Y-81213000D01*
G75*
G02*
X246572000Y-81462999I0J-249999D01*
G01*
X246572000Y-82113001D01*
G75*
G02*
X246322001Y-82363000I-249999J0D01*
G01*
X245421999Y-82363000D01*
G75*
G02*
X245172000Y-82113001I0J249999D01*
G01*
X245172000Y-81462999D01*
G75*
G02*
X245421999Y-81213000I249999J0D01*
G01*
G37*
G36*
G01*
X245421999Y-83263000D02*
X246322001Y-83263000D01*
G75*
G02*
X246572000Y-83512999I0J-249999D01*
G01*
X246572000Y-84163001D01*
G75*
G02*
X246322001Y-84413000I-249999J0D01*
G01*
X245421999Y-84413000D01*
G75*
G02*
X245172000Y-84163001I0J249999D01*
G01*
X245172000Y-83512999D01*
G75*
G02*
X245421999Y-83263000I249999J0D01*
G01*
G37*
%TD*%
%TO.C,R25*%
G36*
G01*
X209892388Y-157644215D02*
X210528785Y-158280612D01*
G75*
G02*
X210528785Y-158634164I-176776J-176776D01*
G01*
X210069164Y-159093785D01*
G75*
G02*
X209715612Y-159093785I-176776J176776D01*
G01*
X209079215Y-158457388D01*
G75*
G02*
X209079215Y-158103836I176776J176776D01*
G01*
X209538836Y-157644215D01*
G75*
G02*
X209892388Y-157644215I176776J-176776D01*
G01*
G37*
G36*
G01*
X208442820Y-159093783D02*
X209079217Y-159730180D01*
G75*
G02*
X209079217Y-160083732I-176776J-176776D01*
G01*
X208619596Y-160543353D01*
G75*
G02*
X208266044Y-160543353I-176776J176776D01*
G01*
X207629647Y-159906956D01*
G75*
G02*
X207629647Y-159553404I176776J176776D01*
G01*
X208089268Y-159093783D01*
G75*
G02*
X208442820Y-159093783I176776J-176776D01*
G01*
G37*
%TD*%
%TO.C,R26*%
G36*
G01*
X210093820Y-165443783D02*
X210730217Y-166080180D01*
G75*
G02*
X210730217Y-166433732I-176776J-176776D01*
G01*
X210270596Y-166893353D01*
G75*
G02*
X209917044Y-166893353I-176776J176776D01*
G01*
X209280647Y-166256956D01*
G75*
G02*
X209280647Y-165903404I176776J176776D01*
G01*
X209740268Y-165443783D01*
G75*
G02*
X210093820Y-165443783I176776J-176776D01*
G01*
G37*
G36*
G01*
X211543388Y-163994215D02*
X212179785Y-164630612D01*
G75*
G02*
X212179785Y-164984164I-176776J-176776D01*
G01*
X211720164Y-165443785D01*
G75*
G02*
X211366612Y-165443785I-176776J176776D01*
G01*
X210730215Y-164807388D01*
G75*
G02*
X210730215Y-164453836I176776J176776D01*
G01*
X211189836Y-163994215D01*
G75*
G02*
X211543388Y-163994215I176776J-176776D01*
G01*
G37*
%TD*%
%TO.C,R27*%
G36*
G01*
X202495999Y-218246000D02*
X203396001Y-218246000D01*
G75*
G02*
X203646000Y-218495999I0J-249999D01*
G01*
X203646000Y-219146001D01*
G75*
G02*
X203396001Y-219396000I-249999J0D01*
G01*
X202495999Y-219396000D01*
G75*
G02*
X202246000Y-219146001I0J249999D01*
G01*
X202246000Y-218495999D01*
G75*
G02*
X202495999Y-218246000I249999J0D01*
G01*
G37*
G36*
G01*
X202495999Y-220296000D02*
X203396001Y-220296000D01*
G75*
G02*
X203646000Y-220545999I0J-249999D01*
G01*
X203646000Y-221196001D01*
G75*
G02*
X203396001Y-221446000I-249999J0D01*
G01*
X202495999Y-221446000D01*
G75*
G02*
X202246000Y-221196001I0J249999D01*
G01*
X202246000Y-220545999D01*
G75*
G02*
X202495999Y-220296000I249999J0D01*
G01*
G37*
%TD*%
%TO.C,R28*%
G36*
G01*
X249116001Y-84413000D02*
X248215999Y-84413000D01*
G75*
G02*
X247966000Y-84163001I0J249999D01*
G01*
X247966000Y-83512999D01*
G75*
G02*
X248215999Y-83263000I249999J0D01*
G01*
X249116001Y-83263000D01*
G75*
G02*
X249366000Y-83512999I0J-249999D01*
G01*
X249366000Y-84163001D01*
G75*
G02*
X249116001Y-84413000I-249999J0D01*
G01*
G37*
G36*
G01*
X249116001Y-82363000D02*
X248215999Y-82363000D01*
G75*
G02*
X247966000Y-82113001I0J249999D01*
G01*
X247966000Y-81462999D01*
G75*
G02*
X248215999Y-81213000I249999J0D01*
G01*
X249116001Y-81213000D01*
G75*
G02*
X249366000Y-81462999I0J-249999D01*
G01*
X249366000Y-82113001D01*
G75*
G02*
X249116001Y-82363000I-249999J0D01*
G01*
G37*
%TD*%
%TO.C,R34*%
G36*
G01*
X279711999Y-80451000D02*
X280612001Y-80451000D01*
G75*
G02*
X280862000Y-80700999I0J-249999D01*
G01*
X280862000Y-81351001D01*
G75*
G02*
X280612001Y-81601000I-249999J0D01*
G01*
X279711999Y-81601000D01*
G75*
G02*
X279462000Y-81351001I0J249999D01*
G01*
X279462000Y-80700999D01*
G75*
G02*
X279711999Y-80451000I249999J0D01*
G01*
G37*
G36*
G01*
X279711999Y-82501000D02*
X280612001Y-82501000D01*
G75*
G02*
X280862000Y-82750999I0J-249999D01*
G01*
X280862000Y-83401001D01*
G75*
G02*
X280612001Y-83651000I-249999J0D01*
G01*
X279711999Y-83651000D01*
G75*
G02*
X279462000Y-83401001I0J249999D01*
G01*
X279462000Y-82750999D01*
G75*
G02*
X279711999Y-82501000I249999J0D01*
G01*
G37*
%TD*%
%TO.C,R35*%
G36*
G01*
X259772999Y-80451000D02*
X260673001Y-80451000D01*
G75*
G02*
X260923000Y-80700999I0J-249999D01*
G01*
X260923000Y-81351001D01*
G75*
G02*
X260673001Y-81601000I-249999J0D01*
G01*
X259772999Y-81601000D01*
G75*
G02*
X259523000Y-81351001I0J249999D01*
G01*
X259523000Y-80700999D01*
G75*
G02*
X259772999Y-80451000I249999J0D01*
G01*
G37*
G36*
G01*
X259772999Y-82501000D02*
X260673001Y-82501000D01*
G75*
G02*
X260923000Y-82750999I0J-249999D01*
G01*
X260923000Y-83401001D01*
G75*
G02*
X260673001Y-83651000I-249999J0D01*
G01*
X259772999Y-83651000D01*
G75*
G02*
X259523000Y-83401001I0J249999D01*
G01*
X259523000Y-82750999D01*
G75*
G02*
X259772999Y-82501000I249999J0D01*
G01*
G37*
%TD*%
%TO.C,R36*%
G36*
G01*
X268535999Y-82501000D02*
X269436001Y-82501000D01*
G75*
G02*
X269686000Y-82750999I0J-249999D01*
G01*
X269686000Y-83401001D01*
G75*
G02*
X269436001Y-83651000I-249999J0D01*
G01*
X268535999Y-83651000D01*
G75*
G02*
X268286000Y-83401001I0J249999D01*
G01*
X268286000Y-82750999D01*
G75*
G02*
X268535999Y-82501000I249999J0D01*
G01*
G37*
G36*
G01*
X268535999Y-80451000D02*
X269436001Y-80451000D01*
G75*
G02*
X269686000Y-80700999I0J-249999D01*
G01*
X269686000Y-81351001D01*
G75*
G02*
X269436001Y-81601000I-249999J0D01*
G01*
X268535999Y-81601000D01*
G75*
G02*
X268286000Y-81351001I0J249999D01*
G01*
X268286000Y-80700999D01*
G75*
G02*
X268535999Y-80451000I249999J0D01*
G01*
G37*
%TD*%
%TO.C,R37*%
G36*
G01*
X265614999Y-80451000D02*
X266515001Y-80451000D01*
G75*
G02*
X266765000Y-80700999I0J-249999D01*
G01*
X266765000Y-81351001D01*
G75*
G02*
X266515001Y-81601000I-249999J0D01*
G01*
X265614999Y-81601000D01*
G75*
G02*
X265365000Y-81351001I0J249999D01*
G01*
X265365000Y-80700999D01*
G75*
G02*
X265614999Y-80451000I249999J0D01*
G01*
G37*
G36*
G01*
X265614999Y-82501000D02*
X266515001Y-82501000D01*
G75*
G02*
X266765000Y-82750999I0J-249999D01*
G01*
X266765000Y-83401001D01*
G75*
G02*
X266515001Y-83651000I-249999J0D01*
G01*
X265614999Y-83651000D01*
G75*
G02*
X265365000Y-83401001I0J249999D01*
G01*
X265365000Y-82750999D01*
G75*
G02*
X265614999Y-82501000I249999J0D01*
G01*
G37*
%TD*%
%TO.C,R38*%
G36*
G01*
X191721000Y-100018001D02*
X191721000Y-99117999D01*
G75*
G02*
X191970999Y-98868000I249999J0D01*
G01*
X192621001Y-98868000D01*
G75*
G02*
X192871000Y-99117999I0J-249999D01*
G01*
X192871000Y-100018001D01*
G75*
G02*
X192621001Y-100268000I-249999J0D01*
G01*
X191970999Y-100268000D01*
G75*
G02*
X191721000Y-100018001I0J249999D01*
G01*
G37*
G36*
G01*
X189671000Y-100018001D02*
X189671000Y-99117999D01*
G75*
G02*
X189920999Y-98868000I249999J0D01*
G01*
X190571001Y-98868000D01*
G75*
G02*
X190821000Y-99117999I0J-249999D01*
G01*
X190821000Y-100018001D01*
G75*
G02*
X190571001Y-100268000I-249999J0D01*
G01*
X189920999Y-100268000D01*
G75*
G02*
X189671000Y-100018001I0J249999D01*
G01*
G37*
%TD*%
%TO.C,R39*%
G36*
G01*
X199584000Y-99117999D02*
X199584000Y-100018001D01*
G75*
G02*
X199334001Y-100268000I-249999J0D01*
G01*
X198683999Y-100268000D01*
G75*
G02*
X198434000Y-100018001I0J249999D01*
G01*
X198434000Y-99117999D01*
G75*
G02*
X198683999Y-98868000I249999J0D01*
G01*
X199334001Y-98868000D01*
G75*
G02*
X199584000Y-99117999I0J-249999D01*
G01*
G37*
G36*
G01*
X197534000Y-99117999D02*
X197534000Y-100018001D01*
G75*
G02*
X197284001Y-100268000I-249999J0D01*
G01*
X196633999Y-100268000D01*
G75*
G02*
X196384000Y-100018001I0J249999D01*
G01*
X196384000Y-99117999D01*
G75*
G02*
X196633999Y-98868000I249999J0D01*
G01*
X197284001Y-98868000D01*
G75*
G02*
X197534000Y-99117999I0J-249999D01*
G01*
G37*
%TD*%
%TO.C,R40*%
G36*
G01*
X192955000Y-96716001D02*
X192955000Y-95815999D01*
G75*
G02*
X193204999Y-95566000I249999J0D01*
G01*
X193855001Y-95566000D01*
G75*
G02*
X194105000Y-95815999I0J-249999D01*
G01*
X194105000Y-96716001D01*
G75*
G02*
X193855001Y-96966000I-249999J0D01*
G01*
X193204999Y-96966000D01*
G75*
G02*
X192955000Y-96716001I0J249999D01*
G01*
G37*
G36*
G01*
X195005000Y-96716001D02*
X195005000Y-95815999D01*
G75*
G02*
X195254999Y-95566000I249999J0D01*
G01*
X195905001Y-95566000D01*
G75*
G02*
X196155000Y-95815999I0J-249999D01*
G01*
X196155000Y-96716001D01*
G75*
G02*
X195905001Y-96966000I-249999J0D01*
G01*
X195254999Y-96966000D01*
G75*
G02*
X195005000Y-96716001I0J249999D01*
G01*
G37*
%TD*%
%TO.C,R41*%
G36*
G01*
X189795999Y-92525000D02*
X190696001Y-92525000D01*
G75*
G02*
X190946000Y-92774999I0J-249999D01*
G01*
X190946000Y-93425001D01*
G75*
G02*
X190696001Y-93675000I-249999J0D01*
G01*
X189795999Y-93675000D01*
G75*
G02*
X189546000Y-93425001I0J249999D01*
G01*
X189546000Y-92774999D01*
G75*
G02*
X189795999Y-92525000I249999J0D01*
G01*
G37*
G36*
G01*
X189795999Y-90475000D02*
X190696001Y-90475000D01*
G75*
G02*
X190946000Y-90724999I0J-249999D01*
G01*
X190946000Y-91375001D01*
G75*
G02*
X190696001Y-91625000I-249999J0D01*
G01*
X189795999Y-91625000D01*
G75*
G02*
X189546000Y-91375001I0J249999D01*
G01*
X189546000Y-90724999D01*
G75*
G02*
X189795999Y-90475000I249999J0D01*
G01*
G37*
%TD*%
%TO.C,R42*%
G36*
G01*
X198558999Y-90475000D02*
X199459001Y-90475000D01*
G75*
G02*
X199709000Y-90724999I0J-249999D01*
G01*
X199709000Y-91375001D01*
G75*
G02*
X199459001Y-91625000I-249999J0D01*
G01*
X198558999Y-91625000D01*
G75*
G02*
X198309000Y-91375001I0J249999D01*
G01*
X198309000Y-90724999D01*
G75*
G02*
X198558999Y-90475000I249999J0D01*
G01*
G37*
G36*
G01*
X198558999Y-92525000D02*
X199459001Y-92525000D01*
G75*
G02*
X199709000Y-92774999I0J-249999D01*
G01*
X199709000Y-93425001D01*
G75*
G02*
X199459001Y-93675000I-249999J0D01*
G01*
X198558999Y-93675000D01*
G75*
G02*
X198309000Y-93425001I0J249999D01*
G01*
X198309000Y-92774999D01*
G75*
G02*
X198558999Y-92525000I249999J0D01*
G01*
G37*
%TD*%
%TO.C,R43*%
G36*
G01*
X277818001Y-81601000D02*
X276917999Y-81601000D01*
G75*
G02*
X276668000Y-81351001I0J249999D01*
G01*
X276668000Y-80700999D01*
G75*
G02*
X276917999Y-80451000I249999J0D01*
G01*
X277818001Y-80451000D01*
G75*
G02*
X278068000Y-80700999I0J-249999D01*
G01*
X278068000Y-81351001D01*
G75*
G02*
X277818001Y-81601000I-249999J0D01*
G01*
G37*
G36*
G01*
X277818001Y-83651000D02*
X276917999Y-83651000D01*
G75*
G02*
X276668000Y-83401001I0J249999D01*
G01*
X276668000Y-82750999D01*
G75*
G02*
X276917999Y-82501000I249999J0D01*
G01*
X277818001Y-82501000D01*
G75*
G02*
X278068000Y-82750999I0J-249999D01*
G01*
X278068000Y-83401001D01*
G75*
G02*
X277818001Y-83651000I-249999J0D01*
G01*
G37*
%TD*%
%TO.C,R44*%
G36*
G01*
X275024001Y-83651000D02*
X274123999Y-83651000D01*
G75*
G02*
X273874000Y-83401001I0J249999D01*
G01*
X273874000Y-82750999D01*
G75*
G02*
X274123999Y-82501000I249999J0D01*
G01*
X275024001Y-82501000D01*
G75*
G02*
X275274000Y-82750999I0J-249999D01*
G01*
X275274000Y-83401001D01*
G75*
G02*
X275024001Y-83651000I-249999J0D01*
G01*
G37*
G36*
G01*
X275024001Y-81601000D02*
X274123999Y-81601000D01*
G75*
G02*
X273874000Y-81351001I0J249999D01*
G01*
X273874000Y-80700999D01*
G75*
G02*
X274123999Y-80451000I249999J0D01*
G01*
X275024001Y-80451000D01*
G75*
G02*
X275274000Y-80700999I0J-249999D01*
G01*
X275274000Y-81351001D01*
G75*
G02*
X275024001Y-81601000I-249999J0D01*
G01*
G37*
%TD*%
%TO.C,R45*%
G36*
G01*
X272230001Y-81601000D02*
X271329999Y-81601000D01*
G75*
G02*
X271080000Y-81351001I0J249999D01*
G01*
X271080000Y-80700999D01*
G75*
G02*
X271329999Y-80451000I249999J0D01*
G01*
X272230001Y-80451000D01*
G75*
G02*
X272480000Y-80700999I0J-249999D01*
G01*
X272480000Y-81351001D01*
G75*
G02*
X272230001Y-81601000I-249999J0D01*
G01*
G37*
G36*
G01*
X272230001Y-83651000D02*
X271329999Y-83651000D01*
G75*
G02*
X271080000Y-83401001I0J249999D01*
G01*
X271080000Y-82750999D01*
G75*
G02*
X271329999Y-82501000I249999J0D01*
G01*
X272230001Y-82501000D01*
G75*
G02*
X272480000Y-82750999I0J-249999D01*
G01*
X272480000Y-83401001D01*
G75*
G02*
X272230001Y-83651000I-249999J0D01*
G01*
G37*
%TD*%
%TO.C,R46*%
G36*
G01*
X263467001Y-83642000D02*
X262566999Y-83642000D01*
G75*
G02*
X262317000Y-83392001I0J249999D01*
G01*
X262317000Y-82741999D01*
G75*
G02*
X262566999Y-82492000I249999J0D01*
G01*
X263467001Y-82492000D01*
G75*
G02*
X263717000Y-82741999I0J-249999D01*
G01*
X263717000Y-83392001D01*
G75*
G02*
X263467001Y-83642000I-249999J0D01*
G01*
G37*
G36*
G01*
X263467001Y-81592000D02*
X262566999Y-81592000D01*
G75*
G02*
X262317000Y-81342001I0J249999D01*
G01*
X262317000Y-80691999D01*
G75*
G02*
X262566999Y-80442000I249999J0D01*
G01*
X263467001Y-80442000D01*
G75*
G02*
X263717000Y-80691999I0J-249999D01*
G01*
X263717000Y-81342001D01*
G75*
G02*
X263467001Y-81592000I-249999J0D01*
G01*
G37*
%TD*%
%TO.C,R47*%
G36*
G01*
X276167001Y-88205000D02*
X275266999Y-88205000D01*
G75*
G02*
X275017000Y-87955001I0J249999D01*
G01*
X275017000Y-87304999D01*
G75*
G02*
X275266999Y-87055000I249999J0D01*
G01*
X276167001Y-87055000D01*
G75*
G02*
X276417000Y-87304999I0J-249999D01*
G01*
X276417000Y-87955001D01*
G75*
G02*
X276167001Y-88205000I-249999J0D01*
G01*
G37*
G36*
G01*
X276167001Y-90255000D02*
X275266999Y-90255000D01*
G75*
G02*
X275017000Y-90005001I0J249999D01*
G01*
X275017000Y-89354999D01*
G75*
G02*
X275266999Y-89105000I249999J0D01*
G01*
X276167001Y-89105000D01*
G75*
G02*
X276417000Y-89354999I0J-249999D01*
G01*
X276417000Y-90005001D01*
G75*
G02*
X276167001Y-90255000I-249999J0D01*
G01*
G37*
%TD*%
%TO.C,R48*%
G36*
G01*
X273500001Y-90255000D02*
X272599999Y-90255000D01*
G75*
G02*
X272350000Y-90005001I0J249999D01*
G01*
X272350000Y-89354999D01*
G75*
G02*
X272599999Y-89105000I249999J0D01*
G01*
X273500001Y-89105000D01*
G75*
G02*
X273750000Y-89354999I0J-249999D01*
G01*
X273750000Y-90005001D01*
G75*
G02*
X273500001Y-90255000I-249999J0D01*
G01*
G37*
G36*
G01*
X273500001Y-88205000D02*
X272599999Y-88205000D01*
G75*
G02*
X272350000Y-87955001I0J249999D01*
G01*
X272350000Y-87304999D01*
G75*
G02*
X272599999Y-87055000I249999J0D01*
G01*
X273500001Y-87055000D01*
G75*
G02*
X273750000Y-87304999I0J-249999D01*
G01*
X273750000Y-87955001D01*
G75*
G02*
X273500001Y-88205000I-249999J0D01*
G01*
G37*
%TD*%
%TO.C,R49*%
G36*
G01*
X270706001Y-88205000D02*
X269805999Y-88205000D01*
G75*
G02*
X269556000Y-87955001I0J249999D01*
G01*
X269556000Y-87304999D01*
G75*
G02*
X269805999Y-87055000I249999J0D01*
G01*
X270706001Y-87055000D01*
G75*
G02*
X270956000Y-87304999I0J-249999D01*
G01*
X270956000Y-87955001D01*
G75*
G02*
X270706001Y-88205000I-249999J0D01*
G01*
G37*
G36*
G01*
X270706001Y-90255000D02*
X269805999Y-90255000D01*
G75*
G02*
X269556000Y-90005001I0J249999D01*
G01*
X269556000Y-89354999D01*
G75*
G02*
X269805999Y-89105000I249999J0D01*
G01*
X270706001Y-89105000D01*
G75*
G02*
X270956000Y-89354999I0J-249999D01*
G01*
X270956000Y-90005001D01*
G75*
G02*
X270706001Y-90255000I-249999J0D01*
G01*
G37*
%TD*%
%TO.C,R50*%
G36*
G01*
X267912001Y-90246000D02*
X267011999Y-90246000D01*
G75*
G02*
X266762000Y-89996001I0J249999D01*
G01*
X266762000Y-89345999D01*
G75*
G02*
X267011999Y-89096000I249999J0D01*
G01*
X267912001Y-89096000D01*
G75*
G02*
X268162000Y-89345999I0J-249999D01*
G01*
X268162000Y-89996001D01*
G75*
G02*
X267912001Y-90246000I-249999J0D01*
G01*
G37*
G36*
G01*
X267912001Y-88196000D02*
X267011999Y-88196000D01*
G75*
G02*
X266762000Y-87946001I0J249999D01*
G01*
X266762000Y-87295999D01*
G75*
G02*
X267011999Y-87046000I249999J0D01*
G01*
X267912001Y-87046000D01*
G75*
G02*
X268162000Y-87295999I0J-249999D01*
G01*
X268162000Y-87946001D01*
G75*
G02*
X267912001Y-88196000I-249999J0D01*
G01*
G37*
%TD*%
%TO.C,R51*%
G36*
G01*
X216846999Y-80088000D02*
X217747001Y-80088000D01*
G75*
G02*
X217997000Y-80337999I0J-249999D01*
G01*
X217997000Y-80988001D01*
G75*
G02*
X217747001Y-81238000I-249999J0D01*
G01*
X216846999Y-81238000D01*
G75*
G02*
X216597000Y-80988001I0J249999D01*
G01*
X216597000Y-80337999D01*
G75*
G02*
X216846999Y-80088000I249999J0D01*
G01*
G37*
G36*
G01*
X216846999Y-78038000D02*
X217747001Y-78038000D01*
G75*
G02*
X217997000Y-78287999I0J-249999D01*
G01*
X217997000Y-78938001D01*
G75*
G02*
X217747001Y-79188000I-249999J0D01*
G01*
X216846999Y-79188000D01*
G75*
G02*
X216597000Y-78938001I0J249999D01*
G01*
X216597000Y-78287999D01*
G75*
G02*
X216846999Y-78038000I249999J0D01*
G01*
G37*
%TD*%
%TO.C,R52*%
G36*
G01*
X214052999Y-78038000D02*
X214953001Y-78038000D01*
G75*
G02*
X215203000Y-78287999I0J-249999D01*
G01*
X215203000Y-78938001D01*
G75*
G02*
X214953001Y-79188000I-249999J0D01*
G01*
X214052999Y-79188000D01*
G75*
G02*
X213803000Y-78938001I0J249999D01*
G01*
X213803000Y-78287999D01*
G75*
G02*
X214052999Y-78038000I249999J0D01*
G01*
G37*
G36*
G01*
X214052999Y-80088000D02*
X214953001Y-80088000D01*
G75*
G02*
X215203000Y-80337999I0J-249999D01*
G01*
X215203000Y-80988001D01*
G75*
G02*
X214953001Y-81238000I-249999J0D01*
G01*
X214052999Y-81238000D01*
G75*
G02*
X213803000Y-80988001I0J249999D01*
G01*
X213803000Y-80337999D01*
G75*
G02*
X214052999Y-80088000I249999J0D01*
G01*
G37*
%TD*%
%TO.C,R53*%
G36*
G01*
X211258999Y-80070000D02*
X212159001Y-80070000D01*
G75*
G02*
X212409000Y-80319999I0J-249999D01*
G01*
X212409000Y-80970001D01*
G75*
G02*
X212159001Y-81220000I-249999J0D01*
G01*
X211258999Y-81220000D01*
G75*
G02*
X211009000Y-80970001I0J249999D01*
G01*
X211009000Y-80319999D01*
G75*
G02*
X211258999Y-80070000I249999J0D01*
G01*
G37*
G36*
G01*
X211258999Y-78020000D02*
X212159001Y-78020000D01*
G75*
G02*
X212409000Y-78269999I0J-249999D01*
G01*
X212409000Y-78920001D01*
G75*
G02*
X212159001Y-79170000I-249999J0D01*
G01*
X211258999Y-79170000D01*
G75*
G02*
X211009000Y-78920001I0J249999D01*
G01*
X211009000Y-78269999D01*
G75*
G02*
X211258999Y-78020000I249999J0D01*
G01*
G37*
%TD*%
%TO.C,R54*%
G36*
G01*
X208464999Y-78038000D02*
X209365001Y-78038000D01*
G75*
G02*
X209615000Y-78287999I0J-249999D01*
G01*
X209615000Y-78938001D01*
G75*
G02*
X209365001Y-79188000I-249999J0D01*
G01*
X208464999Y-79188000D01*
G75*
G02*
X208215000Y-78938001I0J249999D01*
G01*
X208215000Y-78287999D01*
G75*
G02*
X208464999Y-78038000I249999J0D01*
G01*
G37*
G36*
G01*
X208464999Y-80088000D02*
X209365001Y-80088000D01*
G75*
G02*
X209615000Y-80337999I0J-249999D01*
G01*
X209615000Y-80988001D01*
G75*
G02*
X209365001Y-81238000I-249999J0D01*
G01*
X208464999Y-81238000D01*
G75*
G02*
X208215000Y-80988001I0J249999D01*
G01*
X208215000Y-80337999D01*
G75*
G02*
X208464999Y-80088000I249999J0D01*
G01*
G37*
%TD*%
%TO.C,R55*%
G36*
G01*
X227514999Y-85776000D02*
X228415001Y-85776000D01*
G75*
G02*
X228665000Y-86025999I0J-249999D01*
G01*
X228665000Y-86676001D01*
G75*
G02*
X228415001Y-86926000I-249999J0D01*
G01*
X227514999Y-86926000D01*
G75*
G02*
X227265000Y-86676001I0J249999D01*
G01*
X227265000Y-86025999D01*
G75*
G02*
X227514999Y-85776000I249999J0D01*
G01*
G37*
G36*
G01*
X227514999Y-87826000D02*
X228415001Y-87826000D01*
G75*
G02*
X228665000Y-88075999I0J-249999D01*
G01*
X228665000Y-88726001D01*
G75*
G02*
X228415001Y-88976000I-249999J0D01*
G01*
X227514999Y-88976000D01*
G75*
G02*
X227265000Y-88726001I0J249999D01*
G01*
X227265000Y-88075999D01*
G75*
G02*
X227514999Y-87826000I249999J0D01*
G01*
G37*
%TD*%
%TO.C,R56*%
G36*
G01*
X224974999Y-87826000D02*
X225875001Y-87826000D01*
G75*
G02*
X226125000Y-88075999I0J-249999D01*
G01*
X226125000Y-88726001D01*
G75*
G02*
X225875001Y-88976000I-249999J0D01*
G01*
X224974999Y-88976000D01*
G75*
G02*
X224725000Y-88726001I0J249999D01*
G01*
X224725000Y-88075999D01*
G75*
G02*
X224974999Y-87826000I249999J0D01*
G01*
G37*
G36*
G01*
X224974999Y-85776000D02*
X225875001Y-85776000D01*
G75*
G02*
X226125000Y-86025999I0J-249999D01*
G01*
X226125000Y-86676001D01*
G75*
G02*
X225875001Y-86926000I-249999J0D01*
G01*
X224974999Y-86926000D01*
G75*
G02*
X224725000Y-86676001I0J249999D01*
G01*
X224725000Y-86025999D01*
G75*
G02*
X224974999Y-85776000I249999J0D01*
G01*
G37*
%TD*%
%TO.C,R57*%
G36*
G01*
X222434999Y-85776000D02*
X223335001Y-85776000D01*
G75*
G02*
X223585000Y-86025999I0J-249999D01*
G01*
X223585000Y-86676001D01*
G75*
G02*
X223335001Y-86926000I-249999J0D01*
G01*
X222434999Y-86926000D01*
G75*
G02*
X222185000Y-86676001I0J249999D01*
G01*
X222185000Y-86025999D01*
G75*
G02*
X222434999Y-85776000I249999J0D01*
G01*
G37*
G36*
G01*
X222434999Y-87826000D02*
X223335001Y-87826000D01*
G75*
G02*
X223585000Y-88075999I0J-249999D01*
G01*
X223585000Y-88726001D01*
G75*
G02*
X223335001Y-88976000I-249999J0D01*
G01*
X222434999Y-88976000D01*
G75*
G02*
X222185000Y-88726001I0J249999D01*
G01*
X222185000Y-88075999D01*
G75*
G02*
X222434999Y-87826000I249999J0D01*
G01*
G37*
%TD*%
%TO.C,R58*%
G36*
G01*
X219894999Y-87826000D02*
X220795001Y-87826000D01*
G75*
G02*
X221045000Y-88075999I0J-249999D01*
G01*
X221045000Y-88726001D01*
G75*
G02*
X220795001Y-88976000I-249999J0D01*
G01*
X219894999Y-88976000D01*
G75*
G02*
X219645000Y-88726001I0J249999D01*
G01*
X219645000Y-88075999D01*
G75*
G02*
X219894999Y-87826000I249999J0D01*
G01*
G37*
G36*
G01*
X219894999Y-85776000D02*
X220795001Y-85776000D01*
G75*
G02*
X221045000Y-86025999I0J-249999D01*
G01*
X221045000Y-86676001D01*
G75*
G02*
X220795001Y-86926000I-249999J0D01*
G01*
X219894999Y-86926000D01*
G75*
G02*
X219645000Y-86676001I0J249999D01*
G01*
X219645000Y-86025999D01*
G75*
G02*
X219894999Y-85776000I249999J0D01*
G01*
G37*
%TD*%
%TO.C,R59*%
G36*
G01*
X233356999Y-80079000D02*
X234257001Y-80079000D01*
G75*
G02*
X234507000Y-80328999I0J-249999D01*
G01*
X234507000Y-80979001D01*
G75*
G02*
X234257001Y-81229000I-249999J0D01*
G01*
X233356999Y-81229000D01*
G75*
G02*
X233107000Y-80979001I0J249999D01*
G01*
X233107000Y-80328999D01*
G75*
G02*
X233356999Y-80079000I249999J0D01*
G01*
G37*
G36*
G01*
X233356999Y-78029000D02*
X234257001Y-78029000D01*
G75*
G02*
X234507000Y-78278999I0J-249999D01*
G01*
X234507000Y-78929001D01*
G75*
G02*
X234257001Y-79179000I-249999J0D01*
G01*
X233356999Y-79179000D01*
G75*
G02*
X233107000Y-78929001I0J249999D01*
G01*
X233107000Y-78278999D01*
G75*
G02*
X233356999Y-78029000I249999J0D01*
G01*
G37*
%TD*%
%TO.C,R60*%
G36*
G01*
X230943999Y-80079000D02*
X231844001Y-80079000D01*
G75*
G02*
X232094000Y-80328999I0J-249999D01*
G01*
X232094000Y-80979001D01*
G75*
G02*
X231844001Y-81229000I-249999J0D01*
G01*
X230943999Y-81229000D01*
G75*
G02*
X230694000Y-80979001I0J249999D01*
G01*
X230694000Y-80328999D01*
G75*
G02*
X230943999Y-80079000I249999J0D01*
G01*
G37*
G36*
G01*
X230943999Y-78029000D02*
X231844001Y-78029000D01*
G75*
G02*
X232094000Y-78278999I0J-249999D01*
G01*
X232094000Y-78929001D01*
G75*
G02*
X231844001Y-79179000I-249999J0D01*
G01*
X230943999Y-79179000D01*
G75*
G02*
X230694000Y-78929001I0J249999D01*
G01*
X230694000Y-78278999D01*
G75*
G02*
X230943999Y-78029000I249999J0D01*
G01*
G37*
%TD*%
%TO.C,R61*%
G36*
G01*
X228530999Y-78029000D02*
X229431001Y-78029000D01*
G75*
G02*
X229681000Y-78278999I0J-249999D01*
G01*
X229681000Y-78929001D01*
G75*
G02*
X229431001Y-79179000I-249999J0D01*
G01*
X228530999Y-79179000D01*
G75*
G02*
X228281000Y-78929001I0J249999D01*
G01*
X228281000Y-78278999D01*
G75*
G02*
X228530999Y-78029000I249999J0D01*
G01*
G37*
G36*
G01*
X228530999Y-80079000D02*
X229431001Y-80079000D01*
G75*
G02*
X229681000Y-80328999I0J-249999D01*
G01*
X229681000Y-80979001D01*
G75*
G02*
X229431001Y-81229000I-249999J0D01*
G01*
X228530999Y-81229000D01*
G75*
G02*
X228281000Y-80979001I0J249999D01*
G01*
X228281000Y-80328999D01*
G75*
G02*
X228530999Y-80079000I249999J0D01*
G01*
G37*
%TD*%
%TO.C,R62*%
G36*
G01*
X226117999Y-80079000D02*
X227018001Y-80079000D01*
G75*
G02*
X227268000Y-80328999I0J-249999D01*
G01*
X227268000Y-80979001D01*
G75*
G02*
X227018001Y-81229000I-249999J0D01*
G01*
X226117999Y-81229000D01*
G75*
G02*
X225868000Y-80979001I0J249999D01*
G01*
X225868000Y-80328999D01*
G75*
G02*
X226117999Y-80079000I249999J0D01*
G01*
G37*
G36*
G01*
X226117999Y-78029000D02*
X227018001Y-78029000D01*
G75*
G02*
X227268000Y-78278999I0J-249999D01*
G01*
X227268000Y-78929001D01*
G75*
G02*
X227018001Y-79179000I-249999J0D01*
G01*
X226117999Y-79179000D01*
G75*
G02*
X225868000Y-78929001I0J249999D01*
G01*
X225868000Y-78278999D01*
G75*
G02*
X226117999Y-78029000I249999J0D01*
G01*
G37*
%TD*%
D22*
%TO.C,U1*%
G36*
X221880629Y-118717538D02*
G01*
X220784613Y-117621522D01*
X220996745Y-117409390D01*
X222092761Y-118505406D01*
X221880629Y-118717538D01*
G37*
G36*
X221527076Y-119071092D02*
G01*
X220431060Y-117975076D01*
X220643192Y-117762944D01*
X221739208Y-118858960D01*
X221527076Y-119071092D01*
G37*
G36*
X221173523Y-119424645D02*
G01*
X220077507Y-118328629D01*
X220289639Y-118116497D01*
X221385655Y-119212513D01*
X221173523Y-119424645D01*
G37*
G36*
X220819969Y-119778199D02*
G01*
X219723953Y-118682183D01*
X219936085Y-118470051D01*
X221032101Y-119566067D01*
X220819969Y-119778199D01*
G37*
G36*
X220466416Y-120131752D02*
G01*
X219370400Y-119035736D01*
X219582532Y-118823604D01*
X220678548Y-119919620D01*
X220466416Y-120131752D01*
G37*
G36*
X220112862Y-120485305D02*
G01*
X219016846Y-119389289D01*
X219228978Y-119177157D01*
X220324994Y-120273173D01*
X220112862Y-120485305D01*
G37*
G36*
X219759309Y-120838859D02*
G01*
X218663293Y-119742843D01*
X218875425Y-119530711D01*
X219971441Y-120626727D01*
X219759309Y-120838859D01*
G37*
G36*
X219405756Y-121192412D02*
G01*
X218309740Y-120096396D01*
X218521872Y-119884264D01*
X219617888Y-120980280D01*
X219405756Y-121192412D01*
G37*
G36*
X219052202Y-121545966D02*
G01*
X217956186Y-120449950D01*
X218168318Y-120237818D01*
X219264334Y-121333834D01*
X219052202Y-121545966D01*
G37*
G36*
X218698649Y-121899519D02*
G01*
X217602633Y-120803503D01*
X217814765Y-120591371D01*
X218910781Y-121687387D01*
X218698649Y-121899519D01*
G37*
G36*
X218345096Y-122253072D02*
G01*
X217249080Y-121157056D01*
X217461212Y-120944924D01*
X218557228Y-122040940D01*
X218345096Y-122253072D01*
G37*
G36*
X217991542Y-122606626D02*
G01*
X216895526Y-121510610D01*
X217107658Y-121298478D01*
X218203674Y-122394494D01*
X217991542Y-122606626D01*
G37*
G36*
X217637989Y-122960179D02*
G01*
X216541973Y-121864163D01*
X216754105Y-121652031D01*
X217850121Y-122748047D01*
X217637989Y-122960179D01*
G37*
G36*
X217284435Y-123313733D02*
G01*
X216188419Y-122217717D01*
X216400551Y-122005585D01*
X217496567Y-123101601D01*
X217284435Y-123313733D01*
G37*
G36*
X216930882Y-123667286D02*
G01*
X215834866Y-122571270D01*
X216046998Y-122359138D01*
X217143014Y-123455154D01*
X216930882Y-123667286D01*
G37*
G36*
X216577329Y-124020839D02*
G01*
X215481313Y-122924823D01*
X215693445Y-122712691D01*
X216789461Y-123808707D01*
X216577329Y-124020839D01*
G37*
G36*
X216223775Y-124374393D02*
G01*
X215127759Y-123278377D01*
X215339891Y-123066245D01*
X216435907Y-124162261D01*
X216223775Y-124374393D01*
G37*
G36*
X215870222Y-124727946D02*
G01*
X214774206Y-123631930D01*
X214986338Y-123419798D01*
X216082354Y-124515814D01*
X215870222Y-124727946D01*
G37*
G36*
X215516668Y-125081500D02*
G01*
X214420652Y-123985484D01*
X214632784Y-123773352D01*
X215728800Y-124869368D01*
X215516668Y-125081500D01*
G37*
G36*
X215163115Y-125435053D02*
G01*
X214067099Y-124339037D01*
X214279231Y-124126905D01*
X215375247Y-125222921D01*
X215163115Y-125435053D01*
G37*
G36*
X214809562Y-125788606D02*
G01*
X213713546Y-124692590D01*
X213925678Y-124480458D01*
X215021694Y-125576474D01*
X214809562Y-125788606D01*
G37*
G36*
X214456008Y-126142160D02*
G01*
X213359992Y-125046144D01*
X213572124Y-124834012D01*
X214668140Y-125930028D01*
X214456008Y-126142160D01*
G37*
G36*
X214102455Y-126495713D02*
G01*
X213006439Y-125399697D01*
X213218571Y-125187565D01*
X214314587Y-126283581D01*
X214102455Y-126495713D01*
G37*
G36*
X213748901Y-126849266D02*
G01*
X212652885Y-125753250D01*
X212865017Y-125541118D01*
X213961033Y-126637134D01*
X213748901Y-126849266D01*
G37*
G36*
X213395348Y-127202820D02*
G01*
X212299332Y-126106804D01*
X212511464Y-125894672D01*
X213607480Y-126990688D01*
X213395348Y-127202820D01*
G37*
G36*
X213041795Y-127556373D02*
G01*
X211945779Y-126460357D01*
X212157911Y-126248225D01*
X213253927Y-127344241D01*
X213041795Y-127556373D01*
G37*
G36*
X212688241Y-127909927D02*
G01*
X211592225Y-126813911D01*
X211804357Y-126601779D01*
X212900373Y-127697795D01*
X212688241Y-127909927D01*
G37*
G36*
X212334688Y-128263480D02*
G01*
X211238672Y-127167464D01*
X211450804Y-126955332D01*
X212546820Y-128051348D01*
X212334688Y-128263480D01*
G37*
G36*
X211981134Y-128617033D02*
G01*
X210885118Y-127521017D01*
X211097250Y-127308885D01*
X212193266Y-128404901D01*
X211981134Y-128617033D01*
G37*
G36*
X211627581Y-128970587D02*
G01*
X210531565Y-127874571D01*
X210743697Y-127662439D01*
X211839713Y-128758455D01*
X211627581Y-128970587D01*
G37*
G36*
X211274028Y-129324140D02*
G01*
X210178012Y-128228124D01*
X210390144Y-128015992D01*
X211486160Y-129112008D01*
X211274028Y-129324140D01*
G37*
G36*
X210920474Y-129677694D02*
G01*
X209824458Y-128581678D01*
X210036590Y-128369546D01*
X211132606Y-129465562D01*
X210920474Y-129677694D01*
G37*
G36*
X210566921Y-130031247D02*
G01*
X209470905Y-128935231D01*
X209683037Y-128723099D01*
X210779053Y-129819115D01*
X210566921Y-130031247D01*
G37*
G36*
X210213368Y-130384800D02*
G01*
X209117352Y-129288784D01*
X209329484Y-129076652D01*
X210425500Y-130172668D01*
X210213368Y-130384800D01*
G37*
G36*
X209859814Y-130738354D02*
G01*
X208763798Y-129642338D01*
X208975930Y-129430206D01*
X210071946Y-130526222D01*
X209859814Y-130738354D01*
G37*
G36*
X209506261Y-131091907D02*
G01*
X208410245Y-129995891D01*
X208622377Y-129783759D01*
X209718393Y-130879775D01*
X209506261Y-131091907D01*
G37*
G36*
X209152707Y-131445461D02*
G01*
X208056691Y-130349445D01*
X208268823Y-130137313D01*
X209364839Y-131233329D01*
X209152707Y-131445461D01*
G37*
G36*
X208799154Y-131799014D02*
G01*
X207703138Y-130702998D01*
X207915270Y-130490866D01*
X209011286Y-131586882D01*
X208799154Y-131799014D01*
G37*
G36*
X208445601Y-132152567D02*
G01*
X207349585Y-131056551D01*
X207561717Y-130844419D01*
X208657733Y-131940435D01*
X208445601Y-132152567D01*
G37*
G36*
X208092047Y-132506121D02*
G01*
X206996031Y-131410105D01*
X207208163Y-131197973D01*
X208304179Y-132293989D01*
X208092047Y-132506121D01*
G37*
G36*
X207738494Y-132859674D02*
G01*
X206642478Y-131763658D01*
X206854610Y-131551526D01*
X207950626Y-132647542D01*
X207738494Y-132859674D01*
G37*
G36*
X207384940Y-133213228D02*
G01*
X206288924Y-132117212D01*
X206501056Y-131905080D01*
X207597072Y-133001096D01*
X207384940Y-133213228D01*
G37*
G36*
X207031387Y-133566781D02*
G01*
X205935371Y-132470765D01*
X206147503Y-132258633D01*
X207243519Y-133354649D01*
X207031387Y-133566781D01*
G37*
G36*
X206677834Y-133920334D02*
G01*
X205581818Y-132824318D01*
X205793950Y-132612186D01*
X206889966Y-133708202D01*
X206677834Y-133920334D01*
G37*
G36*
X206324280Y-134273888D02*
G01*
X205228264Y-133177872D01*
X205440396Y-132965740D01*
X206536412Y-134061756D01*
X206324280Y-134273888D01*
G37*
G36*
X205970727Y-134627441D02*
G01*
X204874711Y-133531425D01*
X205086843Y-133319293D01*
X206182859Y-134415309D01*
X205970727Y-134627441D01*
G37*
G36*
X205617173Y-134980994D02*
G01*
X204521157Y-133884978D01*
X204733289Y-133672846D01*
X205829305Y-134768862D01*
X205617173Y-134980994D01*
G37*
G36*
X205263620Y-135334548D02*
G01*
X204167604Y-134238532D01*
X204379736Y-134026400D01*
X205475752Y-135122416D01*
X205263620Y-135334548D01*
G37*
G36*
X204910067Y-135688101D02*
G01*
X203814051Y-134592085D01*
X204026183Y-134379953D01*
X205122199Y-135475969D01*
X204910067Y-135688101D01*
G37*
G36*
X204556513Y-136041655D02*
G01*
X203460497Y-134945639D01*
X203672629Y-134733507D01*
X204768645Y-135829523D01*
X204556513Y-136041655D01*
G37*
G36*
X204202960Y-136395208D02*
G01*
X203106944Y-135299192D01*
X203319076Y-135087060D01*
X204415092Y-136183076D01*
X204202960Y-136395208D01*
G37*
G36*
X203849406Y-136748761D02*
G01*
X202753390Y-135652745D01*
X202965522Y-135440613D01*
X204061538Y-136536629D01*
X203849406Y-136748761D01*
G37*
G36*
X202753390Y-139683255D02*
G01*
X203849406Y-138587239D01*
X204061538Y-138799371D01*
X202965522Y-139895387D01*
X202753390Y-139683255D01*
G37*
G36*
X203106944Y-140036808D02*
G01*
X204202960Y-138940792D01*
X204415092Y-139152924D01*
X203319076Y-140248940D01*
X203106944Y-140036808D01*
G37*
G36*
X203460497Y-140390361D02*
G01*
X204556513Y-139294345D01*
X204768645Y-139506477D01*
X203672629Y-140602493D01*
X203460497Y-140390361D01*
G37*
G36*
X203814051Y-140743915D02*
G01*
X204910067Y-139647899D01*
X205122199Y-139860031D01*
X204026183Y-140956047D01*
X203814051Y-140743915D01*
G37*
G36*
X204167604Y-141097468D02*
G01*
X205263620Y-140001452D01*
X205475752Y-140213584D01*
X204379736Y-141309600D01*
X204167604Y-141097468D01*
G37*
G36*
X204521157Y-141451022D02*
G01*
X205617173Y-140355006D01*
X205829305Y-140567138D01*
X204733289Y-141663154D01*
X204521157Y-141451022D01*
G37*
G36*
X204874711Y-141804575D02*
G01*
X205970727Y-140708559D01*
X206182859Y-140920691D01*
X205086843Y-142016707D01*
X204874711Y-141804575D01*
G37*
G36*
X205228264Y-142158128D02*
G01*
X206324280Y-141062112D01*
X206536412Y-141274244D01*
X205440396Y-142370260D01*
X205228264Y-142158128D01*
G37*
G36*
X205581818Y-142511682D02*
G01*
X206677834Y-141415666D01*
X206889966Y-141627798D01*
X205793950Y-142723814D01*
X205581818Y-142511682D01*
G37*
G36*
X205935371Y-142865235D02*
G01*
X207031387Y-141769219D01*
X207243519Y-141981351D01*
X206147503Y-143077367D01*
X205935371Y-142865235D01*
G37*
G36*
X206288924Y-143218788D02*
G01*
X207384940Y-142122772D01*
X207597072Y-142334904D01*
X206501056Y-143430920D01*
X206288924Y-143218788D01*
G37*
G36*
X206642478Y-143572342D02*
G01*
X207738494Y-142476326D01*
X207950626Y-142688458D01*
X206854610Y-143784474D01*
X206642478Y-143572342D01*
G37*
G36*
X206996031Y-143925895D02*
G01*
X208092047Y-142829879D01*
X208304179Y-143042011D01*
X207208163Y-144138027D01*
X206996031Y-143925895D01*
G37*
G36*
X207349585Y-144279449D02*
G01*
X208445601Y-143183433D01*
X208657733Y-143395565D01*
X207561717Y-144491581D01*
X207349585Y-144279449D01*
G37*
G36*
X207703138Y-144633002D02*
G01*
X208799154Y-143536986D01*
X209011286Y-143749118D01*
X207915270Y-144845134D01*
X207703138Y-144633002D01*
G37*
G36*
X208056691Y-144986555D02*
G01*
X209152707Y-143890539D01*
X209364839Y-144102671D01*
X208268823Y-145198687D01*
X208056691Y-144986555D01*
G37*
G36*
X208410245Y-145340109D02*
G01*
X209506261Y-144244093D01*
X209718393Y-144456225D01*
X208622377Y-145552241D01*
X208410245Y-145340109D01*
G37*
G36*
X208763798Y-145693662D02*
G01*
X209859814Y-144597646D01*
X210071946Y-144809778D01*
X208975930Y-145905794D01*
X208763798Y-145693662D01*
G37*
G36*
X209117352Y-146047216D02*
G01*
X210213368Y-144951200D01*
X210425500Y-145163332D01*
X209329484Y-146259348D01*
X209117352Y-146047216D01*
G37*
G36*
X209470905Y-146400769D02*
G01*
X210566921Y-145304753D01*
X210779053Y-145516885D01*
X209683037Y-146612901D01*
X209470905Y-146400769D01*
G37*
G36*
X209824458Y-146754322D02*
G01*
X210920474Y-145658306D01*
X211132606Y-145870438D01*
X210036590Y-146966454D01*
X209824458Y-146754322D01*
G37*
G36*
X210178012Y-147107876D02*
G01*
X211274028Y-146011860D01*
X211486160Y-146223992D01*
X210390144Y-147320008D01*
X210178012Y-147107876D01*
G37*
G36*
X210531565Y-147461429D02*
G01*
X211627581Y-146365413D01*
X211839713Y-146577545D01*
X210743697Y-147673561D01*
X210531565Y-147461429D01*
G37*
G36*
X210885118Y-147814983D02*
G01*
X211981134Y-146718967D01*
X212193266Y-146931099D01*
X211097250Y-148027115D01*
X210885118Y-147814983D01*
G37*
G36*
X211238672Y-148168536D02*
G01*
X212334688Y-147072520D01*
X212546820Y-147284652D01*
X211450804Y-148380668D01*
X211238672Y-148168536D01*
G37*
G36*
X211592225Y-148522089D02*
G01*
X212688241Y-147426073D01*
X212900373Y-147638205D01*
X211804357Y-148734221D01*
X211592225Y-148522089D01*
G37*
G36*
X211945779Y-148875643D02*
G01*
X213041795Y-147779627D01*
X213253927Y-147991759D01*
X212157911Y-149087775D01*
X211945779Y-148875643D01*
G37*
G36*
X212299332Y-149229196D02*
G01*
X213395348Y-148133180D01*
X213607480Y-148345312D01*
X212511464Y-149441328D01*
X212299332Y-149229196D01*
G37*
G36*
X212652885Y-149582750D02*
G01*
X213748901Y-148486734D01*
X213961033Y-148698866D01*
X212865017Y-149794882D01*
X212652885Y-149582750D01*
G37*
G36*
X213006439Y-149936303D02*
G01*
X214102455Y-148840287D01*
X214314587Y-149052419D01*
X213218571Y-150148435D01*
X213006439Y-149936303D01*
G37*
G36*
X213359992Y-150289856D02*
G01*
X214456008Y-149193840D01*
X214668140Y-149405972D01*
X213572124Y-150501988D01*
X213359992Y-150289856D01*
G37*
G36*
X213713546Y-150643410D02*
G01*
X214809562Y-149547394D01*
X215021694Y-149759526D01*
X213925678Y-150855542D01*
X213713546Y-150643410D01*
G37*
G36*
X214067099Y-150996963D02*
G01*
X215163115Y-149900947D01*
X215375247Y-150113079D01*
X214279231Y-151209095D01*
X214067099Y-150996963D01*
G37*
G36*
X214420652Y-151350516D02*
G01*
X215516668Y-150254500D01*
X215728800Y-150466632D01*
X214632784Y-151562648D01*
X214420652Y-151350516D01*
G37*
G36*
X214774206Y-151704070D02*
G01*
X215870222Y-150608054D01*
X216082354Y-150820186D01*
X214986338Y-151916202D01*
X214774206Y-151704070D01*
G37*
G36*
X215127759Y-152057623D02*
G01*
X216223775Y-150961607D01*
X216435907Y-151173739D01*
X215339891Y-152269755D01*
X215127759Y-152057623D01*
G37*
G36*
X215481313Y-152411177D02*
G01*
X216577329Y-151315161D01*
X216789461Y-151527293D01*
X215693445Y-152623309D01*
X215481313Y-152411177D01*
G37*
G36*
X215834866Y-152764730D02*
G01*
X216930882Y-151668714D01*
X217143014Y-151880846D01*
X216046998Y-152976862D01*
X215834866Y-152764730D01*
G37*
G36*
X216188419Y-153118283D02*
G01*
X217284435Y-152022267D01*
X217496567Y-152234399D01*
X216400551Y-153330415D01*
X216188419Y-153118283D01*
G37*
G36*
X216541973Y-153471837D02*
G01*
X217637989Y-152375821D01*
X217850121Y-152587953D01*
X216754105Y-153683969D01*
X216541973Y-153471837D01*
G37*
G36*
X216895526Y-153825390D02*
G01*
X217991542Y-152729374D01*
X218203674Y-152941506D01*
X217107658Y-154037522D01*
X216895526Y-153825390D01*
G37*
G36*
X217249080Y-154178944D02*
G01*
X218345096Y-153082928D01*
X218557228Y-153295060D01*
X217461212Y-154391076D01*
X217249080Y-154178944D01*
G37*
G36*
X217602633Y-154532497D02*
G01*
X218698649Y-153436481D01*
X218910781Y-153648613D01*
X217814765Y-154744629D01*
X217602633Y-154532497D01*
G37*
G36*
X217956186Y-154886050D02*
G01*
X219052202Y-153790034D01*
X219264334Y-154002166D01*
X218168318Y-155098182D01*
X217956186Y-154886050D01*
G37*
G36*
X218309740Y-155239604D02*
G01*
X219405756Y-154143588D01*
X219617888Y-154355720D01*
X218521872Y-155451736D01*
X218309740Y-155239604D01*
G37*
G36*
X218663293Y-155593157D02*
G01*
X219759309Y-154497141D01*
X219971441Y-154709273D01*
X218875425Y-155805289D01*
X218663293Y-155593157D01*
G37*
G36*
X219016846Y-155946711D02*
G01*
X220112862Y-154850695D01*
X220324994Y-155062827D01*
X219228978Y-156158843D01*
X219016846Y-155946711D01*
G37*
G36*
X219370400Y-156300264D02*
G01*
X220466416Y-155204248D01*
X220678548Y-155416380D01*
X219582532Y-156512396D01*
X219370400Y-156300264D01*
G37*
G36*
X219723953Y-156653817D02*
G01*
X220819969Y-155557801D01*
X221032101Y-155769933D01*
X219936085Y-156865949D01*
X219723953Y-156653817D01*
G37*
G36*
X220077507Y-157007371D02*
G01*
X221173523Y-155911355D01*
X221385655Y-156123487D01*
X220289639Y-157219503D01*
X220077507Y-157007371D01*
G37*
G36*
X220431060Y-157360924D02*
G01*
X221527076Y-156264908D01*
X221739208Y-156477040D01*
X220643192Y-157573056D01*
X220431060Y-157360924D01*
G37*
G36*
X220784613Y-157714478D02*
G01*
X221880629Y-156618462D01*
X222092761Y-156830594D01*
X220996745Y-157926610D01*
X220784613Y-157714478D01*
G37*
G36*
X225027255Y-157926610D02*
G01*
X223931239Y-156830594D01*
X224143371Y-156618462D01*
X225239387Y-157714478D01*
X225027255Y-157926610D01*
G37*
G36*
X225380808Y-157573056D02*
G01*
X224284792Y-156477040D01*
X224496924Y-156264908D01*
X225592940Y-157360924D01*
X225380808Y-157573056D01*
G37*
G36*
X225734361Y-157219503D02*
G01*
X224638345Y-156123487D01*
X224850477Y-155911355D01*
X225946493Y-157007371D01*
X225734361Y-157219503D01*
G37*
G36*
X226087915Y-156865949D02*
G01*
X224991899Y-155769933D01*
X225204031Y-155557801D01*
X226300047Y-156653817D01*
X226087915Y-156865949D01*
G37*
G36*
X226441468Y-156512396D02*
G01*
X225345452Y-155416380D01*
X225557584Y-155204248D01*
X226653600Y-156300264D01*
X226441468Y-156512396D01*
G37*
G36*
X226795022Y-156158843D02*
G01*
X225699006Y-155062827D01*
X225911138Y-154850695D01*
X227007154Y-155946711D01*
X226795022Y-156158843D01*
G37*
G36*
X227148575Y-155805289D02*
G01*
X226052559Y-154709273D01*
X226264691Y-154497141D01*
X227360707Y-155593157D01*
X227148575Y-155805289D01*
G37*
G36*
X227502128Y-155451736D02*
G01*
X226406112Y-154355720D01*
X226618244Y-154143588D01*
X227714260Y-155239604D01*
X227502128Y-155451736D01*
G37*
G36*
X227855682Y-155098182D02*
G01*
X226759666Y-154002166D01*
X226971798Y-153790034D01*
X228067814Y-154886050D01*
X227855682Y-155098182D01*
G37*
G36*
X228209235Y-154744629D02*
G01*
X227113219Y-153648613D01*
X227325351Y-153436481D01*
X228421367Y-154532497D01*
X228209235Y-154744629D01*
G37*
G36*
X228562788Y-154391076D02*
G01*
X227466772Y-153295060D01*
X227678904Y-153082928D01*
X228774920Y-154178944D01*
X228562788Y-154391076D01*
G37*
G36*
X228916342Y-154037522D02*
G01*
X227820326Y-152941506D01*
X228032458Y-152729374D01*
X229128474Y-153825390D01*
X228916342Y-154037522D01*
G37*
G36*
X229269895Y-153683969D02*
G01*
X228173879Y-152587953D01*
X228386011Y-152375821D01*
X229482027Y-153471837D01*
X229269895Y-153683969D01*
G37*
G36*
X229623449Y-153330415D02*
G01*
X228527433Y-152234399D01*
X228739565Y-152022267D01*
X229835581Y-153118283D01*
X229623449Y-153330415D01*
G37*
G36*
X229977002Y-152976862D02*
G01*
X228880986Y-151880846D01*
X229093118Y-151668714D01*
X230189134Y-152764730D01*
X229977002Y-152976862D01*
G37*
G36*
X230330555Y-152623309D02*
G01*
X229234539Y-151527293D01*
X229446671Y-151315161D01*
X230542687Y-152411177D01*
X230330555Y-152623309D01*
G37*
G36*
X230684109Y-152269755D02*
G01*
X229588093Y-151173739D01*
X229800225Y-150961607D01*
X230896241Y-152057623D01*
X230684109Y-152269755D01*
G37*
G36*
X231037662Y-151916202D02*
G01*
X229941646Y-150820186D01*
X230153778Y-150608054D01*
X231249794Y-151704070D01*
X231037662Y-151916202D01*
G37*
G36*
X231391216Y-151562648D02*
G01*
X230295200Y-150466632D01*
X230507332Y-150254500D01*
X231603348Y-151350516D01*
X231391216Y-151562648D01*
G37*
G36*
X231744769Y-151209095D02*
G01*
X230648753Y-150113079D01*
X230860885Y-149900947D01*
X231956901Y-150996963D01*
X231744769Y-151209095D01*
G37*
G36*
X232098322Y-150855542D02*
G01*
X231002306Y-149759526D01*
X231214438Y-149547394D01*
X232310454Y-150643410D01*
X232098322Y-150855542D01*
G37*
G36*
X232451876Y-150501988D02*
G01*
X231355860Y-149405972D01*
X231567992Y-149193840D01*
X232664008Y-150289856D01*
X232451876Y-150501988D01*
G37*
G36*
X232805429Y-150148435D02*
G01*
X231709413Y-149052419D01*
X231921545Y-148840287D01*
X233017561Y-149936303D01*
X232805429Y-150148435D01*
G37*
G36*
X233158983Y-149794882D02*
G01*
X232062967Y-148698866D01*
X232275099Y-148486734D01*
X233371115Y-149582750D01*
X233158983Y-149794882D01*
G37*
G36*
X233512536Y-149441328D02*
G01*
X232416520Y-148345312D01*
X232628652Y-148133180D01*
X233724668Y-149229196D01*
X233512536Y-149441328D01*
G37*
G36*
X233866089Y-149087775D02*
G01*
X232770073Y-147991759D01*
X232982205Y-147779627D01*
X234078221Y-148875643D01*
X233866089Y-149087775D01*
G37*
G36*
X234219643Y-148734221D02*
G01*
X233123627Y-147638205D01*
X233335759Y-147426073D01*
X234431775Y-148522089D01*
X234219643Y-148734221D01*
G37*
G36*
X234573196Y-148380668D02*
G01*
X233477180Y-147284652D01*
X233689312Y-147072520D01*
X234785328Y-148168536D01*
X234573196Y-148380668D01*
G37*
G36*
X234926750Y-148027115D02*
G01*
X233830734Y-146931099D01*
X234042866Y-146718967D01*
X235138882Y-147814983D01*
X234926750Y-148027115D01*
G37*
G36*
X235280303Y-147673561D02*
G01*
X234184287Y-146577545D01*
X234396419Y-146365413D01*
X235492435Y-147461429D01*
X235280303Y-147673561D01*
G37*
G36*
X235633856Y-147320008D02*
G01*
X234537840Y-146223992D01*
X234749972Y-146011860D01*
X235845988Y-147107876D01*
X235633856Y-147320008D01*
G37*
G36*
X235987410Y-146966454D02*
G01*
X234891394Y-145870438D01*
X235103526Y-145658306D01*
X236199542Y-146754322D01*
X235987410Y-146966454D01*
G37*
G36*
X236340963Y-146612901D02*
G01*
X235244947Y-145516885D01*
X235457079Y-145304753D01*
X236553095Y-146400769D01*
X236340963Y-146612901D01*
G37*
G36*
X236694516Y-146259348D02*
G01*
X235598500Y-145163332D01*
X235810632Y-144951200D01*
X236906648Y-146047216D01*
X236694516Y-146259348D01*
G37*
G36*
X237048070Y-145905794D02*
G01*
X235952054Y-144809778D01*
X236164186Y-144597646D01*
X237260202Y-145693662D01*
X237048070Y-145905794D01*
G37*
G36*
X237401623Y-145552241D02*
G01*
X236305607Y-144456225D01*
X236517739Y-144244093D01*
X237613755Y-145340109D01*
X237401623Y-145552241D01*
G37*
G36*
X237755177Y-145198687D02*
G01*
X236659161Y-144102671D01*
X236871293Y-143890539D01*
X237967309Y-144986555D01*
X237755177Y-145198687D01*
G37*
G36*
X238108730Y-144845134D02*
G01*
X237012714Y-143749118D01*
X237224846Y-143536986D01*
X238320862Y-144633002D01*
X238108730Y-144845134D01*
G37*
G36*
X238462283Y-144491581D02*
G01*
X237366267Y-143395565D01*
X237578399Y-143183433D01*
X238674415Y-144279449D01*
X238462283Y-144491581D01*
G37*
G36*
X238815837Y-144138027D02*
G01*
X237719821Y-143042011D01*
X237931953Y-142829879D01*
X239027969Y-143925895D01*
X238815837Y-144138027D01*
G37*
G36*
X239169390Y-143784474D02*
G01*
X238073374Y-142688458D01*
X238285506Y-142476326D01*
X239381522Y-143572342D01*
X239169390Y-143784474D01*
G37*
G36*
X239522944Y-143430920D02*
G01*
X238426928Y-142334904D01*
X238639060Y-142122772D01*
X239735076Y-143218788D01*
X239522944Y-143430920D01*
G37*
G36*
X239876497Y-143077367D02*
G01*
X238780481Y-141981351D01*
X238992613Y-141769219D01*
X240088629Y-142865235D01*
X239876497Y-143077367D01*
G37*
G36*
X240230050Y-142723814D02*
G01*
X239134034Y-141627798D01*
X239346166Y-141415666D01*
X240442182Y-142511682D01*
X240230050Y-142723814D01*
G37*
G36*
X240583604Y-142370260D02*
G01*
X239487588Y-141274244D01*
X239699720Y-141062112D01*
X240795736Y-142158128D01*
X240583604Y-142370260D01*
G37*
G36*
X240937157Y-142016707D02*
G01*
X239841141Y-140920691D01*
X240053273Y-140708559D01*
X241149289Y-141804575D01*
X240937157Y-142016707D01*
G37*
G36*
X241290711Y-141663154D02*
G01*
X240194695Y-140567138D01*
X240406827Y-140355006D01*
X241502843Y-141451022D01*
X241290711Y-141663154D01*
G37*
G36*
X241644264Y-141309600D02*
G01*
X240548248Y-140213584D01*
X240760380Y-140001452D01*
X241856396Y-141097468D01*
X241644264Y-141309600D01*
G37*
G36*
X241997817Y-140956047D02*
G01*
X240901801Y-139860031D01*
X241113933Y-139647899D01*
X242209949Y-140743915D01*
X241997817Y-140956047D01*
G37*
G36*
X242351371Y-140602493D02*
G01*
X241255355Y-139506477D01*
X241467487Y-139294345D01*
X242563503Y-140390361D01*
X242351371Y-140602493D01*
G37*
G36*
X242704924Y-140248940D02*
G01*
X241608908Y-139152924D01*
X241821040Y-138940792D01*
X242917056Y-140036808D01*
X242704924Y-140248940D01*
G37*
G36*
X243058478Y-139895387D02*
G01*
X241962462Y-138799371D01*
X242174594Y-138587239D01*
X243270610Y-139683255D01*
X243058478Y-139895387D01*
G37*
G36*
X241962462Y-136536629D02*
G01*
X243058478Y-135440613D01*
X243270610Y-135652745D01*
X242174594Y-136748761D01*
X241962462Y-136536629D01*
G37*
G36*
X241608908Y-136183076D02*
G01*
X242704924Y-135087060D01*
X242917056Y-135299192D01*
X241821040Y-136395208D01*
X241608908Y-136183076D01*
G37*
G36*
X241255355Y-135829523D02*
G01*
X242351371Y-134733507D01*
X242563503Y-134945639D01*
X241467487Y-136041655D01*
X241255355Y-135829523D01*
G37*
G36*
X240901801Y-135475969D02*
G01*
X241997817Y-134379953D01*
X242209949Y-134592085D01*
X241113933Y-135688101D01*
X240901801Y-135475969D01*
G37*
G36*
X240548248Y-135122416D02*
G01*
X241644264Y-134026400D01*
X241856396Y-134238532D01*
X240760380Y-135334548D01*
X240548248Y-135122416D01*
G37*
G36*
X240194695Y-134768862D02*
G01*
X241290711Y-133672846D01*
X241502843Y-133884978D01*
X240406827Y-134980994D01*
X240194695Y-134768862D01*
G37*
G36*
X239841141Y-134415309D02*
G01*
X240937157Y-133319293D01*
X241149289Y-133531425D01*
X240053273Y-134627441D01*
X239841141Y-134415309D01*
G37*
G36*
X239487588Y-134061756D02*
G01*
X240583604Y-132965740D01*
X240795736Y-133177872D01*
X239699720Y-134273888D01*
X239487588Y-134061756D01*
G37*
G36*
X239134034Y-133708202D02*
G01*
X240230050Y-132612186D01*
X240442182Y-132824318D01*
X239346166Y-133920334D01*
X239134034Y-133708202D01*
G37*
G36*
X238780481Y-133354649D02*
G01*
X239876497Y-132258633D01*
X240088629Y-132470765D01*
X238992613Y-133566781D01*
X238780481Y-133354649D01*
G37*
G36*
X238426928Y-133001096D02*
G01*
X239522944Y-131905080D01*
X239735076Y-132117212D01*
X238639060Y-133213228D01*
X238426928Y-133001096D01*
G37*
G36*
X238073374Y-132647542D02*
G01*
X239169390Y-131551526D01*
X239381522Y-131763658D01*
X238285506Y-132859674D01*
X238073374Y-132647542D01*
G37*
G36*
X237719821Y-132293989D02*
G01*
X238815837Y-131197973D01*
X239027969Y-131410105D01*
X237931953Y-132506121D01*
X237719821Y-132293989D01*
G37*
G36*
X237366267Y-131940435D02*
G01*
X238462283Y-130844419D01*
X238674415Y-131056551D01*
X237578399Y-132152567D01*
X237366267Y-131940435D01*
G37*
G36*
X237012714Y-131586882D02*
G01*
X238108730Y-130490866D01*
X238320862Y-130702998D01*
X237224846Y-131799014D01*
X237012714Y-131586882D01*
G37*
G36*
X236659161Y-131233329D02*
G01*
X237755177Y-130137313D01*
X237967309Y-130349445D01*
X236871293Y-131445461D01*
X236659161Y-131233329D01*
G37*
G36*
X236305607Y-130879775D02*
G01*
X237401623Y-129783759D01*
X237613755Y-129995891D01*
X236517739Y-131091907D01*
X236305607Y-130879775D01*
G37*
G36*
X235952054Y-130526222D02*
G01*
X237048070Y-129430206D01*
X237260202Y-129642338D01*
X236164186Y-130738354D01*
X235952054Y-130526222D01*
G37*
G36*
X235598500Y-130172668D02*
G01*
X236694516Y-129076652D01*
X236906648Y-129288784D01*
X235810632Y-130384800D01*
X235598500Y-130172668D01*
G37*
G36*
X235244947Y-129819115D02*
G01*
X236340963Y-128723099D01*
X236553095Y-128935231D01*
X235457079Y-130031247D01*
X235244947Y-129819115D01*
G37*
G36*
X234891394Y-129465562D02*
G01*
X235987410Y-128369546D01*
X236199542Y-128581678D01*
X235103526Y-129677694D01*
X234891394Y-129465562D01*
G37*
G36*
X234537840Y-129112008D02*
G01*
X235633856Y-128015992D01*
X235845988Y-128228124D01*
X234749972Y-129324140D01*
X234537840Y-129112008D01*
G37*
G36*
X234184287Y-128758455D02*
G01*
X235280303Y-127662439D01*
X235492435Y-127874571D01*
X234396419Y-128970587D01*
X234184287Y-128758455D01*
G37*
G36*
X233830734Y-128404901D02*
G01*
X234926750Y-127308885D01*
X235138882Y-127521017D01*
X234042866Y-128617033D01*
X233830734Y-128404901D01*
G37*
G36*
X233477180Y-128051348D02*
G01*
X234573196Y-126955332D01*
X234785328Y-127167464D01*
X233689312Y-128263480D01*
X233477180Y-128051348D01*
G37*
G36*
X233123627Y-127697795D02*
G01*
X234219643Y-126601779D01*
X234431775Y-126813911D01*
X233335759Y-127909927D01*
X233123627Y-127697795D01*
G37*
G36*
X232770073Y-127344241D02*
G01*
X233866089Y-126248225D01*
X234078221Y-126460357D01*
X232982205Y-127556373D01*
X232770073Y-127344241D01*
G37*
G36*
X232416520Y-126990688D02*
G01*
X233512536Y-125894672D01*
X233724668Y-126106804D01*
X232628652Y-127202820D01*
X232416520Y-126990688D01*
G37*
G36*
X232062967Y-126637134D02*
G01*
X233158983Y-125541118D01*
X233371115Y-125753250D01*
X232275099Y-126849266D01*
X232062967Y-126637134D01*
G37*
G36*
X231709413Y-126283581D02*
G01*
X232805429Y-125187565D01*
X233017561Y-125399697D01*
X231921545Y-126495713D01*
X231709413Y-126283581D01*
G37*
G36*
X231355860Y-125930028D02*
G01*
X232451876Y-124834012D01*
X232664008Y-125046144D01*
X231567992Y-126142160D01*
X231355860Y-125930028D01*
G37*
G36*
X231002306Y-125576474D02*
G01*
X232098322Y-124480458D01*
X232310454Y-124692590D01*
X231214438Y-125788606D01*
X231002306Y-125576474D01*
G37*
G36*
X230648753Y-125222921D02*
G01*
X231744769Y-124126905D01*
X231956901Y-124339037D01*
X230860885Y-125435053D01*
X230648753Y-125222921D01*
G37*
G36*
X230295200Y-124869368D02*
G01*
X231391216Y-123773352D01*
X231603348Y-123985484D01*
X230507332Y-125081500D01*
X230295200Y-124869368D01*
G37*
G36*
X229941646Y-124515814D02*
G01*
X231037662Y-123419798D01*
X231249794Y-123631930D01*
X230153778Y-124727946D01*
X229941646Y-124515814D01*
G37*
G36*
X229588093Y-124162261D02*
G01*
X230684109Y-123066245D01*
X230896241Y-123278377D01*
X229800225Y-124374393D01*
X229588093Y-124162261D01*
G37*
G36*
X229234539Y-123808707D02*
G01*
X230330555Y-122712691D01*
X230542687Y-122924823D01*
X229446671Y-124020839D01*
X229234539Y-123808707D01*
G37*
G36*
X228880986Y-123455154D02*
G01*
X229977002Y-122359138D01*
X230189134Y-122571270D01*
X229093118Y-123667286D01*
X228880986Y-123455154D01*
G37*
G36*
X228527433Y-123101601D02*
G01*
X229623449Y-122005585D01*
X229835581Y-122217717D01*
X228739565Y-123313733D01*
X228527433Y-123101601D01*
G37*
G36*
X228173879Y-122748047D02*
G01*
X229269895Y-121652031D01*
X229482027Y-121864163D01*
X228386011Y-122960179D01*
X228173879Y-122748047D01*
G37*
G36*
X227820326Y-122394494D02*
G01*
X228916342Y-121298478D01*
X229128474Y-121510610D01*
X228032458Y-122606626D01*
X227820326Y-122394494D01*
G37*
G36*
X227466772Y-122040940D02*
G01*
X228562788Y-120944924D01*
X228774920Y-121157056D01*
X227678904Y-122253072D01*
X227466772Y-122040940D01*
G37*
G36*
X227113219Y-121687387D02*
G01*
X228209235Y-120591371D01*
X228421367Y-120803503D01*
X227325351Y-121899519D01*
X227113219Y-121687387D01*
G37*
G36*
X226759666Y-121333834D02*
G01*
X227855682Y-120237818D01*
X228067814Y-120449950D01*
X226971798Y-121545966D01*
X226759666Y-121333834D01*
G37*
G36*
X226406112Y-120980280D02*
G01*
X227502128Y-119884264D01*
X227714260Y-120096396D01*
X226618244Y-121192412D01*
X226406112Y-120980280D01*
G37*
G36*
X226052559Y-120626727D02*
G01*
X227148575Y-119530711D01*
X227360707Y-119742843D01*
X226264691Y-120838859D01*
X226052559Y-120626727D01*
G37*
G36*
X225699006Y-120273173D02*
G01*
X226795022Y-119177157D01*
X227007154Y-119389289D01*
X225911138Y-120485305D01*
X225699006Y-120273173D01*
G37*
G36*
X225345452Y-119919620D02*
G01*
X226441468Y-118823604D01*
X226653600Y-119035736D01*
X225557584Y-120131752D01*
X225345452Y-119919620D01*
G37*
G36*
X224991899Y-119566067D02*
G01*
X226087915Y-118470051D01*
X226300047Y-118682183D01*
X225204031Y-119778199D01*
X224991899Y-119566067D01*
G37*
G36*
X224638345Y-119212513D02*
G01*
X225734361Y-118116497D01*
X225946493Y-118328629D01*
X224850477Y-119424645D01*
X224638345Y-119212513D01*
G37*
G36*
X224284792Y-118858960D02*
G01*
X225380808Y-117762944D01*
X225592940Y-117975076D01*
X224496924Y-119071092D01*
X224284792Y-118858960D01*
G37*
G36*
X223931239Y-118505406D02*
G01*
X225027255Y-117409390D01*
X225239387Y-117621522D01*
X224143371Y-118717538D01*
X223931239Y-118505406D01*
G37*
%TD*%
D23*
%TO.C,U3*%
X145148000Y-115552000D03*
X145148000Y-116352000D03*
X145148000Y-117152000D03*
X145148000Y-117952000D03*
X145148000Y-118752000D03*
X145148000Y-119552000D03*
X145148000Y-120352000D03*
X145148000Y-121152000D03*
X145148000Y-121952000D03*
X145148000Y-122752000D03*
X145148000Y-123552000D03*
X145148000Y-124352000D03*
X145148000Y-125152000D03*
X145148000Y-125952000D03*
X145148000Y-126752000D03*
X145148000Y-127552000D03*
X145148000Y-128352000D03*
X145148000Y-129152000D03*
X145148000Y-129952000D03*
X145148000Y-130752000D03*
X145148000Y-131552000D03*
X145148000Y-132352000D03*
X156604000Y-132352000D03*
X156604000Y-131552000D03*
X156604000Y-130752000D03*
X156604000Y-129952000D03*
X156604000Y-129152000D03*
X156604000Y-128352000D03*
X156604000Y-127552000D03*
X156604000Y-126752000D03*
X156604000Y-125952000D03*
X156604000Y-125152000D03*
X156604000Y-124352000D03*
X156604000Y-123552000D03*
X156604000Y-122752000D03*
X156604000Y-121952000D03*
X156604000Y-121152000D03*
X156604000Y-120352000D03*
X156604000Y-119552000D03*
X156604000Y-118752000D03*
X156604000Y-117952000D03*
X156604000Y-117152000D03*
X156604000Y-116352000D03*
X156604000Y-115552000D03*
%TD*%
%TO.C,U4*%
X172072000Y-115552000D03*
X172072000Y-116352000D03*
X172072000Y-117152000D03*
X172072000Y-117952000D03*
X172072000Y-118752000D03*
X172072000Y-119552000D03*
X172072000Y-120352000D03*
X172072000Y-121152000D03*
X172072000Y-121952000D03*
X172072000Y-122752000D03*
X172072000Y-123552000D03*
X172072000Y-124352000D03*
X172072000Y-125152000D03*
X172072000Y-125952000D03*
X172072000Y-126752000D03*
X172072000Y-127552000D03*
X172072000Y-128352000D03*
X172072000Y-129152000D03*
X172072000Y-129952000D03*
X172072000Y-130752000D03*
X172072000Y-131552000D03*
X172072000Y-132352000D03*
X183528000Y-132352000D03*
X183528000Y-131552000D03*
X183528000Y-130752000D03*
X183528000Y-129952000D03*
X183528000Y-129152000D03*
X183528000Y-128352000D03*
X183528000Y-127552000D03*
X183528000Y-126752000D03*
X183528000Y-125952000D03*
X183528000Y-125152000D03*
X183528000Y-124352000D03*
X183528000Y-123552000D03*
X183528000Y-122752000D03*
X183528000Y-121952000D03*
X183528000Y-121152000D03*
X183528000Y-120352000D03*
X183528000Y-119552000D03*
X183528000Y-118752000D03*
X183528000Y-117952000D03*
X183528000Y-117152000D03*
X183528000Y-116352000D03*
X183528000Y-115552000D03*
%TD*%
%TO.C,U5*%
X156604000Y-141968000D03*
X156604000Y-142768000D03*
X156604000Y-143568000D03*
X156604000Y-144368000D03*
X156604000Y-145168000D03*
X156604000Y-145968000D03*
X156604000Y-146768000D03*
X156604000Y-147568000D03*
X156604000Y-148368000D03*
X156604000Y-149168000D03*
X156604000Y-149968000D03*
X156604000Y-150768000D03*
X156604000Y-151568000D03*
X156604000Y-152368000D03*
X156604000Y-153168000D03*
X156604000Y-153968000D03*
X156604000Y-154768000D03*
X156604000Y-155568000D03*
X156604000Y-156368000D03*
X156604000Y-157168000D03*
X156604000Y-157968000D03*
X156604000Y-158768000D03*
X145148000Y-158768000D03*
X145148000Y-157968000D03*
X145148000Y-157168000D03*
X145148000Y-156368000D03*
X145148000Y-155568000D03*
X145148000Y-154768000D03*
X145148000Y-153968000D03*
X145148000Y-153168000D03*
X145148000Y-152368000D03*
X145148000Y-151568000D03*
X145148000Y-150768000D03*
X145148000Y-149968000D03*
X145148000Y-149168000D03*
X145148000Y-148368000D03*
X145148000Y-147568000D03*
X145148000Y-146768000D03*
X145148000Y-145968000D03*
X145148000Y-145168000D03*
X145148000Y-144368000D03*
X145148000Y-143568000D03*
X145148000Y-142768000D03*
X145148000Y-141968000D03*
%TD*%
%TO.C,U6*%
X183528000Y-141968000D03*
X183528000Y-142768000D03*
X183528000Y-143568000D03*
X183528000Y-144368000D03*
X183528000Y-145168000D03*
X183528000Y-145968000D03*
X183528000Y-146768000D03*
X183528000Y-147568000D03*
X183528000Y-148368000D03*
X183528000Y-149168000D03*
X183528000Y-149968000D03*
X183528000Y-150768000D03*
X183528000Y-151568000D03*
X183528000Y-152368000D03*
X183528000Y-153168000D03*
X183528000Y-153968000D03*
X183528000Y-154768000D03*
X183528000Y-155568000D03*
X183528000Y-156368000D03*
X183528000Y-157168000D03*
X183528000Y-157968000D03*
X183528000Y-158768000D03*
X172072000Y-158768000D03*
X172072000Y-157968000D03*
X172072000Y-157168000D03*
X172072000Y-156368000D03*
X172072000Y-155568000D03*
X172072000Y-154768000D03*
X172072000Y-153968000D03*
X172072000Y-153168000D03*
X172072000Y-152368000D03*
X172072000Y-151568000D03*
X172072000Y-150768000D03*
X172072000Y-149968000D03*
X172072000Y-149168000D03*
X172072000Y-148368000D03*
X172072000Y-147568000D03*
X172072000Y-146768000D03*
X172072000Y-145968000D03*
X172072000Y-145168000D03*
X172072000Y-144368000D03*
X172072000Y-143568000D03*
X172072000Y-142768000D03*
X172072000Y-141968000D03*
%TD*%
%TO.C,U8*%
G36*
G01*
X156741000Y-86508000D02*
X156441000Y-86508000D01*
G75*
G02*
X156291000Y-86358000I0J150000D01*
G01*
X156291000Y-84708000D01*
G75*
G02*
X156441000Y-84558000I150000J0D01*
G01*
X156741000Y-84558000D01*
G75*
G02*
X156891000Y-84708000I0J-150000D01*
G01*
X156891000Y-86358000D01*
G75*
G02*
X156741000Y-86508000I-150000J0D01*
G01*
G37*
G36*
G01*
X158011000Y-86508000D02*
X157711000Y-86508000D01*
G75*
G02*
X157561000Y-86358000I0J150000D01*
G01*
X157561000Y-84708000D01*
G75*
G02*
X157711000Y-84558000I150000J0D01*
G01*
X158011000Y-84558000D01*
G75*
G02*
X158161000Y-84708000I0J-150000D01*
G01*
X158161000Y-86358000D01*
G75*
G02*
X158011000Y-86508000I-150000J0D01*
G01*
G37*
G36*
G01*
X159281000Y-86508000D02*
X158981000Y-86508000D01*
G75*
G02*
X158831000Y-86358000I0J150000D01*
G01*
X158831000Y-84708000D01*
G75*
G02*
X158981000Y-84558000I150000J0D01*
G01*
X159281000Y-84558000D01*
G75*
G02*
X159431000Y-84708000I0J-150000D01*
G01*
X159431000Y-86358000D01*
G75*
G02*
X159281000Y-86508000I-150000J0D01*
G01*
G37*
G36*
G01*
X160551000Y-86508000D02*
X160251000Y-86508000D01*
G75*
G02*
X160101000Y-86358000I0J150000D01*
G01*
X160101000Y-84708000D01*
G75*
G02*
X160251000Y-84558000I150000J0D01*
G01*
X160551000Y-84558000D01*
G75*
G02*
X160701000Y-84708000I0J-150000D01*
G01*
X160701000Y-86358000D01*
G75*
G02*
X160551000Y-86508000I-150000J0D01*
G01*
G37*
G36*
G01*
X161821000Y-86508000D02*
X161521000Y-86508000D01*
G75*
G02*
X161371000Y-86358000I0J150000D01*
G01*
X161371000Y-84708000D01*
G75*
G02*
X161521000Y-84558000I150000J0D01*
G01*
X161821000Y-84558000D01*
G75*
G02*
X161971000Y-84708000I0J-150000D01*
G01*
X161971000Y-86358000D01*
G75*
G02*
X161821000Y-86508000I-150000J0D01*
G01*
G37*
G36*
G01*
X163091000Y-86508000D02*
X162791000Y-86508000D01*
G75*
G02*
X162641000Y-86358000I0J150000D01*
G01*
X162641000Y-84708000D01*
G75*
G02*
X162791000Y-84558000I150000J0D01*
G01*
X163091000Y-84558000D01*
G75*
G02*
X163241000Y-84708000I0J-150000D01*
G01*
X163241000Y-86358000D01*
G75*
G02*
X163091000Y-86508000I-150000J0D01*
G01*
G37*
G36*
G01*
X164361000Y-86508000D02*
X164061000Y-86508000D01*
G75*
G02*
X163911000Y-86358000I0J150000D01*
G01*
X163911000Y-84708000D01*
G75*
G02*
X164061000Y-84558000I150000J0D01*
G01*
X164361000Y-84558000D01*
G75*
G02*
X164511000Y-84708000I0J-150000D01*
G01*
X164511000Y-86358000D01*
G75*
G02*
X164361000Y-86508000I-150000J0D01*
G01*
G37*
G36*
G01*
X165631000Y-86508000D02*
X165331000Y-86508000D01*
G75*
G02*
X165181000Y-86358000I0J150000D01*
G01*
X165181000Y-84708000D01*
G75*
G02*
X165331000Y-84558000I150000J0D01*
G01*
X165631000Y-84558000D01*
G75*
G02*
X165781000Y-84708000I0J-150000D01*
G01*
X165781000Y-86358000D01*
G75*
G02*
X165631000Y-86508000I-150000J0D01*
G01*
G37*
G36*
G01*
X165631000Y-81558000D02*
X165331000Y-81558000D01*
G75*
G02*
X165181000Y-81408000I0J150000D01*
G01*
X165181000Y-79758000D01*
G75*
G02*
X165331000Y-79608000I150000J0D01*
G01*
X165631000Y-79608000D01*
G75*
G02*
X165781000Y-79758000I0J-150000D01*
G01*
X165781000Y-81408000D01*
G75*
G02*
X165631000Y-81558000I-150000J0D01*
G01*
G37*
G36*
G01*
X164361000Y-81558000D02*
X164061000Y-81558000D01*
G75*
G02*
X163911000Y-81408000I0J150000D01*
G01*
X163911000Y-79758000D01*
G75*
G02*
X164061000Y-79608000I150000J0D01*
G01*
X164361000Y-79608000D01*
G75*
G02*
X164511000Y-79758000I0J-150000D01*
G01*
X164511000Y-81408000D01*
G75*
G02*
X164361000Y-81558000I-150000J0D01*
G01*
G37*
G36*
G01*
X163091000Y-81558000D02*
X162791000Y-81558000D01*
G75*
G02*
X162641000Y-81408000I0J150000D01*
G01*
X162641000Y-79758000D01*
G75*
G02*
X162791000Y-79608000I150000J0D01*
G01*
X163091000Y-79608000D01*
G75*
G02*
X163241000Y-79758000I0J-150000D01*
G01*
X163241000Y-81408000D01*
G75*
G02*
X163091000Y-81558000I-150000J0D01*
G01*
G37*
G36*
G01*
X161821000Y-81558000D02*
X161521000Y-81558000D01*
G75*
G02*
X161371000Y-81408000I0J150000D01*
G01*
X161371000Y-79758000D01*
G75*
G02*
X161521000Y-79608000I150000J0D01*
G01*
X161821000Y-79608000D01*
G75*
G02*
X161971000Y-79758000I0J-150000D01*
G01*
X161971000Y-81408000D01*
G75*
G02*
X161821000Y-81558000I-150000J0D01*
G01*
G37*
G36*
G01*
X160551000Y-81558000D02*
X160251000Y-81558000D01*
G75*
G02*
X160101000Y-81408000I0J150000D01*
G01*
X160101000Y-79758000D01*
G75*
G02*
X160251000Y-79608000I150000J0D01*
G01*
X160551000Y-79608000D01*
G75*
G02*
X160701000Y-79758000I0J-150000D01*
G01*
X160701000Y-81408000D01*
G75*
G02*
X160551000Y-81558000I-150000J0D01*
G01*
G37*
G36*
G01*
X159281000Y-81558000D02*
X158981000Y-81558000D01*
G75*
G02*
X158831000Y-81408000I0J150000D01*
G01*
X158831000Y-79758000D01*
G75*
G02*
X158981000Y-79608000I150000J0D01*
G01*
X159281000Y-79608000D01*
G75*
G02*
X159431000Y-79758000I0J-150000D01*
G01*
X159431000Y-81408000D01*
G75*
G02*
X159281000Y-81558000I-150000J0D01*
G01*
G37*
G36*
G01*
X158011000Y-81558000D02*
X157711000Y-81558000D01*
G75*
G02*
X157561000Y-81408000I0J150000D01*
G01*
X157561000Y-79758000D01*
G75*
G02*
X157711000Y-79608000I150000J0D01*
G01*
X158011000Y-79608000D01*
G75*
G02*
X158161000Y-79758000I0J-150000D01*
G01*
X158161000Y-81408000D01*
G75*
G02*
X158011000Y-81558000I-150000J0D01*
G01*
G37*
G36*
G01*
X156741000Y-81558000D02*
X156441000Y-81558000D01*
G75*
G02*
X156291000Y-81408000I0J150000D01*
G01*
X156291000Y-79758000D01*
G75*
G02*
X156441000Y-79608000I150000J0D01*
G01*
X156741000Y-79608000D01*
G75*
G02*
X156891000Y-79758000I0J-150000D01*
G01*
X156891000Y-81408000D01*
G75*
G02*
X156741000Y-81558000I-150000J0D01*
G01*
G37*
%TD*%
D24*
%TO.C,Y1*%
X193548000Y-200025000D03*
X203048000Y-200025000D03*
%TD*%
D25*
%TO.C,Y2*%
X138049000Y-171822000D03*
X138049000Y-163322000D03*
%TD*%
D26*
%TO.C,C53*%
X217923000Y-210312000D03*
X226323000Y-210312000D03*
%TD*%
%TO.C,C54*%
X226323000Y-198755000D03*
X217923000Y-198755000D03*
%TD*%
D27*
%TO.C,C55*%
X288270000Y-213360000D03*
X293370000Y-213360000D03*
%TD*%
%TO.C,C56*%
X293370000Y-205359000D03*
X288270000Y-205359000D03*
%TD*%
D28*
%TO.C,IC8*%
X255950400Y-211063800D03*
X255950400Y-212013800D03*
X255950400Y-212963800D03*
X258450400Y-212963800D03*
X258450400Y-212013800D03*
X258450400Y-211063800D03*
%TD*%
M02*
