%TF.GenerationSoftware,KiCad,Pcbnew,(5.1.6)-1*%
%TF.CreationDate,2022-06-23T16:10:57-04:00*%
%TF.ProjectId,MigStorm-ITX,4d696753-746f-4726-9d2d-4954582e6b69,rev?*%
%TF.SameCoordinates,Original*%
%TF.FileFunction,Legend,Bot*%
%TF.FilePolarity,Positive*%
%FSLAX46Y46*%
G04 Gerber Fmt 4.6, Leading zero omitted, Abs format (unit mm)*
G04 Created by KiCad (PCBNEW (5.1.6)-1) date 2022-06-23 16:10:57*
%MOMM*%
%LPD*%
G01*
G04 APERTURE LIST*
%ADD10C,0.120000*%
%ADD11C,0.150000*%
G04 APERTURE END LIST*
D10*
%TO.C,C3*%
X203808529Y-133237563D02*
X204177995Y-132868097D01*
X202804437Y-132233471D02*
X203173903Y-131864005D01*
%TO.C,C6*%
X205549313Y-143712221D02*
X205918779Y-144081687D01*
X204545221Y-144716313D02*
X204914687Y-145085779D01*
%TO.C,C7*%
X208990221Y-148907313D02*
X209359687Y-149276779D01*
X209994313Y-147903221D02*
X210363779Y-148272687D01*
%TO.C,C10*%
X230199221Y-146240687D02*
X230568687Y-145871221D01*
X231203313Y-147244779D02*
X231572779Y-146875313D01*
%TO.C,C11*%
X238237437Y-136625529D02*
X238606903Y-136994995D01*
X239241529Y-135621437D02*
X239610995Y-135990903D01*
%TO.C,C12*%
X230224529Y-118476437D02*
X230593995Y-118845903D01*
X229220437Y-119480529D02*
X229589903Y-119849995D01*
%TO.C,C13*%
X231723221Y-130746313D02*
X232092687Y-131115779D01*
X232727313Y-129742221D02*
X233096779Y-130111687D01*
%TO.C,C14*%
X213562221Y-145732313D02*
X213931687Y-146101779D01*
X214566313Y-144728221D02*
X214935779Y-145097687D01*
%TO.C,C15*%
X207454313Y-137706005D02*
X207823779Y-138075471D01*
X206450221Y-138710097D02*
X206819687Y-139079563D01*
%TO.C,C16*%
X213005471Y-153303563D02*
X212636005Y-152934097D01*
X214009563Y-152299471D02*
X213640097Y-151930005D01*
%TO.C,C17*%
X217729779Y-147891687D02*
X217360313Y-147522221D01*
X216725687Y-148895779D02*
X216356221Y-148526313D01*
%TO.C,C18*%
X232776437Y-124052529D02*
X233145903Y-124421995D01*
X233780529Y-123048437D02*
X234149995Y-123417903D01*
%TO.C,C19*%
X235382779Y-143065313D02*
X235013313Y-143434779D01*
X234378687Y-142061221D02*
X234009221Y-142430687D01*
%TO.C,C20*%
X235992471Y-127268563D02*
X235623005Y-126899097D01*
X236996563Y-126264471D02*
X236627097Y-125895005D01*
%TO.C,C21*%
X257055252Y-148642000D02*
X256532748Y-148642000D01*
X257055252Y-150062000D02*
X256532748Y-150062000D01*
%TO.C,C22*%
X287275748Y-155142000D02*
X287798252Y-155142000D01*
X287275748Y-153722000D02*
X287798252Y-153722000D01*
%TO.C,C23*%
X257046252Y-165302000D02*
X256523748Y-165302000D01*
X257046252Y-163882000D02*
X256523748Y-163882000D01*
%TO.C,C24*%
X257046252Y-166422000D02*
X256523748Y-166422000D01*
X257046252Y-167842000D02*
X256523748Y-167842000D01*
%TO.C,C25*%
X148582748Y-123242000D02*
X149105252Y-123242000D01*
X148582748Y-124662000D02*
X149105252Y-124662000D01*
%TO.C,C26*%
X153160252Y-124662000D02*
X152637748Y-124662000D01*
X153160252Y-123242000D02*
X152637748Y-123242000D01*
%TO.C,C27*%
X175506748Y-124662000D02*
X176029252Y-124662000D01*
X175506748Y-123242000D02*
X176029252Y-123242000D01*
%TO.C,C28*%
X180093252Y-124662000D02*
X179570748Y-124662000D01*
X180093252Y-123242000D02*
X179570748Y-123242000D01*
%TO.C,C29*%
X148582748Y-151078000D02*
X149105252Y-151078000D01*
X148582748Y-149658000D02*
X149105252Y-149658000D01*
%TO.C,C30*%
X153169252Y-151078000D02*
X152646748Y-151078000D01*
X153169252Y-149658000D02*
X152646748Y-149658000D01*
%TO.C,C31*%
X175252748Y-151078000D02*
X175775252Y-151078000D01*
X175252748Y-149658000D02*
X175775252Y-149658000D01*
%TO.C,C32*%
X180093252Y-151078000D02*
X179570748Y-151078000D01*
X180093252Y-149658000D02*
X179570748Y-149658000D01*
%TO.C,C41*%
X180577748Y-202386000D02*
X181100252Y-202386000D01*
X180577748Y-200966000D02*
X181100252Y-200966000D01*
%TO.C,D5*%
X220601000Y-84511000D02*
X220601000Y-83581000D01*
X220601000Y-81351000D02*
X220601000Y-82281000D01*
X220601000Y-81351000D02*
X222761000Y-81351000D01*
X220601000Y-84511000D02*
X222061000Y-84511000D01*
%TO.C,D6*%
X228618000Y-84638000D02*
X230078000Y-84638000D01*
X228618000Y-81478000D02*
X230778000Y-81478000D01*
X228618000Y-81478000D02*
X228618000Y-82408000D01*
X228618000Y-84638000D02*
X228618000Y-83708000D01*
%TO.C,R7*%
X220191529Y-126125563D02*
X220560995Y-125756097D01*
X219187437Y-125121471D02*
X219556903Y-124752005D01*
%TO.C,R24*%
X173338748Y-212546000D02*
X173861252Y-212546000D01*
X173338748Y-211126000D02*
X173861252Y-211126000D01*
%TO.C,R29*%
X152221000Y-200676252D02*
X152221000Y-200153748D01*
X150801000Y-200676252D02*
X150801000Y-200153748D01*
%TO.C,R30*%
X162254000Y-205502252D02*
X162254000Y-204979748D01*
X160834000Y-205502252D02*
X160834000Y-204979748D01*
%TO.C,R31*%
X158294000Y-205484252D02*
X158294000Y-204961748D01*
X159714000Y-205484252D02*
X159714000Y-204961748D01*
%TO.C,R32*%
X150801000Y-205484252D02*
X150801000Y-204961748D01*
X152221000Y-205484252D02*
X152221000Y-204961748D01*
%TO.C,R33*%
X145848000Y-205502252D02*
X145848000Y-204979748D01*
X147268000Y-205502252D02*
X147268000Y-204979748D01*
%TO.C,R63*%
X219956748Y-59107000D02*
X220479252Y-59107000D01*
X219956748Y-60527000D02*
X220479252Y-60527000D01*
%TO.C,R64*%
X217730000Y-84217252D02*
X217730000Y-83694748D01*
X219150000Y-84217252D02*
X219150000Y-83694748D01*
%TO.C,R65*%
X227024000Y-84326252D02*
X227024000Y-83803748D01*
X225604000Y-84326252D02*
X225604000Y-83803748D01*
%TO.C,C3*%
D11*
X205028331Y-133852197D02*
X205095674Y-133852197D01*
X205230361Y-133784853D01*
X205297705Y-133717510D01*
X205365048Y-133582822D01*
X205365048Y-133448135D01*
X205331377Y-133347120D01*
X205230361Y-133178761D01*
X205129346Y-133077746D01*
X204960987Y-132976731D01*
X204859972Y-132943059D01*
X204725285Y-132943059D01*
X204590598Y-133010403D01*
X204523254Y-133077746D01*
X204455911Y-133212433D01*
X204455911Y-133279777D01*
X204152865Y-133448135D02*
X203715132Y-133885868D01*
X204220209Y-133919540D01*
X204119193Y-134020555D01*
X204085522Y-134121571D01*
X204085522Y-134188914D01*
X204119193Y-134289929D01*
X204287552Y-134458288D01*
X204388567Y-134491960D01*
X204455911Y-134491960D01*
X204556926Y-134458288D01*
X204758957Y-134256258D01*
X204792629Y-134155242D01*
X204792629Y-134087899D01*
%TO.C,C6*%
X203930586Y-145936115D02*
X203930586Y-146003458D01*
X203997930Y-146138145D01*
X204065274Y-146205489D01*
X204199961Y-146272832D01*
X204334648Y-146272832D01*
X204435663Y-146239161D01*
X204604022Y-146138145D01*
X204705037Y-146037130D01*
X204806052Y-145868771D01*
X204839724Y-145767756D01*
X204839724Y-145633069D01*
X204772380Y-145498382D01*
X204705037Y-145431038D01*
X204570350Y-145363695D01*
X204503006Y-145363695D01*
X203964258Y-144690260D02*
X204098945Y-144824947D01*
X204132617Y-144925962D01*
X204132617Y-144993306D01*
X204098945Y-145161664D01*
X203997930Y-145330023D01*
X203728556Y-145599397D01*
X203627541Y-145633069D01*
X203560197Y-145633069D01*
X203459182Y-145599397D01*
X203324495Y-145464710D01*
X203290823Y-145363695D01*
X203290823Y-145296351D01*
X203324495Y-145195336D01*
X203492854Y-145026977D01*
X203593869Y-144993306D01*
X203661212Y-144993306D01*
X203762228Y-145026977D01*
X203896915Y-145161664D01*
X203930586Y-145262680D01*
X203930586Y-145330023D01*
X203896915Y-145431038D01*
%TO.C,C7*%
X208375586Y-150127115D02*
X208375586Y-150194458D01*
X208442930Y-150329145D01*
X208510274Y-150396489D01*
X208644961Y-150463832D01*
X208779648Y-150463832D01*
X208880663Y-150430161D01*
X209049022Y-150329145D01*
X209150037Y-150228130D01*
X209251052Y-150059771D01*
X209284724Y-149958756D01*
X209284724Y-149824069D01*
X209217380Y-149689382D01*
X209150037Y-149622038D01*
X209015350Y-149554695D01*
X208948006Y-149554695D01*
X208779648Y-149251649D02*
X208308243Y-148780245D01*
X207904182Y-149790397D01*
%TO.C,C10*%
X232759832Y-147522695D02*
X232827176Y-147522695D01*
X232961863Y-147455351D01*
X233029206Y-147388008D01*
X233096550Y-147253321D01*
X233096550Y-147118634D01*
X233062878Y-147017619D01*
X232961863Y-146849260D01*
X232860848Y-146748245D01*
X232692489Y-146647229D01*
X232591474Y-146613558D01*
X232456787Y-146613558D01*
X232322100Y-146680901D01*
X232254756Y-146748245D01*
X232187413Y-146882932D01*
X232187413Y-146950275D01*
X232153741Y-148263474D02*
X232557802Y-147859413D01*
X232355771Y-148061443D02*
X231648664Y-147354336D01*
X231817023Y-147388008D01*
X231951710Y-147388008D01*
X232052725Y-147354336D01*
X231008901Y-147994100D02*
X230941558Y-148061443D01*
X230907886Y-148162458D01*
X230907886Y-148229802D01*
X230941558Y-148330817D01*
X231042573Y-148499176D01*
X231210932Y-148667535D01*
X231379290Y-148768550D01*
X231480306Y-148802222D01*
X231547649Y-148802222D01*
X231648664Y-148768550D01*
X231716008Y-148701206D01*
X231749680Y-148600191D01*
X231749680Y-148532848D01*
X231716008Y-148431832D01*
X231614993Y-148263474D01*
X231446634Y-148095115D01*
X231278275Y-147994100D01*
X231177260Y-147960428D01*
X231109916Y-147960428D01*
X231008901Y-147994100D01*
%TO.C,C11*%
X237959520Y-138182048D02*
X237959520Y-138249392D01*
X238026864Y-138384079D01*
X238094207Y-138451422D01*
X238228894Y-138518766D01*
X238363581Y-138518766D01*
X238464596Y-138485094D01*
X238632955Y-138384079D01*
X238733970Y-138283064D01*
X238834986Y-138114705D01*
X238868657Y-138013690D01*
X238868657Y-137879003D01*
X238801314Y-137744316D01*
X238733970Y-137676972D01*
X238599283Y-137609629D01*
X238531940Y-137609629D01*
X237218741Y-137575957D02*
X237622802Y-137980018D01*
X237420772Y-137777987D02*
X238127879Y-137070880D01*
X238094207Y-137239239D01*
X238094207Y-137373926D01*
X238127879Y-137474941D01*
X236545306Y-136902522D02*
X236949367Y-137306583D01*
X236747337Y-137104552D02*
X237454444Y-136397445D01*
X237420772Y-136565804D01*
X237420772Y-136700491D01*
X237454444Y-136801506D01*
%TO.C,C12*%
X228942520Y-121037048D02*
X228942520Y-121104392D01*
X229009864Y-121239079D01*
X229077207Y-121306422D01*
X229211894Y-121373766D01*
X229346581Y-121373766D01*
X229447596Y-121340094D01*
X229615955Y-121239079D01*
X229716970Y-121138064D01*
X229817986Y-120969705D01*
X229851657Y-120868690D01*
X229851657Y-120734003D01*
X229784314Y-120599316D01*
X229716970Y-120531972D01*
X229582283Y-120464629D01*
X229514940Y-120464629D01*
X228201741Y-120430957D02*
X228605802Y-120835018D01*
X228403772Y-120632987D02*
X229110879Y-119925880D01*
X229077207Y-120094239D01*
X229077207Y-120228926D01*
X229110879Y-120329941D01*
X228572131Y-119521819D02*
X228572131Y-119454476D01*
X228538459Y-119353461D01*
X228370100Y-119185102D01*
X228269085Y-119151430D01*
X228201741Y-119151430D01*
X228100726Y-119185102D01*
X228033383Y-119252445D01*
X227966039Y-119387132D01*
X227966039Y-120195254D01*
X227528306Y-119757522D01*
%TO.C,C13*%
X231445304Y-132302832D02*
X231445304Y-132370176D01*
X231512648Y-132504863D01*
X231579991Y-132572206D01*
X231714678Y-132639550D01*
X231849365Y-132639550D01*
X231950380Y-132605878D01*
X232118739Y-132504863D01*
X232219754Y-132403848D01*
X232320770Y-132235489D01*
X232354441Y-132134474D01*
X232354441Y-131999787D01*
X232287098Y-131865100D01*
X232219754Y-131797756D01*
X232085067Y-131730413D01*
X232017724Y-131730413D01*
X230704525Y-131696741D02*
X231108586Y-132100802D01*
X230906556Y-131898771D02*
X231613663Y-131191664D01*
X231579991Y-131360023D01*
X231579991Y-131494710D01*
X231613663Y-131595725D01*
X231175930Y-130753932D02*
X230738197Y-130316199D01*
X230704525Y-130821275D01*
X230603510Y-130720260D01*
X230502495Y-130686588D01*
X230435151Y-130686588D01*
X230334136Y-130720260D01*
X230165777Y-130888619D01*
X230132106Y-130989634D01*
X230132106Y-131056977D01*
X230165777Y-131157993D01*
X230367808Y-131360023D01*
X230468823Y-131393695D01*
X230536167Y-131393695D01*
%TO.C,C14*%
X213181030Y-147392106D02*
X213181030Y-147459450D01*
X213248374Y-147594137D01*
X213315717Y-147661480D01*
X213450404Y-147728824D01*
X213585091Y-147728824D01*
X213686106Y-147695152D01*
X213854465Y-147594137D01*
X213955480Y-147493122D01*
X214056496Y-147324763D01*
X214090167Y-147223748D01*
X214090167Y-147089061D01*
X214022824Y-146954374D01*
X213955480Y-146887030D01*
X213820793Y-146819687D01*
X213753450Y-146819687D01*
X212440251Y-146786015D02*
X212844312Y-147190076D01*
X212642282Y-146988045D02*
X213349389Y-146280938D01*
X213315717Y-146449297D01*
X213315717Y-146583984D01*
X213349389Y-146684999D01*
X212305564Y-145708519D02*
X211834160Y-146179923D01*
X212743297Y-145607503D02*
X212406580Y-146280938D01*
X211968847Y-145843206D01*
%TO.C,C15*%
X206196030Y-140280106D02*
X206196030Y-140347450D01*
X206263374Y-140482137D01*
X206330717Y-140549480D01*
X206465404Y-140616824D01*
X206600091Y-140616824D01*
X206701106Y-140583152D01*
X206869465Y-140482137D01*
X206970480Y-140381122D01*
X207071496Y-140212763D01*
X207105167Y-140111748D01*
X207105167Y-139977061D01*
X207037824Y-139842374D01*
X206970480Y-139775030D01*
X206835793Y-139707687D01*
X206768450Y-139707687D01*
X205455251Y-139674015D02*
X205859312Y-140078076D01*
X205657282Y-139876045D02*
X206364389Y-139168938D01*
X206330717Y-139337297D01*
X206330717Y-139471984D01*
X206364389Y-139572999D01*
X205522595Y-138327145D02*
X205859312Y-138663862D01*
X205556267Y-139034251D01*
X205556267Y-138966908D01*
X205522595Y-138865893D01*
X205354236Y-138697534D01*
X205253221Y-138663862D01*
X205185877Y-138663862D01*
X205084862Y-138697534D01*
X204916503Y-138865893D01*
X204882832Y-138966908D01*
X204882832Y-139034251D01*
X204916503Y-139135267D01*
X205084862Y-139303625D01*
X205185877Y-139337297D01*
X205253221Y-139337297D01*
%TO.C,C16*%
X212292030Y-154504106D02*
X212292030Y-154571450D01*
X212359374Y-154706137D01*
X212426717Y-154773480D01*
X212561404Y-154840824D01*
X212696091Y-154840824D01*
X212797106Y-154807152D01*
X212965465Y-154706137D01*
X213066480Y-154605122D01*
X213167496Y-154436763D01*
X213201167Y-154335748D01*
X213201167Y-154201061D01*
X213133824Y-154066374D01*
X213066480Y-153999030D01*
X212931793Y-153931687D01*
X212864450Y-153931687D01*
X211551251Y-153898015D02*
X211955312Y-154302076D01*
X211753282Y-154100045D02*
X212460389Y-153392938D01*
X212426717Y-153561297D01*
X212426717Y-153695984D01*
X212460389Y-153796999D01*
X211652267Y-152584816D02*
X211786954Y-152719503D01*
X211820625Y-152820519D01*
X211820625Y-152887862D01*
X211786954Y-153056221D01*
X211685938Y-153224580D01*
X211416564Y-153493954D01*
X211315549Y-153527625D01*
X211248206Y-153527625D01*
X211147190Y-153493954D01*
X211012503Y-153359267D01*
X210978832Y-153258251D01*
X210978832Y-153190908D01*
X211012503Y-153089893D01*
X211180862Y-152921534D01*
X211281877Y-152887862D01*
X211349221Y-152887862D01*
X211450236Y-152921534D01*
X211584923Y-153056221D01*
X211618595Y-153157236D01*
X211618595Y-153224580D01*
X211584923Y-153325595D01*
%TO.C,C17*%
X215975030Y-150186106D02*
X215975030Y-150253450D01*
X216042374Y-150388137D01*
X216109717Y-150455480D01*
X216244404Y-150522824D01*
X216379091Y-150522824D01*
X216480106Y-150489152D01*
X216648465Y-150388137D01*
X216749480Y-150287122D01*
X216850496Y-150118763D01*
X216884167Y-150017748D01*
X216884167Y-149883061D01*
X216816824Y-149748374D01*
X216749480Y-149681030D01*
X216614793Y-149613687D01*
X216547450Y-149613687D01*
X215234251Y-149580015D02*
X215638312Y-149984076D01*
X215436282Y-149782045D02*
X216143389Y-149074938D01*
X216109717Y-149243297D01*
X216109717Y-149377984D01*
X216143389Y-149478999D01*
X215705656Y-148637206D02*
X215234251Y-148165801D01*
X214830190Y-149175954D01*
%TO.C,C18*%
X232498520Y-125609048D02*
X232498520Y-125676392D01*
X232565864Y-125811079D01*
X232633207Y-125878422D01*
X232767894Y-125945766D01*
X232902581Y-125945766D01*
X233003596Y-125912094D01*
X233171955Y-125811079D01*
X233272970Y-125710064D01*
X233373986Y-125541705D01*
X233407657Y-125440690D01*
X233407657Y-125306003D01*
X233340314Y-125171316D01*
X233272970Y-125103972D01*
X233138283Y-125036629D01*
X233070940Y-125036629D01*
X231757741Y-125002957D02*
X232161802Y-125407018D01*
X231959772Y-125204987D02*
X232666879Y-124497880D01*
X232633207Y-124666239D01*
X232633207Y-124800926D01*
X232666879Y-124901941D01*
X231757741Y-124194835D02*
X231858757Y-124228506D01*
X231926100Y-124228506D01*
X232027115Y-124194835D01*
X232060787Y-124161163D01*
X232094459Y-124060148D01*
X232094459Y-123992804D01*
X232060787Y-123891789D01*
X231926100Y-123757102D01*
X231825085Y-123723430D01*
X231757741Y-123723430D01*
X231656726Y-123757102D01*
X231623054Y-123790774D01*
X231589383Y-123891789D01*
X231589383Y-123959132D01*
X231623054Y-124060148D01*
X231757741Y-124194835D01*
X231791413Y-124295850D01*
X231791413Y-124363193D01*
X231757741Y-124464209D01*
X231623054Y-124598896D01*
X231522039Y-124632567D01*
X231454696Y-124632567D01*
X231353680Y-124598896D01*
X231218993Y-124464209D01*
X231185322Y-124363193D01*
X231185322Y-124295850D01*
X231218993Y-124194835D01*
X231353680Y-124060148D01*
X231454696Y-124026476D01*
X231522039Y-124026476D01*
X231623054Y-124060148D01*
%TO.C,C19*%
X236673107Y-143688969D02*
X236740451Y-143688969D01*
X236875138Y-143621625D01*
X236942481Y-143554282D01*
X237009825Y-143419595D01*
X237009825Y-143284908D01*
X236976153Y-143183893D01*
X236875138Y-143015534D01*
X236774123Y-142914519D01*
X236605764Y-142813503D01*
X236504749Y-142779832D01*
X236370062Y-142779832D01*
X236235375Y-142847175D01*
X236168031Y-142914519D01*
X236100688Y-143049206D01*
X236100688Y-143116549D01*
X236067016Y-144429748D02*
X236471077Y-144025687D01*
X236269046Y-144227717D02*
X235561939Y-143520610D01*
X235730298Y-143554282D01*
X235864985Y-143554282D01*
X235966000Y-143520610D01*
X235730298Y-144766465D02*
X235595611Y-144901152D01*
X235494596Y-144934824D01*
X235427252Y-144934824D01*
X235258894Y-144901152D01*
X235090535Y-144800137D01*
X234821161Y-144530763D01*
X234787489Y-144429748D01*
X234787489Y-144362404D01*
X234821161Y-144261389D01*
X234955848Y-144126702D01*
X235056863Y-144093030D01*
X235124207Y-144093030D01*
X235225222Y-144126702D01*
X235393581Y-144295061D01*
X235427252Y-144396076D01*
X235427252Y-144463419D01*
X235393581Y-144564435D01*
X235258894Y-144699122D01*
X235157878Y-144732793D01*
X235090535Y-144732793D01*
X234989520Y-144699122D01*
%TO.C,C20*%
X235279030Y-128469106D02*
X235279030Y-128536450D01*
X235346374Y-128671137D01*
X235413717Y-128738480D01*
X235548404Y-128805824D01*
X235683091Y-128805824D01*
X235784106Y-128772152D01*
X235952465Y-128671137D01*
X236053480Y-128570122D01*
X236154496Y-128401763D01*
X236188167Y-128300748D01*
X236188167Y-128166061D01*
X236120824Y-128031374D01*
X236053480Y-127964030D01*
X235918793Y-127896687D01*
X235851450Y-127896687D01*
X235582076Y-127627312D02*
X235582076Y-127559969D01*
X235548404Y-127458954D01*
X235380045Y-127290595D01*
X235279030Y-127256923D01*
X235211687Y-127256923D01*
X235110671Y-127290595D01*
X235043328Y-127357938D01*
X234975984Y-127492625D01*
X234975984Y-128300748D01*
X234538251Y-127863015D01*
X234807625Y-126718175D02*
X234740282Y-126650832D01*
X234639267Y-126617160D01*
X234571923Y-126617160D01*
X234470908Y-126650832D01*
X234302549Y-126751847D01*
X234134190Y-126920206D01*
X234033175Y-127088564D01*
X233999503Y-127189580D01*
X233999503Y-127256923D01*
X234033175Y-127357938D01*
X234100519Y-127425282D01*
X234201534Y-127458954D01*
X234268877Y-127458954D01*
X234369893Y-127425282D01*
X234538251Y-127324267D01*
X234706610Y-127155908D01*
X234807625Y-126987549D01*
X234841297Y-126886534D01*
X234841297Y-126819190D01*
X234807625Y-126718175D01*
%TO.C,C21*%
X257436857Y-148059142D02*
X257484476Y-148106761D01*
X257627333Y-148154380D01*
X257722571Y-148154380D01*
X257865428Y-148106761D01*
X257960666Y-148011523D01*
X258008285Y-147916285D01*
X258055904Y-147725809D01*
X258055904Y-147582952D01*
X258008285Y-147392476D01*
X257960666Y-147297238D01*
X257865428Y-147202000D01*
X257722571Y-147154380D01*
X257627333Y-147154380D01*
X257484476Y-147202000D01*
X257436857Y-147249619D01*
X257055904Y-147249619D02*
X257008285Y-147202000D01*
X256913047Y-147154380D01*
X256674952Y-147154380D01*
X256579714Y-147202000D01*
X256532095Y-147249619D01*
X256484476Y-147344857D01*
X256484476Y-147440095D01*
X256532095Y-147582952D01*
X257103523Y-148154380D01*
X256484476Y-148154380D01*
X255532095Y-148154380D02*
X256103523Y-148154380D01*
X255817809Y-148154380D02*
X255817809Y-147154380D01*
X255913047Y-147297238D01*
X256008285Y-147392476D01*
X256103523Y-147440095D01*
%TO.C,C22*%
X288179857Y-156439142D02*
X288227476Y-156486761D01*
X288370333Y-156534380D01*
X288465571Y-156534380D01*
X288608428Y-156486761D01*
X288703666Y-156391523D01*
X288751285Y-156296285D01*
X288798904Y-156105809D01*
X288798904Y-155962952D01*
X288751285Y-155772476D01*
X288703666Y-155677238D01*
X288608428Y-155582000D01*
X288465571Y-155534380D01*
X288370333Y-155534380D01*
X288227476Y-155582000D01*
X288179857Y-155629619D01*
X287798904Y-155629619D02*
X287751285Y-155582000D01*
X287656047Y-155534380D01*
X287417952Y-155534380D01*
X287322714Y-155582000D01*
X287275095Y-155629619D01*
X287227476Y-155724857D01*
X287227476Y-155820095D01*
X287275095Y-155962952D01*
X287846523Y-156534380D01*
X287227476Y-156534380D01*
X286846523Y-155629619D02*
X286798904Y-155582000D01*
X286703666Y-155534380D01*
X286465571Y-155534380D01*
X286370333Y-155582000D01*
X286322714Y-155629619D01*
X286275095Y-155724857D01*
X286275095Y-155820095D01*
X286322714Y-155962952D01*
X286894142Y-156534380D01*
X286275095Y-156534380D01*
%TO.C,C23*%
X257418857Y-163171142D02*
X257466476Y-163218761D01*
X257609333Y-163266380D01*
X257704571Y-163266380D01*
X257847428Y-163218761D01*
X257942666Y-163123523D01*
X257990285Y-163028285D01*
X258037904Y-162837809D01*
X258037904Y-162694952D01*
X257990285Y-162504476D01*
X257942666Y-162409238D01*
X257847428Y-162314000D01*
X257704571Y-162266380D01*
X257609333Y-162266380D01*
X257466476Y-162314000D01*
X257418857Y-162361619D01*
X257037904Y-162361619D02*
X256990285Y-162314000D01*
X256895047Y-162266380D01*
X256656952Y-162266380D01*
X256561714Y-162314000D01*
X256514095Y-162361619D01*
X256466476Y-162456857D01*
X256466476Y-162552095D01*
X256514095Y-162694952D01*
X257085523Y-163266380D01*
X256466476Y-163266380D01*
X256133142Y-162266380D02*
X255514095Y-162266380D01*
X255847428Y-162647333D01*
X255704571Y-162647333D01*
X255609333Y-162694952D01*
X255561714Y-162742571D01*
X255514095Y-162837809D01*
X255514095Y-163075904D01*
X255561714Y-163171142D01*
X255609333Y-163218761D01*
X255704571Y-163266380D01*
X255990285Y-163266380D01*
X256085523Y-163218761D01*
X256133142Y-163171142D01*
%TO.C,C24*%
X257436857Y-169267142D02*
X257484476Y-169314761D01*
X257627333Y-169362380D01*
X257722571Y-169362380D01*
X257865428Y-169314761D01*
X257960666Y-169219523D01*
X258008285Y-169124285D01*
X258055904Y-168933809D01*
X258055904Y-168790952D01*
X258008285Y-168600476D01*
X257960666Y-168505238D01*
X257865428Y-168410000D01*
X257722571Y-168362380D01*
X257627333Y-168362380D01*
X257484476Y-168410000D01*
X257436857Y-168457619D01*
X257055904Y-168457619D02*
X257008285Y-168410000D01*
X256913047Y-168362380D01*
X256674952Y-168362380D01*
X256579714Y-168410000D01*
X256532095Y-168457619D01*
X256484476Y-168552857D01*
X256484476Y-168648095D01*
X256532095Y-168790952D01*
X257103523Y-169362380D01*
X256484476Y-169362380D01*
X255627333Y-168695714D02*
X255627333Y-169362380D01*
X255865428Y-168314761D02*
X256103523Y-169029047D01*
X255484476Y-169029047D01*
%TO.C,C25*%
X149486857Y-126087142D02*
X149534476Y-126134761D01*
X149677333Y-126182380D01*
X149772571Y-126182380D01*
X149915428Y-126134761D01*
X150010666Y-126039523D01*
X150058285Y-125944285D01*
X150105904Y-125753809D01*
X150105904Y-125610952D01*
X150058285Y-125420476D01*
X150010666Y-125325238D01*
X149915428Y-125230000D01*
X149772571Y-125182380D01*
X149677333Y-125182380D01*
X149534476Y-125230000D01*
X149486857Y-125277619D01*
X149105904Y-125277619D02*
X149058285Y-125230000D01*
X148963047Y-125182380D01*
X148724952Y-125182380D01*
X148629714Y-125230000D01*
X148582095Y-125277619D01*
X148534476Y-125372857D01*
X148534476Y-125468095D01*
X148582095Y-125610952D01*
X149153523Y-126182380D01*
X148534476Y-126182380D01*
X147629714Y-125182380D02*
X148105904Y-125182380D01*
X148153523Y-125658571D01*
X148105904Y-125610952D01*
X148010666Y-125563333D01*
X147772571Y-125563333D01*
X147677333Y-125610952D01*
X147629714Y-125658571D01*
X147582095Y-125753809D01*
X147582095Y-125991904D01*
X147629714Y-126087142D01*
X147677333Y-126134761D01*
X147772571Y-126182380D01*
X148010666Y-126182380D01*
X148105904Y-126134761D01*
X148153523Y-126087142D01*
%TO.C,C26*%
X153541857Y-126087142D02*
X153589476Y-126134761D01*
X153732333Y-126182380D01*
X153827571Y-126182380D01*
X153970428Y-126134761D01*
X154065666Y-126039523D01*
X154113285Y-125944285D01*
X154160904Y-125753809D01*
X154160904Y-125610952D01*
X154113285Y-125420476D01*
X154065666Y-125325238D01*
X153970428Y-125230000D01*
X153827571Y-125182380D01*
X153732333Y-125182380D01*
X153589476Y-125230000D01*
X153541857Y-125277619D01*
X153160904Y-125277619D02*
X153113285Y-125230000D01*
X153018047Y-125182380D01*
X152779952Y-125182380D01*
X152684714Y-125230000D01*
X152637095Y-125277619D01*
X152589476Y-125372857D01*
X152589476Y-125468095D01*
X152637095Y-125610952D01*
X153208523Y-126182380D01*
X152589476Y-126182380D01*
X151732333Y-125182380D02*
X151922809Y-125182380D01*
X152018047Y-125230000D01*
X152065666Y-125277619D01*
X152160904Y-125420476D01*
X152208523Y-125610952D01*
X152208523Y-125991904D01*
X152160904Y-126087142D01*
X152113285Y-126134761D01*
X152018047Y-126182380D01*
X151827571Y-126182380D01*
X151732333Y-126134761D01*
X151684714Y-126087142D01*
X151637095Y-125991904D01*
X151637095Y-125753809D01*
X151684714Y-125658571D01*
X151732333Y-125610952D01*
X151827571Y-125563333D01*
X152018047Y-125563333D01*
X152113285Y-125610952D01*
X152160904Y-125658571D01*
X152208523Y-125753809D01*
%TO.C,C27*%
X176410857Y-126087142D02*
X176458476Y-126134761D01*
X176601333Y-126182380D01*
X176696571Y-126182380D01*
X176839428Y-126134761D01*
X176934666Y-126039523D01*
X176982285Y-125944285D01*
X177029904Y-125753809D01*
X177029904Y-125610952D01*
X176982285Y-125420476D01*
X176934666Y-125325238D01*
X176839428Y-125230000D01*
X176696571Y-125182380D01*
X176601333Y-125182380D01*
X176458476Y-125230000D01*
X176410857Y-125277619D01*
X176029904Y-125277619D02*
X175982285Y-125230000D01*
X175887047Y-125182380D01*
X175648952Y-125182380D01*
X175553714Y-125230000D01*
X175506095Y-125277619D01*
X175458476Y-125372857D01*
X175458476Y-125468095D01*
X175506095Y-125610952D01*
X176077523Y-126182380D01*
X175458476Y-126182380D01*
X175125142Y-125182380D02*
X174458476Y-125182380D01*
X174887047Y-126182380D01*
%TO.C,C28*%
X180474857Y-126087142D02*
X180522476Y-126134761D01*
X180665333Y-126182380D01*
X180760571Y-126182380D01*
X180903428Y-126134761D01*
X180998666Y-126039523D01*
X181046285Y-125944285D01*
X181093904Y-125753809D01*
X181093904Y-125610952D01*
X181046285Y-125420476D01*
X180998666Y-125325238D01*
X180903428Y-125230000D01*
X180760571Y-125182380D01*
X180665333Y-125182380D01*
X180522476Y-125230000D01*
X180474857Y-125277619D01*
X180093904Y-125277619D02*
X180046285Y-125230000D01*
X179951047Y-125182380D01*
X179712952Y-125182380D01*
X179617714Y-125230000D01*
X179570095Y-125277619D01*
X179522476Y-125372857D01*
X179522476Y-125468095D01*
X179570095Y-125610952D01*
X180141523Y-126182380D01*
X179522476Y-126182380D01*
X178951047Y-125610952D02*
X179046285Y-125563333D01*
X179093904Y-125515714D01*
X179141523Y-125420476D01*
X179141523Y-125372857D01*
X179093904Y-125277619D01*
X179046285Y-125230000D01*
X178951047Y-125182380D01*
X178760571Y-125182380D01*
X178665333Y-125230000D01*
X178617714Y-125277619D01*
X178570095Y-125372857D01*
X178570095Y-125420476D01*
X178617714Y-125515714D01*
X178665333Y-125563333D01*
X178760571Y-125610952D01*
X178951047Y-125610952D01*
X179046285Y-125658571D01*
X179093904Y-125706190D01*
X179141523Y-125801428D01*
X179141523Y-125991904D01*
X179093904Y-126087142D01*
X179046285Y-126134761D01*
X178951047Y-126182380D01*
X178760571Y-126182380D01*
X178665333Y-126134761D01*
X178617714Y-126087142D01*
X178570095Y-125991904D01*
X178570095Y-125801428D01*
X178617714Y-125706190D01*
X178665333Y-125658571D01*
X178760571Y-125610952D01*
%TO.C,C29*%
X149486857Y-152503142D02*
X149534476Y-152550761D01*
X149677333Y-152598380D01*
X149772571Y-152598380D01*
X149915428Y-152550761D01*
X150010666Y-152455523D01*
X150058285Y-152360285D01*
X150105904Y-152169809D01*
X150105904Y-152026952D01*
X150058285Y-151836476D01*
X150010666Y-151741238D01*
X149915428Y-151646000D01*
X149772571Y-151598380D01*
X149677333Y-151598380D01*
X149534476Y-151646000D01*
X149486857Y-151693619D01*
X149105904Y-151693619D02*
X149058285Y-151646000D01*
X148963047Y-151598380D01*
X148724952Y-151598380D01*
X148629714Y-151646000D01*
X148582095Y-151693619D01*
X148534476Y-151788857D01*
X148534476Y-151884095D01*
X148582095Y-152026952D01*
X149153523Y-152598380D01*
X148534476Y-152598380D01*
X148058285Y-152598380D02*
X147867809Y-152598380D01*
X147772571Y-152550761D01*
X147724952Y-152503142D01*
X147629714Y-152360285D01*
X147582095Y-152169809D01*
X147582095Y-151788857D01*
X147629714Y-151693619D01*
X147677333Y-151646000D01*
X147772571Y-151598380D01*
X147963047Y-151598380D01*
X148058285Y-151646000D01*
X148105904Y-151693619D01*
X148153523Y-151788857D01*
X148153523Y-152026952D01*
X148105904Y-152122190D01*
X148058285Y-152169809D01*
X147963047Y-152217428D01*
X147772571Y-152217428D01*
X147677333Y-152169809D01*
X147629714Y-152122190D01*
X147582095Y-152026952D01*
%TO.C,C30*%
X153550857Y-152503142D02*
X153598476Y-152550761D01*
X153741333Y-152598380D01*
X153836571Y-152598380D01*
X153979428Y-152550761D01*
X154074666Y-152455523D01*
X154122285Y-152360285D01*
X154169904Y-152169809D01*
X154169904Y-152026952D01*
X154122285Y-151836476D01*
X154074666Y-151741238D01*
X153979428Y-151646000D01*
X153836571Y-151598380D01*
X153741333Y-151598380D01*
X153598476Y-151646000D01*
X153550857Y-151693619D01*
X153217523Y-151598380D02*
X152598476Y-151598380D01*
X152931809Y-151979333D01*
X152788952Y-151979333D01*
X152693714Y-152026952D01*
X152646095Y-152074571D01*
X152598476Y-152169809D01*
X152598476Y-152407904D01*
X152646095Y-152503142D01*
X152693714Y-152550761D01*
X152788952Y-152598380D01*
X153074666Y-152598380D01*
X153169904Y-152550761D01*
X153217523Y-152503142D01*
X151979428Y-151598380D02*
X151884190Y-151598380D01*
X151788952Y-151646000D01*
X151741333Y-151693619D01*
X151693714Y-151788857D01*
X151646095Y-151979333D01*
X151646095Y-152217428D01*
X151693714Y-152407904D01*
X151741333Y-152503142D01*
X151788952Y-152550761D01*
X151884190Y-152598380D01*
X151979428Y-152598380D01*
X152074666Y-152550761D01*
X152122285Y-152503142D01*
X152169904Y-152407904D01*
X152217523Y-152217428D01*
X152217523Y-151979333D01*
X152169904Y-151788857D01*
X152122285Y-151693619D01*
X152074666Y-151646000D01*
X151979428Y-151598380D01*
%TO.C,C31*%
X176156857Y-152503142D02*
X176204476Y-152550761D01*
X176347333Y-152598380D01*
X176442571Y-152598380D01*
X176585428Y-152550761D01*
X176680666Y-152455523D01*
X176728285Y-152360285D01*
X176775904Y-152169809D01*
X176775904Y-152026952D01*
X176728285Y-151836476D01*
X176680666Y-151741238D01*
X176585428Y-151646000D01*
X176442571Y-151598380D01*
X176347333Y-151598380D01*
X176204476Y-151646000D01*
X176156857Y-151693619D01*
X175823523Y-151598380D02*
X175204476Y-151598380D01*
X175537809Y-151979333D01*
X175394952Y-151979333D01*
X175299714Y-152026952D01*
X175252095Y-152074571D01*
X175204476Y-152169809D01*
X175204476Y-152407904D01*
X175252095Y-152503142D01*
X175299714Y-152550761D01*
X175394952Y-152598380D01*
X175680666Y-152598380D01*
X175775904Y-152550761D01*
X175823523Y-152503142D01*
X174252095Y-152598380D02*
X174823523Y-152598380D01*
X174537809Y-152598380D02*
X174537809Y-151598380D01*
X174633047Y-151741238D01*
X174728285Y-151836476D01*
X174823523Y-151884095D01*
%TO.C,C32*%
X180474857Y-152503142D02*
X180522476Y-152550761D01*
X180665333Y-152598380D01*
X180760571Y-152598380D01*
X180903428Y-152550761D01*
X180998666Y-152455523D01*
X181046285Y-152360285D01*
X181093904Y-152169809D01*
X181093904Y-152026952D01*
X181046285Y-151836476D01*
X180998666Y-151741238D01*
X180903428Y-151646000D01*
X180760571Y-151598380D01*
X180665333Y-151598380D01*
X180522476Y-151646000D01*
X180474857Y-151693619D01*
X180141523Y-151598380D02*
X179522476Y-151598380D01*
X179855809Y-151979333D01*
X179712952Y-151979333D01*
X179617714Y-152026952D01*
X179570095Y-152074571D01*
X179522476Y-152169809D01*
X179522476Y-152407904D01*
X179570095Y-152503142D01*
X179617714Y-152550761D01*
X179712952Y-152598380D01*
X179998666Y-152598380D01*
X180093904Y-152550761D01*
X180141523Y-152503142D01*
X179141523Y-151693619D02*
X179093904Y-151646000D01*
X178998666Y-151598380D01*
X178760571Y-151598380D01*
X178665333Y-151646000D01*
X178617714Y-151693619D01*
X178570095Y-151788857D01*
X178570095Y-151884095D01*
X178617714Y-152026952D01*
X179189142Y-152598380D01*
X178570095Y-152598380D01*
%TO.C,C41*%
X181481857Y-203683142D02*
X181529476Y-203730761D01*
X181672333Y-203778380D01*
X181767571Y-203778380D01*
X181910428Y-203730761D01*
X182005666Y-203635523D01*
X182053285Y-203540285D01*
X182100904Y-203349809D01*
X182100904Y-203206952D01*
X182053285Y-203016476D01*
X182005666Y-202921238D01*
X181910428Y-202826000D01*
X181767571Y-202778380D01*
X181672333Y-202778380D01*
X181529476Y-202826000D01*
X181481857Y-202873619D01*
X180624714Y-203111714D02*
X180624714Y-203778380D01*
X180862809Y-202730761D02*
X181100904Y-203445047D01*
X180481857Y-203445047D01*
X179577095Y-203778380D02*
X180148523Y-203778380D01*
X179862809Y-203778380D02*
X179862809Y-202778380D01*
X179958047Y-202921238D01*
X180053285Y-203016476D01*
X180148523Y-203064095D01*
%TO.C,D5*%
X222099095Y-80883380D02*
X222099095Y-79883380D01*
X221861000Y-79883380D01*
X221718142Y-79931000D01*
X221622904Y-80026238D01*
X221575285Y-80121476D01*
X221527666Y-80311952D01*
X221527666Y-80454809D01*
X221575285Y-80645285D01*
X221622904Y-80740523D01*
X221718142Y-80835761D01*
X221861000Y-80883380D01*
X222099095Y-80883380D01*
X220622904Y-79883380D02*
X221099095Y-79883380D01*
X221146714Y-80359571D01*
X221099095Y-80311952D01*
X221003857Y-80264333D01*
X220765761Y-80264333D01*
X220670523Y-80311952D01*
X220622904Y-80359571D01*
X220575285Y-80454809D01*
X220575285Y-80692904D01*
X220622904Y-80788142D01*
X220670523Y-80835761D01*
X220765761Y-80883380D01*
X221003857Y-80883380D01*
X221099095Y-80835761D01*
X221146714Y-80788142D01*
%TO.C,D6*%
X230116095Y-81010380D02*
X230116095Y-80010380D01*
X229878000Y-80010380D01*
X229735142Y-80058000D01*
X229639904Y-80153238D01*
X229592285Y-80248476D01*
X229544666Y-80438952D01*
X229544666Y-80581809D01*
X229592285Y-80772285D01*
X229639904Y-80867523D01*
X229735142Y-80962761D01*
X229878000Y-81010380D01*
X230116095Y-81010380D01*
X228687523Y-80010380D02*
X228878000Y-80010380D01*
X228973238Y-80058000D01*
X229020857Y-80105619D01*
X229116095Y-80248476D01*
X229163714Y-80438952D01*
X229163714Y-80819904D01*
X229116095Y-80915142D01*
X229068476Y-80962761D01*
X228973238Y-81010380D01*
X228782761Y-81010380D01*
X228687523Y-80962761D01*
X228639904Y-80915142D01*
X228592285Y-80819904D01*
X228592285Y-80581809D01*
X228639904Y-80486571D01*
X228687523Y-80438952D01*
X228782761Y-80391333D01*
X228973238Y-80391333D01*
X229068476Y-80438952D01*
X229116095Y-80486571D01*
X229163714Y-80581809D01*
%TO.C,R7*%
X221478674Y-126807540D02*
X221377659Y-126235120D01*
X221882735Y-126403479D02*
X221175629Y-125696372D01*
X220906254Y-125965746D01*
X220872583Y-126066761D01*
X220872583Y-126134105D01*
X220906254Y-126235120D01*
X221007270Y-126336135D01*
X221108285Y-126369807D01*
X221175629Y-126369807D01*
X221276644Y-126336135D01*
X221546018Y-126066761D01*
X220535865Y-126336135D02*
X220064461Y-126807540D01*
X221074613Y-127211601D01*
%TO.C,R24*%
X174242857Y-210637380D02*
X174576190Y-210161190D01*
X174814285Y-210637380D02*
X174814285Y-209637380D01*
X174433333Y-209637380D01*
X174338095Y-209685000D01*
X174290476Y-209732619D01*
X174242857Y-209827857D01*
X174242857Y-209970714D01*
X174290476Y-210065952D01*
X174338095Y-210113571D01*
X174433333Y-210161190D01*
X174814285Y-210161190D01*
X173861904Y-209732619D02*
X173814285Y-209685000D01*
X173719047Y-209637380D01*
X173480952Y-209637380D01*
X173385714Y-209685000D01*
X173338095Y-209732619D01*
X173290476Y-209827857D01*
X173290476Y-209923095D01*
X173338095Y-210065952D01*
X173909523Y-210637380D01*
X173290476Y-210637380D01*
X172433333Y-209970714D02*
X172433333Y-210637380D01*
X172671428Y-209589761D02*
X172909523Y-210304047D01*
X172290476Y-210304047D01*
%TO.C,R29*%
X153613380Y-199772142D02*
X153137190Y-199438809D01*
X153613380Y-199200714D02*
X152613380Y-199200714D01*
X152613380Y-199581666D01*
X152661000Y-199676904D01*
X152708619Y-199724523D01*
X152803857Y-199772142D01*
X152946714Y-199772142D01*
X153041952Y-199724523D01*
X153089571Y-199676904D01*
X153137190Y-199581666D01*
X153137190Y-199200714D01*
X152708619Y-200153095D02*
X152661000Y-200200714D01*
X152613380Y-200295952D01*
X152613380Y-200534047D01*
X152661000Y-200629285D01*
X152708619Y-200676904D01*
X152803857Y-200724523D01*
X152899095Y-200724523D01*
X153041952Y-200676904D01*
X153613380Y-200105476D01*
X153613380Y-200724523D01*
X153613380Y-201200714D02*
X153613380Y-201391190D01*
X153565761Y-201486428D01*
X153518142Y-201534047D01*
X153375285Y-201629285D01*
X153184809Y-201676904D01*
X152803857Y-201676904D01*
X152708619Y-201629285D01*
X152661000Y-201581666D01*
X152613380Y-201486428D01*
X152613380Y-201295952D01*
X152661000Y-201200714D01*
X152708619Y-201153095D01*
X152803857Y-201105476D01*
X153041952Y-201105476D01*
X153137190Y-201153095D01*
X153184809Y-201200714D01*
X153232428Y-201295952D01*
X153232428Y-201486428D01*
X153184809Y-201581666D01*
X153137190Y-201629285D01*
X153041952Y-201676904D01*
%TO.C,R30*%
X163774380Y-204589142D02*
X163298190Y-204255809D01*
X163774380Y-204017714D02*
X162774380Y-204017714D01*
X162774380Y-204398666D01*
X162822000Y-204493904D01*
X162869619Y-204541523D01*
X162964857Y-204589142D01*
X163107714Y-204589142D01*
X163202952Y-204541523D01*
X163250571Y-204493904D01*
X163298190Y-204398666D01*
X163298190Y-204017714D01*
X162774380Y-204922476D02*
X162774380Y-205541523D01*
X163155333Y-205208190D01*
X163155333Y-205351047D01*
X163202952Y-205446285D01*
X163250571Y-205493904D01*
X163345809Y-205541523D01*
X163583904Y-205541523D01*
X163679142Y-205493904D01*
X163726761Y-205446285D01*
X163774380Y-205351047D01*
X163774380Y-205065333D01*
X163726761Y-204970095D01*
X163679142Y-204922476D01*
X162774380Y-206160571D02*
X162774380Y-206255809D01*
X162822000Y-206351047D01*
X162869619Y-206398666D01*
X162964857Y-206446285D01*
X163155333Y-206493904D01*
X163393428Y-206493904D01*
X163583904Y-206446285D01*
X163679142Y-206398666D01*
X163726761Y-206351047D01*
X163774380Y-206255809D01*
X163774380Y-206160571D01*
X163726761Y-206065333D01*
X163679142Y-206017714D01*
X163583904Y-205970095D01*
X163393428Y-205922476D01*
X163155333Y-205922476D01*
X162964857Y-205970095D01*
X162869619Y-206017714D01*
X162822000Y-206065333D01*
X162774380Y-206160571D01*
%TO.C,R31*%
X157805380Y-204589142D02*
X157329190Y-204255809D01*
X157805380Y-204017714D02*
X156805380Y-204017714D01*
X156805380Y-204398666D01*
X156853000Y-204493904D01*
X156900619Y-204541523D01*
X156995857Y-204589142D01*
X157138714Y-204589142D01*
X157233952Y-204541523D01*
X157281571Y-204493904D01*
X157329190Y-204398666D01*
X157329190Y-204017714D01*
X156805380Y-204922476D02*
X156805380Y-205541523D01*
X157186333Y-205208190D01*
X157186333Y-205351047D01*
X157233952Y-205446285D01*
X157281571Y-205493904D01*
X157376809Y-205541523D01*
X157614904Y-205541523D01*
X157710142Y-205493904D01*
X157757761Y-205446285D01*
X157805380Y-205351047D01*
X157805380Y-205065333D01*
X157757761Y-204970095D01*
X157710142Y-204922476D01*
X157805380Y-206493904D02*
X157805380Y-205922476D01*
X157805380Y-206208190D02*
X156805380Y-206208190D01*
X156948238Y-206112952D01*
X157043476Y-206017714D01*
X157091095Y-205922476D01*
%TO.C,R32*%
X153613380Y-204580142D02*
X153137190Y-204246809D01*
X153613380Y-204008714D02*
X152613380Y-204008714D01*
X152613380Y-204389666D01*
X152661000Y-204484904D01*
X152708619Y-204532523D01*
X152803857Y-204580142D01*
X152946714Y-204580142D01*
X153041952Y-204532523D01*
X153089571Y-204484904D01*
X153137190Y-204389666D01*
X153137190Y-204008714D01*
X152613380Y-204913476D02*
X152613380Y-205532523D01*
X152994333Y-205199190D01*
X152994333Y-205342047D01*
X153041952Y-205437285D01*
X153089571Y-205484904D01*
X153184809Y-205532523D01*
X153422904Y-205532523D01*
X153518142Y-205484904D01*
X153565761Y-205437285D01*
X153613380Y-205342047D01*
X153613380Y-205056333D01*
X153565761Y-204961095D01*
X153518142Y-204913476D01*
X152708619Y-205913476D02*
X152661000Y-205961095D01*
X152613380Y-206056333D01*
X152613380Y-206294428D01*
X152661000Y-206389666D01*
X152708619Y-206437285D01*
X152803857Y-206484904D01*
X152899095Y-206484904D01*
X153041952Y-206437285D01*
X153613380Y-205865857D01*
X153613380Y-206484904D01*
%TO.C,R33*%
X148661380Y-204589142D02*
X148185190Y-204255809D01*
X148661380Y-204017714D02*
X147661380Y-204017714D01*
X147661380Y-204398666D01*
X147709000Y-204493904D01*
X147756619Y-204541523D01*
X147851857Y-204589142D01*
X147994714Y-204589142D01*
X148089952Y-204541523D01*
X148137571Y-204493904D01*
X148185190Y-204398666D01*
X148185190Y-204017714D01*
X147661380Y-204922476D02*
X147661380Y-205541523D01*
X148042333Y-205208190D01*
X148042333Y-205351047D01*
X148089952Y-205446285D01*
X148137571Y-205493904D01*
X148232809Y-205541523D01*
X148470904Y-205541523D01*
X148566142Y-205493904D01*
X148613761Y-205446285D01*
X148661380Y-205351047D01*
X148661380Y-205065333D01*
X148613761Y-204970095D01*
X148566142Y-204922476D01*
X147661380Y-205874857D02*
X147661380Y-206493904D01*
X148042333Y-206160571D01*
X148042333Y-206303428D01*
X148089952Y-206398666D01*
X148137571Y-206446285D01*
X148232809Y-206493904D01*
X148470904Y-206493904D01*
X148566142Y-206446285D01*
X148613761Y-206398666D01*
X148661380Y-206303428D01*
X148661380Y-206017714D01*
X148613761Y-205922476D01*
X148566142Y-205874857D01*
%TO.C,R63*%
X220860857Y-61919380D02*
X221194190Y-61443190D01*
X221432285Y-61919380D02*
X221432285Y-60919380D01*
X221051333Y-60919380D01*
X220956095Y-60967000D01*
X220908476Y-61014619D01*
X220860857Y-61109857D01*
X220860857Y-61252714D01*
X220908476Y-61347952D01*
X220956095Y-61395571D01*
X221051333Y-61443190D01*
X221432285Y-61443190D01*
X220003714Y-60919380D02*
X220194190Y-60919380D01*
X220289428Y-60967000D01*
X220337047Y-61014619D01*
X220432285Y-61157476D01*
X220479904Y-61347952D01*
X220479904Y-61728904D01*
X220432285Y-61824142D01*
X220384666Y-61871761D01*
X220289428Y-61919380D01*
X220098952Y-61919380D01*
X220003714Y-61871761D01*
X219956095Y-61824142D01*
X219908476Y-61728904D01*
X219908476Y-61490809D01*
X219956095Y-61395571D01*
X220003714Y-61347952D01*
X220098952Y-61300333D01*
X220289428Y-61300333D01*
X220384666Y-61347952D01*
X220432285Y-61395571D01*
X220479904Y-61490809D01*
X219575142Y-60919380D02*
X218956095Y-60919380D01*
X219289428Y-61300333D01*
X219146571Y-61300333D01*
X219051333Y-61347952D01*
X219003714Y-61395571D01*
X218956095Y-61490809D01*
X218956095Y-61728904D01*
X219003714Y-61824142D01*
X219051333Y-61871761D01*
X219146571Y-61919380D01*
X219432285Y-61919380D01*
X219527523Y-61871761D01*
X219575142Y-61824142D01*
%TO.C,R64*%
X219082857Y-81868380D02*
X219416190Y-81392190D01*
X219654285Y-81868380D02*
X219654285Y-80868380D01*
X219273333Y-80868380D01*
X219178095Y-80916000D01*
X219130476Y-80963619D01*
X219082857Y-81058857D01*
X219082857Y-81201714D01*
X219130476Y-81296952D01*
X219178095Y-81344571D01*
X219273333Y-81392190D01*
X219654285Y-81392190D01*
X218225714Y-80868380D02*
X218416190Y-80868380D01*
X218511428Y-80916000D01*
X218559047Y-80963619D01*
X218654285Y-81106476D01*
X218701904Y-81296952D01*
X218701904Y-81677904D01*
X218654285Y-81773142D01*
X218606666Y-81820761D01*
X218511428Y-81868380D01*
X218320952Y-81868380D01*
X218225714Y-81820761D01*
X218178095Y-81773142D01*
X218130476Y-81677904D01*
X218130476Y-81439809D01*
X218178095Y-81344571D01*
X218225714Y-81296952D01*
X218320952Y-81249333D01*
X218511428Y-81249333D01*
X218606666Y-81296952D01*
X218654285Y-81344571D01*
X218701904Y-81439809D01*
X217273333Y-81201714D02*
X217273333Y-81868380D01*
X217511428Y-80820761D02*
X217749523Y-81535047D01*
X217130476Y-81535047D01*
%TO.C,R65*%
X226956857Y-81977380D02*
X227290190Y-81501190D01*
X227528285Y-81977380D02*
X227528285Y-80977380D01*
X227147333Y-80977380D01*
X227052095Y-81025000D01*
X227004476Y-81072619D01*
X226956857Y-81167857D01*
X226956857Y-81310714D01*
X227004476Y-81405952D01*
X227052095Y-81453571D01*
X227147333Y-81501190D01*
X227528285Y-81501190D01*
X226099714Y-80977380D02*
X226290190Y-80977380D01*
X226385428Y-81025000D01*
X226433047Y-81072619D01*
X226528285Y-81215476D01*
X226575904Y-81405952D01*
X226575904Y-81786904D01*
X226528285Y-81882142D01*
X226480666Y-81929761D01*
X226385428Y-81977380D01*
X226194952Y-81977380D01*
X226099714Y-81929761D01*
X226052095Y-81882142D01*
X226004476Y-81786904D01*
X226004476Y-81548809D01*
X226052095Y-81453571D01*
X226099714Y-81405952D01*
X226194952Y-81358333D01*
X226385428Y-81358333D01*
X226480666Y-81405952D01*
X226528285Y-81453571D01*
X226575904Y-81548809D01*
X225099714Y-80977380D02*
X225575904Y-80977380D01*
X225623523Y-81453571D01*
X225575904Y-81405952D01*
X225480666Y-81358333D01*
X225242571Y-81358333D01*
X225147333Y-81405952D01*
X225099714Y-81453571D01*
X225052095Y-81548809D01*
X225052095Y-81786904D01*
X225099714Y-81882142D01*
X225147333Y-81929761D01*
X225242571Y-81977380D01*
X225480666Y-81977380D01*
X225575904Y-81929761D01*
X225623523Y-81882142D01*
%TD*%
M02*
