M48
; DRILL file {KiCad (5.1.6)-1} date 06/23/22 16:11:01
; FORMAT={-:-/ absolute / metric / decimal}
; #@! TF.CreationDate,2022-06-23T16:11:01-04:00
; #@! TF.GenerationSoftware,Kicad,Pcbnew,(5.1.6)-1
; #@! TF.FileFunction,Plated,1,4,PTH
FMAT,2
METRIC
T1C0.400
T2C0.500
T3C0.750
T4C0.800
T5C0.900
T6C1.000
T7C1.100
T8C1.190
T9C1.200
T10C1.390
T11C1.800
T12C2.300
T13C3.050
T14C3.175
T15C3.200
T16C3.700
%
G90
G05
T1
X130.048Y-157.988
X130.085Y-131.388
X130.81Y-130.556
X130.81Y-156.972
X131.572Y-129.794
X131.572Y-156.21
X132.334Y-129.032
X132.334Y-155.448
X133.096Y-128.27
X133.096Y-154.686
X133.858Y-127.508
X133.858Y-153.924
X134.62Y-126.746
X134.62Y-153.162
X135.382Y-125.984
X135.382Y-152.4
X136.144Y-124.968
X136.144Y-151.384
X136.906Y-122.682
X136.906Y-149.098
X137.668Y-121.92
X137.668Y-148.336
X138.43Y-121.158
X138.43Y-147.574
X139.192Y-120.396
X139.192Y-146.812
X139.954Y-118.618
X139.954Y-145.034
X140.716Y-117.856
X140.716Y-144.272
X141.478Y-117.094
X141.478Y-143.51
X142.24Y-116.332
X142.24Y-142.748
X143.002Y-115.57
X143.002Y-141.986
X143.764Y-150.749
X143.891Y-124.333
X143.891Y-175.895
X144.907Y-166.878
X144.907Y-169.164
X146.558Y-119.627
X146.558Y-123.698
X146.558Y-150.114
X146.558Y-208.788
X146.812Y-145.893
X149.098Y-213.741
X151.257Y-80.518
X151.511Y-208.788
X154.559Y-81.915
X155.194Y-124.46
X155.194Y-150.622
X156.464Y-213.868
X157.861Y-78.613
X157.861Y-123.571
X157.988Y-149.987
X158.242Y-115.627
X158.242Y-117.227
X158.242Y-118.827
X158.242Y-120.396
X158.242Y-121.92
X158.242Y-125.984
X158.242Y-127.627
X158.242Y-129.227
X158.242Y-130.81
X158.242Y-132.334
X158.242Y-143.51
X158.242Y-145.093
X158.242Y-146.812
X158.242Y-148.336
X158.242Y-151.638
X158.242Y-153.162
X158.242Y-154.693
X158.242Y-156.293
X158.242Y-158.75
X158.26Y-141.968
X159.004Y-118.102
X159.004Y-119.634
X159.004Y-121.158
X159.004Y-122.936
X159.004Y-125.222
X159.004Y-126.746
X159.004Y-128.502
X159.004Y-130.048
X159.004Y-131.572
X159.004Y-142.748
X159.004Y-144.272
X159.004Y-145.818
X159.004Y-147.574
X159.004Y-149.098
X159.004Y-152.4
X159.004Y-153.924
X159.004Y-155.448
X159.004Y-157.018
X159.004Y-158.018
X159.004Y-208.915
X159.007Y-116.502
X159.131Y-78.613
X160.401Y-77.216
X161.544Y-208.915
X162.941Y-163.068
X164.211Y-87.376
X166.751Y-85.598
X169.291Y-77.978
X169.926Y-80.518
X169.926Y-84.582
X169.939Y-81.531
X170.664Y-82.333
X170.688Y-124.333
X170.688Y-150.749
X170.697Y-79.686
X171.323Y-211.836
X173.482Y-77.216
X173.482Y-123.698
X173.482Y-150.114
X173.666Y-133.905
X173.729Y-216.916
X174.304Y-219.456
X174.498Y-133.35
X177.673Y-150.368
X177.8Y-123.952
X179.832Y-112.761
X180.915Y-211.836
X181.032Y-125.259
X181.102Y-117.348
X181.102Y-118.872
X181.102Y-120.396
X181.102Y-121.92
X181.102Y-126.746
X181.102Y-128.502
X181.102Y-130.048
X181.102Y-131.572
X181.102Y-142.748
X181.102Y-144.272
X181.102Y-145.818
X181.102Y-147.574
X181.102Y-152.4
X181.102Y-153.924
X181.102Y-155.448
X181.102Y-157.018
X181.102Y-158.018
X181.628Y-115.552
X181.864Y-118.11
X181.864Y-119.634
X181.864Y-125.984
X181.864Y-127.762
X181.864Y-129.286
X181.864Y-130.847
X181.864Y-132.334
X181.864Y-141.986
X181.864Y-143.51
X181.864Y-145.034
X181.864Y-146.812
X181.864Y-148.336
X181.864Y-151.638
X181.864Y-153.162
X181.864Y-154.686
X181.864Y-156.21
X181.864Y-158.75
X181.864Y-193.802
X181.864Y-122.682
X181.934Y-121.195
X181.991Y-138.938
X182.073Y-133.387
X182.118Y-124.206
X182.118Y-149.352
X182.118Y-150.622
X182.29Y-116.51
X183.602Y-133.898
X184.658Y-133.35
X184.785Y-123.571
X184.785Y-149.606
X184.785Y-181.737
X185.42Y-115.57
X186.145Y-116.402
X186.245Y-177.228
X186.87Y-117.188
X187.595Y-117.942
X188.32Y-118.679
X189.045Y-119.409
X189.77Y-120.142
X190.373Y-156.718
X190.5Y-120.904
X191.135Y-210.947
X191.135Y-214.376
X191.262Y-121.666
X192.024Y-122.682
X192.786Y-124.968
X193.511Y-125.8
X194.236Y-126.586
X194.236Y-133.077
X194.961Y-127.508
X194.961Y-133.802
X195.686Y-128.284
X196.411Y-129.036
X196.411Y-141.155
X197.136Y-129.794
X197.136Y-142.006
X197.358Y-148.183
X197.617Y-113.533
X197.861Y-130.642
X197.861Y-142.748
X198.628Y-131.572
X198.628Y-143.42
X199.39Y-132.334
X202.438Y-136.779
X202.946Y-106.68
X202.946Y-138.811
X202.973Y-112.749
X203.555Y-105.918
X204.127Y-108.801
X204.13Y-105.283
X204.597Y-80.645
X204.705Y-102.351
X204.978Y-108.839
X205.232Y-138.811
X205.306Y-102.711
X205.613Y-136.144
X205.74Y-108.712
X205.905Y-103.072
X206.248Y-135.128
X206.502Y-103.438
X206.567Y-108.706
X206.59Y-140.029
X207.01Y-140.589
X207.137Y-102.997
X207.518Y-108.331
X207.712Y-103.417
X208.153Y-133.223
X208.666Y-108.261
X208.788Y-139.954
X209.042Y-142.748
X209.169Y-162.433
X209.423Y-108.204
X209.55Y-132.334
X210.197Y-108.13
X210.439Y-143.51
X210.578Y-144.198
X210.895Y-108.071
X211.709Y-145.161
X212.344Y-145.796
X212.344Y-150.368
X212.344Y-163.83
X212.445Y-129.133
X212.471Y-155.194
X212.636Y-137.071
X213.711Y-127.762
X213.995Y-165.354
X215.646Y-146.812
X216.027Y-158.75
X216.154Y-88.392
X216.281Y-218.821
X216.544Y-161.417
X217.043Y-124.841
X217.188Y-150.172
X217.297Y-150.876
X217.322Y-161.495
X217.805Y-151.638
X217.832Y-123.544
X217.932Y-126.746
X218.44Y-156.337
X218.922Y-122.529
X219.465Y-105.283
X219.465Y-105.983
X219.465Y-106.683
X219.465Y-107.383
X219.71Y-123.825
X220.19Y-149.152
X220.472Y-154.051
X220.611Y-148.094
X220.636Y-150.622
X220.903Y-147.134
X221.265Y-146.137
X221.361Y-79.502
X221.361Y-152.4
X221.64Y-145.126
X222.007Y-144.122
X222.047Y-117.424
X222.123Y-154.305
X222.14Y-143.131
X223.012Y-156.591
X223.393Y-83.82
X224.028Y-157.861
X225.476Y-120.853
X226.111Y-121.488
X226.314Y-117.602
X226.568Y-116.078
X226.911Y-125.514
X227.066Y-123.255
X227.076Y-124.079
X227.203Y-128.778
X228.092Y-151.638
X228.092Y-155.829
X228.473Y-130.048
X228.56Y-124.801
X228.593Y-128.905
X228.854Y-150.368
X229.101Y-115.673
X229.298Y-116.344
X229.362Y-117.094
X230.155Y-129.571
X230.378Y-84.963
X230.491Y-117.729
X231.157Y-122.699
X231.191Y-117.715
X231.394Y-120.65
X231.394Y-148.463
X231.547Y-113.258
X231.648Y-162.433
X231.902Y-132.08
X232.048Y-117.813
X232.221Y-113.067
X232.31Y-147.853
X232.388Y-156.352
X232.41Y-145.034
X232.537Y-128.778
X232.918Y-113.284
X232.971Y-155.963
X233.553Y-155.575
X233.896Y-146.266
X234.188Y-124.46
X234.2Y-154.973
X234.214Y-129.641
X234.315Y-122.555
X234.442Y-113.792
X234.499Y-114.549
X234.526Y-115.335
X234.569Y-90.424
X234.569Y-92.075
X234.595Y-92.863
X234.626Y-91.181
X234.82Y-130.248
X234.823Y-155.321
X234.95Y-161.163
X235.435Y-154.828
X236.168Y-154.852
X236.601Y-143.129
X236.728Y-154.432
X237.351Y-153.174
X237.744Y-142.113
X238.104Y-153.219
X238.297Y-134.157
X238.884Y-153.292
X239.141Y-134.747
X239.395Y-161.036
X239.636Y-153.302
X239.903Y-140.081
X240.538Y-139.319
X240.665Y-153.035
X241.427Y-132.715
X241.681Y-137.033
X242.281Y-152.26
X242.281Y-158.242
X242.57Y-130.683
X242.697Y-129.794
X242.856Y-160.782
X242.856Y-151.761
X242.977Y-132.995
X243.078Y-132.08
X243.431Y-163.322
X243.456Y-151.401
X243.967Y-150.876
X244.006Y-165.862
X244.581Y-150.241
X244.581Y-170.942
X245.103Y-149.613
X245.156Y-173.482
X245.717Y-139.153
X245.731Y-150.114
X245.731Y-176.022
X245.999Y-210.693
X246.306Y-178.562
X246.306Y-149.597
X246.396Y-139.323
X246.881Y-150.114
X246.881Y-181.102
X247.015Y-139.835
X247.456Y-183.642
X247.456Y-149.606
X247.609Y-140.41
X248.031Y-186.182
X248.031Y-148.971
X248.184Y-140.985
X248.666Y-148.59
X248.666Y-188.722
X248.666Y-214.376
X248.759Y-141.56
X248.896Y-142.247
X249.035Y-142.933
X249.135Y-144.459
X249.159Y-143.622
X249.241Y-148.13
X249.294Y-191.262
X249.555Y-145.034
X249.835Y-147.622
X249.869Y-193.802
X250.063Y-145.669
X250.444Y-147.066
X250.444Y-196.342
X250.571Y-146.304
X253.238Y-155.702
X253.339Y-154.852
X253.339Y-176.747
X253.746Y-159.512
X254.0Y-174.057
X254.127Y-174.747
X254.127Y-175.447
X254.635Y-149.352
X255.016Y-154.178
X256.914Y-94.989
X257.489Y-94.234
X258.064Y-93.599
X258.699Y-92.837
X259.207Y-92.075
X259.334Y-98.171
X265.049Y-210.693
X265.557Y-216.789
X266.065Y-85.344
X267.208Y-155.829
X267.462Y-94.996
X267.97Y-159.258
X268.986Y-85.344
X269.367Y-110.871
X270.256Y-85.344
X270.256Y-94.174
X270.764Y-154.813
X270.764Y-181.356
X270.891Y-125.984
X270.891Y-184.912
X271.018Y-129.54
X271.018Y-130.877
X271.399Y-185.547
X271.526Y-158.877
X271.907Y-98.739
X271.907Y-109.601
X271.907Y-112.141
X272.923Y-91.948
X273.05Y-86.233
X275.59Y-125.222
X275.59Y-123.19
X275.59Y-124.206
X275.59Y-126.746
X275.59Y-127.762
X275.59Y-129.286
X275.59Y-130.302
X275.59Y-131.826
X275.59Y-132.842
X275.59Y-133.858
X275.59Y-155.448
X275.59Y-157.988
X275.59Y-178.562
X275.59Y-179.578
X275.59Y-180.594
X275.59Y-185.674
X275.59Y-187.198
X275.59Y-188.214
X275.59Y-189.23
X275.689Y-181.432
X275.717Y-85.471
X275.717Y-91.821
X278.384Y-130.302
X278.384Y-151.765
X278.384Y-154.647
X278.384Y-159.131
X278.511Y-122.936
X278.511Y-125.73
X278.511Y-178.054
X278.511Y-185.674
X280.162Y-84.709
X293.37Y-211.709
X293.37Y-215.011
T2
X288.055Y-89.916
X288.868Y-87.954
X288.868Y-91.878
X290.83Y-87.141
X290.83Y-92.691
X292.792Y-87.954
X292.792Y-91.878
X293.605Y-89.916
X130.829Y-221.996
X131.642Y-220.034
X131.642Y-223.958
X133.604Y-219.221
X133.604Y-224.771
X135.566Y-220.034
X135.566Y-223.958
X136.379Y-221.996
X130.829Y-67.056
X131.642Y-65.094
X131.642Y-69.018
X133.604Y-64.281
X133.604Y-69.831
X135.566Y-65.094
X135.566Y-69.018
X136.379Y-67.056
X288.055Y-221.996
X288.868Y-220.034
X288.868Y-223.958
X290.83Y-219.221
X290.83Y-224.771
X292.792Y-220.034
X292.792Y-223.958
X293.605Y-221.996
T3
X165.862Y-70.358
T4
X260.604Y-116.332
X260.604Y-118.872
X260.604Y-121.412
X260.604Y-123.952
X260.604Y-126.492
X260.604Y-129.032
X260.604Y-131.572
X260.604Y-134.112
X260.604Y-136.652
X260.604Y-139.192
X260.604Y-141.732
X260.604Y-144.272
X260.604Y-146.812
X260.604Y-149.352
X260.604Y-151.892
X260.604Y-154.432
X260.604Y-156.972
X260.604Y-159.512
X260.604Y-162.052
X260.604Y-164.592
X260.604Y-167.132
X260.604Y-169.672
X260.604Y-172.212
X260.604Y-174.752
X260.604Y-177.292
X260.604Y-179.832
X260.604Y-182.372
X260.604Y-184.912
X260.604Y-187.452
X260.604Y-189.992
X260.604Y-192.532
X260.604Y-195.072
X283.464Y-116.332
X283.464Y-118.872
X283.464Y-121.412
X283.464Y-123.952
X283.464Y-126.492
X283.464Y-129.032
X283.464Y-131.572
X283.464Y-134.112
X283.464Y-136.652
X283.464Y-139.192
X283.464Y-141.732
X283.464Y-144.272
X283.464Y-146.812
X283.464Y-149.352
X283.464Y-151.892
X283.464Y-154.432
X283.464Y-156.972
X283.464Y-159.512
X283.464Y-162.052
X283.464Y-164.592
X283.464Y-167.132
X283.464Y-169.672
X283.464Y-172.212
X283.464Y-174.752
X283.464Y-177.292
X283.464Y-179.832
X283.464Y-182.372
X283.464Y-184.912
X283.464Y-187.452
X283.464Y-189.992
X283.464Y-192.532
X283.464Y-195.072
X176.911Y-188.976
X176.911Y-191.516
X176.911Y-194.056
X176.911Y-196.596
X176.911Y-199.136
X176.911Y-201.676
X176.911Y-204.216
X176.911Y-206.756
X176.911Y-209.296
X176.911Y-211.836
X176.911Y-214.376
X176.911Y-216.916
X176.911Y-219.456
X176.911Y-221.996
X184.531Y-188.976
X184.531Y-191.516
X184.531Y-194.056
X184.531Y-196.596
X184.531Y-199.136
X184.531Y-201.676
X184.531Y-204.216
X184.531Y-206.756
X184.531Y-209.296
X184.531Y-211.836
X184.531Y-214.376
X184.531Y-216.916
X184.531Y-219.456
X184.531Y-221.996
X255.143Y-201.041
X255.143Y-208.661
X257.683Y-201.041
X257.683Y-208.661
X260.223Y-201.041
X260.223Y-208.661
X262.763Y-201.041
X262.763Y-208.661
T5
X225.425Y-219.837
X227.965Y-219.837
T6
X154.051Y-214.249
X223.266Y-198.755
X223.266Y-209.768
X226.314Y-196.723
X226.314Y-200.66
X226.314Y-208.407
X226.314Y-212.217
X229.362Y-198.755
X229.489Y-209.768
X231.14Y-171.069
X237.617Y-171.069
X285.877Y-205.359
X285.877Y-213.36
X288.29Y-203.581
X288.29Y-207.137
X288.29Y-211.582
X288.29Y-215.138
X194.564Y-89.535
X194.564Y-92.075
X167.232Y-67.818
X168.602Y-70.358
X169.972Y-67.818
X171.342Y-70.358
X172.712Y-67.818
X174.082Y-70.358
X175.452Y-67.818
X176.822Y-70.358
X199.517Y-218.821
X199.517Y-221.361
X195.961Y-218.821
X195.961Y-221.361
X280.289Y-206.121
X280.289Y-208.661
X266.827Y-101.854
X269.367Y-101.854
X271.907Y-101.854
X274.447Y-101.854
X276.987Y-101.854
X279.527Y-101.854
X208.606Y-206.479
X208.606Y-212.979
X213.106Y-206.479
X213.106Y-212.979
X206.375Y-218.821
X206.375Y-221.361
X173.736Y-80.518
X173.736Y-83.058
X173.736Y-85.598
X201.748Y-206.479
X201.748Y-212.979
X206.248Y-206.479
X206.248Y-212.979
X192.405Y-218.821
X192.405Y-221.361
X213.614Y-88.265
X213.614Y-90.805
X213.614Y-93.345
X209.931Y-218.821
X209.931Y-221.361
T7
X241.456Y-65.776
X241.456Y-68.276
X241.456Y-72.776
X241.456Y-75.276
X243.556Y-65.776
X243.556Y-72.776
X246.156Y-65.776
X246.156Y-72.776
X248.256Y-65.776
X248.256Y-68.276
X248.256Y-72.776
X248.256Y-75.276
T8
X212.921Y-68.834
X214.066Y-66.294
X214.066Y-71.374
X215.211Y-68.834
X216.356Y-66.294
X216.356Y-71.374
X217.501Y-68.834
X218.646Y-66.294
X218.646Y-71.374
X219.791Y-68.834
X220.936Y-66.294
X220.936Y-71.374
X222.081Y-68.834
X223.226Y-66.294
X223.226Y-71.374
T9
X264.625Y-68.118
X264.625Y-74.868
X266.01Y-65.278
X266.01Y-72.028
X267.395Y-68.118
X267.395Y-74.868
X268.78Y-65.278
X268.78Y-72.028
X270.165Y-68.118
X270.165Y-74.868
X271.55Y-65.278
X271.55Y-72.028
X272.935Y-68.118
X272.935Y-74.868
X274.32Y-65.278
X274.32Y-72.028
X275.705Y-68.118
X275.705Y-74.868
T10
X144.656Y-199.503
X164.656Y-199.503
T11
X234.007Y-217.805
X234.007Y-222.005
X238.207Y-217.805
X238.207Y-222.005
X242.407Y-217.805
X242.407Y-222.005
X246.607Y-217.805
X246.607Y-222.005
X250.807Y-217.805
X250.807Y-222.005
X255.007Y-217.805
X255.007Y-222.005
X259.207Y-217.805
X259.207Y-222.005
X263.407Y-217.805
X263.407Y-222.005
X267.607Y-217.805
X267.607Y-222.005
X271.807Y-217.805
X271.807Y-222.005
X276.007Y-217.805
X276.007Y-222.005
X280.207Y-217.805
X280.207Y-222.005
T12
X238.106Y-62.776
X238.106Y-72.776
X244.856Y-61.976
X251.606Y-62.776
X251.606Y-72.776
T13
X205.896Y-68.834
X230.886Y-68.834
T14
X257.675Y-65.278
X257.675Y-73.278
X282.655Y-65.278
X282.655Y-73.278
T15
X158.847Y-69.088
X183.837Y-69.088
T16
X133.604Y-221.996
X290.83Y-221.996
X290.83Y-89.916
X133.604Y-67.056
T0
M30
