%FSLAX45Y45*%
G04 Gerber Fmt 4.5, Leading zero omitted, Abs format (unit mm)*
G04 Created by KiCad (PCBNEW (5.1.6)-1) date 2024-05-17 16:04:12*
%MOMM*%
%LPD*%
G01*
G04 APERTURE LIST*
%TA.AperFunction,Profile*%
%ADD10C,0.050000*%
%TD*%
%ADD11C,0.200000*%
%ADD12C,0.300000*%
G04 APERTURE END LIST*
D10*
X29725400Y-22689600D02*
X29725400Y-5689600D01*
X12725400Y-22689600D02*
X29725400Y-22689600D01*
X12725400Y-5689600D02*
X12725400Y-22689600D01*
X12725400Y-5689600D02*
X29725400Y-5689600D01*
D11*
X12984800Y-15778800D02*
X13024800Y-15818800D01*
X13024800Y-15778800D02*
X12984800Y-15818800D01*
X12988500Y-13118805D02*
X13028500Y-13158805D01*
X13028500Y-13118805D02*
X12988500Y-13158805D01*
X13061000Y-13035600D02*
X13101000Y-13075600D01*
X13101000Y-13035600D02*
X13061000Y-13075600D01*
X13061000Y-15677200D02*
X13101000Y-15717200D01*
X13101000Y-15677200D02*
X13061000Y-15717200D01*
X13137200Y-12959400D02*
X13177200Y-12999400D01*
X13177200Y-12959400D02*
X13137200Y-12999400D01*
X13137200Y-15601000D02*
X13177200Y-15641000D01*
X13177200Y-15601000D02*
X13137200Y-15641000D01*
X13213400Y-12883200D02*
X13253400Y-12923200D01*
X13253400Y-12883200D02*
X13213400Y-12923200D01*
X13213400Y-15524800D02*
X13253400Y-15564800D01*
X13253400Y-15524800D02*
X13213400Y-15564800D01*
X13289600Y-12807000D02*
X13329600Y-12847000D01*
X13329600Y-12807000D02*
X13289600Y-12847000D01*
X13289600Y-15448600D02*
X13329600Y-15488600D01*
X13329600Y-15448600D02*
X13289600Y-15488600D01*
X13365800Y-12730800D02*
X13405800Y-12770800D01*
X13405800Y-12730800D02*
X13365800Y-12770800D01*
X13365800Y-15372400D02*
X13405800Y-15412400D01*
X13405800Y-15372400D02*
X13365800Y-15412400D01*
X13442000Y-12654600D02*
X13482000Y-12694600D01*
X13482000Y-12654600D02*
X13442000Y-12694600D01*
X13442000Y-15296200D02*
X13482000Y-15336200D01*
X13482000Y-15296200D02*
X13442000Y-15336200D01*
X13518200Y-12578400D02*
X13558200Y-12618400D01*
X13558200Y-12578400D02*
X13518200Y-12618400D01*
X13518200Y-15220000D02*
X13558200Y-15260000D01*
X13558200Y-15220000D02*
X13518200Y-15260000D01*
X13594400Y-12476800D02*
X13634400Y-12516800D01*
X13634400Y-12476800D02*
X13594400Y-12516800D01*
X13594400Y-15118400D02*
X13634400Y-15158400D01*
X13634400Y-15118400D02*
X13594400Y-15158400D01*
X13670600Y-12248200D02*
X13710600Y-12288200D01*
X13710600Y-12248200D02*
X13670600Y-12288200D01*
X13670600Y-14889800D02*
X13710600Y-14929800D01*
X13710600Y-14889800D02*
X13670600Y-14929800D01*
X13746800Y-12172000D02*
X13786800Y-12212000D01*
X13786800Y-12172000D02*
X13746800Y-12212000D01*
X13746800Y-14813600D02*
X13786800Y-14853600D01*
X13786800Y-14813600D02*
X13746800Y-14853600D01*
X13823000Y-12095800D02*
X13863000Y-12135800D01*
X13863000Y-12095800D02*
X13823000Y-12135800D01*
X13823000Y-14737400D02*
X13863000Y-14777400D01*
X13863000Y-14737400D02*
X13823000Y-14777400D01*
X13899200Y-12019600D02*
X13939200Y-12059600D01*
X13939200Y-12019600D02*
X13899200Y-12059600D01*
X13899200Y-14661200D02*
X13939200Y-14701200D01*
X13939200Y-14661200D02*
X13899200Y-14701200D01*
X13975400Y-11841800D02*
X14015400Y-11881800D01*
X14015400Y-11841800D02*
X13975400Y-11881800D01*
X13975400Y-14483400D02*
X14015400Y-14523400D01*
X14015400Y-14483400D02*
X13975400Y-14523400D01*
X14051600Y-11765600D02*
X14091600Y-11805600D01*
X14091600Y-11765600D02*
X14051600Y-11805600D01*
X14051600Y-14407200D02*
X14091600Y-14447200D01*
X14091600Y-14407200D02*
X14051600Y-14447200D01*
X14127800Y-11689400D02*
X14167800Y-11729400D01*
X14167800Y-11689400D02*
X14127800Y-11729400D01*
X14127800Y-14331000D02*
X14167800Y-14371000D01*
X14167800Y-14331000D02*
X14127800Y-14371000D01*
X14204000Y-11613200D02*
X14244000Y-11653200D01*
X14244000Y-11613200D02*
X14204000Y-11653200D01*
X14204000Y-14254800D02*
X14244000Y-14294800D01*
X14244000Y-14254800D02*
X14204000Y-14294800D01*
X14280200Y-11537000D02*
X14320200Y-11577000D01*
X14320200Y-11537000D02*
X14280200Y-11577000D01*
X14280200Y-14178600D02*
X14320200Y-14218600D01*
X14320200Y-14178600D02*
X14280200Y-14218600D01*
X14356400Y-15054900D02*
X14396400Y-15094900D01*
X14396400Y-15054900D02*
X14356400Y-15094900D01*
X14369100Y-12413300D02*
X14409100Y-12453300D01*
X14409100Y-12413300D02*
X14369100Y-12453300D01*
X14369100Y-17569500D02*
X14409100Y-17609500D01*
X14409100Y-17569500D02*
X14369100Y-17609500D01*
X14470700Y-16667800D02*
X14510700Y-16707800D01*
X14510700Y-16667800D02*
X14470700Y-16707800D01*
X14470700Y-16896400D02*
X14510700Y-16936400D01*
X14510700Y-16896400D02*
X14470700Y-16936400D01*
X14635800Y-11942700D02*
X14675800Y-11982700D01*
X14675800Y-11942700D02*
X14635800Y-11982700D01*
X14635800Y-12349800D02*
X14675800Y-12389800D01*
X14675800Y-12349800D02*
X14635800Y-12389800D01*
X14635800Y-14991400D02*
X14675800Y-15031400D01*
X14675800Y-14991400D02*
X14635800Y-15031400D01*
X14635800Y-20858800D02*
X14675800Y-20898800D01*
X14675800Y-20858800D02*
X14635800Y-20898800D01*
X14661200Y-14569300D02*
X14701200Y-14609300D01*
X14701200Y-14569300D02*
X14661200Y-14609300D01*
X14889800Y-21354100D02*
X14929800Y-21394100D01*
X14929800Y-21354100D02*
X14889800Y-21394100D01*
X15105700Y-8031800D02*
X15145700Y-8071800D01*
X15145700Y-8031800D02*
X15105700Y-8071800D01*
X15131100Y-20858800D02*
X15171100Y-20898800D01*
X15171100Y-20858800D02*
X15131100Y-20898800D01*
X15435900Y-8171500D02*
X15475900Y-8211500D01*
X15475900Y-8171500D02*
X15435900Y-8211500D01*
X15499400Y-12426000D02*
X15539400Y-12466000D01*
X15539400Y-12426000D02*
X15499400Y-12466000D01*
X15499400Y-15042200D02*
X15539400Y-15082200D01*
X15539400Y-15042200D02*
X15499400Y-15082200D01*
X15626400Y-21366800D02*
X15666400Y-21406800D01*
X15666400Y-21366800D02*
X15626400Y-21406800D01*
X15766100Y-7841300D02*
X15806100Y-7881300D01*
X15806100Y-7841300D02*
X15766100Y-7881300D01*
X15766100Y-12337100D02*
X15806100Y-12377100D01*
X15806100Y-12337100D02*
X15766100Y-12377100D01*
X15778800Y-14978700D02*
X15818800Y-15018700D01*
X15818800Y-14978700D02*
X15778800Y-15018700D01*
X15804200Y-11542700D02*
X15844200Y-11582700D01*
X15844200Y-11542700D02*
X15804200Y-11582700D01*
X15804200Y-11702700D02*
X15844200Y-11742700D01*
X15844200Y-11702700D02*
X15804200Y-11742700D01*
X15804200Y-11862700D02*
X15844200Y-11902700D01*
X15844200Y-11862700D02*
X15804200Y-11902700D01*
X15804200Y-12019600D02*
X15844200Y-12059600D01*
X15844200Y-12019600D02*
X15804200Y-12059600D01*
X15804200Y-12172000D02*
X15844200Y-12212000D01*
X15844200Y-12172000D02*
X15804200Y-12212000D01*
X15804200Y-12578400D02*
X15844200Y-12618400D01*
X15844200Y-12578400D02*
X15804200Y-12618400D01*
X15804200Y-12742700D02*
X15844200Y-12782700D01*
X15844200Y-12742700D02*
X15804200Y-12782700D01*
X15804200Y-12902700D02*
X15844200Y-12942700D01*
X15844200Y-12902700D02*
X15804200Y-12942700D01*
X15804200Y-13061000D02*
X15844200Y-13101000D01*
X15844200Y-13061000D02*
X15804200Y-13101000D01*
X15804200Y-13213400D02*
X15844200Y-13253400D01*
X15844200Y-13213400D02*
X15804200Y-13253400D01*
X15804200Y-14331000D02*
X15844200Y-14371000D01*
X15844200Y-14331000D02*
X15804200Y-14371000D01*
X15804200Y-14489300D02*
X15844200Y-14529300D01*
X15844200Y-14489300D02*
X15804200Y-14529300D01*
X15804200Y-14661200D02*
X15844200Y-14701200D01*
X15844200Y-14661200D02*
X15804200Y-14701200D01*
X15804200Y-14813600D02*
X15844200Y-14853600D01*
X15844200Y-14813600D02*
X15804200Y-14853600D01*
X15804200Y-15143800D02*
X15844200Y-15183800D01*
X15844200Y-15143800D02*
X15804200Y-15183800D01*
X15804200Y-15296200D02*
X15844200Y-15336200D01*
X15844200Y-15296200D02*
X15804200Y-15336200D01*
X15804200Y-15449300D02*
X15844200Y-15489300D01*
X15844200Y-15449300D02*
X15804200Y-15489300D01*
X15804200Y-15609300D02*
X15844200Y-15649300D01*
X15844200Y-15609300D02*
X15804200Y-15649300D01*
X15804200Y-15855000D02*
X15844200Y-15895000D01*
X15844200Y-15855000D02*
X15804200Y-15895000D01*
X15806000Y-14176800D02*
X15846000Y-14216800D01*
X15846000Y-14176800D02*
X15806000Y-14216800D01*
X15880400Y-11790200D02*
X15920400Y-11830200D01*
X15920400Y-11790200D02*
X15880400Y-11830200D01*
X15880400Y-11943400D02*
X15920400Y-11983400D01*
X15920400Y-11943400D02*
X15880400Y-11983400D01*
X15880400Y-12095800D02*
X15920400Y-12135800D01*
X15920400Y-12095800D02*
X15880400Y-12135800D01*
X15880400Y-12273600D02*
X15920400Y-12313600D01*
X15920400Y-12273600D02*
X15880400Y-12313600D01*
X15880400Y-12502200D02*
X15920400Y-12542200D01*
X15920400Y-12502200D02*
X15880400Y-12542200D01*
X15880400Y-12654600D02*
X15920400Y-12694600D01*
X15920400Y-12654600D02*
X15880400Y-12694600D01*
X15880400Y-12830200D02*
X15920400Y-12870200D01*
X15920400Y-12830200D02*
X15880400Y-12870200D01*
X15880400Y-12984800D02*
X15920400Y-13024800D01*
X15920400Y-12984800D02*
X15880400Y-13024800D01*
X15880400Y-13137200D02*
X15920400Y-13177200D01*
X15920400Y-13137200D02*
X15880400Y-13177200D01*
X15880400Y-14254800D02*
X15920400Y-14294800D01*
X15920400Y-14254800D02*
X15880400Y-14294800D01*
X15880400Y-14407200D02*
X15920400Y-14447200D01*
X15920400Y-14407200D02*
X15880400Y-14447200D01*
X15880400Y-14561800D02*
X15920400Y-14601800D01*
X15920400Y-14561800D02*
X15880400Y-14601800D01*
X15880400Y-14737400D02*
X15920400Y-14777400D01*
X15920400Y-14737400D02*
X15880400Y-14777400D01*
X15880400Y-14889800D02*
X15920400Y-14929800D01*
X15920400Y-14889800D02*
X15880400Y-14929800D01*
X15880400Y-15220000D02*
X15920400Y-15260000D01*
X15920400Y-15220000D02*
X15880400Y-15260000D01*
X15880400Y-15372400D02*
X15920400Y-15412400D01*
X15920400Y-15372400D02*
X15880400Y-15412400D01*
X15880400Y-15524800D02*
X15920400Y-15564800D01*
X15920400Y-15524800D02*
X15880400Y-15564800D01*
X15880400Y-15681800D02*
X15920400Y-15721800D01*
X15920400Y-15681800D02*
X15880400Y-15721800D01*
X15880400Y-15781800D02*
X15920400Y-15821800D01*
X15920400Y-15781800D02*
X15880400Y-15821800D01*
X15880400Y-20871500D02*
X15920400Y-20911500D01*
X15920400Y-20871500D02*
X15880400Y-20911500D01*
X15880725Y-11630200D02*
X15920725Y-11670200D01*
X15920725Y-11630200D02*
X15880725Y-11670200D01*
X15893100Y-7841300D02*
X15933100Y-7881300D01*
X15933100Y-7841300D02*
X15893100Y-7881300D01*
X16020100Y-7701600D02*
X16060100Y-7741600D01*
X16060100Y-7701600D02*
X16020100Y-7741600D01*
X16134400Y-20871500D02*
X16174400Y-20911500D01*
X16174400Y-20871500D02*
X16134400Y-20911500D01*
X16274100Y-16286800D02*
X16314100Y-16326800D01*
X16314100Y-16286800D02*
X16274100Y-16326800D01*
X16401100Y-8717600D02*
X16441100Y-8757600D01*
X16441100Y-8717600D02*
X16401100Y-8757600D01*
X16655100Y-8539800D02*
X16695100Y-8579800D01*
X16695100Y-8539800D02*
X16655100Y-8579800D01*
X16909100Y-7777800D02*
X16949100Y-7817800D01*
X16949100Y-7777800D02*
X16909100Y-7817800D01*
X16972600Y-8031800D02*
X17012600Y-8071800D01*
X17012600Y-8031800D02*
X16972600Y-8071800D01*
X16972600Y-8438200D02*
X17012600Y-8478200D01*
X17012600Y-8438200D02*
X16972600Y-8478200D01*
X16973865Y-8133065D02*
X17013865Y-8173065D01*
X17013865Y-8133065D02*
X16973865Y-8173065D01*
X17046365Y-8213300D02*
X17086365Y-8253300D01*
X17086365Y-8213300D02*
X17046365Y-8253300D01*
X17048800Y-12413300D02*
X17088800Y-12453300D01*
X17088800Y-12413300D02*
X17048800Y-12453300D01*
X17048800Y-15054900D02*
X17088800Y-15094900D01*
X17088800Y-15054900D02*
X17048800Y-15094900D01*
X17049700Y-7948595D02*
X17089700Y-7988595D01*
X17089700Y-7948595D02*
X17049700Y-7988595D01*
X17112300Y-21163600D02*
X17152300Y-21203600D01*
X17152300Y-21163600D02*
X17112300Y-21203600D01*
X17328200Y-7701600D02*
X17368200Y-7741600D01*
X17368200Y-7701600D02*
X17328200Y-7741600D01*
X17328200Y-12349800D02*
X17368200Y-12389800D01*
X17368200Y-12349800D02*
X17328200Y-12389800D01*
X17328200Y-14991400D02*
X17368200Y-15031400D01*
X17368200Y-14991400D02*
X17328200Y-15031400D01*
X17346595Y-13370470D02*
X17386595Y-13410470D01*
X17386595Y-13370470D02*
X17346595Y-13410470D01*
X17352900Y-21671600D02*
X17392900Y-21711600D01*
X17392900Y-21671600D02*
X17352900Y-21711600D01*
X17410400Y-21925600D02*
X17450400Y-21965600D01*
X17450400Y-21925600D02*
X17410400Y-21965600D01*
X17429800Y-13315000D02*
X17469800Y-13355000D01*
X17469800Y-13315000D02*
X17429800Y-13355000D01*
X17747300Y-15016800D02*
X17787300Y-15056800D01*
X17787300Y-15016800D02*
X17747300Y-15056800D01*
X17760000Y-12375200D02*
X17800000Y-12415200D01*
X17800000Y-12375200D02*
X17760000Y-12415200D01*
X17963200Y-11256105D02*
X18003200Y-11296105D01*
X18003200Y-11256105D02*
X17963200Y-11296105D01*
X18071500Y-21163600D02*
X18111500Y-21203600D01*
X18111500Y-21163600D02*
X18071500Y-21203600D01*
X18083195Y-12505900D02*
X18123195Y-12545900D01*
X18123195Y-12505900D02*
X18083195Y-12545900D01*
X18090200Y-11714800D02*
X18130200Y-11754800D01*
X18130200Y-11714800D02*
X18090200Y-11754800D01*
X18090200Y-11867200D02*
X18130200Y-11907200D01*
X18130200Y-11867200D02*
X18090200Y-11907200D01*
X18090200Y-12019600D02*
X18130200Y-12059600D01*
X18130200Y-12019600D02*
X18090200Y-12059600D01*
X18090200Y-12172000D02*
X18130200Y-12212000D01*
X18130200Y-12172000D02*
X18090200Y-12212000D01*
X18090200Y-12654600D02*
X18130200Y-12694600D01*
X18130200Y-12654600D02*
X18090200Y-12694600D01*
X18090200Y-12830200D02*
X18130200Y-12870200D01*
X18130200Y-12830200D02*
X18090200Y-12870200D01*
X18090200Y-12984800D02*
X18130200Y-13024800D01*
X18130200Y-12984800D02*
X18090200Y-13024800D01*
X18090200Y-13137200D02*
X18130200Y-13177200D01*
X18130200Y-13137200D02*
X18090200Y-13177200D01*
X18090200Y-14254800D02*
X18130200Y-14294800D01*
X18130200Y-14254800D02*
X18090200Y-14294800D01*
X18090200Y-14407200D02*
X18130200Y-14447200D01*
X18130200Y-14407200D02*
X18090200Y-14447200D01*
X18090200Y-14561800D02*
X18130200Y-14601800D01*
X18130200Y-14561800D02*
X18090200Y-14601800D01*
X18090200Y-14737400D02*
X18130200Y-14777400D01*
X18130200Y-14737400D02*
X18090200Y-14777400D01*
X18090200Y-15220000D02*
X18130200Y-15260000D01*
X18130200Y-15220000D02*
X18090200Y-15260000D01*
X18090200Y-15372400D02*
X18130200Y-15412400D01*
X18130200Y-15372400D02*
X18090200Y-15412400D01*
X18090200Y-15524800D02*
X18130200Y-15564800D01*
X18130200Y-15524800D02*
X18090200Y-15564800D01*
X18090200Y-15681800D02*
X18130200Y-15721800D01*
X18130200Y-15681800D02*
X18090200Y-15721800D01*
X18090200Y-15781800D02*
X18130200Y-15821800D01*
X18130200Y-15781800D02*
X18090200Y-15821800D01*
X18142802Y-11535200D02*
X18182802Y-11575200D01*
X18182802Y-11535200D02*
X18142802Y-11575200D01*
X18166400Y-11791000D02*
X18206400Y-11831000D01*
X18206400Y-11791000D02*
X18166400Y-11831000D01*
X18166400Y-11943400D02*
X18206400Y-11983400D01*
X18206400Y-11943400D02*
X18166400Y-11983400D01*
X18166400Y-12578400D02*
X18206400Y-12618400D01*
X18206400Y-12578400D02*
X18166400Y-12618400D01*
X18166400Y-12756200D02*
X18206400Y-12796200D01*
X18206400Y-12756200D02*
X18166400Y-12796200D01*
X18166400Y-12908600D02*
X18206400Y-12948600D01*
X18206400Y-12908600D02*
X18166400Y-12948600D01*
X18166400Y-13064700D02*
X18206400Y-13104700D01*
X18206400Y-13064700D02*
X18166400Y-13104700D01*
X18166400Y-13213400D02*
X18206400Y-13253400D01*
X18206400Y-13213400D02*
X18166400Y-13253400D01*
X18166400Y-14178600D02*
X18206400Y-14218600D01*
X18206400Y-14178600D02*
X18166400Y-14218600D01*
X18166400Y-14331000D02*
X18206400Y-14371000D01*
X18206400Y-14331000D02*
X18166400Y-14371000D01*
X18166400Y-14483400D02*
X18206400Y-14523400D01*
X18206400Y-14483400D02*
X18166400Y-14523400D01*
X18166400Y-14661200D02*
X18206400Y-14701200D01*
X18206400Y-14661200D02*
X18166400Y-14701200D01*
X18166400Y-14813600D02*
X18206400Y-14853600D01*
X18206400Y-14813600D02*
X18166400Y-14853600D01*
X18166400Y-15143800D02*
X18206400Y-15183800D01*
X18206400Y-15143800D02*
X18166400Y-15183800D01*
X18166400Y-15296200D02*
X18206400Y-15336200D01*
X18206400Y-15296200D02*
X18166400Y-15336200D01*
X18166400Y-15448600D02*
X18206400Y-15488600D01*
X18206400Y-15448600D02*
X18166400Y-15488600D01*
X18166400Y-15601000D02*
X18206400Y-15641000D01*
X18206400Y-15601000D02*
X18166400Y-15641000D01*
X18166400Y-15855000D02*
X18206400Y-15895000D01*
X18206400Y-15855000D02*
X18166400Y-15895000D01*
X18166400Y-19360200D02*
X18206400Y-19400200D01*
X18206400Y-19360200D02*
X18166400Y-19400200D01*
X18166400Y-12248200D02*
X18206400Y-12288200D01*
X18206400Y-12248200D02*
X18166400Y-12288200D01*
X18173405Y-12099500D02*
X18213405Y-12139500D01*
X18213405Y-12099500D02*
X18173405Y-12139500D01*
X18179100Y-13873800D02*
X18219100Y-13913800D01*
X18219100Y-13873800D02*
X18179100Y-13913800D01*
X18187290Y-13318699D02*
X18227290Y-13358699D01*
X18227290Y-13318699D02*
X18187290Y-13358699D01*
X18191800Y-12400600D02*
X18231800Y-12440600D01*
X18231800Y-12400600D02*
X18191800Y-12440600D01*
X18191800Y-14915200D02*
X18231800Y-14955200D01*
X18231800Y-14915200D02*
X18191800Y-14955200D01*
X18191800Y-15042200D02*
X18231800Y-15082200D01*
X18231800Y-15042200D02*
X18191800Y-15082200D01*
X18209011Y-11631012D02*
X18249011Y-11671012D01*
X18249011Y-11631012D02*
X18209011Y-11671012D01*
X18340156Y-13369844D02*
X18380156Y-13409844D01*
X18380156Y-13369844D02*
X18340156Y-13409844D01*
X18445800Y-13315000D02*
X18485800Y-13355000D01*
X18485800Y-13315000D02*
X18445800Y-13355000D01*
X18458500Y-12337100D02*
X18498500Y-12377100D01*
X18498500Y-12337100D02*
X18458500Y-12377100D01*
X18458500Y-14940600D02*
X18498500Y-14980600D01*
X18498500Y-14940600D02*
X18458500Y-14980600D01*
X18458500Y-18153700D02*
X18498500Y-18193700D01*
X18498500Y-18153700D02*
X18458500Y-18193700D01*
X18522000Y-11537000D02*
X18562000Y-11577000D01*
X18562000Y-11537000D02*
X18522000Y-11577000D01*
X18594500Y-11620205D02*
X18634500Y-11660205D01*
X18634500Y-11620205D02*
X18594500Y-11660205D01*
X18604550Y-17702850D02*
X18644550Y-17742850D01*
X18644550Y-17702850D02*
X18604550Y-17742850D01*
X18667000Y-11698764D02*
X18707000Y-11738764D01*
X18707000Y-11698764D02*
X18667000Y-11738764D01*
X18739500Y-11774179D02*
X18779500Y-11814179D01*
X18779500Y-11774179D02*
X18739500Y-11814179D01*
X18812000Y-11847941D02*
X18852000Y-11887941D01*
X18852000Y-11847941D02*
X18812000Y-11887941D01*
X18884500Y-11920937D02*
X18924500Y-11960937D01*
X18924500Y-11920937D02*
X18884500Y-11960937D01*
X18957000Y-11994200D02*
X18997000Y-12034200D01*
X18997000Y-11994200D02*
X18957000Y-12034200D01*
X19017300Y-15651800D02*
X19057300Y-15691800D01*
X19057300Y-15651800D02*
X19017300Y-15691800D01*
X19030000Y-12070400D02*
X19070000Y-12110400D01*
X19070000Y-12070400D02*
X19030000Y-12110400D01*
X19093500Y-21074700D02*
X19133500Y-21114700D01*
X19133500Y-21074700D02*
X19093500Y-21114700D01*
X19093500Y-21417600D02*
X19133500Y-21457600D01*
X19133500Y-21417600D02*
X19093500Y-21457600D01*
X19106200Y-12146600D02*
X19146200Y-12186600D01*
X19146200Y-12146600D02*
X19106200Y-12186600D01*
X19182400Y-12248200D02*
X19222400Y-12288200D01*
X19222400Y-12248200D02*
X19182400Y-12288200D01*
X19258600Y-12476800D02*
X19298600Y-12516800D01*
X19298600Y-12476800D02*
X19258600Y-12516800D01*
X19331100Y-12560005D02*
X19371100Y-12600005D01*
X19371100Y-12560005D02*
X19331100Y-12600005D01*
X19403600Y-12638564D02*
X19443600Y-12678564D01*
X19443600Y-12638564D02*
X19403600Y-12678564D01*
X19403600Y-13287700D02*
X19443600Y-13327700D01*
X19443600Y-13287700D02*
X19403600Y-13327700D01*
X19476100Y-12730800D02*
X19516100Y-12770800D01*
X19516100Y-12730800D02*
X19476100Y-12770800D01*
X19476100Y-13360200D02*
X19516100Y-13400200D01*
X19516100Y-13360200D02*
X19476100Y-13400200D01*
X19548600Y-12808418D02*
X19588600Y-12848418D01*
X19588600Y-12808418D02*
X19548600Y-12848418D01*
X19621100Y-12883593D02*
X19661100Y-12923593D01*
X19661100Y-12883593D02*
X19621100Y-12923593D01*
X19621100Y-14095500D02*
X19661100Y-14135500D01*
X19661100Y-14095500D02*
X19621100Y-14135500D01*
X19693600Y-12959400D02*
X19733600Y-12999400D01*
X19733600Y-12959400D02*
X19693600Y-12999400D01*
X19693600Y-14180607D02*
X19733600Y-14220607D01*
X19733600Y-14180607D02*
X19693600Y-14220607D01*
X19715800Y-14798302D02*
X19755800Y-14838302D01*
X19755800Y-14798302D02*
X19715800Y-14838302D01*
X19741665Y-11333335D02*
X19781665Y-11373335D01*
X19781665Y-11333335D02*
X19741665Y-11373335D01*
X19766100Y-13044212D02*
X19806100Y-13084212D01*
X19806100Y-13044212D02*
X19766100Y-13084212D01*
X19766100Y-14254800D02*
X19806100Y-14294800D01*
X19806100Y-14254800D02*
X19766100Y-14294800D01*
X19842800Y-13137200D02*
X19882800Y-13177200D01*
X19882800Y-13137200D02*
X19842800Y-13177200D01*
X19842800Y-14322028D02*
X19882800Y-14362028D01*
X19882800Y-14322028D02*
X19842800Y-14362028D01*
X19919000Y-13213400D02*
X19959000Y-13253400D01*
X19959000Y-13213400D02*
X19919000Y-13253400D01*
X20203480Y-22380260D02*
X20243480Y-22420260D01*
X20243480Y-22380260D02*
X20203480Y-22420260D01*
X20223800Y-13657900D02*
X20263800Y-13697900D01*
X20263800Y-13657900D02*
X20223800Y-13697900D01*
X20274600Y-10648000D02*
X20314600Y-10688000D01*
X20314600Y-10648000D02*
X20274600Y-10688000D01*
X20274600Y-13861100D02*
X20314600Y-13901100D01*
X20314600Y-13861100D02*
X20274600Y-13901100D01*
X20277253Y-11254947D02*
X20317253Y-11294947D01*
X20317253Y-11254947D02*
X20277253Y-11294947D01*
X20335532Y-10571800D02*
X20375532Y-10611800D01*
X20375532Y-10571800D02*
X20335532Y-10611800D01*
X20392691Y-10860109D02*
X20432691Y-10900109D01*
X20432691Y-10860109D02*
X20392691Y-10900109D01*
X20393032Y-10508300D02*
X20433032Y-10548300D01*
X20433032Y-10508300D02*
X20393032Y-10548300D01*
X20439700Y-8044500D02*
X20479700Y-8084500D01*
X20479700Y-8044500D02*
X20439700Y-8084500D01*
X20450532Y-10215080D02*
X20490532Y-10255080D01*
X20490532Y-10215080D02*
X20450532Y-10255080D01*
X20477800Y-10863900D02*
X20517800Y-10903900D01*
X20517800Y-10863900D02*
X20477800Y-10903900D01*
X20503200Y-13861100D02*
X20543200Y-13901100D01*
X20543200Y-13861100D02*
X20503200Y-13901100D01*
X20510562Y-10251087D02*
X20550562Y-10291087D01*
X20550562Y-10251087D02*
X20510562Y-10291087D01*
X20541300Y-13594400D02*
X20581300Y-13634400D01*
X20581300Y-13594400D02*
X20541300Y-13634400D01*
X20554000Y-10851200D02*
X20594000Y-10891200D01*
X20594000Y-10851200D02*
X20554000Y-10891200D01*
X20570543Y-10287176D02*
X20610543Y-10327176D01*
X20610543Y-10287176D02*
X20570543Y-10327176D01*
X20604800Y-13492800D02*
X20644800Y-13532800D01*
X20644800Y-13492800D02*
X20604800Y-13532800D01*
X20630200Y-10323799D02*
X20670200Y-10363799D01*
X20670200Y-10323799D02*
X20630200Y-10363799D01*
X20636698Y-10850566D02*
X20676698Y-10890566D01*
X20676698Y-10850566D02*
X20636698Y-10890566D01*
X20639000Y-13982900D02*
X20679000Y-14022900D01*
X20679000Y-13982900D02*
X20639000Y-14022900D01*
X20681000Y-14038900D02*
X20721000Y-14078900D01*
X20721000Y-14038900D02*
X20681000Y-14078900D01*
X20693700Y-10279700D02*
X20733700Y-10319700D01*
X20733700Y-10279700D02*
X20693700Y-10319700D01*
X20731800Y-10813101D02*
X20771800Y-10853101D01*
X20771800Y-10813101D02*
X20731800Y-10853101D01*
X20751200Y-10321700D02*
X20791200Y-10361700D01*
X20791200Y-10321700D02*
X20751200Y-10361700D01*
X20795300Y-13302300D02*
X20835300Y-13342300D01*
X20835300Y-13302300D02*
X20795300Y-13342300D01*
X20846641Y-10806059D02*
X20886641Y-10846059D01*
X20886641Y-10806059D02*
X20846641Y-10846059D01*
X20858800Y-13975400D02*
X20898800Y-14015400D01*
X20898800Y-13975400D02*
X20858800Y-14015400D01*
X20884200Y-14254800D02*
X20924200Y-14294800D01*
X20924200Y-14254800D02*
X20884200Y-14294800D01*
X20896900Y-16223300D02*
X20936900Y-16263300D01*
X20936900Y-16223300D02*
X20896900Y-16263300D01*
X20922300Y-10800400D02*
X20962300Y-10840400D01*
X20962300Y-10800400D02*
X20922300Y-10840400D01*
X20935000Y-13213400D02*
X20975000Y-13253400D01*
X20975000Y-13213400D02*
X20935000Y-13253400D01*
X20999704Y-10792996D02*
X21039704Y-10832996D01*
X21039704Y-10792996D02*
X20999704Y-10832996D01*
X21023900Y-14331000D02*
X21063900Y-14371000D01*
X21063900Y-14331000D02*
X21023900Y-14371000D01*
X21037777Y-14399789D02*
X21077777Y-14439789D01*
X21077777Y-14399789D02*
X21037777Y-14439789D01*
X21069453Y-10787066D02*
X21109453Y-10827066D01*
X21109453Y-10787066D02*
X21069453Y-10827066D01*
X21150900Y-14496100D02*
X21190900Y-14536100D01*
X21190900Y-14496100D02*
X21150900Y-14536100D01*
X21214400Y-14559600D02*
X21254400Y-14599600D01*
X21254400Y-14559600D02*
X21214400Y-14599600D01*
X21214400Y-15016800D02*
X21254400Y-15056800D01*
X21254400Y-15016800D02*
X21214400Y-15056800D01*
X21214400Y-16363000D02*
X21254400Y-16403000D01*
X21254400Y-16363000D02*
X21214400Y-16403000D01*
X21224541Y-12893341D02*
X21264541Y-12933341D01*
X21264541Y-12893341D02*
X21224541Y-12933341D01*
X21227100Y-15499400D02*
X21267100Y-15539400D01*
X21267100Y-15499400D02*
X21227100Y-15539400D01*
X21243591Y-13687091D02*
X21283591Y-13727091D01*
X21283591Y-13687091D02*
X21243591Y-13727091D01*
X21351104Y-12756200D02*
X21391104Y-12796200D01*
X21391104Y-12756200D02*
X21351104Y-12796200D01*
X21379501Y-16515400D02*
X21419501Y-16555400D01*
X21419501Y-16515400D02*
X21379501Y-16555400D01*
X21544600Y-14661200D02*
X21584600Y-14701200D01*
X21584600Y-14661200D02*
X21544600Y-14701200D01*
X21582700Y-15855000D02*
X21622700Y-15895000D01*
X21622700Y-15855000D02*
X21582700Y-15895000D01*
X21595400Y-8819200D02*
X21635400Y-8859200D01*
X21635400Y-8819200D02*
X21595400Y-8859200D01*
X21608100Y-21862100D02*
X21648100Y-21902100D01*
X21648100Y-21862100D02*
X21608100Y-21902100D01*
X21634401Y-16121700D02*
X21674401Y-16161700D01*
X21674401Y-16121700D02*
X21634401Y-16161700D01*
X21684300Y-12464100D02*
X21724300Y-12504100D01*
X21724300Y-12464100D02*
X21684300Y-12504100D01*
X21698831Y-14997152D02*
X21738831Y-15037152D01*
X21738831Y-14997152D02*
X21698831Y-15037152D01*
X21709700Y-15067600D02*
X21749700Y-15107600D01*
X21749700Y-15067600D02*
X21709700Y-15107600D01*
X21712215Y-16129514D02*
X21752215Y-16169514D01*
X21752215Y-16129514D02*
X21712215Y-16169514D01*
X21760500Y-15143800D02*
X21800500Y-15183800D01*
X21800500Y-15143800D02*
X21760500Y-15183800D01*
X21763245Y-12334355D02*
X21803245Y-12374355D01*
X21803245Y-12334355D02*
X21763245Y-12374355D01*
X21773200Y-12654600D02*
X21813200Y-12694600D01*
X21813200Y-12654600D02*
X21773200Y-12694600D01*
X21824000Y-15613700D02*
X21864000Y-15653700D01*
X21864000Y-15613700D02*
X21824000Y-15653700D01*
X21872241Y-12232941D02*
X21912241Y-12272941D01*
X21912241Y-12232941D02*
X21872241Y-12272941D01*
X21926501Y-10508300D02*
X21966501Y-10548300D01*
X21966501Y-10508300D02*
X21926501Y-10548300D01*
X21926501Y-10578300D02*
X21966501Y-10618300D01*
X21966501Y-10578300D02*
X21926501Y-10618300D01*
X21926501Y-10648301D02*
X21966501Y-10688301D01*
X21966501Y-10648301D02*
X21926501Y-10688301D01*
X21926501Y-10718301D02*
X21966501Y-10758301D01*
X21966501Y-10718301D02*
X21926501Y-10758301D01*
X21951000Y-12362500D02*
X21991000Y-12402500D01*
X21991000Y-12362500D02*
X21951000Y-12402500D01*
X21999022Y-14895165D02*
X22039022Y-14935165D01*
X22039022Y-14895165D02*
X21999022Y-14935165D01*
X22027200Y-15385100D02*
X22067200Y-15425100D01*
X22067200Y-15385100D02*
X22027200Y-15425100D01*
X22041123Y-14789423D02*
X22081123Y-14829423D01*
X22081123Y-14789423D02*
X22041123Y-14829423D01*
X22043600Y-15042200D02*
X22083600Y-15082200D01*
X22083600Y-15042200D02*
X22043600Y-15082200D01*
X22070316Y-14693354D02*
X22110316Y-14733354D01*
X22110316Y-14693354D02*
X22070316Y-14733354D01*
X22106502Y-14593668D02*
X22146502Y-14633668D01*
X22146502Y-14593668D02*
X22106502Y-14633668D01*
X22116100Y-7930200D02*
X22156100Y-7970200D01*
X22156100Y-7930200D02*
X22116100Y-7970200D01*
X22116100Y-15220000D02*
X22156100Y-15260000D01*
X22156100Y-15220000D02*
X22116100Y-15260000D01*
X22143963Y-14492565D02*
X22183963Y-14532565D01*
X22183963Y-14492565D02*
X22143963Y-14532565D01*
X22180669Y-14392218D02*
X22220669Y-14432218D01*
X22220669Y-14392218D02*
X22180669Y-14432218D01*
X22184718Y-11722383D02*
X22224718Y-11762383D01*
X22224718Y-11722383D02*
X22184718Y-11762383D01*
X22192300Y-15410500D02*
X22232300Y-15450500D01*
X22232300Y-15410500D02*
X22192300Y-15450500D01*
X22193977Y-14293107D02*
X22233977Y-14333107D01*
X22233977Y-14293107D02*
X22193977Y-14333107D01*
X22281200Y-15639100D02*
X22321200Y-15679100D01*
X22321200Y-15639100D02*
X22281200Y-15679100D01*
X22319300Y-8362000D02*
X22359300Y-8402000D01*
X22359300Y-8362000D02*
X22319300Y-8402000D01*
X22382800Y-15766100D02*
X22422800Y-15806100D01*
X22422800Y-15766100D02*
X22382800Y-15806100D01*
X22527617Y-12065283D02*
X22567617Y-12105283D01*
X22567617Y-12065283D02*
X22527617Y-12105283D01*
X22591117Y-12128783D02*
X22631117Y-12168783D01*
X22631117Y-12128783D02*
X22591117Y-12168783D01*
X22611400Y-11740200D02*
X22651400Y-11780200D01*
X22651400Y-11740200D02*
X22611400Y-11780200D01*
X22636800Y-11587800D02*
X22676800Y-11627800D01*
X22676800Y-11587800D02*
X22636800Y-11627800D01*
X22671109Y-12531391D02*
X22711109Y-12571391D01*
X22711109Y-12531391D02*
X22671109Y-12571391D01*
X22686553Y-12305536D02*
X22726553Y-12345536D01*
X22726553Y-12305536D02*
X22686553Y-12345536D01*
X22687600Y-12387900D02*
X22727600Y-12427900D01*
X22727600Y-12387900D02*
X22687600Y-12427900D01*
X22700300Y-12857800D02*
X22740300Y-12897800D01*
X22740300Y-12857800D02*
X22700300Y-12897800D01*
X22710485Y-10374456D02*
X22750485Y-10414456D01*
X22750485Y-10374456D02*
X22710485Y-10414456D01*
X22750199Y-10432100D02*
X22790199Y-10472100D01*
X22790199Y-10432100D02*
X22750199Y-10472100D01*
X22789200Y-15143800D02*
X22829200Y-15183800D01*
X22829200Y-15143800D02*
X22789200Y-15183800D01*
X22789200Y-15562900D02*
X22829200Y-15602900D01*
X22829200Y-15562900D02*
X22789200Y-15602900D01*
X22827300Y-12984800D02*
X22867300Y-13024800D01*
X22867300Y-12984800D02*
X22827300Y-13024800D01*
X22836022Y-12460122D02*
X22876022Y-12500122D01*
X22876022Y-12460122D02*
X22836022Y-12500122D01*
X22839302Y-12870500D02*
X22879302Y-12910500D01*
X22879302Y-12870500D02*
X22839302Y-12910500D01*
X22865400Y-15016800D02*
X22905400Y-15056800D01*
X22905400Y-15016800D02*
X22865400Y-15056800D01*
X22995471Y-12937071D02*
X23035471Y-12977071D01*
X23035471Y-12937071D02*
X22995471Y-12977071D01*
X23017800Y-8476300D02*
X23057800Y-8516300D01*
X23057800Y-8476300D02*
X23017800Y-8516300D01*
X23095721Y-12249921D02*
X23135721Y-12289921D01*
X23135721Y-12249921D02*
X23095721Y-12289921D01*
X23119400Y-12045000D02*
X23159400Y-12085000D01*
X23159400Y-12045000D02*
X23119400Y-12085000D01*
X23119400Y-14826300D02*
X23159400Y-14866300D01*
X23159400Y-14826300D02*
X23119400Y-14866300D01*
X23144800Y-16223300D02*
X23184800Y-16263300D01*
X23184800Y-16223300D02*
X23144800Y-16263300D01*
X23170200Y-13188000D02*
X23210200Y-13228000D01*
X23210200Y-13188000D02*
X23170200Y-13228000D01*
X23210965Y-14765253D02*
X23250965Y-14805253D01*
X23250965Y-14765253D02*
X23210965Y-14805253D01*
X23218813Y-15615158D02*
X23258813Y-15655158D01*
X23258813Y-15615158D02*
X23218813Y-15655158D01*
X23221000Y-14483400D02*
X23261000Y-14523400D01*
X23261000Y-14483400D02*
X23221000Y-14523400D01*
X23233700Y-12857800D02*
X23273700Y-12897800D01*
X23273700Y-12857800D02*
X23233700Y-12897800D01*
X23277056Y-15576329D02*
X23317056Y-15616329D01*
X23317056Y-15576329D02*
X23277056Y-15616329D01*
X23335300Y-15537500D02*
X23375300Y-15577500D01*
X23375300Y-15537500D02*
X23335300Y-15577500D01*
X23369609Y-14606609D02*
X23409609Y-14646609D01*
X23409609Y-14606609D02*
X23369609Y-14646609D01*
X23398800Y-12426000D02*
X23438800Y-12466000D01*
X23438800Y-12426000D02*
X23398800Y-12466000D01*
X23400040Y-15477287D02*
X23440040Y-15517287D01*
X23440040Y-15477287D02*
X23400040Y-15517287D01*
X23401359Y-12944141D02*
X23441359Y-12984141D01*
X23441359Y-12944141D02*
X23401359Y-12984141D01*
X23411500Y-12235500D02*
X23451500Y-12275500D01*
X23451500Y-12235500D02*
X23411500Y-12275500D01*
X23418200Y-10432100D02*
X23458200Y-10472100D01*
X23458200Y-10432100D02*
X23418200Y-10472100D01*
X23436900Y-9022400D02*
X23476900Y-9062400D01*
X23476900Y-9022400D02*
X23436900Y-9062400D01*
X23436900Y-9187500D02*
X23476900Y-9227500D01*
X23476900Y-9187500D02*
X23436900Y-9227500D01*
X23439459Y-9266259D02*
X23479459Y-9306259D01*
X23479459Y-9266259D02*
X23439459Y-9306259D01*
X23442558Y-9098059D02*
X23482558Y-9138059D01*
X23482558Y-9098059D02*
X23442558Y-9138059D01*
X23462018Y-13004801D02*
X23502018Y-13044801D01*
X23502018Y-13004801D02*
X23462018Y-13044801D01*
X23462300Y-15512100D02*
X23502300Y-15552100D01*
X23502300Y-15512100D02*
X23462300Y-15552100D01*
X23475000Y-16096300D02*
X23515000Y-16136300D01*
X23515000Y-16096300D02*
X23475000Y-16136300D01*
X23488200Y-10432100D02*
X23528200Y-10472100D01*
X23528200Y-10432100D02*
X23488200Y-10472100D01*
X23523465Y-15462824D02*
X23563465Y-15502824D01*
X23563465Y-15462824D02*
X23523465Y-15502824D01*
X23596800Y-15465200D02*
X23636800Y-15505200D01*
X23636800Y-15465200D02*
X23596800Y-15505200D01*
X23640100Y-14292900D02*
X23680100Y-14332900D01*
X23680100Y-14292900D02*
X23640100Y-14332900D01*
X23652800Y-15423200D02*
X23692800Y-15463200D01*
X23692800Y-15423200D02*
X23652800Y-15463200D01*
X23715114Y-15297386D02*
X23755114Y-15337386D01*
X23755114Y-15297386D02*
X23715114Y-15337386D01*
X23754400Y-14191300D02*
X23794400Y-14231300D01*
X23794400Y-14191300D02*
X23754400Y-14231300D01*
X23790383Y-15301945D02*
X23830383Y-15341945D01*
X23830383Y-15301945D02*
X23790383Y-15341945D01*
X23809659Y-13395659D02*
X23849659Y-13435659D01*
X23849659Y-13395659D02*
X23809659Y-13435659D01*
X23868374Y-15309226D02*
X23908374Y-15349226D01*
X23908374Y-15309226D02*
X23868374Y-15349226D01*
X23894100Y-13454700D02*
X23934100Y-13494700D01*
X23934100Y-13454700D02*
X23894100Y-13494700D01*
X23919500Y-16083600D02*
X23959500Y-16123600D01*
X23959500Y-16083600D02*
X23919500Y-16123600D01*
X23943597Y-15310203D02*
X23983597Y-15350203D01*
X23983597Y-15310203D02*
X23943597Y-15350203D01*
X23970300Y-13988100D02*
X24010300Y-14028100D01*
X24010300Y-13988100D02*
X23970300Y-14028100D01*
X24033800Y-13911900D02*
X24073800Y-13951900D01*
X24073800Y-13911900D02*
X24033800Y-13951900D01*
X24046500Y-15283500D02*
X24086500Y-15323500D01*
X24086500Y-15283500D02*
X24046500Y-15323500D01*
X24122700Y-13251500D02*
X24162700Y-13291500D01*
X24162700Y-13251500D02*
X24122700Y-13291500D01*
X24148100Y-13683300D02*
X24188100Y-13723300D01*
X24188100Y-13683300D02*
X24148100Y-13723300D01*
X24208100Y-15205998D02*
X24248100Y-15245998D01*
X24248100Y-15205998D02*
X24208100Y-15245998D01*
X24208100Y-15804200D02*
X24248100Y-15844200D01*
X24248100Y-15804200D02*
X24208100Y-15844200D01*
X24237000Y-13048300D02*
X24277000Y-13088300D01*
X24277000Y-13048300D02*
X24237000Y-13088300D01*
X24249700Y-12959400D02*
X24289700Y-12999400D01*
X24289700Y-12959400D02*
X24249700Y-12999400D01*
X24265600Y-16058200D02*
X24305600Y-16098200D01*
X24305600Y-16058200D02*
X24265600Y-16098200D01*
X24265601Y-15156094D02*
X24305601Y-15196094D01*
X24305601Y-15156094D02*
X24265601Y-15196094D01*
X24277659Y-13279459D02*
X24317659Y-13319459D01*
X24317659Y-13279459D02*
X24277659Y-13319459D01*
X24287800Y-13188000D02*
X24327800Y-13228000D01*
X24327800Y-13188000D02*
X24287800Y-13228000D01*
X24323100Y-16312200D02*
X24363100Y-16352200D01*
X24363100Y-16312200D02*
X24323100Y-16352200D01*
X24325640Y-15120101D02*
X24365640Y-15160101D01*
X24365640Y-15120101D02*
X24325640Y-15160101D01*
X24376700Y-15067600D02*
X24416700Y-15107600D01*
X24416700Y-15067600D02*
X24376700Y-15107600D01*
X24380600Y-16566200D02*
X24420600Y-16606200D01*
X24420600Y-16566200D02*
X24380600Y-16606200D01*
X24438100Y-15004100D02*
X24478100Y-15044100D01*
X24478100Y-15004100D02*
X24438100Y-15044100D01*
X24438100Y-17074200D02*
X24478100Y-17114200D01*
X24478100Y-17074200D02*
X24438100Y-17114200D01*
X24490349Y-14941251D02*
X24530349Y-14981251D01*
X24530349Y-14941251D02*
X24490349Y-14981251D01*
X24495600Y-17328200D02*
X24535600Y-17368200D01*
X24535600Y-17328200D02*
X24495600Y-17368200D01*
X24551681Y-13895323D02*
X24591681Y-13935323D01*
X24591681Y-13895323D02*
X24551681Y-13935323D01*
X24553100Y-14991400D02*
X24593100Y-15031400D01*
X24593100Y-14991400D02*
X24553100Y-15031400D01*
X24553100Y-17582200D02*
X24593100Y-17622200D01*
X24593100Y-17582200D02*
X24553100Y-17622200D01*
X24610600Y-17836200D02*
X24650600Y-17876200D01*
X24650600Y-17836200D02*
X24610600Y-17876200D01*
X24610601Y-14939723D02*
X24650601Y-14979723D01*
X24650601Y-14939723D02*
X24610601Y-14979723D01*
X24619594Y-13912288D02*
X24659594Y-13952288D01*
X24659594Y-13912288D02*
X24619594Y-13952288D01*
X24668100Y-14991400D02*
X24708100Y-15031400D01*
X24708100Y-14991400D02*
X24668100Y-15031400D01*
X24668100Y-18090200D02*
X24708100Y-18130200D01*
X24708100Y-18090200D02*
X24668100Y-18130200D01*
X24681500Y-13963547D02*
X24721500Y-14003547D01*
X24721500Y-13963547D02*
X24681500Y-14003547D01*
X24725600Y-18344200D02*
X24765600Y-18384200D01*
X24765600Y-18344200D02*
X24725600Y-18384200D01*
X24725602Y-14940600D02*
X24765602Y-14980600D01*
X24765602Y-14940600D02*
X24725602Y-14980600D01*
X24740879Y-14021047D02*
X24780879Y-14061047D01*
X24780879Y-14021047D02*
X24740879Y-14061047D01*
X24783100Y-18598200D02*
X24823100Y-18638200D01*
X24823100Y-18598200D02*
X24783100Y-18638200D01*
X24783101Y-14877101D02*
X24823101Y-14917101D01*
X24823101Y-14877101D02*
X24783101Y-14917101D01*
X24798379Y-14078547D02*
X24838379Y-14118547D01*
X24838379Y-14078547D02*
X24798379Y-14118547D01*
X24846600Y-14839000D02*
X24886600Y-14879000D01*
X24886600Y-14839000D02*
X24846600Y-14879000D01*
X24846600Y-18852200D02*
X24886600Y-18892200D01*
X24886600Y-18852200D02*
X24846600Y-18892200D01*
X24855879Y-14136047D02*
X24895879Y-14176047D01*
X24895879Y-14136047D02*
X24855879Y-14176047D01*
X24869571Y-14204695D02*
X24909571Y-14244695D01*
X24909571Y-14204695D02*
X24869571Y-14244695D01*
X24883455Y-14273305D02*
X24923455Y-14313305D01*
X24923455Y-14273305D02*
X24883455Y-14313305D01*
X24893500Y-14425900D02*
X24933500Y-14465900D01*
X24933500Y-14425900D02*
X24893500Y-14465900D01*
X24895891Y-14342191D02*
X24935891Y-14382191D01*
X24935891Y-14342191D02*
X24895891Y-14382191D01*
X24904101Y-14792961D02*
X24944101Y-14832961D01*
X24944101Y-14792961D02*
X24904101Y-14832961D01*
X24909400Y-19106200D02*
X24949400Y-19146200D01*
X24949400Y-19106200D02*
X24909400Y-19146200D01*
X24935500Y-14483400D02*
X24975500Y-14523400D01*
X24975500Y-14483400D02*
X24935500Y-14523400D01*
X24963462Y-14742238D02*
X25003462Y-14782238D01*
X25003462Y-14742238D02*
X24963462Y-14782238D01*
X24966900Y-19360200D02*
X25006900Y-19400200D01*
X25006900Y-19360200D02*
X24966900Y-19400200D01*
X24986300Y-14546900D02*
X25026300Y-14586900D01*
X25026300Y-14546900D02*
X24986300Y-14586900D01*
X25024400Y-14686600D02*
X25064400Y-14726600D01*
X25064400Y-14686600D02*
X25024400Y-14726600D01*
X25024400Y-19614200D02*
X25064400Y-19654200D01*
X25064400Y-19614200D02*
X25024400Y-19654200D01*
X25037100Y-14610400D02*
X25077100Y-14650400D01*
X25077100Y-14610400D02*
X25037100Y-14650400D01*
X25303800Y-15550200D02*
X25343800Y-15590200D01*
X25343800Y-15550200D02*
X25303800Y-15590200D01*
X25313902Y-15465200D02*
X25353902Y-15505200D01*
X25353902Y-15465200D02*
X25313902Y-15505200D01*
X25313902Y-17654700D02*
X25353902Y-17694700D01*
X25353902Y-17654700D02*
X25313902Y-17694700D01*
X25354600Y-15931200D02*
X25394600Y-15971200D01*
X25394600Y-15931200D02*
X25354600Y-15971200D01*
X25380000Y-17385700D02*
X25420000Y-17425700D01*
X25420000Y-17385700D02*
X25380000Y-17425700D01*
X25392700Y-17454700D02*
X25432700Y-17494700D01*
X25432700Y-17454700D02*
X25392700Y-17494700D01*
X25392700Y-17524700D02*
X25432700Y-17564700D01*
X25432700Y-17524700D02*
X25392700Y-17564700D01*
X25443500Y-14915200D02*
X25483500Y-14955200D01*
X25483500Y-14915200D02*
X25443500Y-14955200D01*
X25481600Y-15397800D02*
X25521600Y-15437800D01*
X25521600Y-15397800D02*
X25481600Y-15437800D01*
X25671400Y-9478900D02*
X25711400Y-9518900D01*
X25711400Y-9478900D02*
X25671400Y-9518900D01*
X25728900Y-9403400D02*
X25768900Y-9443400D01*
X25768900Y-9403400D02*
X25728900Y-9443400D01*
X25786400Y-9339900D02*
X25826400Y-9379900D01*
X25826400Y-9339900D02*
X25786400Y-9379900D01*
X25849900Y-9263700D02*
X25889900Y-9303700D01*
X25889900Y-9263700D02*
X25849900Y-9303700D01*
X25900700Y-9187500D02*
X25940700Y-9227500D01*
X25940700Y-9187500D02*
X25900700Y-9227500D01*
X25913400Y-9797100D02*
X25953400Y-9837100D01*
X25953400Y-9797100D02*
X25913400Y-9837100D01*
X25959120Y-21084860D02*
X25999120Y-21124860D01*
X25999120Y-21084860D02*
X25959120Y-21124860D01*
X26586500Y-8514400D02*
X26626500Y-8554400D01*
X26626500Y-8514400D02*
X26586500Y-8554400D01*
X26700800Y-15562900D02*
X26740800Y-15602900D01*
X26740800Y-15562900D02*
X26700800Y-15602900D01*
X26726200Y-9479600D02*
X26766200Y-9519600D01*
X26766200Y-9479600D02*
X26726200Y-9519600D01*
X26777000Y-15905800D02*
X26817000Y-15945800D01*
X26817000Y-15905800D02*
X26777000Y-15945800D01*
X26878600Y-8514400D02*
X26918600Y-8554400D01*
X26918600Y-8514400D02*
X26878600Y-8554400D01*
X26916700Y-11067100D02*
X26956700Y-11107100D01*
X26956700Y-11067100D02*
X26916700Y-11107100D01*
X27005600Y-8514400D02*
X27045600Y-8554400D01*
X27045600Y-8514400D02*
X27005600Y-8554400D01*
X27005600Y-9397400D02*
X27045600Y-9437400D01*
X27045600Y-9397400D02*
X27005600Y-9437400D01*
X27056400Y-15461300D02*
X27096400Y-15501300D01*
X27096400Y-15461300D02*
X27056400Y-15501300D01*
X27056400Y-18115600D02*
X27096400Y-18155600D01*
X27096400Y-18115600D02*
X27056400Y-18155600D01*
X27069100Y-12578400D02*
X27109100Y-12618400D01*
X27109100Y-12578400D02*
X27069100Y-12618400D01*
X27069100Y-18471200D02*
X27109100Y-18511200D01*
X27109100Y-18471200D02*
X27069100Y-18511200D01*
X27081800Y-12934000D02*
X27121800Y-12974000D01*
X27121800Y-12934000D02*
X27081800Y-12974000D01*
X27081800Y-13067700D02*
X27121800Y-13107700D01*
X27121800Y-13067700D02*
X27081800Y-13107700D01*
X27119900Y-18534700D02*
X27159900Y-18574700D01*
X27159900Y-18534700D02*
X27119900Y-18574700D01*
X27132600Y-15867700D02*
X27172600Y-15907700D01*
X27172600Y-15867700D02*
X27132600Y-15907700D01*
X27170700Y-9853900D02*
X27210700Y-9893900D01*
X27210700Y-9853900D02*
X27170700Y-9893900D01*
X27170700Y-10940100D02*
X27210700Y-10980100D01*
X27210700Y-10940100D02*
X27170700Y-10980100D01*
X27170700Y-11194100D02*
X27210700Y-11234100D01*
X27210700Y-11194100D02*
X27170700Y-11234100D01*
X27272300Y-9174800D02*
X27312300Y-9214800D01*
X27312300Y-9174800D02*
X27272300Y-9214800D01*
X27285000Y-8603300D02*
X27325000Y-8643300D01*
X27325000Y-8603300D02*
X27285000Y-8643300D01*
X27539000Y-12502200D02*
X27579000Y-12542200D01*
X27579000Y-12502200D02*
X27539000Y-12542200D01*
X27539000Y-12299000D02*
X27579000Y-12339000D01*
X27579000Y-12299000D02*
X27539000Y-12339000D01*
X27539000Y-12400600D02*
X27579000Y-12440600D01*
X27579000Y-12400600D02*
X27539000Y-12440600D01*
X27539000Y-12654600D02*
X27579000Y-12694600D01*
X27579000Y-12654600D02*
X27539000Y-12694600D01*
X27539000Y-12756200D02*
X27579000Y-12796200D01*
X27579000Y-12756200D02*
X27539000Y-12796200D01*
X27539000Y-12908600D02*
X27579000Y-12948600D01*
X27579000Y-12908600D02*
X27539000Y-12948600D01*
X27539000Y-13010200D02*
X27579000Y-13050200D01*
X27579000Y-13010200D02*
X27539000Y-13050200D01*
X27539000Y-13162600D02*
X27579000Y-13202600D01*
X27579000Y-13162600D02*
X27539000Y-13202600D01*
X27539000Y-13264200D02*
X27579000Y-13304200D01*
X27579000Y-13264200D02*
X27539000Y-13304200D01*
X27539000Y-13365800D02*
X27579000Y-13405800D01*
X27579000Y-13365800D02*
X27539000Y-13405800D01*
X27539000Y-15524800D02*
X27579000Y-15564800D01*
X27579000Y-15524800D02*
X27539000Y-15564800D01*
X27539000Y-15778800D02*
X27579000Y-15818800D01*
X27579000Y-15778800D02*
X27539000Y-15818800D01*
X27539000Y-17836200D02*
X27579000Y-17876200D01*
X27579000Y-17836200D02*
X27539000Y-17876200D01*
X27539000Y-17937800D02*
X27579000Y-17977800D01*
X27579000Y-17937800D02*
X27539000Y-17977800D01*
X27539000Y-18039400D02*
X27579000Y-18079400D01*
X27579000Y-18039400D02*
X27539000Y-18079400D01*
X27539000Y-18547400D02*
X27579000Y-18587400D01*
X27579000Y-18547400D02*
X27539000Y-18587400D01*
X27539000Y-18699800D02*
X27579000Y-18739800D01*
X27579000Y-18699800D02*
X27539000Y-18739800D01*
X27539000Y-18801400D02*
X27579000Y-18841400D01*
X27579000Y-18801400D02*
X27539000Y-18841400D01*
X27539000Y-18903000D02*
X27579000Y-18943000D01*
X27579000Y-18903000D02*
X27539000Y-18943000D01*
X27548917Y-18123153D02*
X27588917Y-18163153D01*
X27588917Y-18123153D02*
X27548917Y-18163153D01*
X27551700Y-8527100D02*
X27591700Y-8567100D01*
X27591700Y-8527100D02*
X27551700Y-8567100D01*
X27551700Y-9162100D02*
X27591700Y-9202100D01*
X27591700Y-9162100D02*
X27551700Y-9202100D01*
X27818400Y-13010200D02*
X27858400Y-13050200D01*
X27858400Y-13010200D02*
X27818400Y-13050200D01*
X27818400Y-15156500D02*
X27858400Y-15196500D01*
X27858400Y-15156500D02*
X27818400Y-15196500D01*
X27818400Y-15444700D02*
X27858400Y-15484700D01*
X27858400Y-15444700D02*
X27818400Y-15484700D01*
X27818400Y-15893100D02*
X27858400Y-15933100D01*
X27858400Y-15893100D02*
X27818400Y-15933100D01*
X27831100Y-12273600D02*
X27871100Y-12313600D01*
X27871100Y-12273600D02*
X27831100Y-12313600D01*
X27831100Y-12553000D02*
X27871100Y-12593000D01*
X27871100Y-12553000D02*
X27831100Y-12593000D01*
X27831100Y-17785400D02*
X27871100Y-17825400D01*
X27871100Y-17785400D02*
X27831100Y-17825400D01*
X27831100Y-18547400D02*
X27871100Y-18587400D01*
X27871100Y-18547400D02*
X27831100Y-18587400D01*
X27996200Y-8450900D02*
X28036200Y-8490900D01*
X28036200Y-8450900D02*
X27996200Y-8490900D01*
X29317000Y-21150900D02*
X29357000Y-21190900D01*
X29357000Y-21150900D02*
X29317000Y-21190900D01*
X29317000Y-21481100D02*
X29357000Y-21521100D01*
X29357000Y-21481100D02*
X29317000Y-21521100D01*
X13145400Y-6703060D02*
G75*
G03*
X13145400Y-6703060I-25000J0D01*
G01*
X13215694Y-6533354D02*
G75*
G03*
X13215694Y-6533354I-25000J0D01*
G01*
X13215694Y-6872766D02*
G75*
G03*
X13215694Y-6872766I-25000J0D01*
G01*
X13385400Y-6463060D02*
G75*
G03*
X13385400Y-6463060I-25000J0D01*
G01*
X13385400Y-6943060D02*
G75*
G03*
X13385400Y-6943060I-25000J0D01*
G01*
X13555106Y-6533354D02*
G75*
G03*
X13555106Y-6533354I-25000J0D01*
G01*
X13555106Y-6872766D02*
G75*
G03*
X13555106Y-6872766I-25000J0D01*
G01*
X13625400Y-6703060D02*
G75*
G03*
X13625400Y-6703060I-25000J0D01*
G01*
X13145400Y-22199600D02*
G75*
G03*
X13145400Y-22199600I-25000J0D01*
G01*
X13215694Y-22029894D02*
G75*
G03*
X13215694Y-22029894I-25000J0D01*
G01*
X13215694Y-22369306D02*
G75*
G03*
X13215694Y-22369306I-25000J0D01*
G01*
X13385400Y-21959600D02*
G75*
G03*
X13385400Y-21959600I-25000J0D01*
G01*
X13385400Y-22439600D02*
G75*
G03*
X13385400Y-22439600I-25000J0D01*
G01*
X13555106Y-22029894D02*
G75*
G03*
X13555106Y-22029894I-25000J0D01*
G01*
X13555106Y-22369306D02*
G75*
G03*
X13555106Y-22369306I-25000J0D01*
G01*
X13625400Y-22199600D02*
G75*
G03*
X13625400Y-22199600I-25000J0D01*
G01*
X28873080Y-22197060D02*
G75*
G03*
X28873080Y-22197060I-25000J0D01*
G01*
X28943374Y-22027354D02*
G75*
G03*
X28943374Y-22027354I-25000J0D01*
G01*
X28943374Y-22366766D02*
G75*
G03*
X28943374Y-22366766I-25000J0D01*
G01*
X29113080Y-21957060D02*
G75*
G03*
X29113080Y-21957060I-25000J0D01*
G01*
X29113080Y-22437060D02*
G75*
G03*
X29113080Y-22437060I-25000J0D01*
G01*
X29282786Y-22027354D02*
G75*
G03*
X29282786Y-22027354I-25000J0D01*
G01*
X29282786Y-22366766D02*
G75*
G03*
X29282786Y-22366766I-25000J0D01*
G01*
X29353080Y-22197060D02*
G75*
G03*
X29353080Y-22197060I-25000J0D01*
G01*
X28873080Y-8989060D02*
G75*
G03*
X28873080Y-8989060I-25000J0D01*
G01*
X28943374Y-8819354D02*
G75*
G03*
X28943374Y-8819354I-25000J0D01*
G01*
X28943374Y-9158766D02*
G75*
G03*
X28943374Y-9158766I-25000J0D01*
G01*
X29113080Y-8749060D02*
G75*
G03*
X29113080Y-8749060I-25000J0D01*
G01*
X29113080Y-9229060D02*
G75*
G03*
X29113080Y-9229060I-25000J0D01*
G01*
X29282786Y-8819354D02*
G75*
G03*
X29282786Y-8819354I-25000J0D01*
G01*
X29282786Y-9158766D02*
G75*
G03*
X29282786Y-9158766I-25000J0D01*
G01*
X29353080Y-8989060D02*
G75*
G03*
X29353080Y-8989060I-25000J0D01*
G01*
X16586200Y-6998300D02*
X16586200Y-7073300D01*
X16548700Y-7035800D02*
X16623700Y-7035800D01*
X17719385Y-18925885D02*
X17719385Y-18869316D01*
X17662816Y-18869316D01*
X17662816Y-18925885D01*
X17719385Y-18925885D01*
X17719385Y-19179885D02*
X17719385Y-19123316D01*
X17662816Y-19123316D01*
X17662816Y-19179885D01*
X17719385Y-19179885D01*
X17719385Y-19433885D02*
X17719385Y-19377316D01*
X17662816Y-19377316D01*
X17662816Y-19433885D01*
X17719385Y-19433885D01*
X17719385Y-19687885D02*
X17719385Y-19631316D01*
X17662816Y-19631316D01*
X17662816Y-19687885D01*
X17719385Y-19687885D01*
X17719385Y-19941885D02*
X17719385Y-19885316D01*
X17662816Y-19885316D01*
X17662816Y-19941885D01*
X17719385Y-19941885D01*
X17719385Y-20195885D02*
X17719385Y-20139316D01*
X17662816Y-20139316D01*
X17662816Y-20195885D01*
X17719385Y-20195885D01*
X17719385Y-20449885D02*
X17719385Y-20393316D01*
X17662816Y-20393316D01*
X17662816Y-20449885D01*
X17719385Y-20449885D01*
X17719385Y-20703885D02*
X17719385Y-20647316D01*
X17662816Y-20647316D01*
X17662816Y-20703885D01*
X17719385Y-20703885D01*
X17719385Y-20957885D02*
X17719385Y-20901316D01*
X17662816Y-20901316D01*
X17662816Y-20957885D01*
X17719385Y-20957885D01*
X17719385Y-21211885D02*
X17719385Y-21155316D01*
X17662816Y-21155316D01*
X17662816Y-21211885D01*
X17719385Y-21211885D01*
X17719385Y-21465885D02*
X17719385Y-21409316D01*
X17662816Y-21409316D01*
X17662816Y-21465885D01*
X17719385Y-21465885D01*
X17719385Y-21719885D02*
X17719385Y-21663316D01*
X17662816Y-21663316D01*
X17662816Y-21719885D01*
X17719385Y-21719885D01*
X17719385Y-21973885D02*
X17719385Y-21917316D01*
X17662816Y-21917316D01*
X17662816Y-21973885D01*
X17719385Y-21973885D01*
X17719385Y-22227885D02*
X17719385Y-22171316D01*
X17662816Y-22171316D01*
X17662816Y-22227885D01*
X17719385Y-22227885D01*
X18481385Y-18925885D02*
X18481385Y-18869316D01*
X18424816Y-18869316D01*
X18424816Y-18925885D01*
X18481385Y-18925885D01*
X18481385Y-19179885D02*
X18481385Y-19123316D01*
X18424816Y-19123316D01*
X18424816Y-19179885D01*
X18481385Y-19179885D01*
X18481385Y-19433885D02*
X18481385Y-19377316D01*
X18424816Y-19377316D01*
X18424816Y-19433885D01*
X18481385Y-19433885D01*
X18481385Y-19687885D02*
X18481385Y-19631316D01*
X18424816Y-19631316D01*
X18424816Y-19687885D01*
X18481385Y-19687885D01*
X18481385Y-19941885D02*
X18481385Y-19885316D01*
X18424816Y-19885316D01*
X18424816Y-19941885D01*
X18481385Y-19941885D01*
X18481385Y-20195885D02*
X18481385Y-20139316D01*
X18424816Y-20139316D01*
X18424816Y-20195885D01*
X18481385Y-20195885D01*
X18481385Y-20449885D02*
X18481385Y-20393316D01*
X18424816Y-20393316D01*
X18424816Y-20449885D01*
X18481385Y-20449885D01*
X18481385Y-20703885D02*
X18481385Y-20647316D01*
X18424816Y-20647316D01*
X18424816Y-20703885D01*
X18481385Y-20703885D01*
X18481385Y-20957885D02*
X18481385Y-20901316D01*
X18424816Y-20901316D01*
X18424816Y-20957885D01*
X18481385Y-20957885D01*
X18481385Y-21211885D02*
X18481385Y-21155316D01*
X18424816Y-21155316D01*
X18424816Y-21211885D01*
X18481385Y-21211885D01*
X18481385Y-21465885D02*
X18481385Y-21409316D01*
X18424816Y-21409316D01*
X18424816Y-21465885D01*
X18481385Y-21465885D01*
X18481385Y-21719885D02*
X18481385Y-21663316D01*
X18424816Y-21663316D01*
X18424816Y-21719885D01*
X18481385Y-21719885D01*
X18481385Y-21973885D02*
X18481385Y-21917316D01*
X18424816Y-21917316D01*
X18424816Y-21973885D01*
X18481385Y-21973885D01*
X18481385Y-22227885D02*
X18481385Y-22171316D01*
X18424816Y-22171316D01*
X18424816Y-22227885D01*
X18481385Y-22227885D01*
X26088684Y-11661484D02*
X26088684Y-11604915D01*
X26032115Y-11604915D01*
X26032115Y-11661484D01*
X26088684Y-11661484D01*
X26088684Y-11915484D02*
X26088684Y-11858915D01*
X26032115Y-11858915D01*
X26032115Y-11915484D01*
X26088684Y-11915484D01*
X26088684Y-12169484D02*
X26088684Y-12112915D01*
X26032115Y-12112915D01*
X26032115Y-12169484D01*
X26088684Y-12169484D01*
X26088684Y-12423484D02*
X26088684Y-12366915D01*
X26032115Y-12366915D01*
X26032115Y-12423484D01*
X26088684Y-12423484D01*
X26088684Y-12677484D02*
X26088684Y-12620915D01*
X26032115Y-12620915D01*
X26032115Y-12677484D01*
X26088684Y-12677484D01*
X26088684Y-12931484D02*
X26088684Y-12874915D01*
X26032115Y-12874915D01*
X26032115Y-12931484D01*
X26088684Y-12931484D01*
X26088684Y-13185484D02*
X26088684Y-13128915D01*
X26032115Y-13128915D01*
X26032115Y-13185484D01*
X26088684Y-13185484D01*
X26088684Y-13439484D02*
X26088684Y-13382915D01*
X26032115Y-13382915D01*
X26032115Y-13439484D01*
X26088684Y-13439484D01*
X26088684Y-13693484D02*
X26088684Y-13636915D01*
X26032115Y-13636915D01*
X26032115Y-13693484D01*
X26088684Y-13693484D01*
X26088684Y-13947484D02*
X26088684Y-13890915D01*
X26032115Y-13890915D01*
X26032115Y-13947484D01*
X26088684Y-13947484D01*
X26088684Y-14201484D02*
X26088684Y-14144915D01*
X26032115Y-14144915D01*
X26032115Y-14201484D01*
X26088684Y-14201484D01*
X26088684Y-14455484D02*
X26088684Y-14398915D01*
X26032115Y-14398915D01*
X26032115Y-14455484D01*
X26088684Y-14455484D01*
X26088684Y-14709484D02*
X26088684Y-14652915D01*
X26032115Y-14652915D01*
X26032115Y-14709484D01*
X26088684Y-14709484D01*
X26088684Y-14963484D02*
X26088684Y-14906915D01*
X26032115Y-14906915D01*
X26032115Y-14963484D01*
X26088684Y-14963484D01*
X26088684Y-15217484D02*
X26088684Y-15160915D01*
X26032115Y-15160915D01*
X26032115Y-15217484D01*
X26088684Y-15217484D01*
X26088684Y-15471484D02*
X26088684Y-15414915D01*
X26032115Y-15414915D01*
X26032115Y-15471484D01*
X26088684Y-15471484D01*
X26088684Y-15725484D02*
X26088684Y-15668915D01*
X26032115Y-15668915D01*
X26032115Y-15725484D01*
X26088684Y-15725484D01*
X26088684Y-15979484D02*
X26088684Y-15922915D01*
X26032115Y-15922915D01*
X26032115Y-15979484D01*
X26088684Y-15979484D01*
X26088684Y-16233484D02*
X26088684Y-16176915D01*
X26032115Y-16176915D01*
X26032115Y-16233484D01*
X26088684Y-16233484D01*
X26088684Y-16487484D02*
X26088684Y-16430915D01*
X26032115Y-16430915D01*
X26032115Y-16487484D01*
X26088684Y-16487484D01*
X26088684Y-16741484D02*
X26088684Y-16684915D01*
X26032115Y-16684915D01*
X26032115Y-16741484D01*
X26088684Y-16741484D01*
X26088684Y-16995485D02*
X26088684Y-16938916D01*
X26032115Y-16938916D01*
X26032115Y-16995485D01*
X26088684Y-16995485D01*
X26088684Y-17249485D02*
X26088684Y-17192916D01*
X26032115Y-17192916D01*
X26032115Y-17249485D01*
X26088684Y-17249485D01*
X26088684Y-17503485D02*
X26088684Y-17446916D01*
X26032115Y-17446916D01*
X26032115Y-17503485D01*
X26088684Y-17503485D01*
X26088684Y-17757485D02*
X26088684Y-17700916D01*
X26032115Y-17700916D01*
X26032115Y-17757485D01*
X26088684Y-17757485D01*
X26088684Y-18011485D02*
X26088684Y-17954916D01*
X26032115Y-17954916D01*
X26032115Y-18011485D01*
X26088684Y-18011485D01*
X26088684Y-18265485D02*
X26088684Y-18208916D01*
X26032115Y-18208916D01*
X26032115Y-18265485D01*
X26088684Y-18265485D01*
X26088684Y-18519485D02*
X26088684Y-18462916D01*
X26032115Y-18462916D01*
X26032115Y-18519485D01*
X26088684Y-18519485D01*
X26088684Y-18773485D02*
X26088684Y-18716916D01*
X26032115Y-18716916D01*
X26032115Y-18773485D01*
X26088684Y-18773485D01*
X26088684Y-19027485D02*
X26088684Y-18970916D01*
X26032115Y-18970916D01*
X26032115Y-19027485D01*
X26088684Y-19027485D01*
X26088684Y-19281485D02*
X26088684Y-19224916D01*
X26032115Y-19224916D01*
X26032115Y-19281485D01*
X26088684Y-19281485D01*
X26088684Y-19535485D02*
X26088684Y-19478916D01*
X26032115Y-19478916D01*
X26032115Y-19535485D01*
X26088684Y-19535485D01*
X28374684Y-11661484D02*
X28374684Y-11604915D01*
X28318115Y-11604915D01*
X28318115Y-11661484D01*
X28374684Y-11661484D01*
X28374684Y-11915484D02*
X28374684Y-11858915D01*
X28318115Y-11858915D01*
X28318115Y-11915484D01*
X28374684Y-11915484D01*
X28374684Y-12169484D02*
X28374684Y-12112915D01*
X28318115Y-12112915D01*
X28318115Y-12169484D01*
X28374684Y-12169484D01*
X28374684Y-12423484D02*
X28374684Y-12366915D01*
X28318115Y-12366915D01*
X28318115Y-12423484D01*
X28374684Y-12423484D01*
X28374684Y-12677484D02*
X28374684Y-12620915D01*
X28318115Y-12620915D01*
X28318115Y-12677484D01*
X28374684Y-12677484D01*
X28374684Y-12931484D02*
X28374684Y-12874915D01*
X28318115Y-12874915D01*
X28318115Y-12931484D01*
X28374684Y-12931484D01*
X28374684Y-13185484D02*
X28374684Y-13128915D01*
X28318115Y-13128915D01*
X28318115Y-13185484D01*
X28374684Y-13185484D01*
X28374684Y-13439484D02*
X28374684Y-13382915D01*
X28318115Y-13382915D01*
X28318115Y-13439484D01*
X28374684Y-13439484D01*
X28374684Y-13693484D02*
X28374684Y-13636915D01*
X28318115Y-13636915D01*
X28318115Y-13693484D01*
X28374684Y-13693484D01*
X28374684Y-13947484D02*
X28374684Y-13890915D01*
X28318115Y-13890915D01*
X28318115Y-13947484D01*
X28374684Y-13947484D01*
X28374684Y-14201484D02*
X28374684Y-14144915D01*
X28318115Y-14144915D01*
X28318115Y-14201484D01*
X28374684Y-14201484D01*
X28374684Y-14455484D02*
X28374684Y-14398915D01*
X28318115Y-14398915D01*
X28318115Y-14455484D01*
X28374684Y-14455484D01*
X28374684Y-14709484D02*
X28374684Y-14652915D01*
X28318115Y-14652915D01*
X28318115Y-14709484D01*
X28374684Y-14709484D01*
X28374684Y-14963484D02*
X28374684Y-14906915D01*
X28318115Y-14906915D01*
X28318115Y-14963484D01*
X28374684Y-14963484D01*
X28374684Y-15217484D02*
X28374684Y-15160915D01*
X28318115Y-15160915D01*
X28318115Y-15217484D01*
X28374684Y-15217484D01*
X28374684Y-15471484D02*
X28374684Y-15414915D01*
X28318115Y-15414915D01*
X28318115Y-15471484D01*
X28374684Y-15471484D01*
X28374684Y-15725484D02*
X28374684Y-15668915D01*
X28318115Y-15668915D01*
X28318115Y-15725484D01*
X28374684Y-15725484D01*
X28374684Y-15979484D02*
X28374684Y-15922915D01*
X28318115Y-15922915D01*
X28318115Y-15979484D01*
X28374684Y-15979484D01*
X28374684Y-16233484D02*
X28374684Y-16176915D01*
X28318115Y-16176915D01*
X28318115Y-16233484D01*
X28374684Y-16233484D01*
X28374684Y-16487484D02*
X28374684Y-16430915D01*
X28318115Y-16430915D01*
X28318115Y-16487484D01*
X28374684Y-16487484D01*
X28374684Y-16741484D02*
X28374684Y-16684915D01*
X28318115Y-16684915D01*
X28318115Y-16741484D01*
X28374684Y-16741484D01*
X28374684Y-16995485D02*
X28374684Y-16938916D01*
X28318115Y-16938916D01*
X28318115Y-16995485D01*
X28374684Y-16995485D01*
X28374684Y-17249485D02*
X28374684Y-17192916D01*
X28318115Y-17192916D01*
X28318115Y-17249485D01*
X28374684Y-17249485D01*
X28374684Y-17503485D02*
X28374684Y-17446916D01*
X28318115Y-17446916D01*
X28318115Y-17503485D01*
X28374684Y-17503485D01*
X28374684Y-17757485D02*
X28374684Y-17700916D01*
X28318115Y-17700916D01*
X28318115Y-17757485D01*
X28374684Y-17757485D01*
X28374684Y-18011485D02*
X28374684Y-17954916D01*
X28318115Y-17954916D01*
X28318115Y-18011485D01*
X28374684Y-18011485D01*
X28374684Y-18265485D02*
X28374684Y-18208916D01*
X28318115Y-18208916D01*
X28318115Y-18265485D01*
X28374684Y-18265485D01*
X28374684Y-18519485D02*
X28374684Y-18462916D01*
X28318115Y-18462916D01*
X28318115Y-18519485D01*
X28374684Y-18519485D01*
X28374684Y-18773485D02*
X28374684Y-18716916D01*
X28318115Y-18716916D01*
X28318115Y-18773485D01*
X28374684Y-18773485D01*
X28374684Y-19027485D02*
X28374684Y-18970916D01*
X28318115Y-18970916D01*
X28318115Y-19027485D01*
X28374684Y-19027485D01*
X28374684Y-19281485D02*
X28374684Y-19224916D01*
X28318115Y-19224916D01*
X28318115Y-19281485D01*
X28374684Y-19281485D01*
X28374684Y-19535485D02*
X28374684Y-19478916D01*
X28318115Y-19478916D01*
X28318115Y-19535485D01*
X28374684Y-19535485D01*
X22542500Y-22028700D02*
X22587500Y-21983700D01*
X22542500Y-21938700D01*
X22497500Y-21983700D01*
X22542500Y-22028700D01*
X22796500Y-22028700D02*
X22841500Y-21983700D01*
X22796500Y-21938700D01*
X22751500Y-21983700D01*
X22796500Y-22028700D01*
X15355100Y-21374900D02*
X15455100Y-21474900D01*
X15455100Y-21374900D02*
X15355100Y-21474900D01*
X15455100Y-21424900D02*
G75*
G03*
X15455100Y-21424900I-50000J0D01*
G01*
X22276600Y-19825500D02*
X22376600Y-19925500D01*
X22376600Y-19825500D02*
X22276600Y-19925500D01*
X22376600Y-19875500D02*
G75*
G03*
X22376600Y-19875500I-50000J0D01*
G01*
X22276600Y-20926800D02*
X22376600Y-21026800D01*
X22376600Y-20926800D02*
X22276600Y-21026800D01*
X22376600Y-20976800D02*
G75*
G03*
X22376600Y-20976800I-50000J0D01*
G01*
X22581400Y-19622300D02*
X22681400Y-19722300D01*
X22681400Y-19622300D02*
X22581400Y-19722300D01*
X22681400Y-19672300D02*
G75*
G03*
X22681400Y-19672300I-50000J0D01*
G01*
X22581400Y-20016000D02*
X22681400Y-20116000D01*
X22681400Y-20016000D02*
X22581400Y-20116000D01*
X22681400Y-20066000D02*
G75*
G03*
X22681400Y-20066000I-50000J0D01*
G01*
X22581400Y-20790700D02*
X22681400Y-20890700D01*
X22681400Y-20790700D02*
X22581400Y-20890700D01*
X22681400Y-20840700D02*
G75*
G03*
X22681400Y-20840700I-50000J0D01*
G01*
X22581400Y-21171700D02*
X22681400Y-21271700D01*
X22681400Y-21171700D02*
X22581400Y-21271700D01*
X22681400Y-21221700D02*
G75*
G03*
X22681400Y-21221700I-50000J0D01*
G01*
X22886200Y-19825500D02*
X22986200Y-19925500D01*
X22986200Y-19825500D02*
X22886200Y-19925500D01*
X22986200Y-19875500D02*
G75*
G03*
X22986200Y-19875500I-50000J0D01*
G01*
X22898900Y-20926800D02*
X22998900Y-21026800D01*
X22998900Y-20926800D02*
X22898900Y-21026800D01*
X22998900Y-20976800D02*
G75*
G03*
X22998900Y-20976800I-50000J0D01*
G01*
X23064000Y-17056900D02*
X23164000Y-17156900D01*
X23164000Y-17056900D02*
X23064000Y-17156900D01*
X23164000Y-17106900D02*
G75*
G03*
X23164000Y-17106900I-50000J0D01*
G01*
X23711700Y-17056900D02*
X23811700Y-17156900D01*
X23811700Y-17056900D02*
X23711700Y-17156900D01*
X23811700Y-17106900D02*
G75*
G03*
X23811700Y-17106900I-50000J0D01*
G01*
X28537700Y-20485900D02*
X28637700Y-20585900D01*
X28637700Y-20485900D02*
X28537700Y-20585900D01*
X28637700Y-20535900D02*
G75*
G03*
X28637700Y-20535900I-50000J0D01*
G01*
X28537700Y-21286000D02*
X28637700Y-21386000D01*
X28637700Y-21286000D02*
X28537700Y-21386000D01*
X28637700Y-21336000D02*
G75*
G03*
X28637700Y-21336000I-50000J0D01*
G01*
X28779000Y-20308100D02*
X28879000Y-20408100D01*
X28879000Y-20308100D02*
X28779000Y-20408100D01*
X28879000Y-20358100D02*
G75*
G03*
X28879000Y-20358100I-50000J0D01*
G01*
X28779000Y-20663700D02*
X28879000Y-20763700D01*
X28879000Y-20663700D02*
X28779000Y-20763700D01*
X28879000Y-20713700D02*
G75*
G03*
X28879000Y-20713700I-50000J0D01*
G01*
X28779000Y-21108200D02*
X28879000Y-21208200D01*
X28879000Y-21108200D02*
X28779000Y-21208200D01*
X28879000Y-21158200D02*
G75*
G03*
X28879000Y-21158200I-50000J0D01*
G01*
X28779000Y-21463800D02*
X28879000Y-21563800D01*
X28879000Y-21463800D02*
X28779000Y-21563800D01*
X28879000Y-21513800D02*
G75*
G03*
X28879000Y-21513800I-50000J0D01*
G01*
X17323600Y-8001800D02*
X17423600Y-8101800D01*
X17423600Y-8001800D02*
X17323600Y-8101800D01*
X17423600Y-8051800D02*
G75*
G03*
X17423600Y-8051800I-50000J0D01*
G01*
X17323600Y-8255800D02*
X17423600Y-8355800D01*
X17423600Y-8255800D02*
X17323600Y-8355800D01*
X17423600Y-8305800D02*
G75*
G03*
X17423600Y-8305800I-50000J0D01*
G01*
X17323600Y-8509800D02*
X17423600Y-8609800D01*
X17423600Y-8509800D02*
X17323600Y-8609800D01*
X17423600Y-8559800D02*
G75*
G03*
X17423600Y-8559800I-50000J0D01*
G01*
X26632700Y-10135400D02*
X26732700Y-10235400D01*
X26732700Y-10135400D02*
X26632700Y-10235400D01*
X26732700Y-10185400D02*
G75*
G03*
X26732700Y-10185400I-50000J0D01*
G01*
X26886700Y-10135400D02*
X26986700Y-10235400D01*
X26986700Y-10135400D02*
X26886700Y-10235400D01*
X26986700Y-10185400D02*
G75*
G03*
X26986700Y-10185400I-50000J0D01*
G01*
X27140700Y-10135400D02*
X27240700Y-10235400D01*
X27240700Y-10135400D02*
X27140700Y-10235400D01*
X27240700Y-10185400D02*
G75*
G03*
X27240700Y-10185400I-50000J0D01*
G01*
X27394700Y-10135400D02*
X27494700Y-10235400D01*
X27494700Y-10135400D02*
X27394700Y-10235400D01*
X27494700Y-10185400D02*
G75*
G03*
X27494700Y-10185400I-50000J0D01*
G01*
X27648700Y-10135400D02*
X27748700Y-10235400D01*
X27748700Y-10135400D02*
X27648700Y-10235400D01*
X27748700Y-10185400D02*
G75*
G03*
X27748700Y-10185400I-50000J0D01*
G01*
X27902700Y-10135400D02*
X28002700Y-10235400D01*
X28002700Y-10135400D02*
X27902700Y-10235400D01*
X28002700Y-10185400D02*
G75*
G03*
X28002700Y-10185400I-50000J0D01*
G01*
X16673200Y-6731800D02*
X16773200Y-6831800D01*
X16773200Y-6731800D02*
X16673200Y-6831800D01*
X16773200Y-6781800D02*
G75*
G03*
X16773200Y-6781800I-50000J0D01*
G01*
X16810200Y-6985800D02*
X16910200Y-7085800D01*
X16910200Y-6985800D02*
X16810200Y-7085800D01*
X16910200Y-7035800D02*
G75*
G03*
X16910200Y-7035800I-50000J0D01*
G01*
X16947200Y-6731800D02*
X17047200Y-6831800D01*
X17047200Y-6731800D02*
X16947200Y-6831800D01*
X17047200Y-6781800D02*
G75*
G03*
X17047200Y-6781800I-50000J0D01*
G01*
X17084200Y-6985800D02*
X17184200Y-7085800D01*
X17184200Y-6985800D02*
X17084200Y-7085800D01*
X17184200Y-7035800D02*
G75*
G03*
X17184200Y-7035800I-50000J0D01*
G01*
X17221200Y-6731800D02*
X17321200Y-6831800D01*
X17321200Y-6731800D02*
X17221200Y-6831800D01*
X17321200Y-6781800D02*
G75*
G03*
X17321200Y-6781800I-50000J0D01*
G01*
X17358200Y-6985800D02*
X17458200Y-7085800D01*
X17458200Y-6985800D02*
X17358200Y-7085800D01*
X17458200Y-7035800D02*
G75*
G03*
X17458200Y-7035800I-50000J0D01*
G01*
X17495200Y-6731800D02*
X17595200Y-6831800D01*
X17595200Y-6731800D02*
X17495200Y-6831800D01*
X17595200Y-6781800D02*
G75*
G03*
X17595200Y-6781800I-50000J0D01*
G01*
X17632200Y-6985800D02*
X17732200Y-7085800D01*
X17732200Y-6985800D02*
X17632200Y-7085800D01*
X17732200Y-7035800D02*
G75*
G03*
X17732200Y-7035800I-50000J0D01*
G01*
X20943100Y-21832100D02*
X21043100Y-21932100D01*
X21043100Y-21832100D02*
X20943100Y-21932100D01*
X21043100Y-21882100D02*
G75*
G03*
X21043100Y-21882100I-50000J0D01*
G01*
X20943100Y-22086100D02*
X21043100Y-22186100D01*
X21043100Y-22086100D02*
X20943100Y-22186100D01*
X21043100Y-22136100D02*
G75*
G03*
X21043100Y-22136100I-50000J0D01*
G01*
X20124800Y-20597900D02*
X20224800Y-20697900D01*
X20224800Y-20597900D02*
X20124800Y-20697900D01*
X20224800Y-20647900D02*
G75*
G03*
X20224800Y-20647900I-50000J0D01*
G01*
X20124800Y-21247900D02*
X20224800Y-21347900D01*
X20224800Y-21247900D02*
X20124800Y-21347900D01*
X20224800Y-21297900D02*
G75*
G03*
X20224800Y-21297900I-50000J0D01*
G01*
X20574800Y-20597900D02*
X20674800Y-20697900D01*
X20674800Y-20597900D02*
X20574800Y-20697900D01*
X20674800Y-20647900D02*
G75*
G03*
X20674800Y-20647900I-50000J0D01*
G01*
X20574800Y-21247900D02*
X20674800Y-21347900D01*
X20674800Y-21247900D02*
X20574800Y-21347900D01*
X20674800Y-21297900D02*
G75*
G03*
X20674800Y-21297900I-50000J0D01*
G01*
X19190500Y-21832100D02*
X19290500Y-21932100D01*
X19290500Y-21832100D02*
X19190500Y-21932100D01*
X19290500Y-21882100D02*
G75*
G03*
X19290500Y-21882100I-50000J0D01*
G01*
X19190500Y-22086100D02*
X19290500Y-22186100D01*
X19290500Y-22086100D02*
X19190500Y-22186100D01*
X19290500Y-22136100D02*
G75*
G03*
X19290500Y-22136100I-50000J0D01*
G01*
X21311400Y-8776500D02*
X21411400Y-8876500D01*
X21411400Y-8776500D02*
X21311400Y-8876500D01*
X21411400Y-8826500D02*
G75*
G03*
X21411400Y-8826500I-50000J0D01*
G01*
X21311400Y-9030500D02*
X21411400Y-9130500D01*
X21411400Y-9030500D02*
X21311400Y-9130500D01*
X21411400Y-9080500D02*
G75*
G03*
X21411400Y-9080500I-50000J0D01*
G01*
X21311400Y-9284500D02*
X21411400Y-9384500D01*
X21411400Y-9284500D02*
X21311400Y-9384500D01*
X21411400Y-9334500D02*
G75*
G03*
X21411400Y-9334500I-50000J0D01*
G01*
X19901700Y-21832100D02*
X20001700Y-21932100D01*
X20001700Y-21832100D02*
X19901700Y-21932100D01*
X20001700Y-21882100D02*
G75*
G03*
X20001700Y-21882100I-50000J0D01*
G01*
X19901700Y-22086100D02*
X20001700Y-22186100D01*
X20001700Y-22086100D02*
X19901700Y-22186100D01*
X20001700Y-22136100D02*
G75*
G03*
X20001700Y-22136100I-50000J0D01*
G01*
X19546100Y-21832100D02*
X19646100Y-21932100D01*
X19646100Y-21832100D02*
X19546100Y-21932100D01*
X19646100Y-21882100D02*
G75*
G03*
X19646100Y-21882100I-50000J0D01*
G01*
X19546100Y-22086100D02*
X19646100Y-22186100D01*
X19646100Y-22086100D02*
X19546100Y-22186100D01*
X19646100Y-22136100D02*
G75*
G03*
X19646100Y-22136100I-50000J0D01*
G01*
X27978900Y-20562100D02*
X28078900Y-20662100D01*
X28078900Y-20562100D02*
X27978900Y-20662100D01*
X28078900Y-20612100D02*
G75*
G03*
X28078900Y-20612100I-50000J0D01*
G01*
X27978900Y-20816100D02*
X28078900Y-20916100D01*
X28078900Y-20816100D02*
X27978900Y-20916100D01*
X28078900Y-20866100D02*
G75*
G03*
X28078900Y-20866100I-50000J0D01*
G01*
X20587500Y-21832100D02*
X20687500Y-21932100D01*
X20687500Y-21832100D02*
X20587500Y-21932100D01*
X20687500Y-21882100D02*
G75*
G03*
X20687500Y-21882100I-50000J0D01*
G01*
X20587500Y-22086100D02*
X20687500Y-22186100D01*
X20687500Y-22086100D02*
X20587500Y-22186100D01*
X20687500Y-22136100D02*
G75*
G03*
X20687500Y-22136100I-50000J0D01*
G01*
X19406400Y-8903500D02*
X19506400Y-9003500D01*
X19506400Y-8903500D02*
X19406400Y-9003500D01*
X19506400Y-8953500D02*
G75*
G03*
X19506400Y-8953500I-50000J0D01*
G01*
X19406400Y-9157500D02*
X19506400Y-9257500D01*
X19506400Y-9157500D02*
X19406400Y-9257500D01*
X19506400Y-9207500D02*
G75*
G03*
X19506400Y-9207500I-50000J0D01*
G01*
X20810600Y-20597900D02*
X20910600Y-20697900D01*
X20910600Y-20597900D02*
X20810600Y-20697900D01*
X20910600Y-20647900D02*
G75*
G03*
X20910600Y-20647900I-50000J0D01*
G01*
X20810600Y-21247900D02*
X20910600Y-21347900D01*
X20910600Y-21247900D02*
X20810600Y-21347900D01*
X20910600Y-21297900D02*
G75*
G03*
X20910600Y-21297900I-50000J0D01*
G01*
X21260600Y-20597900D02*
X21360600Y-20697900D01*
X21360600Y-20597900D02*
X21260600Y-20697900D01*
X21360600Y-20647900D02*
G75*
G03*
X21360600Y-20647900I-50000J0D01*
G01*
X21260600Y-21247900D02*
X21360600Y-21347900D01*
X21360600Y-21247900D02*
X21260600Y-21347900D01*
X21360600Y-21297900D02*
G75*
G03*
X21360600Y-21297900I-50000J0D01*
G01*
X24090600Y-6522600D02*
X24200600Y-6632600D01*
X24200600Y-6522600D02*
X24090600Y-6632600D01*
X24145600Y-6522600D02*
X24145600Y-6632600D01*
X24090600Y-6577600D02*
X24200600Y-6577600D01*
X24090600Y-6772600D02*
X24200600Y-6882600D01*
X24200600Y-6772600D02*
X24090600Y-6882600D01*
X24145600Y-6772600D02*
X24145600Y-6882600D01*
X24090600Y-6827600D02*
X24200600Y-6827600D01*
X24090600Y-7222600D02*
X24200600Y-7332600D01*
X24200600Y-7222600D02*
X24090600Y-7332600D01*
X24145600Y-7222600D02*
X24145600Y-7332600D01*
X24090600Y-7277600D02*
X24200600Y-7277600D01*
X24090600Y-7472600D02*
X24200600Y-7582600D01*
X24200600Y-7472600D02*
X24090600Y-7582600D01*
X24145600Y-7472600D02*
X24145600Y-7582600D01*
X24090600Y-7527600D02*
X24200600Y-7527600D01*
X24300600Y-6522600D02*
X24410600Y-6632600D01*
X24410600Y-6522600D02*
X24300600Y-6632600D01*
X24355600Y-6522600D02*
X24355600Y-6632600D01*
X24300600Y-6577600D02*
X24410600Y-6577600D01*
X24300600Y-7222600D02*
X24410600Y-7332600D01*
X24410600Y-7222600D02*
X24300600Y-7332600D01*
X24355600Y-7222600D02*
X24355600Y-7332600D01*
X24300600Y-7277600D02*
X24410600Y-7277600D01*
X24560600Y-6522600D02*
X24670600Y-6632600D01*
X24670600Y-6522600D02*
X24560600Y-6632600D01*
X24615600Y-6522600D02*
X24615600Y-6632600D01*
X24560600Y-6577600D02*
X24670600Y-6577600D01*
X24560600Y-7222600D02*
X24670600Y-7332600D01*
X24670600Y-7222600D02*
X24560600Y-7332600D01*
X24615600Y-7222600D02*
X24615600Y-7332600D01*
X24560600Y-7277600D02*
X24670600Y-7277600D01*
X24770600Y-6522600D02*
X24880600Y-6632600D01*
X24880600Y-6522600D02*
X24770600Y-6632600D01*
X24825600Y-6522600D02*
X24825600Y-6632600D01*
X24770600Y-6577600D02*
X24880600Y-6577600D01*
X24770600Y-6772600D02*
X24880600Y-6882600D01*
X24880600Y-6772600D02*
X24770600Y-6882600D01*
X24825600Y-6772600D02*
X24825600Y-6882600D01*
X24770600Y-6827600D02*
X24880600Y-6827600D01*
X24770600Y-7222600D02*
X24880600Y-7332600D01*
X24880600Y-7222600D02*
X24770600Y-7332600D01*
X24825600Y-7222600D02*
X24825600Y-7332600D01*
X24770600Y-7277600D02*
X24880600Y-7277600D01*
X24770600Y-7472600D02*
X24880600Y-7582600D01*
X24880600Y-7472600D02*
X24770600Y-7582600D01*
X24825600Y-7472600D02*
X24825600Y-7582600D01*
X24770600Y-7527600D02*
X24880600Y-7527600D01*
X21232600Y-6823900D02*
X21351600Y-6942900D01*
X21351600Y-6823900D02*
X21232600Y-6942900D01*
X21334173Y-6925473D02*
X21334173Y-6841327D01*
X21250027Y-6841327D01*
X21250027Y-6925473D01*
X21334173Y-6925473D01*
X21347100Y-6569900D02*
X21466100Y-6688900D01*
X21466100Y-6569900D02*
X21347100Y-6688900D01*
X21448673Y-6671473D02*
X21448673Y-6587327D01*
X21364527Y-6587327D01*
X21364527Y-6671473D01*
X21448673Y-6671473D01*
X21347100Y-7077900D02*
X21466100Y-7196900D01*
X21466100Y-7077900D02*
X21347100Y-7196900D01*
X21448673Y-7179473D02*
X21448673Y-7095327D01*
X21364527Y-7095327D01*
X21364527Y-7179473D01*
X21448673Y-7179473D01*
X21461600Y-6823900D02*
X21580600Y-6942900D01*
X21580600Y-6823900D02*
X21461600Y-6942900D01*
X21563173Y-6925473D02*
X21563173Y-6841327D01*
X21479027Y-6841327D01*
X21479027Y-6925473D01*
X21563173Y-6925473D01*
X21576100Y-6569900D02*
X21695100Y-6688900D01*
X21695100Y-6569900D02*
X21576100Y-6688900D01*
X21677673Y-6671473D02*
X21677673Y-6587327D01*
X21593527Y-6587327D01*
X21593527Y-6671473D01*
X21677673Y-6671473D01*
X21576100Y-7077900D02*
X21695100Y-7196900D01*
X21695100Y-7077900D02*
X21576100Y-7196900D01*
X21677673Y-7179473D02*
X21677673Y-7095327D01*
X21593527Y-7095327D01*
X21593527Y-7179473D01*
X21677673Y-7179473D01*
X21690600Y-6823900D02*
X21809600Y-6942900D01*
X21809600Y-6823900D02*
X21690600Y-6942900D01*
X21792173Y-6925473D02*
X21792173Y-6841327D01*
X21708027Y-6841327D01*
X21708027Y-6925473D01*
X21792173Y-6925473D01*
X21805100Y-6569900D02*
X21924100Y-6688900D01*
X21924100Y-6569900D02*
X21805100Y-6688900D01*
X21906673Y-6671473D02*
X21906673Y-6587327D01*
X21822527Y-6587327D01*
X21822527Y-6671473D01*
X21906673Y-6671473D01*
X21805100Y-7077900D02*
X21924100Y-7196900D01*
X21924100Y-7077900D02*
X21805100Y-7196900D01*
X21906673Y-7179473D02*
X21906673Y-7095327D01*
X21822527Y-7095327D01*
X21822527Y-7179473D01*
X21906673Y-7179473D01*
X21919600Y-6823900D02*
X22038600Y-6942900D01*
X22038600Y-6823900D02*
X21919600Y-6942900D01*
X22021173Y-6925473D02*
X22021173Y-6841327D01*
X21937027Y-6841327D01*
X21937027Y-6925473D01*
X22021173Y-6925473D01*
X22034100Y-6569900D02*
X22153100Y-6688900D01*
X22153100Y-6569900D02*
X22034100Y-6688900D01*
X22135673Y-6671473D02*
X22135673Y-6587327D01*
X22051527Y-6587327D01*
X22051527Y-6671473D01*
X22135673Y-6671473D01*
X22034100Y-7077900D02*
X22153100Y-7196900D01*
X22153100Y-7077900D02*
X22034100Y-7196900D01*
X22135673Y-7179473D02*
X22135673Y-7095327D01*
X22051527Y-7095327D01*
X22051527Y-7179473D01*
X22135673Y-7179473D01*
X22148600Y-6823900D02*
X22267600Y-6942900D01*
X22267600Y-6823900D02*
X22148600Y-6942900D01*
X22250173Y-6925473D02*
X22250173Y-6841327D01*
X22166027Y-6841327D01*
X22166027Y-6925473D01*
X22250173Y-6925473D01*
X22263100Y-6569900D02*
X22382100Y-6688900D01*
X22382100Y-6569900D02*
X22263100Y-6688900D01*
X22364673Y-6671473D02*
X22364673Y-6587327D01*
X22280527Y-6587327D01*
X22280527Y-6671473D01*
X22364673Y-6671473D01*
X22263100Y-7077900D02*
X22382100Y-7196900D01*
X22382100Y-7077900D02*
X22263100Y-7196900D01*
X22364673Y-7179473D02*
X22364673Y-7095327D01*
X22280527Y-7095327D01*
X22280527Y-7179473D01*
X22364673Y-7179473D01*
X26402500Y-6751800D02*
X26522500Y-6871800D01*
X26522500Y-6751800D02*
X26402500Y-6871800D01*
X26462500Y-6871800D02*
X26522500Y-6811800D01*
X26462500Y-6751800D01*
X26402500Y-6811800D01*
X26462500Y-6871800D01*
X26402500Y-7426800D02*
X26522500Y-7546800D01*
X26522500Y-7426800D02*
X26402500Y-7546800D01*
X26462500Y-7546800D02*
X26522500Y-7486800D01*
X26462500Y-7426800D01*
X26402500Y-7486800D01*
X26462500Y-7546800D01*
X26541000Y-6467800D02*
X26661000Y-6587800D01*
X26661000Y-6467800D02*
X26541000Y-6587800D01*
X26601000Y-6587800D02*
X26661000Y-6527800D01*
X26601000Y-6467800D01*
X26541000Y-6527800D01*
X26601000Y-6587800D01*
X26541000Y-7142800D02*
X26661000Y-7262800D01*
X26661000Y-7142800D02*
X26541000Y-7262800D01*
X26601000Y-7262800D02*
X26661000Y-7202800D01*
X26601000Y-7142800D01*
X26541000Y-7202800D01*
X26601000Y-7262800D01*
X26679500Y-6751800D02*
X26799500Y-6871800D01*
X26799500Y-6751800D02*
X26679500Y-6871800D01*
X26739500Y-6871800D02*
X26799500Y-6811800D01*
X26739500Y-6751800D01*
X26679500Y-6811800D01*
X26739500Y-6871800D01*
X26679500Y-7426800D02*
X26799500Y-7546800D01*
X26799500Y-7426800D02*
X26679500Y-7546800D01*
X26739500Y-7546800D02*
X26799500Y-7486800D01*
X26739500Y-7426800D01*
X26679500Y-7486800D01*
X26739500Y-7546800D01*
X26818000Y-6467800D02*
X26938000Y-6587800D01*
X26938000Y-6467800D02*
X26818000Y-6587800D01*
X26878000Y-6587800D02*
X26938000Y-6527800D01*
X26878000Y-6467800D01*
X26818000Y-6527800D01*
X26878000Y-6587800D01*
X26818000Y-7142800D02*
X26938000Y-7262800D01*
X26938000Y-7142800D02*
X26818000Y-7262800D01*
X26878000Y-7262800D02*
X26938000Y-7202800D01*
X26878000Y-7142800D01*
X26818000Y-7202800D01*
X26878000Y-7262800D01*
X26956500Y-6751800D02*
X27076500Y-6871800D01*
X27076500Y-6751800D02*
X26956500Y-6871800D01*
X27016500Y-6871800D02*
X27076500Y-6811800D01*
X27016500Y-6751800D01*
X26956500Y-6811800D01*
X27016500Y-6871800D01*
X26956500Y-7426800D02*
X27076500Y-7546800D01*
X27076500Y-7426800D02*
X26956500Y-7546800D01*
X27016500Y-7546800D02*
X27076500Y-7486800D01*
X27016500Y-7426800D01*
X26956500Y-7486800D01*
X27016500Y-7546800D01*
X27095000Y-6467800D02*
X27215000Y-6587800D01*
X27215000Y-6467800D02*
X27095000Y-6587800D01*
X27155000Y-6587800D02*
X27215000Y-6527800D01*
X27155000Y-6467800D01*
X27095000Y-6527800D01*
X27155000Y-6587800D01*
X27095000Y-7142800D02*
X27215000Y-7262800D01*
X27215000Y-7142800D02*
X27095000Y-7262800D01*
X27155000Y-7262800D02*
X27215000Y-7202800D01*
X27155000Y-7142800D01*
X27095000Y-7202800D01*
X27155000Y-7262800D01*
X27233500Y-6751800D02*
X27353500Y-6871800D01*
X27353500Y-6751800D02*
X27233500Y-6871800D01*
X27293500Y-6871800D02*
X27353500Y-6811800D01*
X27293500Y-6751800D01*
X27233500Y-6811800D01*
X27293500Y-6871800D01*
X27233500Y-7426800D02*
X27353500Y-7546800D01*
X27353500Y-7426800D02*
X27233500Y-7546800D01*
X27293500Y-7546800D02*
X27353500Y-7486800D01*
X27293500Y-7426800D01*
X27233500Y-7486800D01*
X27293500Y-7546800D01*
X27372000Y-6467800D02*
X27492000Y-6587800D01*
X27492000Y-6467800D02*
X27372000Y-6587800D01*
X27432000Y-6587800D02*
X27492000Y-6527800D01*
X27432000Y-6467800D01*
X27372000Y-6527800D01*
X27432000Y-6587800D01*
X27372000Y-7142800D02*
X27492000Y-7262800D01*
X27492000Y-7142800D02*
X27372000Y-7262800D01*
X27432000Y-7262800D02*
X27492000Y-7202800D01*
X27432000Y-7142800D01*
X27372000Y-7202800D01*
X27432000Y-7262800D01*
X27510500Y-6751800D02*
X27630500Y-6871800D01*
X27630500Y-6751800D02*
X27510500Y-6871800D01*
X27570500Y-6871800D02*
X27630500Y-6811800D01*
X27570500Y-6751800D01*
X27510500Y-6811800D01*
X27570500Y-6871800D01*
X27510500Y-7426800D02*
X27630500Y-7546800D01*
X27630500Y-7426800D02*
X27510500Y-7546800D01*
X27570500Y-7546800D02*
X27630500Y-7486800D01*
X27570500Y-7426800D01*
X27510500Y-7486800D01*
X27570500Y-7546800D01*
X14465600Y-19880800D02*
X14465600Y-20019800D01*
X14396100Y-19950300D02*
X14535100Y-19950300D01*
X14535100Y-19950300D02*
G75*
G03*
X14535100Y-19950300I-69500J0D01*
G01*
X16465600Y-19880800D02*
X16465600Y-20019800D01*
X16396100Y-19950300D02*
X16535100Y-19950300D01*
X16535100Y-19950300D02*
G75*
G03*
X16535100Y-19950300I-69500J0D01*
G01*
X23464340Y-21844140D02*
X23464340Y-21716860D01*
X23337060Y-21716860D01*
X23337060Y-21844140D01*
X23464340Y-21844140D01*
X23490700Y-21780500D02*
G75*
G03*
X23490700Y-21780500I-90000J0D01*
G01*
X23464340Y-22264140D02*
X23464340Y-22136860D01*
X23337060Y-22136860D01*
X23337060Y-22264140D01*
X23464340Y-22264140D01*
X23490700Y-22200500D02*
G75*
G03*
X23490700Y-22200500I-90000J0D01*
G01*
X23884340Y-21844140D02*
X23884340Y-21716860D01*
X23757060Y-21716860D01*
X23757060Y-21844140D01*
X23884340Y-21844140D01*
X23910700Y-21780500D02*
G75*
G03*
X23910700Y-21780500I-90000J0D01*
G01*
X23884340Y-22264140D02*
X23884340Y-22136860D01*
X23757060Y-22136860D01*
X23757060Y-22264140D01*
X23884340Y-22264140D01*
X23910700Y-22200500D02*
G75*
G03*
X23910700Y-22200500I-90000J0D01*
G01*
X24304340Y-21844140D02*
X24304340Y-21716860D01*
X24177060Y-21716860D01*
X24177060Y-21844140D01*
X24304340Y-21844140D01*
X24330700Y-21780500D02*
G75*
G03*
X24330700Y-21780500I-90000J0D01*
G01*
X24304340Y-22264140D02*
X24304340Y-22136860D01*
X24177060Y-22136860D01*
X24177060Y-22264140D01*
X24304340Y-22264140D01*
X24330700Y-22200500D02*
G75*
G03*
X24330700Y-22200500I-90000J0D01*
G01*
X24724340Y-21844140D02*
X24724340Y-21716860D01*
X24597060Y-21716860D01*
X24597060Y-21844140D01*
X24724340Y-21844140D01*
X24750700Y-21780500D02*
G75*
G03*
X24750700Y-21780500I-90000J0D01*
G01*
X24724340Y-22264140D02*
X24724340Y-22136860D01*
X24597060Y-22136860D01*
X24597060Y-22264140D01*
X24724340Y-22264140D01*
X24750700Y-22200500D02*
G75*
G03*
X24750700Y-22200500I-90000J0D01*
G01*
X25144340Y-21844140D02*
X25144340Y-21716860D01*
X25017060Y-21716860D01*
X25017060Y-21844140D01*
X25144340Y-21844140D01*
X25170700Y-21780500D02*
G75*
G03*
X25170700Y-21780500I-90000J0D01*
G01*
X25144340Y-22264140D02*
X25144340Y-22136860D01*
X25017060Y-22136860D01*
X25017060Y-22264140D01*
X25144340Y-22264140D01*
X25170700Y-22200500D02*
G75*
G03*
X25170700Y-22200500I-90000J0D01*
G01*
X25564340Y-21844140D02*
X25564340Y-21716860D01*
X25437060Y-21716860D01*
X25437060Y-21844140D01*
X25564340Y-21844140D01*
X25590700Y-21780500D02*
G75*
G03*
X25590700Y-21780500I-90000J0D01*
G01*
X25564340Y-22264140D02*
X25564340Y-22136860D01*
X25437060Y-22136860D01*
X25437060Y-22264140D01*
X25564340Y-22264140D01*
X25590700Y-22200500D02*
G75*
G03*
X25590700Y-22200500I-90000J0D01*
G01*
X25984340Y-21844140D02*
X25984340Y-21716860D01*
X25857060Y-21716860D01*
X25857060Y-21844140D01*
X25984340Y-21844140D01*
X26010700Y-21780500D02*
G75*
G03*
X26010700Y-21780500I-90000J0D01*
G01*
X25984340Y-22264140D02*
X25984340Y-22136860D01*
X25857060Y-22136860D01*
X25857060Y-22264140D01*
X25984340Y-22264140D01*
X26010700Y-22200500D02*
G75*
G03*
X26010700Y-22200500I-90000J0D01*
G01*
X26404340Y-21844140D02*
X26404340Y-21716860D01*
X26277060Y-21716860D01*
X26277060Y-21844140D01*
X26404340Y-21844140D01*
X26430700Y-21780500D02*
G75*
G03*
X26430700Y-21780500I-90000J0D01*
G01*
X26404340Y-22264140D02*
X26404340Y-22136860D01*
X26277060Y-22136860D01*
X26277060Y-22264140D01*
X26404340Y-22264140D01*
X26430700Y-22200500D02*
G75*
G03*
X26430700Y-22200500I-90000J0D01*
G01*
X26824340Y-21844140D02*
X26824340Y-21716860D01*
X26697060Y-21716860D01*
X26697060Y-21844140D01*
X26824340Y-21844140D01*
X26850700Y-21780500D02*
G75*
G03*
X26850700Y-21780500I-90000J0D01*
G01*
X26824340Y-22264140D02*
X26824340Y-22136860D01*
X26697060Y-22136860D01*
X26697060Y-22264140D01*
X26824340Y-22264140D01*
X26850700Y-22200500D02*
G75*
G03*
X26850700Y-22200500I-90000J0D01*
G01*
X27244340Y-21844140D02*
X27244340Y-21716860D01*
X27117060Y-21716860D01*
X27117060Y-21844140D01*
X27244340Y-21844140D01*
X27270700Y-21780500D02*
G75*
G03*
X27270700Y-21780500I-90000J0D01*
G01*
X27244340Y-22264140D02*
X27244340Y-22136860D01*
X27117060Y-22136860D01*
X27117060Y-22264140D01*
X27244340Y-22264140D01*
X27270700Y-22200500D02*
G75*
G03*
X27270700Y-22200500I-90000J0D01*
G01*
X27664340Y-21844140D02*
X27664340Y-21716860D01*
X27537060Y-21716860D01*
X27537060Y-21844140D01*
X27664340Y-21844140D01*
X27690700Y-21780500D02*
G75*
G03*
X27690700Y-21780500I-90000J0D01*
G01*
X27664340Y-22264140D02*
X27664340Y-22136860D01*
X27537060Y-22136860D01*
X27537060Y-22264140D01*
X27664340Y-22264140D01*
X27690700Y-22200500D02*
G75*
G03*
X27690700Y-22200500I-90000J0D01*
G01*
X28084340Y-21844140D02*
X28084340Y-21716860D01*
X27957060Y-21716860D01*
X27957060Y-21844140D01*
X28084340Y-21844140D01*
X28110700Y-21780500D02*
G75*
G03*
X28110700Y-21780500I-90000J0D01*
G01*
X28084340Y-22264140D02*
X28084340Y-22136860D01*
X27957060Y-22136860D01*
X27957060Y-22264140D01*
X28084340Y-22264140D01*
X28110700Y-22200500D02*
G75*
G03*
X28110700Y-22200500I-90000J0D01*
G01*
X23810600Y-6392600D02*
X23925600Y-6277600D01*
X23810600Y-6162600D01*
X23695600Y-6277600D01*
X23810600Y-6392600D01*
X23925600Y-6277600D02*
G75*
G03*
X23925600Y-6277600I-115000J0D01*
G01*
X23810600Y-7392600D02*
X23925600Y-7277600D01*
X23810600Y-7162600D01*
X23695600Y-7277600D01*
X23810600Y-7392600D01*
X23925600Y-7277600D02*
G75*
G03*
X23925600Y-7277600I-115000J0D01*
G01*
X24485600Y-6312600D02*
X24600600Y-6197600D01*
X24485600Y-6082600D01*
X24370600Y-6197600D01*
X24485600Y-6312600D01*
X24600600Y-6197600D02*
G75*
G03*
X24600600Y-6197600I-115000J0D01*
G01*
X25160600Y-6392600D02*
X25275600Y-6277600D01*
X25160600Y-6162600D01*
X25045600Y-6277600D01*
X25160600Y-6392600D01*
X25275600Y-6277600D02*
G75*
G03*
X25275600Y-6277600I-115000J0D01*
G01*
X25160600Y-7392600D02*
X25275600Y-7277600D01*
X25160600Y-7162600D01*
X25045600Y-7277600D01*
X25160600Y-7392600D01*
X25275600Y-7277600D02*
G75*
G03*
X25275600Y-7277600I-115000J0D01*
G01*
X20589600Y-6730900D02*
X20589600Y-7035900D01*
X20437100Y-6883400D02*
X20742100Y-6883400D01*
X20697435Y-6991235D02*
X20697435Y-6775565D01*
X20481765Y-6775565D01*
X20481765Y-6991235D01*
X20697435Y-6991235D01*
X23088600Y-6730900D02*
X23088600Y-7035900D01*
X22936100Y-6883400D02*
X23241100Y-6883400D01*
X23196435Y-6991235D02*
X23196435Y-6775565D01*
X22980765Y-6775565D01*
X22980765Y-6991235D01*
X23196435Y-6991235D01*
X25767500Y-6369050D02*
X25767500Y-6686550D01*
X25608750Y-6527800D02*
X25926250Y-6527800D01*
X25767500Y-6686550D02*
X25926250Y-6527800D01*
X25767500Y-6369050D01*
X25608750Y-6527800D01*
X25767500Y-6686550D01*
X25767500Y-7169050D02*
X25767500Y-7486550D01*
X25608750Y-7327800D02*
X25926250Y-7327800D01*
X25767500Y-7486550D02*
X25926250Y-7327800D01*
X25767500Y-7169050D01*
X25608750Y-7327800D01*
X25767500Y-7486550D01*
X28265500Y-6369050D02*
X28265500Y-6686550D01*
X28106750Y-6527800D02*
X28424250Y-6527800D01*
X28265500Y-6686550D02*
X28424250Y-6527800D01*
X28265500Y-6369050D01*
X28106750Y-6527800D01*
X28265500Y-6686550D01*
X28265500Y-7169050D02*
X28265500Y-7486550D01*
X28106750Y-7327800D02*
X28424250Y-7327800D01*
X28265500Y-7486550D02*
X28424250Y-7327800D01*
X28265500Y-7169050D01*
X28106750Y-7327800D01*
X28265500Y-7486550D01*
X15884700Y-7068800D02*
X16044700Y-6908800D01*
X15884700Y-6748800D01*
X15724700Y-6908800D01*
X15884700Y-7068800D01*
X15997838Y-7021938D02*
X15997838Y-6795662D01*
X15771562Y-6795662D01*
X15771562Y-7021938D01*
X15997838Y-7021938D01*
X18383700Y-7068800D02*
X18543700Y-6908800D01*
X18383700Y-6748800D01*
X18223700Y-6908800D01*
X18383700Y-7068800D01*
X18496838Y-7021938D02*
X18496838Y-6795662D01*
X18270562Y-6795662D01*
X18270562Y-7021938D01*
X18496838Y-7021938D01*
X13360400Y-22359600D02*
X13520400Y-22199600D01*
X13360400Y-22039600D01*
X13200400Y-22199600D01*
X13360400Y-22359600D01*
X13473538Y-22312738D02*
X13473538Y-22086462D01*
X13247262Y-22086462D01*
X13247262Y-22312738D01*
X13473538Y-22312738D01*
X29088080Y-22357060D02*
X29248080Y-22197060D01*
X29088080Y-22037060D01*
X28928080Y-22197060D01*
X29088080Y-22357060D01*
X29201218Y-22310198D02*
X29201218Y-22083922D01*
X28974942Y-22083922D01*
X28974942Y-22310198D01*
X29201218Y-22310198D01*
X29088080Y-9149060D02*
X29248080Y-8989060D01*
X29088080Y-8829060D01*
X28928080Y-8989060D01*
X29088080Y-9149060D01*
X29201218Y-9102198D02*
X29201218Y-8875922D01*
X28974942Y-8875922D01*
X28974942Y-9102198D01*
X29201218Y-9102198D01*
X13360400Y-6863060D02*
X13520400Y-6703060D01*
X13360400Y-6543060D01*
X13200400Y-6703060D01*
X13360400Y-6863060D01*
X13473538Y-6816198D02*
X13473538Y-6589922D01*
X13247262Y-6589922D01*
X13247262Y-6816198D01*
X13473538Y-6816198D01*
D12*
X13009328Y-23157814D02*
X13009328Y-22857814D01*
X13080757Y-22857814D01*
X13123614Y-22872100D01*
X13152186Y-22900671D01*
X13166471Y-22929243D01*
X13180757Y-22986386D01*
X13180757Y-23029243D01*
X13166471Y-23086386D01*
X13152186Y-23114957D01*
X13123614Y-23143529D01*
X13080757Y-23157814D01*
X13009328Y-23157814D01*
X13309328Y-23157814D02*
X13309328Y-22957814D01*
X13309328Y-23014957D02*
X13323614Y-22986386D01*
X13337900Y-22972100D01*
X13366471Y-22957814D01*
X13395043Y-22957814D01*
X13495043Y-23157814D02*
X13495043Y-22957814D01*
X13495043Y-22857814D02*
X13480757Y-22872100D01*
X13495043Y-22886386D01*
X13509328Y-22872100D01*
X13495043Y-22857814D01*
X13495043Y-22886386D01*
X13680757Y-23157814D02*
X13652186Y-23143529D01*
X13637900Y-23114957D01*
X13637900Y-22857814D01*
X13837900Y-23157814D02*
X13809328Y-23143529D01*
X13795043Y-23114957D01*
X13795043Y-22857814D01*
X14180757Y-23157814D02*
X14180757Y-22857814D01*
X14280757Y-23072100D01*
X14380757Y-22857814D01*
X14380757Y-23157814D01*
X14652186Y-23157814D02*
X14652186Y-23000671D01*
X14637900Y-22972100D01*
X14609328Y-22957814D01*
X14552186Y-22957814D01*
X14523614Y-22972100D01*
X14652186Y-23143529D02*
X14623614Y-23157814D01*
X14552186Y-23157814D01*
X14523614Y-23143529D01*
X14509328Y-23114957D01*
X14509328Y-23086386D01*
X14523614Y-23057814D01*
X14552186Y-23043529D01*
X14623614Y-23043529D01*
X14652186Y-23029243D01*
X14795043Y-22957814D02*
X14795043Y-23257814D01*
X14795043Y-22972100D02*
X14823614Y-22957814D01*
X14880757Y-22957814D01*
X14909328Y-22972100D01*
X14923614Y-22986386D01*
X14937900Y-23014957D01*
X14937900Y-23100671D01*
X14923614Y-23129243D01*
X14909328Y-23143529D01*
X14880757Y-23157814D01*
X14823614Y-23157814D01*
X14795043Y-23143529D01*
X15066471Y-23129243D02*
X15080757Y-23143529D01*
X15066471Y-23157814D01*
X15052186Y-23143529D01*
X15066471Y-23129243D01*
X15066471Y-23157814D01*
X15066471Y-22972100D02*
X15080757Y-22986386D01*
X15066471Y-23000671D01*
X15052186Y-22986386D01*
X15066471Y-22972100D01*
X15066471Y-23000671D01*
X12682900Y-23632100D02*
X12722900Y-23672100D01*
X12722900Y-23632100D02*
X12682900Y-23672100D01*
X13066471Y-23487814D02*
X13095043Y-23487814D01*
X13123614Y-23502100D01*
X13137900Y-23516386D01*
X13152186Y-23544957D01*
X13166471Y-23602100D01*
X13166471Y-23673529D01*
X13152186Y-23730671D01*
X13137900Y-23759243D01*
X13123614Y-23773529D01*
X13095043Y-23787814D01*
X13066471Y-23787814D01*
X13037900Y-23773529D01*
X13023614Y-23759243D01*
X13009328Y-23730671D01*
X12995043Y-23673529D01*
X12995043Y-23602100D01*
X13009328Y-23544957D01*
X13023614Y-23516386D01*
X13037900Y-23502100D01*
X13066471Y-23487814D01*
X13295043Y-23759243D02*
X13309328Y-23773529D01*
X13295043Y-23787814D01*
X13280757Y-23773529D01*
X13295043Y-23759243D01*
X13295043Y-23787814D01*
X13566471Y-23587814D02*
X13566471Y-23787814D01*
X13495043Y-23473529D02*
X13423614Y-23687814D01*
X13609328Y-23687814D01*
X13780757Y-23487814D02*
X13809328Y-23487814D01*
X13837900Y-23502100D01*
X13852186Y-23516386D01*
X13866471Y-23544957D01*
X13880757Y-23602100D01*
X13880757Y-23673529D01*
X13866471Y-23730671D01*
X13852186Y-23759243D01*
X13837900Y-23773529D01*
X13809328Y-23787814D01*
X13780757Y-23787814D01*
X13752186Y-23773529D01*
X13737900Y-23759243D01*
X13723614Y-23730671D01*
X13709328Y-23673529D01*
X13709328Y-23602100D01*
X13723614Y-23544957D01*
X13737900Y-23516386D01*
X13752186Y-23502100D01*
X13780757Y-23487814D01*
X14009328Y-23787814D02*
X14009328Y-23587814D01*
X14009328Y-23616386D02*
X14023614Y-23602100D01*
X14052186Y-23587814D01*
X14095043Y-23587814D01*
X14123614Y-23602100D01*
X14137900Y-23630671D01*
X14137900Y-23787814D01*
X14137900Y-23630671D02*
X14152186Y-23602100D01*
X14180757Y-23587814D01*
X14223614Y-23587814D01*
X14252186Y-23602100D01*
X14266471Y-23630671D01*
X14266471Y-23787814D01*
X14409328Y-23787814D02*
X14409328Y-23587814D01*
X14409328Y-23616386D02*
X14423614Y-23602100D01*
X14452186Y-23587814D01*
X14495043Y-23587814D01*
X14523614Y-23602100D01*
X14537900Y-23630671D01*
X14537900Y-23787814D01*
X14537900Y-23630671D02*
X14552186Y-23602100D01*
X14580757Y-23587814D01*
X14623614Y-23587814D01*
X14652186Y-23602100D01*
X14666471Y-23630671D01*
X14666471Y-23787814D01*
X15252186Y-23473529D02*
X14995043Y-23859243D01*
X15637900Y-23487814D02*
X15666471Y-23487814D01*
X15695043Y-23502100D01*
X15709328Y-23516386D01*
X15723614Y-23544957D01*
X15737900Y-23602100D01*
X15737900Y-23673529D01*
X15723614Y-23730671D01*
X15709328Y-23759243D01*
X15695043Y-23773529D01*
X15666471Y-23787814D01*
X15637900Y-23787814D01*
X15609328Y-23773529D01*
X15595043Y-23759243D01*
X15580757Y-23730671D01*
X15566471Y-23673529D01*
X15566471Y-23602100D01*
X15580757Y-23544957D01*
X15595043Y-23516386D01*
X15609328Y-23502100D01*
X15637900Y-23487814D01*
X15866471Y-23759243D02*
X15880757Y-23773529D01*
X15866471Y-23787814D01*
X15852186Y-23773529D01*
X15866471Y-23759243D01*
X15866471Y-23787814D01*
X16066471Y-23487814D02*
X16095043Y-23487814D01*
X16123614Y-23502100D01*
X16137900Y-23516386D01*
X16152186Y-23544957D01*
X16166471Y-23602100D01*
X16166471Y-23673529D01*
X16152186Y-23730671D01*
X16137900Y-23759243D01*
X16123614Y-23773529D01*
X16095043Y-23787814D01*
X16066471Y-23787814D01*
X16037900Y-23773529D01*
X16023614Y-23759243D01*
X16009328Y-23730671D01*
X15995043Y-23673529D01*
X15995043Y-23602100D01*
X16009328Y-23544957D01*
X16023614Y-23516386D01*
X16037900Y-23502100D01*
X16066471Y-23487814D01*
X16452186Y-23787814D02*
X16280757Y-23787814D01*
X16366471Y-23787814D02*
X16366471Y-23487814D01*
X16337900Y-23530671D01*
X16309328Y-23559243D01*
X16280757Y-23573529D01*
X16709328Y-23487814D02*
X16652186Y-23487814D01*
X16623614Y-23502100D01*
X16609328Y-23516386D01*
X16580757Y-23559243D01*
X16566471Y-23616386D01*
X16566471Y-23730671D01*
X16580757Y-23759243D01*
X16595043Y-23773529D01*
X16623614Y-23787814D01*
X16680757Y-23787814D01*
X16709328Y-23773529D01*
X16723614Y-23759243D01*
X16737900Y-23730671D01*
X16737900Y-23659243D01*
X16723614Y-23630671D01*
X16709328Y-23616386D01*
X16680757Y-23602100D01*
X16623614Y-23602100D01*
X16595043Y-23616386D01*
X16580757Y-23630671D01*
X16566471Y-23659243D01*
X16852186Y-23487814D02*
X16852186Y-23544957D01*
X16966471Y-23487814D02*
X16966471Y-23544957D01*
X17409328Y-23902100D02*
X17395043Y-23887814D01*
X17366471Y-23844957D01*
X17352186Y-23816386D01*
X17337900Y-23773529D01*
X17323614Y-23702100D01*
X17323614Y-23644957D01*
X17337900Y-23573529D01*
X17352186Y-23530671D01*
X17366471Y-23502100D01*
X17395043Y-23459243D01*
X17409328Y-23444957D01*
X17652186Y-23587814D02*
X17652186Y-23787814D01*
X17580757Y-23473529D02*
X17509328Y-23687814D01*
X17695043Y-23687814D01*
X17937900Y-23487814D02*
X17880757Y-23487814D01*
X17852186Y-23502100D01*
X17837900Y-23516386D01*
X17809328Y-23559243D01*
X17795043Y-23616386D01*
X17795043Y-23730671D01*
X17809328Y-23759243D01*
X17823614Y-23773529D01*
X17852186Y-23787814D01*
X17909328Y-23787814D01*
X17937900Y-23773529D01*
X17952186Y-23759243D01*
X17966471Y-23730671D01*
X17966471Y-23659243D01*
X17952186Y-23630671D01*
X17937900Y-23616386D01*
X17909328Y-23602100D01*
X17852186Y-23602100D01*
X17823614Y-23616386D01*
X17809328Y-23630671D01*
X17795043Y-23659243D01*
X18252186Y-23787814D02*
X18080757Y-23787814D01*
X18166471Y-23787814D02*
X18166471Y-23487814D01*
X18137900Y-23530671D01*
X18109328Y-23559243D01*
X18080757Y-23573529D01*
X18609328Y-23787814D02*
X18609328Y-23487814D01*
X18737900Y-23787814D02*
X18737900Y-23630671D01*
X18723614Y-23602100D01*
X18695043Y-23587814D01*
X18652186Y-23587814D01*
X18623614Y-23602100D01*
X18609328Y-23616386D01*
X18923614Y-23787814D02*
X18895043Y-23773529D01*
X18880757Y-23759243D01*
X18866471Y-23730671D01*
X18866471Y-23644957D01*
X18880757Y-23616386D01*
X18895043Y-23602100D01*
X18923614Y-23587814D01*
X18966471Y-23587814D01*
X18995043Y-23602100D01*
X19009328Y-23616386D01*
X19023614Y-23644957D01*
X19023614Y-23730671D01*
X19009328Y-23759243D01*
X18995043Y-23773529D01*
X18966471Y-23787814D01*
X18923614Y-23787814D01*
X19195043Y-23787814D02*
X19166471Y-23773529D01*
X19152186Y-23744957D01*
X19152186Y-23487814D01*
X19423614Y-23773529D02*
X19395043Y-23787814D01*
X19337900Y-23787814D01*
X19309328Y-23773529D01*
X19295043Y-23744957D01*
X19295043Y-23630671D01*
X19309328Y-23602100D01*
X19337900Y-23587814D01*
X19395043Y-23587814D01*
X19423614Y-23602100D01*
X19437900Y-23630671D01*
X19437900Y-23659243D01*
X19295043Y-23687814D01*
X19552186Y-23773529D02*
X19580757Y-23787814D01*
X19637900Y-23787814D01*
X19666471Y-23773529D01*
X19680757Y-23744957D01*
X19680757Y-23730671D01*
X19666471Y-23702100D01*
X19637900Y-23687814D01*
X19595043Y-23687814D01*
X19566471Y-23673529D01*
X19552186Y-23644957D01*
X19552186Y-23630671D01*
X19566471Y-23602100D01*
X19595043Y-23587814D01*
X19637900Y-23587814D01*
X19666471Y-23602100D01*
X19780757Y-23902100D02*
X19795043Y-23887814D01*
X19823614Y-23844957D01*
X19837900Y-23816386D01*
X19852186Y-23773529D01*
X19866471Y-23702100D01*
X19866471Y-23644957D01*
X19852186Y-23573529D01*
X19837900Y-23530671D01*
X19823614Y-23502100D01*
X19795043Y-23459243D01*
X19780757Y-23444957D01*
X12722900Y-24048100D02*
G75*
G03*
X12722900Y-24048100I-25000J0D01*
G01*
X13066471Y-23883814D02*
X13095043Y-23883814D01*
X13123614Y-23898100D01*
X13137900Y-23912386D01*
X13152186Y-23940957D01*
X13166471Y-23998100D01*
X13166471Y-24069529D01*
X13152186Y-24126671D01*
X13137900Y-24155243D01*
X13123614Y-24169529D01*
X13095043Y-24183814D01*
X13066471Y-24183814D01*
X13037900Y-24169529D01*
X13023614Y-24155243D01*
X13009328Y-24126671D01*
X12995043Y-24069529D01*
X12995043Y-23998100D01*
X13009328Y-23940957D01*
X13023614Y-23912386D01*
X13037900Y-23898100D01*
X13066471Y-23883814D01*
X13295043Y-24155243D02*
X13309328Y-24169529D01*
X13295043Y-24183814D01*
X13280757Y-24169529D01*
X13295043Y-24155243D01*
X13295043Y-24183814D01*
X13580757Y-23883814D02*
X13437900Y-23883814D01*
X13423614Y-24026671D01*
X13437900Y-24012386D01*
X13466471Y-23998100D01*
X13537900Y-23998100D01*
X13566471Y-24012386D01*
X13580757Y-24026671D01*
X13595043Y-24055243D01*
X13595043Y-24126671D01*
X13580757Y-24155243D01*
X13566471Y-24169529D01*
X13537900Y-24183814D01*
X13466471Y-24183814D01*
X13437900Y-24169529D01*
X13423614Y-24155243D01*
X13780757Y-23883814D02*
X13809328Y-23883814D01*
X13837900Y-23898100D01*
X13852186Y-23912386D01*
X13866471Y-23940957D01*
X13880757Y-23998100D01*
X13880757Y-24069529D01*
X13866471Y-24126671D01*
X13852186Y-24155243D01*
X13837900Y-24169529D01*
X13809328Y-24183814D01*
X13780757Y-24183814D01*
X13752186Y-24169529D01*
X13737900Y-24155243D01*
X13723614Y-24126671D01*
X13709328Y-24069529D01*
X13709328Y-23998100D01*
X13723614Y-23940957D01*
X13737900Y-23912386D01*
X13752186Y-23898100D01*
X13780757Y-23883814D01*
X14009328Y-24183814D02*
X14009328Y-23983814D01*
X14009328Y-24012386D02*
X14023614Y-23998100D01*
X14052186Y-23983814D01*
X14095043Y-23983814D01*
X14123614Y-23998100D01*
X14137900Y-24026671D01*
X14137900Y-24183814D01*
X14137900Y-24026671D02*
X14152186Y-23998100D01*
X14180757Y-23983814D01*
X14223614Y-23983814D01*
X14252186Y-23998100D01*
X14266471Y-24026671D01*
X14266471Y-24183814D01*
X14409328Y-24183814D02*
X14409328Y-23983814D01*
X14409328Y-24012386D02*
X14423614Y-23998100D01*
X14452186Y-23983814D01*
X14495043Y-23983814D01*
X14523614Y-23998100D01*
X14537900Y-24026671D01*
X14537900Y-24183814D01*
X14537900Y-24026671D02*
X14552186Y-23998100D01*
X14580757Y-23983814D01*
X14623614Y-23983814D01*
X14652186Y-23998100D01*
X14666471Y-24026671D01*
X14666471Y-24183814D01*
X15252186Y-23869529D02*
X14995043Y-24255243D01*
X15637900Y-23883814D02*
X15666471Y-23883814D01*
X15695043Y-23898100D01*
X15709328Y-23912386D01*
X15723614Y-23940957D01*
X15737900Y-23998100D01*
X15737900Y-24069529D01*
X15723614Y-24126671D01*
X15709328Y-24155243D01*
X15695043Y-24169529D01*
X15666471Y-24183814D01*
X15637900Y-24183814D01*
X15609328Y-24169529D01*
X15595043Y-24155243D01*
X15580757Y-24126671D01*
X15566471Y-24069529D01*
X15566471Y-23998100D01*
X15580757Y-23940957D01*
X15595043Y-23912386D01*
X15609328Y-23898100D01*
X15637900Y-23883814D01*
X15866471Y-24155243D02*
X15880757Y-24169529D01*
X15866471Y-24183814D01*
X15852186Y-24169529D01*
X15866471Y-24155243D01*
X15866471Y-24183814D01*
X16066471Y-23883814D02*
X16095043Y-23883814D01*
X16123614Y-23898100D01*
X16137900Y-23912386D01*
X16152186Y-23940957D01*
X16166471Y-23998100D01*
X16166471Y-24069529D01*
X16152186Y-24126671D01*
X16137900Y-24155243D01*
X16123614Y-24169529D01*
X16095043Y-24183814D01*
X16066471Y-24183814D01*
X16037900Y-24169529D01*
X16023614Y-24155243D01*
X16009328Y-24126671D01*
X15995043Y-24069529D01*
X15995043Y-23998100D01*
X16009328Y-23940957D01*
X16023614Y-23912386D01*
X16037900Y-23898100D01*
X16066471Y-23883814D01*
X16280757Y-23912386D02*
X16295043Y-23898100D01*
X16323614Y-23883814D01*
X16395043Y-23883814D01*
X16423614Y-23898100D01*
X16437900Y-23912386D01*
X16452186Y-23940957D01*
X16452186Y-23969529D01*
X16437900Y-24012386D01*
X16266471Y-24183814D01*
X16452186Y-24183814D01*
X16637900Y-23883814D02*
X16666471Y-23883814D01*
X16695043Y-23898100D01*
X16709328Y-23912386D01*
X16723614Y-23940957D01*
X16737900Y-23998100D01*
X16737900Y-24069529D01*
X16723614Y-24126671D01*
X16709328Y-24155243D01*
X16695043Y-24169529D01*
X16666471Y-24183814D01*
X16637900Y-24183814D01*
X16609328Y-24169529D01*
X16595043Y-24155243D01*
X16580757Y-24126671D01*
X16566471Y-24069529D01*
X16566471Y-23998100D01*
X16580757Y-23940957D01*
X16595043Y-23912386D01*
X16609328Y-23898100D01*
X16637900Y-23883814D01*
X16852186Y-23883814D02*
X16852186Y-23940957D01*
X16966471Y-23883814D02*
X16966471Y-23940957D01*
X17409328Y-24298100D02*
X17395043Y-24283814D01*
X17366471Y-24240957D01*
X17352186Y-24212386D01*
X17337900Y-24169529D01*
X17323614Y-24098100D01*
X17323614Y-24040957D01*
X17337900Y-23969529D01*
X17352186Y-23926671D01*
X17366471Y-23898100D01*
X17395043Y-23855243D01*
X17409328Y-23840957D01*
X17495043Y-23883814D02*
X17680757Y-23883814D01*
X17580757Y-23998100D01*
X17623614Y-23998100D01*
X17652186Y-24012386D01*
X17666471Y-24026671D01*
X17680757Y-24055243D01*
X17680757Y-24126671D01*
X17666471Y-24155243D01*
X17652186Y-24169529D01*
X17623614Y-24183814D01*
X17537900Y-24183814D01*
X17509328Y-24169529D01*
X17495043Y-24155243D01*
X17795043Y-23912386D02*
X17809328Y-23898100D01*
X17837900Y-23883814D01*
X17909328Y-23883814D01*
X17937900Y-23898100D01*
X17952186Y-23912386D01*
X17966471Y-23940957D01*
X17966471Y-23969529D01*
X17952186Y-24012386D01*
X17780757Y-24183814D01*
X17966471Y-24183814D01*
X18323614Y-24183814D02*
X18323614Y-23883814D01*
X18452186Y-24183814D02*
X18452186Y-24026671D01*
X18437900Y-23998100D01*
X18409328Y-23983814D01*
X18366471Y-23983814D01*
X18337900Y-23998100D01*
X18323614Y-24012386D01*
X18637900Y-24183814D02*
X18609328Y-24169529D01*
X18595043Y-24155243D01*
X18580757Y-24126671D01*
X18580757Y-24040957D01*
X18595043Y-24012386D01*
X18609328Y-23998100D01*
X18637900Y-23983814D01*
X18680757Y-23983814D01*
X18709328Y-23998100D01*
X18723614Y-24012386D01*
X18737900Y-24040957D01*
X18737900Y-24126671D01*
X18723614Y-24155243D01*
X18709328Y-24169529D01*
X18680757Y-24183814D01*
X18637900Y-24183814D01*
X18909328Y-24183814D02*
X18880757Y-24169529D01*
X18866471Y-24140957D01*
X18866471Y-23883814D01*
X19137900Y-24169529D02*
X19109328Y-24183814D01*
X19052186Y-24183814D01*
X19023614Y-24169529D01*
X19009328Y-24140957D01*
X19009328Y-24026671D01*
X19023614Y-23998100D01*
X19052186Y-23983814D01*
X19109328Y-23983814D01*
X19137900Y-23998100D01*
X19152186Y-24026671D01*
X19152186Y-24055243D01*
X19009328Y-24083814D01*
X19266471Y-24169529D02*
X19295043Y-24183814D01*
X19352186Y-24183814D01*
X19380757Y-24169529D01*
X19395043Y-24140957D01*
X19395043Y-24126671D01*
X19380757Y-24098100D01*
X19352186Y-24083814D01*
X19309328Y-24083814D01*
X19280757Y-24069529D01*
X19266471Y-24040957D01*
X19266471Y-24026671D01*
X19280757Y-23998100D01*
X19309328Y-23983814D01*
X19352186Y-23983814D01*
X19380757Y-23998100D01*
X19495043Y-24298100D02*
X19509328Y-24283814D01*
X19537900Y-24240957D01*
X19552186Y-24212386D01*
X19566471Y-24169529D01*
X19580757Y-24098100D01*
X19580757Y-24040957D01*
X19566471Y-23969529D01*
X19552186Y-23926671D01*
X19537900Y-23898100D01*
X19509328Y-23855243D01*
X19495043Y-23840957D01*
X12685400Y-24406600D02*
X12685400Y-24481600D01*
X12647900Y-24444100D02*
X12722900Y-24444100D01*
X13066471Y-24279814D02*
X13095043Y-24279814D01*
X13123614Y-24294100D01*
X13137900Y-24308386D01*
X13152186Y-24336957D01*
X13166471Y-24394100D01*
X13166471Y-24465529D01*
X13152186Y-24522671D01*
X13137900Y-24551243D01*
X13123614Y-24565529D01*
X13095043Y-24579814D01*
X13066471Y-24579814D01*
X13037900Y-24565529D01*
X13023614Y-24551243D01*
X13009328Y-24522671D01*
X12995043Y-24465529D01*
X12995043Y-24394100D01*
X13009328Y-24336957D01*
X13023614Y-24308386D01*
X13037900Y-24294100D01*
X13066471Y-24279814D01*
X13295043Y-24551243D02*
X13309328Y-24565529D01*
X13295043Y-24579814D01*
X13280757Y-24565529D01*
X13295043Y-24551243D01*
X13295043Y-24579814D01*
X13409328Y-24279814D02*
X13609328Y-24279814D01*
X13480757Y-24579814D01*
X13866471Y-24279814D02*
X13723614Y-24279814D01*
X13709328Y-24422671D01*
X13723614Y-24408386D01*
X13752186Y-24394100D01*
X13823614Y-24394100D01*
X13852186Y-24408386D01*
X13866471Y-24422671D01*
X13880757Y-24451243D01*
X13880757Y-24522671D01*
X13866471Y-24551243D01*
X13852186Y-24565529D01*
X13823614Y-24579814D01*
X13752186Y-24579814D01*
X13723614Y-24565529D01*
X13709328Y-24551243D01*
X14009328Y-24579814D02*
X14009328Y-24379814D01*
X14009328Y-24408386D02*
X14023614Y-24394100D01*
X14052186Y-24379814D01*
X14095043Y-24379814D01*
X14123614Y-24394100D01*
X14137900Y-24422671D01*
X14137900Y-24579814D01*
X14137900Y-24422671D02*
X14152186Y-24394100D01*
X14180757Y-24379814D01*
X14223614Y-24379814D01*
X14252186Y-24394100D01*
X14266471Y-24422671D01*
X14266471Y-24579814D01*
X14409328Y-24579814D02*
X14409328Y-24379814D01*
X14409328Y-24408386D02*
X14423614Y-24394100D01*
X14452186Y-24379814D01*
X14495043Y-24379814D01*
X14523614Y-24394100D01*
X14537900Y-24422671D01*
X14537900Y-24579814D01*
X14537900Y-24422671D02*
X14552186Y-24394100D01*
X14580757Y-24379814D01*
X14623614Y-24379814D01*
X14652186Y-24394100D01*
X14666471Y-24422671D01*
X14666471Y-24579814D01*
X15252186Y-24265529D02*
X14995043Y-24651243D01*
X15637900Y-24279814D02*
X15666471Y-24279814D01*
X15695043Y-24294100D01*
X15709328Y-24308386D01*
X15723614Y-24336957D01*
X15737900Y-24394100D01*
X15737900Y-24465529D01*
X15723614Y-24522671D01*
X15709328Y-24551243D01*
X15695043Y-24565529D01*
X15666471Y-24579814D01*
X15637900Y-24579814D01*
X15609328Y-24565529D01*
X15595043Y-24551243D01*
X15580757Y-24522671D01*
X15566471Y-24465529D01*
X15566471Y-24394100D01*
X15580757Y-24336957D01*
X15595043Y-24308386D01*
X15609328Y-24294100D01*
X15637900Y-24279814D01*
X15866471Y-24551243D02*
X15880757Y-24565529D01*
X15866471Y-24579814D01*
X15852186Y-24565529D01*
X15866471Y-24551243D01*
X15866471Y-24579814D01*
X16066471Y-24279814D02*
X16095043Y-24279814D01*
X16123614Y-24294100D01*
X16137900Y-24308386D01*
X16152186Y-24336957D01*
X16166471Y-24394100D01*
X16166471Y-24465529D01*
X16152186Y-24522671D01*
X16137900Y-24551243D01*
X16123614Y-24565529D01*
X16095043Y-24579814D01*
X16066471Y-24579814D01*
X16037900Y-24565529D01*
X16023614Y-24551243D01*
X16009328Y-24522671D01*
X15995043Y-24465529D01*
X15995043Y-24394100D01*
X16009328Y-24336957D01*
X16023614Y-24308386D01*
X16037900Y-24294100D01*
X16066471Y-24279814D01*
X16266471Y-24279814D02*
X16452186Y-24279814D01*
X16352186Y-24394100D01*
X16395043Y-24394100D01*
X16423614Y-24408386D01*
X16437900Y-24422671D01*
X16452186Y-24451243D01*
X16452186Y-24522671D01*
X16437900Y-24551243D01*
X16423614Y-24565529D01*
X16395043Y-24579814D01*
X16309328Y-24579814D01*
X16280757Y-24565529D01*
X16266471Y-24551243D01*
X16637900Y-24279814D02*
X16666471Y-24279814D01*
X16695043Y-24294100D01*
X16709328Y-24308386D01*
X16723614Y-24336957D01*
X16737900Y-24394100D01*
X16737900Y-24465529D01*
X16723614Y-24522671D01*
X16709328Y-24551243D01*
X16695043Y-24565529D01*
X16666471Y-24579814D01*
X16637900Y-24579814D01*
X16609328Y-24565529D01*
X16595043Y-24551243D01*
X16580757Y-24522671D01*
X16566471Y-24465529D01*
X16566471Y-24394100D01*
X16580757Y-24336957D01*
X16595043Y-24308386D01*
X16609328Y-24294100D01*
X16637900Y-24279814D01*
X16852186Y-24279814D02*
X16852186Y-24336957D01*
X16966471Y-24279814D02*
X16966471Y-24336957D01*
X17409328Y-24694100D02*
X17395043Y-24679814D01*
X17366471Y-24636957D01*
X17352186Y-24608386D01*
X17337900Y-24565529D01*
X17323614Y-24494100D01*
X17323614Y-24436957D01*
X17337900Y-24365529D01*
X17352186Y-24322671D01*
X17366471Y-24294100D01*
X17395043Y-24251243D01*
X17409328Y-24236957D01*
X17680757Y-24579814D02*
X17509328Y-24579814D01*
X17595043Y-24579814D02*
X17595043Y-24279814D01*
X17566471Y-24322671D01*
X17537900Y-24351243D01*
X17509328Y-24365529D01*
X18037900Y-24579814D02*
X18037900Y-24279814D01*
X18166471Y-24579814D02*
X18166471Y-24422671D01*
X18152186Y-24394100D01*
X18123614Y-24379814D01*
X18080757Y-24379814D01*
X18052186Y-24394100D01*
X18037900Y-24408386D01*
X18352186Y-24579814D02*
X18323614Y-24565529D01*
X18309328Y-24551243D01*
X18295043Y-24522671D01*
X18295043Y-24436957D01*
X18309328Y-24408386D01*
X18323614Y-24394100D01*
X18352186Y-24379814D01*
X18395043Y-24379814D01*
X18423614Y-24394100D01*
X18437900Y-24408386D01*
X18452186Y-24436957D01*
X18452186Y-24522671D01*
X18437900Y-24551243D01*
X18423614Y-24565529D01*
X18395043Y-24579814D01*
X18352186Y-24579814D01*
X18623614Y-24579814D02*
X18595043Y-24565529D01*
X18580757Y-24536957D01*
X18580757Y-24279814D01*
X18852186Y-24565529D02*
X18823614Y-24579814D01*
X18766471Y-24579814D01*
X18737900Y-24565529D01*
X18723614Y-24536957D01*
X18723614Y-24422671D01*
X18737900Y-24394100D01*
X18766471Y-24379814D01*
X18823614Y-24379814D01*
X18852186Y-24394100D01*
X18866471Y-24422671D01*
X18866471Y-24451243D01*
X18723614Y-24479814D01*
X18966471Y-24694100D02*
X18980757Y-24679814D01*
X19009328Y-24636957D01*
X19023614Y-24608386D01*
X19037900Y-24565529D01*
X19052186Y-24494100D01*
X19052186Y-24436957D01*
X19037900Y-24365529D01*
X19023614Y-24322671D01*
X19009328Y-24294100D01*
X18980757Y-24251243D01*
X18966471Y-24236957D01*
X12711184Y-24868385D02*
X12711184Y-24811816D01*
X12654615Y-24811816D01*
X12654615Y-24868385D01*
X12711184Y-24868385D01*
X13066471Y-24675814D02*
X13095043Y-24675814D01*
X13123614Y-24690100D01*
X13137900Y-24704386D01*
X13152186Y-24732957D01*
X13166471Y-24790100D01*
X13166471Y-24861529D01*
X13152186Y-24918671D01*
X13137900Y-24947243D01*
X13123614Y-24961529D01*
X13095043Y-24975814D01*
X13066471Y-24975814D01*
X13037900Y-24961529D01*
X13023614Y-24947243D01*
X13009328Y-24918671D01*
X12995043Y-24861529D01*
X12995043Y-24790100D01*
X13009328Y-24732957D01*
X13023614Y-24704386D01*
X13037900Y-24690100D01*
X13066471Y-24675814D01*
X13295043Y-24947243D02*
X13309328Y-24961529D01*
X13295043Y-24975814D01*
X13280757Y-24961529D01*
X13295043Y-24947243D01*
X13295043Y-24975814D01*
X13480757Y-24804386D02*
X13452186Y-24790100D01*
X13437900Y-24775814D01*
X13423614Y-24747243D01*
X13423614Y-24732957D01*
X13437900Y-24704386D01*
X13452186Y-24690100D01*
X13480757Y-24675814D01*
X13537900Y-24675814D01*
X13566471Y-24690100D01*
X13580757Y-24704386D01*
X13595043Y-24732957D01*
X13595043Y-24747243D01*
X13580757Y-24775814D01*
X13566471Y-24790100D01*
X13537900Y-24804386D01*
X13480757Y-24804386D01*
X13452186Y-24818671D01*
X13437900Y-24832957D01*
X13423614Y-24861529D01*
X13423614Y-24918671D01*
X13437900Y-24947243D01*
X13452186Y-24961529D01*
X13480757Y-24975814D01*
X13537900Y-24975814D01*
X13566471Y-24961529D01*
X13580757Y-24947243D01*
X13595043Y-24918671D01*
X13595043Y-24861529D01*
X13580757Y-24832957D01*
X13566471Y-24818671D01*
X13537900Y-24804386D01*
X13780757Y-24675814D02*
X13809328Y-24675814D01*
X13837900Y-24690100D01*
X13852186Y-24704386D01*
X13866471Y-24732957D01*
X13880757Y-24790100D01*
X13880757Y-24861529D01*
X13866471Y-24918671D01*
X13852186Y-24947243D01*
X13837900Y-24961529D01*
X13809328Y-24975814D01*
X13780757Y-24975814D01*
X13752186Y-24961529D01*
X13737900Y-24947243D01*
X13723614Y-24918671D01*
X13709328Y-24861529D01*
X13709328Y-24790100D01*
X13723614Y-24732957D01*
X13737900Y-24704386D01*
X13752186Y-24690100D01*
X13780757Y-24675814D01*
X14009328Y-24975814D02*
X14009328Y-24775814D01*
X14009328Y-24804386D02*
X14023614Y-24790100D01*
X14052186Y-24775814D01*
X14095043Y-24775814D01*
X14123614Y-24790100D01*
X14137900Y-24818671D01*
X14137900Y-24975814D01*
X14137900Y-24818671D02*
X14152186Y-24790100D01*
X14180757Y-24775814D01*
X14223614Y-24775814D01*
X14252186Y-24790100D01*
X14266471Y-24818671D01*
X14266471Y-24975814D01*
X14409328Y-24975814D02*
X14409328Y-24775814D01*
X14409328Y-24804386D02*
X14423614Y-24790100D01*
X14452186Y-24775814D01*
X14495043Y-24775814D01*
X14523614Y-24790100D01*
X14537900Y-24818671D01*
X14537900Y-24975814D01*
X14537900Y-24818671D02*
X14552186Y-24790100D01*
X14580757Y-24775814D01*
X14623614Y-24775814D01*
X14652186Y-24790100D01*
X14666471Y-24818671D01*
X14666471Y-24975814D01*
X15252186Y-24661529D02*
X14995043Y-25047243D01*
X15637900Y-24675814D02*
X15666471Y-24675814D01*
X15695043Y-24690100D01*
X15709328Y-24704386D01*
X15723614Y-24732957D01*
X15737900Y-24790100D01*
X15737900Y-24861529D01*
X15723614Y-24918671D01*
X15709328Y-24947243D01*
X15695043Y-24961529D01*
X15666471Y-24975814D01*
X15637900Y-24975814D01*
X15609328Y-24961529D01*
X15595043Y-24947243D01*
X15580757Y-24918671D01*
X15566471Y-24861529D01*
X15566471Y-24790100D01*
X15580757Y-24732957D01*
X15595043Y-24704386D01*
X15609328Y-24690100D01*
X15637900Y-24675814D01*
X15866471Y-24947243D02*
X15880757Y-24961529D01*
X15866471Y-24975814D01*
X15852186Y-24961529D01*
X15866471Y-24947243D01*
X15866471Y-24975814D01*
X16066471Y-24675814D02*
X16095043Y-24675814D01*
X16123614Y-24690100D01*
X16137900Y-24704386D01*
X16152186Y-24732957D01*
X16166471Y-24790100D01*
X16166471Y-24861529D01*
X16152186Y-24918671D01*
X16137900Y-24947243D01*
X16123614Y-24961529D01*
X16095043Y-24975814D01*
X16066471Y-24975814D01*
X16037900Y-24961529D01*
X16023614Y-24947243D01*
X16009328Y-24918671D01*
X15995043Y-24861529D01*
X15995043Y-24790100D01*
X16009328Y-24732957D01*
X16023614Y-24704386D01*
X16037900Y-24690100D01*
X16066471Y-24675814D01*
X16266471Y-24675814D02*
X16452186Y-24675814D01*
X16352186Y-24790100D01*
X16395043Y-24790100D01*
X16423614Y-24804386D01*
X16437900Y-24818671D01*
X16452186Y-24847243D01*
X16452186Y-24918671D01*
X16437900Y-24947243D01*
X16423614Y-24961529D01*
X16395043Y-24975814D01*
X16309328Y-24975814D01*
X16280757Y-24961529D01*
X16266471Y-24947243D01*
X16737900Y-24975814D02*
X16566471Y-24975814D01*
X16652186Y-24975814D02*
X16652186Y-24675814D01*
X16623614Y-24718671D01*
X16595043Y-24747243D01*
X16566471Y-24761529D01*
X16852186Y-24675814D02*
X16852186Y-24732957D01*
X16966471Y-24675814D02*
X16966471Y-24732957D01*
X17409328Y-25090100D02*
X17395043Y-25075814D01*
X17366471Y-25032957D01*
X17352186Y-25004386D01*
X17337900Y-24961529D01*
X17323614Y-24890100D01*
X17323614Y-24832957D01*
X17337900Y-24761529D01*
X17352186Y-24718671D01*
X17366471Y-24690100D01*
X17395043Y-24647243D01*
X17409328Y-24632957D01*
X17537900Y-24975814D02*
X17595043Y-24975814D01*
X17623614Y-24961529D01*
X17637900Y-24947243D01*
X17666471Y-24904386D01*
X17680757Y-24847243D01*
X17680757Y-24732957D01*
X17666471Y-24704386D01*
X17652186Y-24690100D01*
X17623614Y-24675814D01*
X17566471Y-24675814D01*
X17537900Y-24690100D01*
X17523614Y-24704386D01*
X17509328Y-24732957D01*
X17509328Y-24804386D01*
X17523614Y-24832957D01*
X17537900Y-24847243D01*
X17566471Y-24861529D01*
X17623614Y-24861529D01*
X17652186Y-24847243D01*
X17666471Y-24832957D01*
X17680757Y-24804386D01*
X17795043Y-24704386D02*
X17809328Y-24690100D01*
X17837900Y-24675814D01*
X17909328Y-24675814D01*
X17937900Y-24690100D01*
X17952186Y-24704386D01*
X17966471Y-24732957D01*
X17966471Y-24761529D01*
X17952186Y-24804386D01*
X17780757Y-24975814D01*
X17966471Y-24975814D01*
X18323614Y-24975814D02*
X18323614Y-24675814D01*
X18452186Y-24975814D02*
X18452186Y-24818671D01*
X18437900Y-24790100D01*
X18409328Y-24775814D01*
X18366471Y-24775814D01*
X18337900Y-24790100D01*
X18323614Y-24804386D01*
X18637900Y-24975814D02*
X18609328Y-24961529D01*
X18595043Y-24947243D01*
X18580757Y-24918671D01*
X18580757Y-24832957D01*
X18595043Y-24804386D01*
X18609328Y-24790100D01*
X18637900Y-24775814D01*
X18680757Y-24775814D01*
X18709328Y-24790100D01*
X18723614Y-24804386D01*
X18737900Y-24832957D01*
X18737900Y-24918671D01*
X18723614Y-24947243D01*
X18709328Y-24961529D01*
X18680757Y-24975814D01*
X18637900Y-24975814D01*
X18909328Y-24975814D02*
X18880757Y-24961529D01*
X18866471Y-24932957D01*
X18866471Y-24675814D01*
X19137900Y-24961529D02*
X19109328Y-24975814D01*
X19052186Y-24975814D01*
X19023614Y-24961529D01*
X19009328Y-24932957D01*
X19009328Y-24818671D01*
X19023614Y-24790100D01*
X19052186Y-24775814D01*
X19109328Y-24775814D01*
X19137900Y-24790100D01*
X19152186Y-24818671D01*
X19152186Y-24847243D01*
X19009328Y-24875814D01*
X19266471Y-24961529D02*
X19295043Y-24975814D01*
X19352186Y-24975814D01*
X19380757Y-24961529D01*
X19395043Y-24932957D01*
X19395043Y-24918671D01*
X19380757Y-24890100D01*
X19352186Y-24875814D01*
X19309328Y-24875814D01*
X19280757Y-24861529D01*
X19266471Y-24832957D01*
X19266471Y-24818671D01*
X19280757Y-24790100D01*
X19309328Y-24775814D01*
X19352186Y-24775814D01*
X19380757Y-24790100D01*
X19495043Y-25090100D02*
X19509328Y-25075814D01*
X19537900Y-25032957D01*
X19552186Y-25004386D01*
X19566471Y-24961529D01*
X19580757Y-24890100D01*
X19580757Y-24832957D01*
X19566471Y-24761529D01*
X19552186Y-24718671D01*
X19537900Y-24690100D01*
X19509328Y-24647243D01*
X19495043Y-24632957D01*
X12677900Y-25281100D02*
X12722900Y-25236100D01*
X12677900Y-25191100D01*
X12632900Y-25236100D01*
X12677900Y-25281100D01*
X13066471Y-25071814D02*
X13095043Y-25071814D01*
X13123614Y-25086100D01*
X13137900Y-25100386D01*
X13152186Y-25128957D01*
X13166471Y-25186100D01*
X13166471Y-25257529D01*
X13152186Y-25314671D01*
X13137900Y-25343243D01*
X13123614Y-25357529D01*
X13095043Y-25371814D01*
X13066471Y-25371814D01*
X13037900Y-25357529D01*
X13023614Y-25343243D01*
X13009328Y-25314671D01*
X12995043Y-25257529D01*
X12995043Y-25186100D01*
X13009328Y-25128957D01*
X13023614Y-25100386D01*
X13037900Y-25086100D01*
X13066471Y-25071814D01*
X13295043Y-25343243D02*
X13309328Y-25357529D01*
X13295043Y-25371814D01*
X13280757Y-25357529D01*
X13295043Y-25343243D01*
X13295043Y-25371814D01*
X13452186Y-25371814D02*
X13509328Y-25371814D01*
X13537900Y-25357529D01*
X13552186Y-25343243D01*
X13580757Y-25300386D01*
X13595043Y-25243243D01*
X13595043Y-25128957D01*
X13580757Y-25100386D01*
X13566471Y-25086100D01*
X13537900Y-25071814D01*
X13480757Y-25071814D01*
X13452186Y-25086100D01*
X13437900Y-25100386D01*
X13423614Y-25128957D01*
X13423614Y-25200386D01*
X13437900Y-25228957D01*
X13452186Y-25243243D01*
X13480757Y-25257529D01*
X13537900Y-25257529D01*
X13566471Y-25243243D01*
X13580757Y-25228957D01*
X13595043Y-25200386D01*
X13780757Y-25071814D02*
X13809328Y-25071814D01*
X13837900Y-25086100D01*
X13852186Y-25100386D01*
X13866471Y-25128957D01*
X13880757Y-25186100D01*
X13880757Y-25257529D01*
X13866471Y-25314671D01*
X13852186Y-25343243D01*
X13837900Y-25357529D01*
X13809328Y-25371814D01*
X13780757Y-25371814D01*
X13752186Y-25357529D01*
X13737900Y-25343243D01*
X13723614Y-25314671D01*
X13709328Y-25257529D01*
X13709328Y-25186100D01*
X13723614Y-25128957D01*
X13737900Y-25100386D01*
X13752186Y-25086100D01*
X13780757Y-25071814D01*
X14009328Y-25371814D02*
X14009328Y-25171814D01*
X14009328Y-25200386D02*
X14023614Y-25186100D01*
X14052186Y-25171814D01*
X14095043Y-25171814D01*
X14123614Y-25186100D01*
X14137900Y-25214671D01*
X14137900Y-25371814D01*
X14137900Y-25214671D02*
X14152186Y-25186100D01*
X14180757Y-25171814D01*
X14223614Y-25171814D01*
X14252186Y-25186100D01*
X14266471Y-25214671D01*
X14266471Y-25371814D01*
X14409328Y-25371814D02*
X14409328Y-25171814D01*
X14409328Y-25200386D02*
X14423614Y-25186100D01*
X14452186Y-25171814D01*
X14495043Y-25171814D01*
X14523614Y-25186100D01*
X14537900Y-25214671D01*
X14537900Y-25371814D01*
X14537900Y-25214671D02*
X14552186Y-25186100D01*
X14580757Y-25171814D01*
X14623614Y-25171814D01*
X14652186Y-25186100D01*
X14666471Y-25214671D01*
X14666471Y-25371814D01*
X15252186Y-25057529D02*
X14995043Y-25443243D01*
X15637900Y-25071814D02*
X15666471Y-25071814D01*
X15695043Y-25086100D01*
X15709328Y-25100386D01*
X15723614Y-25128957D01*
X15737900Y-25186100D01*
X15737900Y-25257529D01*
X15723614Y-25314671D01*
X15709328Y-25343243D01*
X15695043Y-25357529D01*
X15666471Y-25371814D01*
X15637900Y-25371814D01*
X15609328Y-25357529D01*
X15595043Y-25343243D01*
X15580757Y-25314671D01*
X15566471Y-25257529D01*
X15566471Y-25186100D01*
X15580757Y-25128957D01*
X15595043Y-25100386D01*
X15609328Y-25086100D01*
X15637900Y-25071814D01*
X15866471Y-25343243D02*
X15880757Y-25357529D01*
X15866471Y-25371814D01*
X15852186Y-25357529D01*
X15866471Y-25343243D01*
X15866471Y-25371814D01*
X16066471Y-25071814D02*
X16095043Y-25071814D01*
X16123614Y-25086100D01*
X16137900Y-25100386D01*
X16152186Y-25128957D01*
X16166471Y-25186100D01*
X16166471Y-25257529D01*
X16152186Y-25314671D01*
X16137900Y-25343243D01*
X16123614Y-25357529D01*
X16095043Y-25371814D01*
X16066471Y-25371814D01*
X16037900Y-25357529D01*
X16023614Y-25343243D01*
X16009328Y-25314671D01*
X15995043Y-25257529D01*
X15995043Y-25186100D01*
X16009328Y-25128957D01*
X16023614Y-25100386D01*
X16037900Y-25086100D01*
X16066471Y-25071814D01*
X16266471Y-25071814D02*
X16452186Y-25071814D01*
X16352186Y-25186100D01*
X16395043Y-25186100D01*
X16423614Y-25200386D01*
X16437900Y-25214671D01*
X16452186Y-25243243D01*
X16452186Y-25314671D01*
X16437900Y-25343243D01*
X16423614Y-25357529D01*
X16395043Y-25371814D01*
X16309328Y-25371814D01*
X16280757Y-25357529D01*
X16266471Y-25343243D01*
X16723614Y-25071814D02*
X16580757Y-25071814D01*
X16566471Y-25214671D01*
X16580757Y-25200386D01*
X16609328Y-25186100D01*
X16680757Y-25186100D01*
X16709328Y-25200386D01*
X16723614Y-25214671D01*
X16737900Y-25243243D01*
X16737900Y-25314671D01*
X16723614Y-25343243D01*
X16709328Y-25357529D01*
X16680757Y-25371814D01*
X16609328Y-25371814D01*
X16580757Y-25357529D01*
X16566471Y-25343243D01*
X16852186Y-25071814D02*
X16852186Y-25128957D01*
X16966471Y-25071814D02*
X16966471Y-25128957D01*
X17409328Y-25486100D02*
X17395043Y-25471814D01*
X17366471Y-25428957D01*
X17352186Y-25400386D01*
X17337900Y-25357529D01*
X17323614Y-25286100D01*
X17323614Y-25228957D01*
X17337900Y-25157529D01*
X17352186Y-25114671D01*
X17366471Y-25086100D01*
X17395043Y-25043243D01*
X17409328Y-25028957D01*
X17509328Y-25100386D02*
X17523614Y-25086100D01*
X17552186Y-25071814D01*
X17623614Y-25071814D01*
X17652186Y-25086100D01*
X17666471Y-25100386D01*
X17680757Y-25128957D01*
X17680757Y-25157529D01*
X17666471Y-25200386D01*
X17495043Y-25371814D01*
X17680757Y-25371814D01*
X18037900Y-25371814D02*
X18037900Y-25071814D01*
X18166471Y-25371814D02*
X18166471Y-25214671D01*
X18152186Y-25186100D01*
X18123614Y-25171814D01*
X18080757Y-25171814D01*
X18052186Y-25186100D01*
X18037900Y-25200386D01*
X18352186Y-25371814D02*
X18323614Y-25357529D01*
X18309328Y-25343243D01*
X18295043Y-25314671D01*
X18295043Y-25228957D01*
X18309328Y-25200386D01*
X18323614Y-25186100D01*
X18352186Y-25171814D01*
X18395043Y-25171814D01*
X18423614Y-25186100D01*
X18437900Y-25200386D01*
X18452186Y-25228957D01*
X18452186Y-25314671D01*
X18437900Y-25343243D01*
X18423614Y-25357529D01*
X18395043Y-25371814D01*
X18352186Y-25371814D01*
X18623614Y-25371814D02*
X18595043Y-25357529D01*
X18580757Y-25328957D01*
X18580757Y-25071814D01*
X18852186Y-25357529D02*
X18823614Y-25371814D01*
X18766471Y-25371814D01*
X18737900Y-25357529D01*
X18723614Y-25328957D01*
X18723614Y-25214671D01*
X18737900Y-25186100D01*
X18766471Y-25171814D01*
X18823614Y-25171814D01*
X18852186Y-25186100D01*
X18866471Y-25214671D01*
X18866471Y-25243243D01*
X18723614Y-25271814D01*
X18980757Y-25357529D02*
X19009328Y-25371814D01*
X19066471Y-25371814D01*
X19095043Y-25357529D01*
X19109328Y-25328957D01*
X19109328Y-25314671D01*
X19095043Y-25286100D01*
X19066471Y-25271814D01*
X19023614Y-25271814D01*
X18995043Y-25257529D01*
X18980757Y-25228957D01*
X18980757Y-25214671D01*
X18995043Y-25186100D01*
X19023614Y-25171814D01*
X19066471Y-25171814D01*
X19095043Y-25186100D01*
X19209328Y-25486100D02*
X19223614Y-25471814D01*
X19252186Y-25428957D01*
X19266471Y-25400386D01*
X19280757Y-25357529D01*
X19295043Y-25286100D01*
X19295043Y-25228957D01*
X19280757Y-25157529D01*
X19266471Y-25114671D01*
X19252186Y-25086100D01*
X19223614Y-25043243D01*
X19209328Y-25028957D01*
X12622900Y-25582100D02*
X12722900Y-25682100D01*
X12722900Y-25582100D02*
X12622900Y-25682100D01*
X12722900Y-25632100D02*
G75*
G03*
X12722900Y-25632100I-50000J0D01*
G01*
X13166471Y-25767814D02*
X12995043Y-25767814D01*
X13080757Y-25767814D02*
X13080757Y-25467814D01*
X13052186Y-25510671D01*
X13023614Y-25539243D01*
X12995043Y-25553529D01*
X13295043Y-25739243D02*
X13309328Y-25753529D01*
X13295043Y-25767814D01*
X13280757Y-25753529D01*
X13295043Y-25739243D01*
X13295043Y-25767814D01*
X13495043Y-25467814D02*
X13523614Y-25467814D01*
X13552186Y-25482100D01*
X13566471Y-25496386D01*
X13580757Y-25524957D01*
X13595043Y-25582100D01*
X13595043Y-25653529D01*
X13580757Y-25710671D01*
X13566471Y-25739243D01*
X13552186Y-25753529D01*
X13523614Y-25767814D01*
X13495043Y-25767814D01*
X13466471Y-25753529D01*
X13452186Y-25739243D01*
X13437900Y-25710671D01*
X13423614Y-25653529D01*
X13423614Y-25582100D01*
X13437900Y-25524957D01*
X13452186Y-25496386D01*
X13466471Y-25482100D01*
X13495043Y-25467814D01*
X13780757Y-25467814D02*
X13809328Y-25467814D01*
X13837900Y-25482100D01*
X13852186Y-25496386D01*
X13866471Y-25524957D01*
X13880757Y-25582100D01*
X13880757Y-25653529D01*
X13866471Y-25710671D01*
X13852186Y-25739243D01*
X13837900Y-25753529D01*
X13809328Y-25767814D01*
X13780757Y-25767814D01*
X13752186Y-25753529D01*
X13737900Y-25739243D01*
X13723614Y-25710671D01*
X13709328Y-25653529D01*
X13709328Y-25582100D01*
X13723614Y-25524957D01*
X13737900Y-25496386D01*
X13752186Y-25482100D01*
X13780757Y-25467814D01*
X14009328Y-25767814D02*
X14009328Y-25567814D01*
X14009328Y-25596386D02*
X14023614Y-25582100D01*
X14052186Y-25567814D01*
X14095043Y-25567814D01*
X14123614Y-25582100D01*
X14137900Y-25610671D01*
X14137900Y-25767814D01*
X14137900Y-25610671D02*
X14152186Y-25582100D01*
X14180757Y-25567814D01*
X14223614Y-25567814D01*
X14252186Y-25582100D01*
X14266471Y-25610671D01*
X14266471Y-25767814D01*
X14409328Y-25767814D02*
X14409328Y-25567814D01*
X14409328Y-25596386D02*
X14423614Y-25582100D01*
X14452186Y-25567814D01*
X14495043Y-25567814D01*
X14523614Y-25582100D01*
X14537900Y-25610671D01*
X14537900Y-25767814D01*
X14537900Y-25610671D02*
X14552186Y-25582100D01*
X14580757Y-25567814D01*
X14623614Y-25567814D01*
X14652186Y-25582100D01*
X14666471Y-25610671D01*
X14666471Y-25767814D01*
X15252186Y-25453529D02*
X14995043Y-25839243D01*
X15637900Y-25467814D02*
X15666471Y-25467814D01*
X15695043Y-25482100D01*
X15709328Y-25496386D01*
X15723614Y-25524957D01*
X15737900Y-25582100D01*
X15737900Y-25653529D01*
X15723614Y-25710671D01*
X15709328Y-25739243D01*
X15695043Y-25753529D01*
X15666471Y-25767814D01*
X15637900Y-25767814D01*
X15609328Y-25753529D01*
X15595043Y-25739243D01*
X15580757Y-25710671D01*
X15566471Y-25653529D01*
X15566471Y-25582100D01*
X15580757Y-25524957D01*
X15595043Y-25496386D01*
X15609328Y-25482100D01*
X15637900Y-25467814D01*
X15866471Y-25739243D02*
X15880757Y-25753529D01*
X15866471Y-25767814D01*
X15852186Y-25753529D01*
X15866471Y-25739243D01*
X15866471Y-25767814D01*
X16066471Y-25467814D02*
X16095043Y-25467814D01*
X16123614Y-25482100D01*
X16137900Y-25496386D01*
X16152186Y-25524957D01*
X16166471Y-25582100D01*
X16166471Y-25653529D01*
X16152186Y-25710671D01*
X16137900Y-25739243D01*
X16123614Y-25753529D01*
X16095043Y-25767814D01*
X16066471Y-25767814D01*
X16037900Y-25753529D01*
X16023614Y-25739243D01*
X16009328Y-25710671D01*
X15995043Y-25653529D01*
X15995043Y-25582100D01*
X16009328Y-25524957D01*
X16023614Y-25496386D01*
X16037900Y-25482100D01*
X16066471Y-25467814D01*
X16266471Y-25467814D02*
X16452186Y-25467814D01*
X16352186Y-25582100D01*
X16395043Y-25582100D01*
X16423614Y-25596386D01*
X16437900Y-25610671D01*
X16452186Y-25639243D01*
X16452186Y-25710671D01*
X16437900Y-25739243D01*
X16423614Y-25753529D01*
X16395043Y-25767814D01*
X16309328Y-25767814D01*
X16280757Y-25753529D01*
X16266471Y-25739243D01*
X16595043Y-25767814D02*
X16652186Y-25767814D01*
X16680757Y-25753529D01*
X16695043Y-25739243D01*
X16723614Y-25696386D01*
X16737900Y-25639243D01*
X16737900Y-25524957D01*
X16723614Y-25496386D01*
X16709328Y-25482100D01*
X16680757Y-25467814D01*
X16623614Y-25467814D01*
X16595043Y-25482100D01*
X16580757Y-25496386D01*
X16566471Y-25524957D01*
X16566471Y-25596386D01*
X16580757Y-25624957D01*
X16595043Y-25639243D01*
X16623614Y-25653529D01*
X16680757Y-25653529D01*
X16709328Y-25639243D01*
X16723614Y-25624957D01*
X16737900Y-25596386D01*
X16852186Y-25467814D02*
X16852186Y-25524957D01*
X16966471Y-25467814D02*
X16966471Y-25524957D01*
X17409328Y-25882100D02*
X17395043Y-25867814D01*
X17366471Y-25824957D01*
X17352186Y-25796386D01*
X17337900Y-25753529D01*
X17323614Y-25682100D01*
X17323614Y-25624957D01*
X17337900Y-25553529D01*
X17352186Y-25510671D01*
X17366471Y-25482100D01*
X17395043Y-25439243D01*
X17409328Y-25424957D01*
X17666471Y-25467814D02*
X17523614Y-25467814D01*
X17509328Y-25610671D01*
X17523614Y-25596386D01*
X17552186Y-25582100D01*
X17623614Y-25582100D01*
X17652186Y-25596386D01*
X17666471Y-25610671D01*
X17680757Y-25639243D01*
X17680757Y-25710671D01*
X17666471Y-25739243D01*
X17652186Y-25753529D01*
X17623614Y-25767814D01*
X17552186Y-25767814D01*
X17523614Y-25753529D01*
X17509328Y-25739243D01*
X17823614Y-25767814D02*
X17880757Y-25767814D01*
X17909328Y-25753529D01*
X17923614Y-25739243D01*
X17952186Y-25696386D01*
X17966471Y-25639243D01*
X17966471Y-25524957D01*
X17952186Y-25496386D01*
X17937900Y-25482100D01*
X17909328Y-25467814D01*
X17852186Y-25467814D01*
X17823614Y-25482100D01*
X17809328Y-25496386D01*
X17795043Y-25524957D01*
X17795043Y-25596386D01*
X17809328Y-25624957D01*
X17823614Y-25639243D01*
X17852186Y-25653529D01*
X17909328Y-25653529D01*
X17937900Y-25639243D01*
X17952186Y-25624957D01*
X17966471Y-25596386D01*
X18323614Y-25767814D02*
X18323614Y-25467814D01*
X18452186Y-25767814D02*
X18452186Y-25610671D01*
X18437900Y-25582100D01*
X18409328Y-25567814D01*
X18366471Y-25567814D01*
X18337900Y-25582100D01*
X18323614Y-25596386D01*
X18637900Y-25767814D02*
X18609328Y-25753529D01*
X18595043Y-25739243D01*
X18580757Y-25710671D01*
X18580757Y-25624957D01*
X18595043Y-25596386D01*
X18609328Y-25582100D01*
X18637900Y-25567814D01*
X18680757Y-25567814D01*
X18709328Y-25582100D01*
X18723614Y-25596386D01*
X18737900Y-25624957D01*
X18737900Y-25710671D01*
X18723614Y-25739243D01*
X18709328Y-25753529D01*
X18680757Y-25767814D01*
X18637900Y-25767814D01*
X18909328Y-25767814D02*
X18880757Y-25753529D01*
X18866471Y-25724957D01*
X18866471Y-25467814D01*
X19137900Y-25753529D02*
X19109328Y-25767814D01*
X19052186Y-25767814D01*
X19023614Y-25753529D01*
X19009328Y-25724957D01*
X19009328Y-25610671D01*
X19023614Y-25582100D01*
X19052186Y-25567814D01*
X19109328Y-25567814D01*
X19137900Y-25582100D01*
X19152186Y-25610671D01*
X19152186Y-25639243D01*
X19009328Y-25667814D01*
X19266471Y-25753529D02*
X19295043Y-25767814D01*
X19352186Y-25767814D01*
X19380757Y-25753529D01*
X19395043Y-25724957D01*
X19395043Y-25710671D01*
X19380757Y-25682100D01*
X19352186Y-25667814D01*
X19309328Y-25667814D01*
X19280757Y-25653529D01*
X19266471Y-25624957D01*
X19266471Y-25610671D01*
X19280757Y-25582100D01*
X19309328Y-25567814D01*
X19352186Y-25567814D01*
X19380757Y-25582100D01*
X19495043Y-25882100D02*
X19509328Y-25867814D01*
X19537900Y-25824957D01*
X19552186Y-25796386D01*
X19566471Y-25753529D01*
X19580757Y-25682100D01*
X19580757Y-25624957D01*
X19566471Y-25553529D01*
X19552186Y-25510671D01*
X19537900Y-25482100D01*
X19509328Y-25439243D01*
X19495043Y-25424957D01*
X12612900Y-25973100D02*
X12722900Y-26083100D01*
X12722900Y-25973100D02*
X12612900Y-26083100D01*
X12667900Y-25973100D02*
X12667900Y-26083100D01*
X12612900Y-26028100D02*
X12722900Y-26028100D01*
X13166471Y-26163814D02*
X12995043Y-26163814D01*
X13080757Y-26163814D02*
X13080757Y-25863814D01*
X13052186Y-25906671D01*
X13023614Y-25935243D01*
X12995043Y-25949529D01*
X13295043Y-26135243D02*
X13309328Y-26149529D01*
X13295043Y-26163814D01*
X13280757Y-26149529D01*
X13295043Y-26135243D01*
X13295043Y-26163814D01*
X13595043Y-26163814D02*
X13423614Y-26163814D01*
X13509328Y-26163814D02*
X13509328Y-25863814D01*
X13480757Y-25906671D01*
X13452186Y-25935243D01*
X13423614Y-25949529D01*
X13780757Y-25863814D02*
X13809328Y-25863814D01*
X13837900Y-25878100D01*
X13852186Y-25892386D01*
X13866471Y-25920957D01*
X13880757Y-25978100D01*
X13880757Y-26049529D01*
X13866471Y-26106671D01*
X13852186Y-26135243D01*
X13837900Y-26149529D01*
X13809328Y-26163814D01*
X13780757Y-26163814D01*
X13752186Y-26149529D01*
X13737900Y-26135243D01*
X13723614Y-26106671D01*
X13709328Y-26049529D01*
X13709328Y-25978100D01*
X13723614Y-25920957D01*
X13737900Y-25892386D01*
X13752186Y-25878100D01*
X13780757Y-25863814D01*
X14009328Y-26163814D02*
X14009328Y-25963814D01*
X14009328Y-25992386D02*
X14023614Y-25978100D01*
X14052186Y-25963814D01*
X14095043Y-25963814D01*
X14123614Y-25978100D01*
X14137900Y-26006671D01*
X14137900Y-26163814D01*
X14137900Y-26006671D02*
X14152186Y-25978100D01*
X14180757Y-25963814D01*
X14223614Y-25963814D01*
X14252186Y-25978100D01*
X14266471Y-26006671D01*
X14266471Y-26163814D01*
X14409328Y-26163814D02*
X14409328Y-25963814D01*
X14409328Y-25992386D02*
X14423614Y-25978100D01*
X14452186Y-25963814D01*
X14495043Y-25963814D01*
X14523614Y-25978100D01*
X14537900Y-26006671D01*
X14537900Y-26163814D01*
X14537900Y-26006671D02*
X14552186Y-25978100D01*
X14580757Y-25963814D01*
X14623614Y-25963814D01*
X14652186Y-25978100D01*
X14666471Y-26006671D01*
X14666471Y-26163814D01*
X15252186Y-25849529D02*
X14995043Y-26235243D01*
X15637900Y-25863814D02*
X15666471Y-25863814D01*
X15695043Y-25878100D01*
X15709328Y-25892386D01*
X15723614Y-25920957D01*
X15737900Y-25978100D01*
X15737900Y-26049529D01*
X15723614Y-26106671D01*
X15709328Y-26135243D01*
X15695043Y-26149529D01*
X15666471Y-26163814D01*
X15637900Y-26163814D01*
X15609328Y-26149529D01*
X15595043Y-26135243D01*
X15580757Y-26106671D01*
X15566471Y-26049529D01*
X15566471Y-25978100D01*
X15580757Y-25920957D01*
X15595043Y-25892386D01*
X15609328Y-25878100D01*
X15637900Y-25863814D01*
X15866471Y-26135243D02*
X15880757Y-26149529D01*
X15866471Y-26163814D01*
X15852186Y-26149529D01*
X15866471Y-26135243D01*
X15866471Y-26163814D01*
X16066471Y-25863814D02*
X16095043Y-25863814D01*
X16123614Y-25878100D01*
X16137900Y-25892386D01*
X16152186Y-25920957D01*
X16166471Y-25978100D01*
X16166471Y-26049529D01*
X16152186Y-26106671D01*
X16137900Y-26135243D01*
X16123614Y-26149529D01*
X16095043Y-26163814D01*
X16066471Y-26163814D01*
X16037900Y-26149529D01*
X16023614Y-26135243D01*
X16009328Y-26106671D01*
X15995043Y-26049529D01*
X15995043Y-25978100D01*
X16009328Y-25920957D01*
X16023614Y-25892386D01*
X16037900Y-25878100D01*
X16066471Y-25863814D01*
X16423614Y-25963814D02*
X16423614Y-26163814D01*
X16352186Y-25849529D02*
X16280757Y-26063814D01*
X16466471Y-26063814D01*
X16552186Y-25863814D02*
X16737900Y-25863814D01*
X16637900Y-25978100D01*
X16680757Y-25978100D01*
X16709328Y-25992386D01*
X16723614Y-26006671D01*
X16737900Y-26035243D01*
X16737900Y-26106671D01*
X16723614Y-26135243D01*
X16709328Y-26149529D01*
X16680757Y-26163814D01*
X16595043Y-26163814D01*
X16566471Y-26149529D01*
X16552186Y-26135243D01*
X16852186Y-25863814D02*
X16852186Y-25920957D01*
X16966471Y-25863814D02*
X16966471Y-25920957D01*
X17409328Y-26278100D02*
X17395043Y-26263814D01*
X17366471Y-26220957D01*
X17352186Y-26192386D01*
X17337900Y-26149529D01*
X17323614Y-26078100D01*
X17323614Y-26020957D01*
X17337900Y-25949529D01*
X17352186Y-25906671D01*
X17366471Y-25878100D01*
X17395043Y-25835243D01*
X17409328Y-25820957D01*
X17680757Y-26163814D02*
X17509328Y-26163814D01*
X17595043Y-26163814D02*
X17595043Y-25863814D01*
X17566471Y-25906671D01*
X17537900Y-25935243D01*
X17509328Y-25949529D01*
X17795043Y-25892386D02*
X17809328Y-25878100D01*
X17837900Y-25863814D01*
X17909328Y-25863814D01*
X17937900Y-25878100D01*
X17952186Y-25892386D01*
X17966471Y-25920957D01*
X17966471Y-25949529D01*
X17952186Y-25992386D01*
X17780757Y-26163814D01*
X17966471Y-26163814D01*
X18323614Y-26163814D02*
X18323614Y-25863814D01*
X18452186Y-26163814D02*
X18452186Y-26006671D01*
X18437900Y-25978100D01*
X18409328Y-25963814D01*
X18366471Y-25963814D01*
X18337900Y-25978100D01*
X18323614Y-25992386D01*
X18637900Y-26163814D02*
X18609328Y-26149529D01*
X18595043Y-26135243D01*
X18580757Y-26106671D01*
X18580757Y-26020957D01*
X18595043Y-25992386D01*
X18609328Y-25978100D01*
X18637900Y-25963814D01*
X18680757Y-25963814D01*
X18709328Y-25978100D01*
X18723614Y-25992386D01*
X18737900Y-26020957D01*
X18737900Y-26106671D01*
X18723614Y-26135243D01*
X18709328Y-26149529D01*
X18680757Y-26163814D01*
X18637900Y-26163814D01*
X18909328Y-26163814D02*
X18880757Y-26149529D01*
X18866471Y-26120957D01*
X18866471Y-25863814D01*
X19137900Y-26149529D02*
X19109328Y-26163814D01*
X19052186Y-26163814D01*
X19023614Y-26149529D01*
X19009328Y-26120957D01*
X19009328Y-26006671D01*
X19023614Y-25978100D01*
X19052186Y-25963814D01*
X19109328Y-25963814D01*
X19137900Y-25978100D01*
X19152186Y-26006671D01*
X19152186Y-26035243D01*
X19009328Y-26063814D01*
X19266471Y-26149529D02*
X19295043Y-26163814D01*
X19352186Y-26163814D01*
X19380757Y-26149529D01*
X19395043Y-26120957D01*
X19395043Y-26106671D01*
X19380757Y-26078100D01*
X19352186Y-26063814D01*
X19309328Y-26063814D01*
X19280757Y-26049529D01*
X19266471Y-26020957D01*
X19266471Y-26006671D01*
X19280757Y-25978100D01*
X19309328Y-25963814D01*
X19352186Y-25963814D01*
X19380757Y-25978100D01*
X19495043Y-26278100D02*
X19509328Y-26263814D01*
X19537900Y-26220957D01*
X19552186Y-26192386D01*
X19566471Y-26149529D01*
X19580757Y-26078100D01*
X19580757Y-26020957D01*
X19566471Y-25949529D01*
X19552186Y-25906671D01*
X19537900Y-25878100D01*
X19509328Y-25835243D01*
X19495043Y-25820957D01*
X12603900Y-26364600D02*
X12722900Y-26483600D01*
X12722900Y-26364600D02*
X12603900Y-26483600D01*
X12705473Y-26466173D02*
X12705473Y-26382027D01*
X12621327Y-26382027D01*
X12621327Y-26466173D01*
X12705473Y-26466173D01*
X13166471Y-26559814D02*
X12995043Y-26559814D01*
X13080757Y-26559814D02*
X13080757Y-26259814D01*
X13052186Y-26302671D01*
X13023614Y-26331243D01*
X12995043Y-26345529D01*
X13295043Y-26531243D02*
X13309328Y-26545529D01*
X13295043Y-26559814D01*
X13280757Y-26545529D01*
X13295043Y-26531243D01*
X13295043Y-26559814D01*
X13595043Y-26559814D02*
X13423614Y-26559814D01*
X13509328Y-26559814D02*
X13509328Y-26259814D01*
X13480757Y-26302671D01*
X13452186Y-26331243D01*
X13423614Y-26345529D01*
X13737900Y-26559814D02*
X13795043Y-26559814D01*
X13823614Y-26545529D01*
X13837900Y-26531243D01*
X13866471Y-26488386D01*
X13880757Y-26431243D01*
X13880757Y-26316957D01*
X13866471Y-26288386D01*
X13852186Y-26274100D01*
X13823614Y-26259814D01*
X13766471Y-26259814D01*
X13737900Y-26274100D01*
X13723614Y-26288386D01*
X13709328Y-26316957D01*
X13709328Y-26388386D01*
X13723614Y-26416957D01*
X13737900Y-26431243D01*
X13766471Y-26445529D01*
X13823614Y-26445529D01*
X13852186Y-26431243D01*
X13866471Y-26416957D01*
X13880757Y-26388386D01*
X14009328Y-26559814D02*
X14009328Y-26359814D01*
X14009328Y-26388386D02*
X14023614Y-26374100D01*
X14052186Y-26359814D01*
X14095043Y-26359814D01*
X14123614Y-26374100D01*
X14137900Y-26402671D01*
X14137900Y-26559814D01*
X14137900Y-26402671D02*
X14152186Y-26374100D01*
X14180757Y-26359814D01*
X14223614Y-26359814D01*
X14252186Y-26374100D01*
X14266471Y-26402671D01*
X14266471Y-26559814D01*
X14409328Y-26559814D02*
X14409328Y-26359814D01*
X14409328Y-26388386D02*
X14423614Y-26374100D01*
X14452186Y-26359814D01*
X14495043Y-26359814D01*
X14523614Y-26374100D01*
X14537900Y-26402671D01*
X14537900Y-26559814D01*
X14537900Y-26402671D02*
X14552186Y-26374100D01*
X14580757Y-26359814D01*
X14623614Y-26359814D01*
X14652186Y-26374100D01*
X14666471Y-26402671D01*
X14666471Y-26559814D01*
X15252186Y-26245529D02*
X14995043Y-26631243D01*
X15637900Y-26259814D02*
X15666471Y-26259814D01*
X15695043Y-26274100D01*
X15709328Y-26288386D01*
X15723614Y-26316957D01*
X15737900Y-26374100D01*
X15737900Y-26445529D01*
X15723614Y-26502671D01*
X15709328Y-26531243D01*
X15695043Y-26545529D01*
X15666471Y-26559814D01*
X15637900Y-26559814D01*
X15609328Y-26545529D01*
X15595043Y-26531243D01*
X15580757Y-26502671D01*
X15566471Y-26445529D01*
X15566471Y-26374100D01*
X15580757Y-26316957D01*
X15595043Y-26288386D01*
X15609328Y-26274100D01*
X15637900Y-26259814D01*
X15866471Y-26531243D02*
X15880757Y-26545529D01*
X15866471Y-26559814D01*
X15852186Y-26545529D01*
X15866471Y-26531243D01*
X15866471Y-26559814D01*
X16066471Y-26259814D02*
X16095043Y-26259814D01*
X16123614Y-26274100D01*
X16137900Y-26288386D01*
X16152186Y-26316957D01*
X16166471Y-26374100D01*
X16166471Y-26445529D01*
X16152186Y-26502671D01*
X16137900Y-26531243D01*
X16123614Y-26545529D01*
X16095043Y-26559814D01*
X16066471Y-26559814D01*
X16037900Y-26545529D01*
X16023614Y-26531243D01*
X16009328Y-26502671D01*
X15995043Y-26445529D01*
X15995043Y-26374100D01*
X16009328Y-26316957D01*
X16023614Y-26288386D01*
X16037900Y-26274100D01*
X16066471Y-26259814D01*
X16423614Y-26359814D02*
X16423614Y-26559814D01*
X16352186Y-26245529D02*
X16280757Y-26459814D01*
X16466471Y-26459814D01*
X16552186Y-26259814D02*
X16752186Y-26259814D01*
X16623614Y-26559814D01*
X16852186Y-26259814D02*
X16852186Y-26316957D01*
X16966471Y-26259814D02*
X16966471Y-26316957D01*
X17409328Y-26674100D02*
X17395043Y-26659814D01*
X17366471Y-26616957D01*
X17352186Y-26588386D01*
X17337900Y-26545529D01*
X17323614Y-26474100D01*
X17323614Y-26416957D01*
X17337900Y-26345529D01*
X17352186Y-26302671D01*
X17366471Y-26274100D01*
X17395043Y-26231243D01*
X17409328Y-26216957D01*
X17680757Y-26559814D02*
X17509328Y-26559814D01*
X17595043Y-26559814D02*
X17595043Y-26259814D01*
X17566471Y-26302671D01*
X17537900Y-26331243D01*
X17509328Y-26345529D01*
X17952186Y-26259814D02*
X17809328Y-26259814D01*
X17795043Y-26402671D01*
X17809328Y-26388386D01*
X17837900Y-26374100D01*
X17909328Y-26374100D01*
X17937900Y-26388386D01*
X17952186Y-26402671D01*
X17966471Y-26431243D01*
X17966471Y-26502671D01*
X17952186Y-26531243D01*
X17937900Y-26545529D01*
X17909328Y-26559814D01*
X17837900Y-26559814D01*
X17809328Y-26545529D01*
X17795043Y-26531243D01*
X18323614Y-26559814D02*
X18323614Y-26259814D01*
X18452186Y-26559814D02*
X18452186Y-26402671D01*
X18437900Y-26374100D01*
X18409328Y-26359814D01*
X18366471Y-26359814D01*
X18337900Y-26374100D01*
X18323614Y-26388386D01*
X18637900Y-26559814D02*
X18609328Y-26545529D01*
X18595043Y-26531243D01*
X18580757Y-26502671D01*
X18580757Y-26416957D01*
X18595043Y-26388386D01*
X18609328Y-26374100D01*
X18637900Y-26359814D01*
X18680757Y-26359814D01*
X18709328Y-26374100D01*
X18723614Y-26388386D01*
X18737900Y-26416957D01*
X18737900Y-26502671D01*
X18723614Y-26531243D01*
X18709328Y-26545529D01*
X18680757Y-26559814D01*
X18637900Y-26559814D01*
X18909328Y-26559814D02*
X18880757Y-26545529D01*
X18866471Y-26516957D01*
X18866471Y-26259814D01*
X19137900Y-26545529D02*
X19109328Y-26559814D01*
X19052186Y-26559814D01*
X19023614Y-26545529D01*
X19009328Y-26516957D01*
X19009328Y-26402671D01*
X19023614Y-26374100D01*
X19052186Y-26359814D01*
X19109328Y-26359814D01*
X19137900Y-26374100D01*
X19152186Y-26402671D01*
X19152186Y-26431243D01*
X19009328Y-26459814D01*
X19266471Y-26545529D02*
X19295043Y-26559814D01*
X19352186Y-26559814D01*
X19380757Y-26545529D01*
X19395043Y-26516957D01*
X19395043Y-26502671D01*
X19380757Y-26474100D01*
X19352186Y-26459814D01*
X19309328Y-26459814D01*
X19280757Y-26445529D01*
X19266471Y-26416957D01*
X19266471Y-26402671D01*
X19280757Y-26374100D01*
X19309328Y-26359814D01*
X19352186Y-26359814D01*
X19380757Y-26374100D01*
X19495043Y-26674100D02*
X19509328Y-26659814D01*
X19537900Y-26616957D01*
X19552186Y-26588386D01*
X19566471Y-26545529D01*
X19580757Y-26474100D01*
X19580757Y-26416957D01*
X19566471Y-26345529D01*
X19552186Y-26302671D01*
X19537900Y-26274100D01*
X19509328Y-26231243D01*
X19495043Y-26216957D01*
X12602900Y-26760100D02*
X12722900Y-26880100D01*
X12722900Y-26760100D02*
X12602900Y-26880100D01*
X12662900Y-26880100D02*
X12722900Y-26820100D01*
X12662900Y-26760100D01*
X12602900Y-26820100D01*
X12662900Y-26880100D01*
X13166471Y-26955814D02*
X12995043Y-26955814D01*
X13080757Y-26955814D02*
X13080757Y-26655814D01*
X13052186Y-26698671D01*
X13023614Y-26727243D01*
X12995043Y-26741529D01*
X13295043Y-26927243D02*
X13309328Y-26941529D01*
X13295043Y-26955814D01*
X13280757Y-26941529D01*
X13295043Y-26927243D01*
X13295043Y-26955814D01*
X13423614Y-26684386D02*
X13437900Y-26670100D01*
X13466471Y-26655814D01*
X13537900Y-26655814D01*
X13566471Y-26670100D01*
X13580757Y-26684386D01*
X13595043Y-26712957D01*
X13595043Y-26741529D01*
X13580757Y-26784386D01*
X13409328Y-26955814D01*
X13595043Y-26955814D01*
X13780757Y-26655814D02*
X13809328Y-26655814D01*
X13837900Y-26670100D01*
X13852186Y-26684386D01*
X13866471Y-26712957D01*
X13880757Y-26770100D01*
X13880757Y-26841529D01*
X13866471Y-26898671D01*
X13852186Y-26927243D01*
X13837900Y-26941529D01*
X13809328Y-26955814D01*
X13780757Y-26955814D01*
X13752186Y-26941529D01*
X13737900Y-26927243D01*
X13723614Y-26898671D01*
X13709328Y-26841529D01*
X13709328Y-26770100D01*
X13723614Y-26712957D01*
X13737900Y-26684386D01*
X13752186Y-26670100D01*
X13780757Y-26655814D01*
X14009328Y-26955814D02*
X14009328Y-26755814D01*
X14009328Y-26784386D02*
X14023614Y-26770100D01*
X14052186Y-26755814D01*
X14095043Y-26755814D01*
X14123614Y-26770100D01*
X14137900Y-26798671D01*
X14137900Y-26955814D01*
X14137900Y-26798671D02*
X14152186Y-26770100D01*
X14180757Y-26755814D01*
X14223614Y-26755814D01*
X14252186Y-26770100D01*
X14266471Y-26798671D01*
X14266471Y-26955814D01*
X14409328Y-26955814D02*
X14409328Y-26755814D01*
X14409328Y-26784386D02*
X14423614Y-26770100D01*
X14452186Y-26755814D01*
X14495043Y-26755814D01*
X14523614Y-26770100D01*
X14537900Y-26798671D01*
X14537900Y-26955814D01*
X14537900Y-26798671D02*
X14552186Y-26770100D01*
X14580757Y-26755814D01*
X14623614Y-26755814D01*
X14652186Y-26770100D01*
X14666471Y-26798671D01*
X14666471Y-26955814D01*
X15252186Y-26641529D02*
X14995043Y-27027243D01*
X15637900Y-26655814D02*
X15666471Y-26655814D01*
X15695043Y-26670100D01*
X15709328Y-26684386D01*
X15723614Y-26712957D01*
X15737900Y-26770100D01*
X15737900Y-26841529D01*
X15723614Y-26898671D01*
X15709328Y-26927243D01*
X15695043Y-26941529D01*
X15666471Y-26955814D01*
X15637900Y-26955814D01*
X15609328Y-26941529D01*
X15595043Y-26927243D01*
X15580757Y-26898671D01*
X15566471Y-26841529D01*
X15566471Y-26770100D01*
X15580757Y-26712957D01*
X15595043Y-26684386D01*
X15609328Y-26670100D01*
X15637900Y-26655814D01*
X15866471Y-26927243D02*
X15880757Y-26941529D01*
X15866471Y-26955814D01*
X15852186Y-26941529D01*
X15866471Y-26927243D01*
X15866471Y-26955814D01*
X16066471Y-26655814D02*
X16095043Y-26655814D01*
X16123614Y-26670100D01*
X16137900Y-26684386D01*
X16152186Y-26712957D01*
X16166471Y-26770100D01*
X16166471Y-26841529D01*
X16152186Y-26898671D01*
X16137900Y-26927243D01*
X16123614Y-26941529D01*
X16095043Y-26955814D01*
X16066471Y-26955814D01*
X16037900Y-26941529D01*
X16023614Y-26927243D01*
X16009328Y-26898671D01*
X15995043Y-26841529D01*
X15995043Y-26770100D01*
X16009328Y-26712957D01*
X16023614Y-26684386D01*
X16037900Y-26670100D01*
X16066471Y-26655814D01*
X16423614Y-26755814D02*
X16423614Y-26955814D01*
X16352186Y-26641529D02*
X16280757Y-26855814D01*
X16466471Y-26855814D01*
X16552186Y-26655814D02*
X16752186Y-26655814D01*
X16623614Y-26955814D01*
X16852186Y-26655814D02*
X16852186Y-26712957D01*
X16966471Y-26655814D02*
X16966471Y-26712957D01*
X17409328Y-27070100D02*
X17395043Y-27055814D01*
X17366471Y-27012957D01*
X17352186Y-26984386D01*
X17337900Y-26941529D01*
X17323614Y-26870100D01*
X17323614Y-26812957D01*
X17337900Y-26741529D01*
X17352186Y-26698671D01*
X17366471Y-26670100D01*
X17395043Y-26627243D01*
X17409328Y-26612957D01*
X17680757Y-26955814D02*
X17509328Y-26955814D01*
X17595043Y-26955814D02*
X17595043Y-26655814D01*
X17566471Y-26698671D01*
X17537900Y-26727243D01*
X17509328Y-26741529D01*
X17852186Y-26784386D02*
X17823614Y-26770100D01*
X17809328Y-26755814D01*
X17795043Y-26727243D01*
X17795043Y-26712957D01*
X17809328Y-26684386D01*
X17823614Y-26670100D01*
X17852186Y-26655814D01*
X17909328Y-26655814D01*
X17937900Y-26670100D01*
X17952186Y-26684386D01*
X17966471Y-26712957D01*
X17966471Y-26727243D01*
X17952186Y-26755814D01*
X17937900Y-26770100D01*
X17909328Y-26784386D01*
X17852186Y-26784386D01*
X17823614Y-26798671D01*
X17809328Y-26812957D01*
X17795043Y-26841529D01*
X17795043Y-26898671D01*
X17809328Y-26927243D01*
X17823614Y-26941529D01*
X17852186Y-26955814D01*
X17909328Y-26955814D01*
X17937900Y-26941529D01*
X17952186Y-26927243D01*
X17966471Y-26898671D01*
X17966471Y-26841529D01*
X17952186Y-26812957D01*
X17937900Y-26798671D01*
X17909328Y-26784386D01*
X18323614Y-26955814D02*
X18323614Y-26655814D01*
X18452186Y-26955814D02*
X18452186Y-26798671D01*
X18437900Y-26770100D01*
X18409328Y-26755814D01*
X18366471Y-26755814D01*
X18337900Y-26770100D01*
X18323614Y-26784386D01*
X18637900Y-26955814D02*
X18609328Y-26941529D01*
X18595043Y-26927243D01*
X18580757Y-26898671D01*
X18580757Y-26812957D01*
X18595043Y-26784386D01*
X18609328Y-26770100D01*
X18637900Y-26755814D01*
X18680757Y-26755814D01*
X18709328Y-26770100D01*
X18723614Y-26784386D01*
X18737900Y-26812957D01*
X18737900Y-26898671D01*
X18723614Y-26927243D01*
X18709328Y-26941529D01*
X18680757Y-26955814D01*
X18637900Y-26955814D01*
X18909328Y-26955814D02*
X18880757Y-26941529D01*
X18866471Y-26912957D01*
X18866471Y-26655814D01*
X19137900Y-26941529D02*
X19109328Y-26955814D01*
X19052186Y-26955814D01*
X19023614Y-26941529D01*
X19009328Y-26912957D01*
X19009328Y-26798671D01*
X19023614Y-26770100D01*
X19052186Y-26755814D01*
X19109328Y-26755814D01*
X19137900Y-26770100D01*
X19152186Y-26798671D01*
X19152186Y-26827243D01*
X19009328Y-26855814D01*
X19266471Y-26941529D02*
X19295043Y-26955814D01*
X19352186Y-26955814D01*
X19380757Y-26941529D01*
X19395043Y-26912957D01*
X19395043Y-26898671D01*
X19380757Y-26870100D01*
X19352186Y-26855814D01*
X19309328Y-26855814D01*
X19280757Y-26841529D01*
X19266471Y-26812957D01*
X19266471Y-26798671D01*
X19280757Y-26770100D01*
X19309328Y-26755814D01*
X19352186Y-26755814D01*
X19380757Y-26770100D01*
X19495043Y-27070100D02*
X19509328Y-27055814D01*
X19537900Y-27012957D01*
X19552186Y-26984386D01*
X19566471Y-26941529D01*
X19580757Y-26870100D01*
X19580757Y-26812957D01*
X19566471Y-26741529D01*
X19552186Y-26698671D01*
X19537900Y-26670100D01*
X19509328Y-26627243D01*
X19495043Y-26612957D01*
X12653400Y-27146600D02*
X12653400Y-27285600D01*
X12583900Y-27216100D02*
X12722900Y-27216100D01*
X12722900Y-27216100D02*
G75*
G03*
X12722900Y-27216100I-69500J0D01*
G01*
X13166471Y-27351814D02*
X12995043Y-27351814D01*
X13080757Y-27351814D02*
X13080757Y-27051814D01*
X13052186Y-27094671D01*
X13023614Y-27123243D01*
X12995043Y-27137529D01*
X13295043Y-27323243D02*
X13309328Y-27337529D01*
X13295043Y-27351814D01*
X13280757Y-27337529D01*
X13295043Y-27323243D01*
X13295043Y-27351814D01*
X13409328Y-27051814D02*
X13595043Y-27051814D01*
X13495043Y-27166100D01*
X13537900Y-27166100D01*
X13566471Y-27180386D01*
X13580757Y-27194671D01*
X13595043Y-27223243D01*
X13595043Y-27294671D01*
X13580757Y-27323243D01*
X13566471Y-27337529D01*
X13537900Y-27351814D01*
X13452186Y-27351814D01*
X13423614Y-27337529D01*
X13409328Y-27323243D01*
X13737900Y-27351814D02*
X13795043Y-27351814D01*
X13823614Y-27337529D01*
X13837900Y-27323243D01*
X13866471Y-27280386D01*
X13880757Y-27223243D01*
X13880757Y-27108957D01*
X13866471Y-27080386D01*
X13852186Y-27066100D01*
X13823614Y-27051814D01*
X13766471Y-27051814D01*
X13737900Y-27066100D01*
X13723614Y-27080386D01*
X13709328Y-27108957D01*
X13709328Y-27180386D01*
X13723614Y-27208957D01*
X13737900Y-27223243D01*
X13766471Y-27237529D01*
X13823614Y-27237529D01*
X13852186Y-27223243D01*
X13866471Y-27208957D01*
X13880757Y-27180386D01*
X14009328Y-27351814D02*
X14009328Y-27151814D01*
X14009328Y-27180386D02*
X14023614Y-27166100D01*
X14052186Y-27151814D01*
X14095043Y-27151814D01*
X14123614Y-27166100D01*
X14137900Y-27194671D01*
X14137900Y-27351814D01*
X14137900Y-27194671D02*
X14152186Y-27166100D01*
X14180757Y-27151814D01*
X14223614Y-27151814D01*
X14252186Y-27166100D01*
X14266471Y-27194671D01*
X14266471Y-27351814D01*
X14409328Y-27351814D02*
X14409328Y-27151814D01*
X14409328Y-27180386D02*
X14423614Y-27166100D01*
X14452186Y-27151814D01*
X14495043Y-27151814D01*
X14523614Y-27166100D01*
X14537900Y-27194671D01*
X14537900Y-27351814D01*
X14537900Y-27194671D02*
X14552186Y-27166100D01*
X14580757Y-27151814D01*
X14623614Y-27151814D01*
X14652186Y-27166100D01*
X14666471Y-27194671D01*
X14666471Y-27351814D01*
X15252186Y-27037529D02*
X14995043Y-27423243D01*
X15637900Y-27051814D02*
X15666471Y-27051814D01*
X15695043Y-27066100D01*
X15709328Y-27080386D01*
X15723614Y-27108957D01*
X15737900Y-27166100D01*
X15737900Y-27237529D01*
X15723614Y-27294671D01*
X15709328Y-27323243D01*
X15695043Y-27337529D01*
X15666471Y-27351814D01*
X15637900Y-27351814D01*
X15609328Y-27337529D01*
X15595043Y-27323243D01*
X15580757Y-27294671D01*
X15566471Y-27237529D01*
X15566471Y-27166100D01*
X15580757Y-27108957D01*
X15595043Y-27080386D01*
X15609328Y-27066100D01*
X15637900Y-27051814D01*
X15866471Y-27323243D02*
X15880757Y-27337529D01*
X15866471Y-27351814D01*
X15852186Y-27337529D01*
X15866471Y-27323243D01*
X15866471Y-27351814D01*
X16066471Y-27051814D02*
X16095043Y-27051814D01*
X16123614Y-27066100D01*
X16137900Y-27080386D01*
X16152186Y-27108957D01*
X16166471Y-27166100D01*
X16166471Y-27237529D01*
X16152186Y-27294671D01*
X16137900Y-27323243D01*
X16123614Y-27337529D01*
X16095043Y-27351814D01*
X16066471Y-27351814D01*
X16037900Y-27337529D01*
X16023614Y-27323243D01*
X16009328Y-27294671D01*
X15995043Y-27237529D01*
X15995043Y-27166100D01*
X16009328Y-27108957D01*
X16023614Y-27080386D01*
X16037900Y-27066100D01*
X16066471Y-27051814D01*
X16437900Y-27051814D02*
X16295043Y-27051814D01*
X16280757Y-27194671D01*
X16295043Y-27180386D01*
X16323614Y-27166100D01*
X16395043Y-27166100D01*
X16423614Y-27180386D01*
X16437900Y-27194671D01*
X16452186Y-27223243D01*
X16452186Y-27294671D01*
X16437900Y-27323243D01*
X16423614Y-27337529D01*
X16395043Y-27351814D01*
X16323614Y-27351814D01*
X16295043Y-27337529D01*
X16280757Y-27323243D01*
X16723614Y-27051814D02*
X16580757Y-27051814D01*
X16566471Y-27194671D01*
X16580757Y-27180386D01*
X16609328Y-27166100D01*
X16680757Y-27166100D01*
X16709328Y-27180386D01*
X16723614Y-27194671D01*
X16737900Y-27223243D01*
X16737900Y-27294671D01*
X16723614Y-27323243D01*
X16709328Y-27337529D01*
X16680757Y-27351814D01*
X16609328Y-27351814D01*
X16580757Y-27337529D01*
X16566471Y-27323243D01*
X16852186Y-27051814D02*
X16852186Y-27108957D01*
X16966471Y-27051814D02*
X16966471Y-27108957D01*
X17409328Y-27466100D02*
X17395043Y-27451814D01*
X17366471Y-27408957D01*
X17352186Y-27380386D01*
X17337900Y-27337529D01*
X17323614Y-27266100D01*
X17323614Y-27208957D01*
X17337900Y-27137529D01*
X17352186Y-27094671D01*
X17366471Y-27066100D01*
X17395043Y-27023243D01*
X17409328Y-27008957D01*
X17509328Y-27080386D02*
X17523614Y-27066100D01*
X17552186Y-27051814D01*
X17623614Y-27051814D01*
X17652186Y-27066100D01*
X17666471Y-27080386D01*
X17680757Y-27108957D01*
X17680757Y-27137529D01*
X17666471Y-27180386D01*
X17495043Y-27351814D01*
X17680757Y-27351814D01*
X18037900Y-27351814D02*
X18037900Y-27051814D01*
X18166471Y-27351814D02*
X18166471Y-27194671D01*
X18152186Y-27166100D01*
X18123614Y-27151814D01*
X18080757Y-27151814D01*
X18052186Y-27166100D01*
X18037900Y-27180386D01*
X18352186Y-27351814D02*
X18323614Y-27337529D01*
X18309328Y-27323243D01*
X18295043Y-27294671D01*
X18295043Y-27208957D01*
X18309328Y-27180386D01*
X18323614Y-27166100D01*
X18352186Y-27151814D01*
X18395043Y-27151814D01*
X18423614Y-27166100D01*
X18437900Y-27180386D01*
X18452186Y-27208957D01*
X18452186Y-27294671D01*
X18437900Y-27323243D01*
X18423614Y-27337529D01*
X18395043Y-27351814D01*
X18352186Y-27351814D01*
X18623614Y-27351814D02*
X18595043Y-27337529D01*
X18580757Y-27308957D01*
X18580757Y-27051814D01*
X18852186Y-27337529D02*
X18823614Y-27351814D01*
X18766471Y-27351814D01*
X18737900Y-27337529D01*
X18723614Y-27308957D01*
X18723614Y-27194671D01*
X18737900Y-27166100D01*
X18766471Y-27151814D01*
X18823614Y-27151814D01*
X18852186Y-27166100D01*
X18866471Y-27194671D01*
X18866471Y-27223243D01*
X18723614Y-27251814D01*
X18980757Y-27337529D02*
X19009328Y-27351814D01*
X19066471Y-27351814D01*
X19095043Y-27337529D01*
X19109328Y-27308957D01*
X19109328Y-27294671D01*
X19095043Y-27266100D01*
X19066471Y-27251814D01*
X19023614Y-27251814D01*
X18995043Y-27237529D01*
X18980757Y-27208957D01*
X18980757Y-27194671D01*
X18995043Y-27166100D01*
X19023614Y-27151814D01*
X19066471Y-27151814D01*
X19095043Y-27166100D01*
X19209328Y-27466100D02*
X19223614Y-27451814D01*
X19252186Y-27408957D01*
X19266471Y-27380386D01*
X19280757Y-27337529D01*
X19295043Y-27266100D01*
X19295043Y-27208957D01*
X19280757Y-27137529D01*
X19266471Y-27094671D01*
X19252186Y-27066100D01*
X19223614Y-27023243D01*
X19209328Y-27008957D01*
X12696540Y-27675740D02*
X12696540Y-27548460D01*
X12569260Y-27548460D01*
X12569260Y-27675740D01*
X12696540Y-27675740D01*
X12722900Y-27612100D02*
G75*
G03*
X12722900Y-27612100I-90000J0D01*
G01*
X13166471Y-27747814D02*
X12995043Y-27747814D01*
X13080757Y-27747814D02*
X13080757Y-27447814D01*
X13052186Y-27490671D01*
X13023614Y-27519243D01*
X12995043Y-27533529D01*
X13295043Y-27719243D02*
X13309328Y-27733529D01*
X13295043Y-27747814D01*
X13280757Y-27733529D01*
X13295043Y-27719243D01*
X13295043Y-27747814D01*
X13480757Y-27576386D02*
X13452186Y-27562100D01*
X13437900Y-27547814D01*
X13423614Y-27519243D01*
X13423614Y-27504957D01*
X13437900Y-27476386D01*
X13452186Y-27462100D01*
X13480757Y-27447814D01*
X13537900Y-27447814D01*
X13566471Y-27462100D01*
X13580757Y-27476386D01*
X13595043Y-27504957D01*
X13595043Y-27519243D01*
X13580757Y-27547814D01*
X13566471Y-27562100D01*
X13537900Y-27576386D01*
X13480757Y-27576386D01*
X13452186Y-27590671D01*
X13437900Y-27604957D01*
X13423614Y-27633529D01*
X13423614Y-27690671D01*
X13437900Y-27719243D01*
X13452186Y-27733529D01*
X13480757Y-27747814D01*
X13537900Y-27747814D01*
X13566471Y-27733529D01*
X13580757Y-27719243D01*
X13595043Y-27690671D01*
X13595043Y-27633529D01*
X13580757Y-27604957D01*
X13566471Y-27590671D01*
X13537900Y-27576386D01*
X13780757Y-27447814D02*
X13809328Y-27447814D01*
X13837900Y-27462100D01*
X13852186Y-27476386D01*
X13866471Y-27504957D01*
X13880757Y-27562100D01*
X13880757Y-27633529D01*
X13866471Y-27690671D01*
X13852186Y-27719243D01*
X13837900Y-27733529D01*
X13809328Y-27747814D01*
X13780757Y-27747814D01*
X13752186Y-27733529D01*
X13737900Y-27719243D01*
X13723614Y-27690671D01*
X13709328Y-27633529D01*
X13709328Y-27562100D01*
X13723614Y-27504957D01*
X13737900Y-27476386D01*
X13752186Y-27462100D01*
X13780757Y-27447814D01*
X14009328Y-27747814D02*
X14009328Y-27547814D01*
X14009328Y-27576386D02*
X14023614Y-27562100D01*
X14052186Y-27547814D01*
X14095043Y-27547814D01*
X14123614Y-27562100D01*
X14137900Y-27590671D01*
X14137900Y-27747814D01*
X14137900Y-27590671D02*
X14152186Y-27562100D01*
X14180757Y-27547814D01*
X14223614Y-27547814D01*
X14252186Y-27562100D01*
X14266471Y-27590671D01*
X14266471Y-27747814D01*
X14409328Y-27747814D02*
X14409328Y-27547814D01*
X14409328Y-27576386D02*
X14423614Y-27562100D01*
X14452186Y-27547814D01*
X14495043Y-27547814D01*
X14523614Y-27562100D01*
X14537900Y-27590671D01*
X14537900Y-27747814D01*
X14537900Y-27590671D02*
X14552186Y-27562100D01*
X14580757Y-27547814D01*
X14623614Y-27547814D01*
X14652186Y-27562100D01*
X14666471Y-27590671D01*
X14666471Y-27747814D01*
X15252186Y-27433529D02*
X14995043Y-27819243D01*
X15637900Y-27447814D02*
X15666471Y-27447814D01*
X15695043Y-27462100D01*
X15709328Y-27476386D01*
X15723614Y-27504957D01*
X15737900Y-27562100D01*
X15737900Y-27633529D01*
X15723614Y-27690671D01*
X15709328Y-27719243D01*
X15695043Y-27733529D01*
X15666471Y-27747814D01*
X15637900Y-27747814D01*
X15609328Y-27733529D01*
X15595043Y-27719243D01*
X15580757Y-27690671D01*
X15566471Y-27633529D01*
X15566471Y-27562100D01*
X15580757Y-27504957D01*
X15595043Y-27476386D01*
X15609328Y-27462100D01*
X15637900Y-27447814D01*
X15866471Y-27719243D02*
X15880757Y-27733529D01*
X15866471Y-27747814D01*
X15852186Y-27733529D01*
X15866471Y-27719243D01*
X15866471Y-27747814D01*
X16066471Y-27447814D02*
X16095043Y-27447814D01*
X16123614Y-27462100D01*
X16137900Y-27476386D01*
X16152186Y-27504957D01*
X16166471Y-27562100D01*
X16166471Y-27633529D01*
X16152186Y-27690671D01*
X16137900Y-27719243D01*
X16123614Y-27733529D01*
X16095043Y-27747814D01*
X16066471Y-27747814D01*
X16037900Y-27733529D01*
X16023614Y-27719243D01*
X16009328Y-27690671D01*
X15995043Y-27633529D01*
X15995043Y-27562100D01*
X16009328Y-27504957D01*
X16023614Y-27476386D01*
X16037900Y-27462100D01*
X16066471Y-27447814D01*
X16266471Y-27447814D02*
X16466471Y-27447814D01*
X16337900Y-27747814D01*
X16737900Y-27747814D02*
X16566471Y-27747814D01*
X16652186Y-27747814D02*
X16652186Y-27447814D01*
X16623614Y-27490671D01*
X16595043Y-27519243D01*
X16566471Y-27533529D01*
X16852186Y-27447814D02*
X16852186Y-27504957D01*
X16966471Y-27447814D02*
X16966471Y-27504957D01*
X17409328Y-27862100D02*
X17395043Y-27847814D01*
X17366471Y-27804957D01*
X17352186Y-27776386D01*
X17337900Y-27733529D01*
X17323614Y-27662100D01*
X17323614Y-27604957D01*
X17337900Y-27533529D01*
X17352186Y-27490671D01*
X17366471Y-27462100D01*
X17395043Y-27419243D01*
X17409328Y-27404957D01*
X17509328Y-27476386D02*
X17523614Y-27462100D01*
X17552186Y-27447814D01*
X17623614Y-27447814D01*
X17652186Y-27462100D01*
X17666471Y-27476386D01*
X17680757Y-27504957D01*
X17680757Y-27533529D01*
X17666471Y-27576386D01*
X17495043Y-27747814D01*
X17680757Y-27747814D01*
X17937900Y-27547814D02*
X17937900Y-27747814D01*
X17866471Y-27433529D02*
X17795043Y-27647814D01*
X17980757Y-27647814D01*
X18323614Y-27747814D02*
X18323614Y-27447814D01*
X18452186Y-27747814D02*
X18452186Y-27590671D01*
X18437900Y-27562100D01*
X18409328Y-27547814D01*
X18366471Y-27547814D01*
X18337900Y-27562100D01*
X18323614Y-27576386D01*
X18637900Y-27747814D02*
X18609328Y-27733529D01*
X18595043Y-27719243D01*
X18580757Y-27690671D01*
X18580757Y-27604957D01*
X18595043Y-27576386D01*
X18609328Y-27562100D01*
X18637900Y-27547814D01*
X18680757Y-27547814D01*
X18709328Y-27562100D01*
X18723614Y-27576386D01*
X18737900Y-27604957D01*
X18737900Y-27690671D01*
X18723614Y-27719243D01*
X18709328Y-27733529D01*
X18680757Y-27747814D01*
X18637900Y-27747814D01*
X18909328Y-27747814D02*
X18880757Y-27733529D01*
X18866471Y-27704957D01*
X18866471Y-27447814D01*
X19137900Y-27733529D02*
X19109328Y-27747814D01*
X19052186Y-27747814D01*
X19023614Y-27733529D01*
X19009328Y-27704957D01*
X19009328Y-27590671D01*
X19023614Y-27562100D01*
X19052186Y-27547814D01*
X19109328Y-27547814D01*
X19137900Y-27562100D01*
X19152186Y-27590671D01*
X19152186Y-27619243D01*
X19009328Y-27647814D01*
X19266471Y-27733529D02*
X19295043Y-27747814D01*
X19352186Y-27747814D01*
X19380757Y-27733529D01*
X19395043Y-27704957D01*
X19395043Y-27690671D01*
X19380757Y-27662100D01*
X19352186Y-27647814D01*
X19309328Y-27647814D01*
X19280757Y-27633529D01*
X19266471Y-27604957D01*
X19266471Y-27590671D01*
X19280757Y-27562100D01*
X19309328Y-27547814D01*
X19352186Y-27547814D01*
X19380757Y-27562100D01*
X19495043Y-27862100D02*
X19509328Y-27847814D01*
X19537900Y-27804957D01*
X19552186Y-27776386D01*
X19566471Y-27733529D01*
X19580757Y-27662100D01*
X19580757Y-27604957D01*
X19566471Y-27533529D01*
X19552186Y-27490671D01*
X19537900Y-27462100D01*
X19509328Y-27419243D01*
X19495043Y-27404957D01*
X12607900Y-28123100D02*
X12722900Y-28008100D01*
X12607900Y-27893100D01*
X12492900Y-28008100D01*
X12607900Y-28123100D01*
X12722900Y-28008100D02*
G75*
G03*
X12722900Y-28008100I-115000J0D01*
G01*
X12995043Y-27872386D02*
X13009328Y-27858100D01*
X13037900Y-27843814D01*
X13109328Y-27843814D01*
X13137900Y-27858100D01*
X13152186Y-27872386D01*
X13166471Y-27900957D01*
X13166471Y-27929529D01*
X13152186Y-27972386D01*
X12980757Y-28143814D01*
X13166471Y-28143814D01*
X13295043Y-28115243D02*
X13309328Y-28129529D01*
X13295043Y-28143814D01*
X13280757Y-28129529D01*
X13295043Y-28115243D01*
X13295043Y-28143814D01*
X13409328Y-27843814D02*
X13595043Y-27843814D01*
X13495043Y-27958100D01*
X13537900Y-27958100D01*
X13566471Y-27972386D01*
X13580757Y-27986671D01*
X13595043Y-28015243D01*
X13595043Y-28086671D01*
X13580757Y-28115243D01*
X13566471Y-28129529D01*
X13537900Y-28143814D01*
X13452186Y-28143814D01*
X13423614Y-28129529D01*
X13409328Y-28115243D01*
X13780757Y-27843814D02*
X13809328Y-27843814D01*
X13837900Y-27858100D01*
X13852186Y-27872386D01*
X13866471Y-27900957D01*
X13880757Y-27958100D01*
X13880757Y-28029529D01*
X13866471Y-28086671D01*
X13852186Y-28115243D01*
X13837900Y-28129529D01*
X13809328Y-28143814D01*
X13780757Y-28143814D01*
X13752186Y-28129529D01*
X13737900Y-28115243D01*
X13723614Y-28086671D01*
X13709328Y-28029529D01*
X13709328Y-27958100D01*
X13723614Y-27900957D01*
X13737900Y-27872386D01*
X13752186Y-27858100D01*
X13780757Y-27843814D01*
X14009328Y-28143814D02*
X14009328Y-27943814D01*
X14009328Y-27972386D02*
X14023614Y-27958100D01*
X14052186Y-27943814D01*
X14095043Y-27943814D01*
X14123614Y-27958100D01*
X14137900Y-27986671D01*
X14137900Y-28143814D01*
X14137900Y-27986671D02*
X14152186Y-27958100D01*
X14180757Y-27943814D01*
X14223614Y-27943814D01*
X14252186Y-27958100D01*
X14266471Y-27986671D01*
X14266471Y-28143814D01*
X14409328Y-28143814D02*
X14409328Y-27943814D01*
X14409328Y-27972386D02*
X14423614Y-27958100D01*
X14452186Y-27943814D01*
X14495043Y-27943814D01*
X14523614Y-27958100D01*
X14537900Y-27986671D01*
X14537900Y-28143814D01*
X14537900Y-27986671D02*
X14552186Y-27958100D01*
X14580757Y-27943814D01*
X14623614Y-27943814D01*
X14652186Y-27958100D01*
X14666471Y-27986671D01*
X14666471Y-28143814D01*
X15252186Y-27829529D02*
X14995043Y-28215243D01*
X15637900Y-27843814D02*
X15666471Y-27843814D01*
X15695043Y-27858100D01*
X15709328Y-27872386D01*
X15723614Y-27900957D01*
X15737900Y-27958100D01*
X15737900Y-28029529D01*
X15723614Y-28086671D01*
X15709328Y-28115243D01*
X15695043Y-28129529D01*
X15666471Y-28143814D01*
X15637900Y-28143814D01*
X15609328Y-28129529D01*
X15595043Y-28115243D01*
X15580757Y-28086671D01*
X15566471Y-28029529D01*
X15566471Y-27958100D01*
X15580757Y-27900957D01*
X15595043Y-27872386D01*
X15609328Y-27858100D01*
X15637900Y-27843814D01*
X15866471Y-28115243D02*
X15880757Y-28129529D01*
X15866471Y-28143814D01*
X15852186Y-28129529D01*
X15866471Y-28115243D01*
X15866471Y-28143814D01*
X16066471Y-27843814D02*
X16095043Y-27843814D01*
X16123614Y-27858100D01*
X16137900Y-27872386D01*
X16152186Y-27900957D01*
X16166471Y-27958100D01*
X16166471Y-28029529D01*
X16152186Y-28086671D01*
X16137900Y-28115243D01*
X16123614Y-28129529D01*
X16095043Y-28143814D01*
X16066471Y-28143814D01*
X16037900Y-28129529D01*
X16023614Y-28115243D01*
X16009328Y-28086671D01*
X15995043Y-28029529D01*
X15995043Y-27958100D01*
X16009328Y-27900957D01*
X16023614Y-27872386D01*
X16037900Y-27858100D01*
X16066471Y-27843814D01*
X16309328Y-28143814D02*
X16366471Y-28143814D01*
X16395043Y-28129529D01*
X16409328Y-28115243D01*
X16437900Y-28072386D01*
X16452186Y-28015243D01*
X16452186Y-27900957D01*
X16437900Y-27872386D01*
X16423614Y-27858100D01*
X16395043Y-27843814D01*
X16337900Y-27843814D01*
X16309328Y-27858100D01*
X16295043Y-27872386D01*
X16280757Y-27900957D01*
X16280757Y-27972386D01*
X16295043Y-28000957D01*
X16309328Y-28015243D01*
X16337900Y-28029529D01*
X16395043Y-28029529D01*
X16423614Y-28015243D01*
X16437900Y-28000957D01*
X16452186Y-27972386D01*
X16737900Y-28143814D02*
X16566471Y-28143814D01*
X16652186Y-28143814D02*
X16652186Y-27843814D01*
X16623614Y-27886671D01*
X16595043Y-27915243D01*
X16566471Y-27929529D01*
X16852186Y-27843814D02*
X16852186Y-27900957D01*
X16966471Y-27843814D02*
X16966471Y-27900957D01*
X17409328Y-28258100D02*
X17395043Y-28243814D01*
X17366471Y-28200957D01*
X17352186Y-28172386D01*
X17337900Y-28129529D01*
X17323614Y-28058100D01*
X17323614Y-28000957D01*
X17337900Y-27929529D01*
X17352186Y-27886671D01*
X17366471Y-27858100D01*
X17395043Y-27815243D01*
X17409328Y-27800957D01*
X17666471Y-27843814D02*
X17523614Y-27843814D01*
X17509328Y-27986671D01*
X17523614Y-27972386D01*
X17552186Y-27958100D01*
X17623614Y-27958100D01*
X17652186Y-27972386D01*
X17666471Y-27986671D01*
X17680757Y-28015243D01*
X17680757Y-28086671D01*
X17666471Y-28115243D01*
X17652186Y-28129529D01*
X17623614Y-28143814D01*
X17552186Y-28143814D01*
X17523614Y-28129529D01*
X17509328Y-28115243D01*
X18037900Y-28143814D02*
X18037900Y-27843814D01*
X18166471Y-28143814D02*
X18166471Y-27986671D01*
X18152186Y-27958100D01*
X18123614Y-27943814D01*
X18080757Y-27943814D01*
X18052186Y-27958100D01*
X18037900Y-27972386D01*
X18352186Y-28143814D02*
X18323614Y-28129529D01*
X18309328Y-28115243D01*
X18295043Y-28086671D01*
X18295043Y-28000957D01*
X18309328Y-27972386D01*
X18323614Y-27958100D01*
X18352186Y-27943814D01*
X18395043Y-27943814D01*
X18423614Y-27958100D01*
X18437900Y-27972386D01*
X18452186Y-28000957D01*
X18452186Y-28086671D01*
X18437900Y-28115243D01*
X18423614Y-28129529D01*
X18395043Y-28143814D01*
X18352186Y-28143814D01*
X18623614Y-28143814D02*
X18595043Y-28129529D01*
X18580757Y-28100957D01*
X18580757Y-27843814D01*
X18852186Y-28129529D02*
X18823614Y-28143814D01*
X18766471Y-28143814D01*
X18737900Y-28129529D01*
X18723614Y-28100957D01*
X18723614Y-27986671D01*
X18737900Y-27958100D01*
X18766471Y-27943814D01*
X18823614Y-27943814D01*
X18852186Y-27958100D01*
X18866471Y-27986671D01*
X18866471Y-28015243D01*
X18723614Y-28043814D01*
X18980757Y-28129529D02*
X19009328Y-28143814D01*
X19066471Y-28143814D01*
X19095043Y-28129529D01*
X19109328Y-28100957D01*
X19109328Y-28086671D01*
X19095043Y-28058100D01*
X19066471Y-28043814D01*
X19023614Y-28043814D01*
X18995043Y-28029529D01*
X18980757Y-28000957D01*
X18980757Y-27986671D01*
X18995043Y-27958100D01*
X19023614Y-27943814D01*
X19066471Y-27943814D01*
X19095043Y-27958100D01*
X19209328Y-28258100D02*
X19223614Y-28243814D01*
X19252186Y-28200957D01*
X19266471Y-28172386D01*
X19280757Y-28129529D01*
X19295043Y-28058100D01*
X19295043Y-28000957D01*
X19280757Y-27929529D01*
X19266471Y-27886671D01*
X19252186Y-27858100D01*
X19223614Y-27815243D01*
X19209328Y-27800957D01*
X12570400Y-28251600D02*
X12570400Y-28556600D01*
X12417900Y-28404100D02*
X12722900Y-28404100D01*
X12678235Y-28511935D02*
X12678235Y-28296265D01*
X12462565Y-28296265D01*
X12462565Y-28511935D01*
X12678235Y-28511935D01*
X12980757Y-28239814D02*
X13166471Y-28239814D01*
X13066471Y-28354100D01*
X13109328Y-28354100D01*
X13137900Y-28368386D01*
X13152186Y-28382671D01*
X13166471Y-28411243D01*
X13166471Y-28482671D01*
X13152186Y-28511243D01*
X13137900Y-28525529D01*
X13109328Y-28539814D01*
X13023614Y-28539814D01*
X12995043Y-28525529D01*
X12980757Y-28511243D01*
X13295043Y-28511243D02*
X13309328Y-28525529D01*
X13295043Y-28539814D01*
X13280757Y-28525529D01*
X13295043Y-28511243D01*
X13295043Y-28539814D01*
X13495043Y-28239814D02*
X13523614Y-28239814D01*
X13552186Y-28254100D01*
X13566471Y-28268386D01*
X13580757Y-28296957D01*
X13595043Y-28354100D01*
X13595043Y-28425529D01*
X13580757Y-28482671D01*
X13566471Y-28511243D01*
X13552186Y-28525529D01*
X13523614Y-28539814D01*
X13495043Y-28539814D01*
X13466471Y-28525529D01*
X13452186Y-28511243D01*
X13437900Y-28482671D01*
X13423614Y-28425529D01*
X13423614Y-28354100D01*
X13437900Y-28296957D01*
X13452186Y-28268386D01*
X13466471Y-28254100D01*
X13495043Y-28239814D01*
X13866471Y-28239814D02*
X13723614Y-28239814D01*
X13709328Y-28382671D01*
X13723614Y-28368386D01*
X13752186Y-28354100D01*
X13823614Y-28354100D01*
X13852186Y-28368386D01*
X13866471Y-28382671D01*
X13880757Y-28411243D01*
X13880757Y-28482671D01*
X13866471Y-28511243D01*
X13852186Y-28525529D01*
X13823614Y-28539814D01*
X13752186Y-28539814D01*
X13723614Y-28525529D01*
X13709328Y-28511243D01*
X14009328Y-28539814D02*
X14009328Y-28339814D01*
X14009328Y-28368386D02*
X14023614Y-28354100D01*
X14052186Y-28339814D01*
X14095043Y-28339814D01*
X14123614Y-28354100D01*
X14137900Y-28382671D01*
X14137900Y-28539814D01*
X14137900Y-28382671D02*
X14152186Y-28354100D01*
X14180757Y-28339814D01*
X14223614Y-28339814D01*
X14252186Y-28354100D01*
X14266471Y-28382671D01*
X14266471Y-28539814D01*
X14409328Y-28539814D02*
X14409328Y-28339814D01*
X14409328Y-28368386D02*
X14423614Y-28354100D01*
X14452186Y-28339814D01*
X14495043Y-28339814D01*
X14523614Y-28354100D01*
X14537900Y-28382671D01*
X14537900Y-28539814D01*
X14537900Y-28382671D02*
X14552186Y-28354100D01*
X14580757Y-28339814D01*
X14623614Y-28339814D01*
X14652186Y-28354100D01*
X14666471Y-28382671D01*
X14666471Y-28539814D01*
X15252186Y-28225529D02*
X14995043Y-28611243D01*
X15637900Y-28239814D02*
X15666471Y-28239814D01*
X15695043Y-28254100D01*
X15709328Y-28268386D01*
X15723614Y-28296957D01*
X15737900Y-28354100D01*
X15737900Y-28425529D01*
X15723614Y-28482671D01*
X15709328Y-28511243D01*
X15695043Y-28525529D01*
X15666471Y-28539814D01*
X15637900Y-28539814D01*
X15609328Y-28525529D01*
X15595043Y-28511243D01*
X15580757Y-28482671D01*
X15566471Y-28425529D01*
X15566471Y-28354100D01*
X15580757Y-28296957D01*
X15595043Y-28268386D01*
X15609328Y-28254100D01*
X15637900Y-28239814D01*
X15866471Y-28511243D02*
X15880757Y-28525529D01*
X15866471Y-28539814D01*
X15852186Y-28525529D01*
X15866471Y-28511243D01*
X15866471Y-28539814D01*
X16166471Y-28539814D02*
X15995043Y-28539814D01*
X16080757Y-28539814D02*
X16080757Y-28239814D01*
X16052186Y-28282671D01*
X16023614Y-28311243D01*
X15995043Y-28325529D01*
X16280757Y-28268386D02*
X16295043Y-28254100D01*
X16323614Y-28239814D01*
X16395043Y-28239814D01*
X16423614Y-28254100D01*
X16437900Y-28268386D01*
X16452186Y-28296957D01*
X16452186Y-28325529D01*
X16437900Y-28368386D01*
X16266471Y-28539814D01*
X16452186Y-28539814D01*
X16637900Y-28239814D02*
X16666471Y-28239814D01*
X16695043Y-28254100D01*
X16709328Y-28268386D01*
X16723614Y-28296957D01*
X16737900Y-28354100D01*
X16737900Y-28425529D01*
X16723614Y-28482671D01*
X16709328Y-28511243D01*
X16695043Y-28525529D01*
X16666471Y-28539814D01*
X16637900Y-28539814D01*
X16609328Y-28525529D01*
X16595043Y-28511243D01*
X16580757Y-28482671D01*
X16566471Y-28425529D01*
X16566471Y-28354100D01*
X16580757Y-28296957D01*
X16595043Y-28268386D01*
X16609328Y-28254100D01*
X16637900Y-28239814D01*
X16852186Y-28239814D02*
X16852186Y-28296957D01*
X16966471Y-28239814D02*
X16966471Y-28296957D01*
X17409328Y-28654100D02*
X17395043Y-28639814D01*
X17366471Y-28596957D01*
X17352186Y-28568386D01*
X17337900Y-28525529D01*
X17323614Y-28454100D01*
X17323614Y-28396957D01*
X17337900Y-28325529D01*
X17352186Y-28282671D01*
X17366471Y-28254100D01*
X17395043Y-28211243D01*
X17409328Y-28196957D01*
X17509328Y-28268386D02*
X17523614Y-28254100D01*
X17552186Y-28239814D01*
X17623614Y-28239814D01*
X17652186Y-28254100D01*
X17666471Y-28268386D01*
X17680757Y-28296957D01*
X17680757Y-28325529D01*
X17666471Y-28368386D01*
X17495043Y-28539814D01*
X17680757Y-28539814D01*
X18037900Y-28539814D02*
X18037900Y-28239814D01*
X18166471Y-28539814D02*
X18166471Y-28382671D01*
X18152186Y-28354100D01*
X18123614Y-28339814D01*
X18080757Y-28339814D01*
X18052186Y-28354100D01*
X18037900Y-28368386D01*
X18352186Y-28539814D02*
X18323614Y-28525529D01*
X18309328Y-28511243D01*
X18295043Y-28482671D01*
X18295043Y-28396957D01*
X18309328Y-28368386D01*
X18323614Y-28354100D01*
X18352186Y-28339814D01*
X18395043Y-28339814D01*
X18423614Y-28354100D01*
X18437900Y-28368386D01*
X18452186Y-28396957D01*
X18452186Y-28482671D01*
X18437900Y-28511243D01*
X18423614Y-28525529D01*
X18395043Y-28539814D01*
X18352186Y-28539814D01*
X18623614Y-28539814D02*
X18595043Y-28525529D01*
X18580757Y-28496957D01*
X18580757Y-28239814D01*
X18852186Y-28525529D02*
X18823614Y-28539814D01*
X18766471Y-28539814D01*
X18737900Y-28525529D01*
X18723614Y-28496957D01*
X18723614Y-28382671D01*
X18737900Y-28354100D01*
X18766471Y-28339814D01*
X18823614Y-28339814D01*
X18852186Y-28354100D01*
X18866471Y-28382671D01*
X18866471Y-28411243D01*
X18723614Y-28439814D01*
X18980757Y-28525529D02*
X19009328Y-28539814D01*
X19066471Y-28539814D01*
X19095043Y-28525529D01*
X19109328Y-28496957D01*
X19109328Y-28482671D01*
X19095043Y-28454100D01*
X19066471Y-28439814D01*
X19023614Y-28439814D01*
X18995043Y-28425529D01*
X18980757Y-28396957D01*
X18980757Y-28382671D01*
X18995043Y-28354100D01*
X19023614Y-28339814D01*
X19066471Y-28339814D01*
X19095043Y-28354100D01*
X19209328Y-28654100D02*
X19223614Y-28639814D01*
X19252186Y-28596957D01*
X19266471Y-28568386D01*
X19280757Y-28525529D01*
X19295043Y-28454100D01*
X19295043Y-28396957D01*
X19280757Y-28325529D01*
X19266471Y-28282671D01*
X19252186Y-28254100D01*
X19223614Y-28211243D01*
X19209328Y-28196957D01*
X12564150Y-28680350D02*
X12564150Y-28997850D01*
X12405400Y-28839100D02*
X12722900Y-28839100D01*
X12564150Y-28997850D02*
X12722900Y-28839100D01*
X12564150Y-28680350D01*
X12405400Y-28839100D01*
X12564150Y-28997850D01*
X12980757Y-28674814D02*
X13166471Y-28674814D01*
X13066471Y-28789100D01*
X13109328Y-28789100D01*
X13137900Y-28803386D01*
X13152186Y-28817671D01*
X13166471Y-28846243D01*
X13166471Y-28917671D01*
X13152186Y-28946243D01*
X13137900Y-28960529D01*
X13109328Y-28974814D01*
X13023614Y-28974814D01*
X12995043Y-28960529D01*
X12980757Y-28946243D01*
X13295043Y-28946243D02*
X13309328Y-28960529D01*
X13295043Y-28974814D01*
X13280757Y-28960529D01*
X13295043Y-28946243D01*
X13295043Y-28974814D01*
X13595043Y-28974814D02*
X13423614Y-28974814D01*
X13509328Y-28974814D02*
X13509328Y-28674814D01*
X13480757Y-28717671D01*
X13452186Y-28746243D01*
X13423614Y-28760529D01*
X13695043Y-28674814D02*
X13895043Y-28674814D01*
X13766471Y-28974814D01*
X14009328Y-28974814D02*
X14009328Y-28774814D01*
X14009328Y-28803386D02*
X14023614Y-28789100D01*
X14052186Y-28774814D01*
X14095043Y-28774814D01*
X14123614Y-28789100D01*
X14137900Y-28817671D01*
X14137900Y-28974814D01*
X14137900Y-28817671D02*
X14152186Y-28789100D01*
X14180757Y-28774814D01*
X14223614Y-28774814D01*
X14252186Y-28789100D01*
X14266471Y-28817671D01*
X14266471Y-28974814D01*
X14409328Y-28974814D02*
X14409328Y-28774814D01*
X14409328Y-28803386D02*
X14423614Y-28789100D01*
X14452186Y-28774814D01*
X14495043Y-28774814D01*
X14523614Y-28789100D01*
X14537900Y-28817671D01*
X14537900Y-28974814D01*
X14537900Y-28817671D02*
X14552186Y-28789100D01*
X14580757Y-28774814D01*
X14623614Y-28774814D01*
X14652186Y-28789100D01*
X14666471Y-28817671D01*
X14666471Y-28974814D01*
X15252186Y-28660529D02*
X14995043Y-29046243D01*
X15637900Y-28674814D02*
X15666471Y-28674814D01*
X15695043Y-28689100D01*
X15709328Y-28703386D01*
X15723614Y-28731957D01*
X15737900Y-28789100D01*
X15737900Y-28860529D01*
X15723614Y-28917671D01*
X15709328Y-28946243D01*
X15695043Y-28960529D01*
X15666471Y-28974814D01*
X15637900Y-28974814D01*
X15609328Y-28960529D01*
X15595043Y-28946243D01*
X15580757Y-28917671D01*
X15566471Y-28860529D01*
X15566471Y-28789100D01*
X15580757Y-28731957D01*
X15595043Y-28703386D01*
X15609328Y-28689100D01*
X15637900Y-28674814D01*
X15866471Y-28946243D02*
X15880757Y-28960529D01*
X15866471Y-28974814D01*
X15852186Y-28960529D01*
X15866471Y-28946243D01*
X15866471Y-28974814D01*
X16166471Y-28974814D02*
X15995043Y-28974814D01*
X16080757Y-28974814D02*
X16080757Y-28674814D01*
X16052186Y-28717671D01*
X16023614Y-28746243D01*
X15995043Y-28760529D01*
X16280757Y-28703386D02*
X16295043Y-28689100D01*
X16323614Y-28674814D01*
X16395043Y-28674814D01*
X16423614Y-28689100D01*
X16437900Y-28703386D01*
X16452186Y-28731957D01*
X16452186Y-28760529D01*
X16437900Y-28803386D01*
X16266471Y-28974814D01*
X16452186Y-28974814D01*
X16723614Y-28674814D02*
X16580757Y-28674814D01*
X16566471Y-28817671D01*
X16580757Y-28803386D01*
X16609328Y-28789100D01*
X16680757Y-28789100D01*
X16709328Y-28803386D01*
X16723614Y-28817671D01*
X16737900Y-28846243D01*
X16737900Y-28917671D01*
X16723614Y-28946243D01*
X16709328Y-28960529D01*
X16680757Y-28974814D01*
X16609328Y-28974814D01*
X16580757Y-28960529D01*
X16566471Y-28946243D01*
X16852186Y-28674814D02*
X16852186Y-28731957D01*
X16966471Y-28674814D02*
X16966471Y-28731957D01*
X17409328Y-29089100D02*
X17395043Y-29074814D01*
X17366471Y-29031957D01*
X17352186Y-29003386D01*
X17337900Y-28960529D01*
X17323614Y-28889100D01*
X17323614Y-28831957D01*
X17337900Y-28760529D01*
X17352186Y-28717671D01*
X17366471Y-28689100D01*
X17395043Y-28646243D01*
X17409328Y-28631957D01*
X17652186Y-28774814D02*
X17652186Y-28974814D01*
X17580757Y-28660529D02*
X17509328Y-28874814D01*
X17695043Y-28874814D01*
X18037900Y-28974814D02*
X18037900Y-28674814D01*
X18166471Y-28974814D02*
X18166471Y-28817671D01*
X18152186Y-28789100D01*
X18123614Y-28774814D01*
X18080757Y-28774814D01*
X18052186Y-28789100D01*
X18037900Y-28803386D01*
X18352186Y-28974814D02*
X18323614Y-28960529D01*
X18309328Y-28946243D01*
X18295043Y-28917671D01*
X18295043Y-28831957D01*
X18309328Y-28803386D01*
X18323614Y-28789100D01*
X18352186Y-28774814D01*
X18395043Y-28774814D01*
X18423614Y-28789100D01*
X18437900Y-28803386D01*
X18452186Y-28831957D01*
X18452186Y-28917671D01*
X18437900Y-28946243D01*
X18423614Y-28960529D01*
X18395043Y-28974814D01*
X18352186Y-28974814D01*
X18623614Y-28974814D02*
X18595043Y-28960529D01*
X18580757Y-28931957D01*
X18580757Y-28674814D01*
X18852186Y-28960529D02*
X18823614Y-28974814D01*
X18766471Y-28974814D01*
X18737900Y-28960529D01*
X18723614Y-28931957D01*
X18723614Y-28817671D01*
X18737900Y-28789100D01*
X18766471Y-28774814D01*
X18823614Y-28774814D01*
X18852186Y-28789100D01*
X18866471Y-28817671D01*
X18866471Y-28846243D01*
X18723614Y-28874814D01*
X18980757Y-28960529D02*
X19009328Y-28974814D01*
X19066471Y-28974814D01*
X19095043Y-28960529D01*
X19109328Y-28931957D01*
X19109328Y-28917671D01*
X19095043Y-28889100D01*
X19066471Y-28874814D01*
X19023614Y-28874814D01*
X18995043Y-28860529D01*
X18980757Y-28831957D01*
X18980757Y-28817671D01*
X18995043Y-28789100D01*
X19023614Y-28774814D01*
X19066471Y-28774814D01*
X19095043Y-28789100D01*
X19209328Y-29089100D02*
X19223614Y-29074814D01*
X19252186Y-29031957D01*
X19266471Y-29003386D01*
X19280757Y-28960529D01*
X19295043Y-28889100D01*
X19295043Y-28831957D01*
X19280757Y-28760529D01*
X19266471Y-28717671D01*
X19252186Y-28689100D01*
X19223614Y-28646243D01*
X19209328Y-28631957D01*
X12562900Y-29446600D02*
X12722900Y-29286600D01*
X12562900Y-29126600D01*
X12402900Y-29286600D01*
X12562900Y-29446600D01*
X12676038Y-29399738D02*
X12676038Y-29173462D01*
X12449762Y-29173462D01*
X12449762Y-29399738D01*
X12676038Y-29399738D01*
X12980757Y-29122314D02*
X13166471Y-29122314D01*
X13066471Y-29236600D01*
X13109328Y-29236600D01*
X13137900Y-29250886D01*
X13152186Y-29265171D01*
X13166471Y-29293743D01*
X13166471Y-29365171D01*
X13152186Y-29393743D01*
X13137900Y-29408029D01*
X13109328Y-29422314D01*
X13023614Y-29422314D01*
X12995043Y-29408029D01*
X12980757Y-29393743D01*
X13295043Y-29393743D02*
X13309328Y-29408029D01*
X13295043Y-29422314D01*
X13280757Y-29408029D01*
X13295043Y-29393743D01*
X13295043Y-29422314D01*
X13423614Y-29150886D02*
X13437900Y-29136600D01*
X13466471Y-29122314D01*
X13537900Y-29122314D01*
X13566471Y-29136600D01*
X13580757Y-29150886D01*
X13595043Y-29179457D01*
X13595043Y-29208029D01*
X13580757Y-29250886D01*
X13409328Y-29422314D01*
X13595043Y-29422314D01*
X13780757Y-29122314D02*
X13809328Y-29122314D01*
X13837900Y-29136600D01*
X13852186Y-29150886D01*
X13866471Y-29179457D01*
X13880757Y-29236600D01*
X13880757Y-29308029D01*
X13866471Y-29365171D01*
X13852186Y-29393743D01*
X13837900Y-29408029D01*
X13809328Y-29422314D01*
X13780757Y-29422314D01*
X13752186Y-29408029D01*
X13737900Y-29393743D01*
X13723614Y-29365171D01*
X13709328Y-29308029D01*
X13709328Y-29236600D01*
X13723614Y-29179457D01*
X13737900Y-29150886D01*
X13752186Y-29136600D01*
X13780757Y-29122314D01*
X14009328Y-29422314D02*
X14009328Y-29222314D01*
X14009328Y-29250886D02*
X14023614Y-29236600D01*
X14052186Y-29222314D01*
X14095043Y-29222314D01*
X14123614Y-29236600D01*
X14137900Y-29265171D01*
X14137900Y-29422314D01*
X14137900Y-29265171D02*
X14152186Y-29236600D01*
X14180757Y-29222314D01*
X14223614Y-29222314D01*
X14252186Y-29236600D01*
X14266471Y-29265171D01*
X14266471Y-29422314D01*
X14409328Y-29422314D02*
X14409328Y-29222314D01*
X14409328Y-29250886D02*
X14423614Y-29236600D01*
X14452186Y-29222314D01*
X14495043Y-29222314D01*
X14523614Y-29236600D01*
X14537900Y-29265171D01*
X14537900Y-29422314D01*
X14537900Y-29265171D02*
X14552186Y-29236600D01*
X14580757Y-29222314D01*
X14623614Y-29222314D01*
X14652186Y-29236600D01*
X14666471Y-29265171D01*
X14666471Y-29422314D01*
X15252186Y-29108029D02*
X14995043Y-29493743D01*
X15637900Y-29122314D02*
X15666471Y-29122314D01*
X15695043Y-29136600D01*
X15709328Y-29150886D01*
X15723614Y-29179457D01*
X15737900Y-29236600D01*
X15737900Y-29308029D01*
X15723614Y-29365171D01*
X15709328Y-29393743D01*
X15695043Y-29408029D01*
X15666471Y-29422314D01*
X15637900Y-29422314D01*
X15609328Y-29408029D01*
X15595043Y-29393743D01*
X15580757Y-29365171D01*
X15566471Y-29308029D01*
X15566471Y-29236600D01*
X15580757Y-29179457D01*
X15595043Y-29150886D01*
X15609328Y-29136600D01*
X15637900Y-29122314D01*
X15866471Y-29393743D02*
X15880757Y-29408029D01*
X15866471Y-29422314D01*
X15852186Y-29408029D01*
X15866471Y-29393743D01*
X15866471Y-29422314D01*
X16166471Y-29422314D02*
X15995043Y-29422314D01*
X16080757Y-29422314D02*
X16080757Y-29122314D01*
X16052186Y-29165171D01*
X16023614Y-29193743D01*
X15995043Y-29208029D01*
X16280757Y-29150886D02*
X16295043Y-29136600D01*
X16323614Y-29122314D01*
X16395043Y-29122314D01*
X16423614Y-29136600D01*
X16437900Y-29150886D01*
X16452186Y-29179457D01*
X16452186Y-29208029D01*
X16437900Y-29250886D01*
X16266471Y-29422314D01*
X16452186Y-29422314D01*
X16709328Y-29122314D02*
X16652186Y-29122314D01*
X16623614Y-29136600D01*
X16609328Y-29150886D01*
X16580757Y-29193743D01*
X16566471Y-29250886D01*
X16566471Y-29365171D01*
X16580757Y-29393743D01*
X16595043Y-29408029D01*
X16623614Y-29422314D01*
X16680757Y-29422314D01*
X16709328Y-29408029D01*
X16723614Y-29393743D01*
X16737900Y-29365171D01*
X16737900Y-29293743D01*
X16723614Y-29265171D01*
X16709328Y-29250886D01*
X16680757Y-29236600D01*
X16623614Y-29236600D01*
X16595043Y-29250886D01*
X16580757Y-29265171D01*
X16566471Y-29293743D01*
X16852186Y-29122314D02*
X16852186Y-29179457D01*
X16966471Y-29122314D02*
X16966471Y-29179457D01*
X17409328Y-29536600D02*
X17395043Y-29522314D01*
X17366471Y-29479457D01*
X17352186Y-29450886D01*
X17337900Y-29408029D01*
X17323614Y-29336600D01*
X17323614Y-29279457D01*
X17337900Y-29208029D01*
X17352186Y-29165171D01*
X17366471Y-29136600D01*
X17395043Y-29093743D01*
X17409328Y-29079457D01*
X17652186Y-29122314D02*
X17595043Y-29122314D01*
X17566471Y-29136600D01*
X17552186Y-29150886D01*
X17523614Y-29193743D01*
X17509328Y-29250886D01*
X17509328Y-29365171D01*
X17523614Y-29393743D01*
X17537900Y-29408029D01*
X17566471Y-29422314D01*
X17623614Y-29422314D01*
X17652186Y-29408029D01*
X17666471Y-29393743D01*
X17680757Y-29365171D01*
X17680757Y-29293743D01*
X17666471Y-29265171D01*
X17652186Y-29250886D01*
X17623614Y-29236600D01*
X17566471Y-29236600D01*
X17537900Y-29250886D01*
X17523614Y-29265171D01*
X17509328Y-29293743D01*
X18037900Y-29422314D02*
X18037900Y-29122314D01*
X18166471Y-29422314D02*
X18166471Y-29265171D01*
X18152186Y-29236600D01*
X18123614Y-29222314D01*
X18080757Y-29222314D01*
X18052186Y-29236600D01*
X18037900Y-29250886D01*
X18352186Y-29422314D02*
X18323614Y-29408029D01*
X18309328Y-29393743D01*
X18295043Y-29365171D01*
X18295043Y-29279457D01*
X18309328Y-29250886D01*
X18323614Y-29236600D01*
X18352186Y-29222314D01*
X18395043Y-29222314D01*
X18423614Y-29236600D01*
X18437900Y-29250886D01*
X18452186Y-29279457D01*
X18452186Y-29365171D01*
X18437900Y-29393743D01*
X18423614Y-29408029D01*
X18395043Y-29422314D01*
X18352186Y-29422314D01*
X18623614Y-29422314D02*
X18595043Y-29408029D01*
X18580757Y-29379457D01*
X18580757Y-29122314D01*
X18852186Y-29408029D02*
X18823614Y-29422314D01*
X18766471Y-29422314D01*
X18737900Y-29408029D01*
X18723614Y-29379457D01*
X18723614Y-29265171D01*
X18737900Y-29236600D01*
X18766471Y-29222314D01*
X18823614Y-29222314D01*
X18852186Y-29236600D01*
X18866471Y-29265171D01*
X18866471Y-29293743D01*
X18723614Y-29322314D01*
X18980757Y-29408029D02*
X19009328Y-29422314D01*
X19066471Y-29422314D01*
X19095043Y-29408029D01*
X19109328Y-29379457D01*
X19109328Y-29365171D01*
X19095043Y-29336600D01*
X19066471Y-29322314D01*
X19023614Y-29322314D01*
X18995043Y-29308029D01*
X18980757Y-29279457D01*
X18980757Y-29265171D01*
X18995043Y-29236600D01*
X19023614Y-29222314D01*
X19066471Y-29222314D01*
X19095043Y-29236600D01*
X19209328Y-29536600D02*
X19223614Y-29522314D01*
X19252186Y-29479457D01*
X19266471Y-29450886D01*
X19280757Y-29408029D01*
X19295043Y-29336600D01*
X19295043Y-29279457D01*
X19280757Y-29208029D01*
X19266471Y-29165171D01*
X19252186Y-29136600D01*
X19223614Y-29093743D01*
X19209328Y-29079457D01*
M02*
