%TF.GenerationSoftware,KiCad,Pcbnew,(5.1.6)-1*%
%TF.CreationDate,2024-05-17T16:04:08-04:00*%
%TF.ProjectId,MigStorm-ITX,4d696753-746f-4726-9d2d-4954582e6b69,rev?*%
%TF.SameCoordinates,Original*%
%TF.FileFunction,Soldermask,Top*%
%TF.FilePolarity,Negative*%
%FSLAX46Y46*%
G04 Gerber Fmt 4.6, Leading zero omitted, Abs format (unit mm)*
G04 Created by KiCad (PCBNEW (5.1.6)-1) date 2024-05-17 16:04:08*
%MOMM*%
%LPD*%
G01*
G04 APERTURE LIST*
%ADD10C,6.500000*%
%ADD11C,0.900000*%
%ADD12R,1.700000X3.600000*%
%ADD13R,1.900000X1.900000*%
%ADD14C,1.900000*%
%ADD15R,1.000000X0.900000*%
%ADD16R,1.925000X0.800000*%
%ADD17R,0.700000X1.300000*%
%ADD18R,1.575000X0.400000*%
%ADD19R,1.800000X1.800000*%
%ADD20O,1.800000X1.800000*%
%ADD21R,2.250000X2.250000*%
%ADD22C,2.250000*%
%ADD23R,1.750000X1.750000*%
%ADD24C,1.750000*%
%ADD25C,3.550000*%
%ADD26R,1.200000X2.600000*%
%ADD27R,1.800000X2.400000*%
%ADD28R,2.900000X1.800000*%
%ADD29R,3.400000X1.800000*%
%ADD30R,2.600000X2.700000*%
%ADD31C,2.185000*%
%ADD32C,3.910000*%
%ADD33R,1.300000X1.300000*%
%ADD34C,1.600000*%
%ADD35C,4.900000*%
%ADD36R,2.900000X2.300000*%
%ADD37R,2.700000X2.900000*%
%ADD38C,1.800000*%
%ADD39R,1.885000X1.885000*%
%ADD40C,1.885000*%
%ADD41C,4.675000*%
%ADD42C,0.100000*%
%ADD43R,1.395000X0.700000*%
%ADD44R,5.600000X2.100000*%
%ADD45R,2.100000X4.600000*%
%ADD46R,1.700000X1.700000*%
%ADD47O,1.700000X1.700000*%
%ADD48R,4.350000X2.150000*%
%ADD49R,3.250000X1.900000*%
%ADD50R,1.150000X0.650000*%
G04 APERTURE END LIST*
D10*
%TO.C,REF\u002A\u002A*%
X133604000Y-67030600D03*
D11*
X136004000Y-67030600D03*
X135301056Y-68727656D03*
X133604000Y-69430600D03*
X131906944Y-68727656D03*
X131204000Y-67030600D03*
X131906944Y-65333544D03*
X133604000Y-64630600D03*
X135301056Y-65333544D03*
%TD*%
D10*
%TO.C,REF\u002A\u002A*%
X290880800Y-89890600D03*
D11*
X293280800Y-89890600D03*
X292577856Y-91587656D03*
X290880800Y-92290600D03*
X289183744Y-91587656D03*
X288480800Y-89890600D03*
X289183744Y-88193544D03*
X290880800Y-87490600D03*
X292577856Y-88193544D03*
%TD*%
D10*
%TO.C,REF\u002A\u002A*%
X290880800Y-221970600D03*
D11*
X293280800Y-221970600D03*
X292577856Y-223667656D03*
X290880800Y-224370600D03*
X289183744Y-223667656D03*
X288480800Y-221970600D03*
X289183744Y-220273544D03*
X290880800Y-219570600D03*
X292577856Y-220273544D03*
%TD*%
%TO.C,REF\u002A\u002A*%
X135301056Y-220298944D03*
X133604000Y-219596000D03*
X131906944Y-220298944D03*
X131204000Y-221996000D03*
X131906944Y-223693056D03*
X133604000Y-224396000D03*
X135301056Y-223693056D03*
X136004000Y-221996000D03*
D10*
X133604000Y-221996000D03*
%TD*%
%TO.C,C1*%
G36*
G01*
X240675000Y-171547262D02*
X240675000Y-170590738D01*
G75*
G02*
X240946738Y-170319000I271738J0D01*
G01*
X241653262Y-170319000D01*
G75*
G02*
X241925000Y-170590738I0J-271738D01*
G01*
X241925000Y-171547262D01*
G75*
G02*
X241653262Y-171819000I-271738J0D01*
G01*
X240946738Y-171819000D01*
G75*
G02*
X240675000Y-171547262I0J271738D01*
G01*
G37*
G36*
G01*
X238625000Y-171547262D02*
X238625000Y-170590738D01*
G75*
G02*
X238896738Y-170319000I271738J0D01*
G01*
X239603262Y-170319000D01*
G75*
G02*
X239875000Y-170590738I0J-271738D01*
G01*
X239875000Y-171547262D01*
G75*
G02*
X239603262Y-171819000I-271738J0D01*
G01*
X238896738Y-171819000D01*
G75*
G02*
X238625000Y-171547262I0J271738D01*
G01*
G37*
%TD*%
%TO.C,C2*%
G36*
G01*
X234198000Y-171547262D02*
X234198000Y-170590738D01*
G75*
G02*
X234469738Y-170319000I271738J0D01*
G01*
X235176262Y-170319000D01*
G75*
G02*
X235448000Y-170590738I0J-271738D01*
G01*
X235448000Y-171547262D01*
G75*
G02*
X235176262Y-171819000I-271738J0D01*
G01*
X234469738Y-171819000D01*
G75*
G02*
X234198000Y-171547262I0J271738D01*
G01*
G37*
G36*
G01*
X232148000Y-171547262D02*
X232148000Y-170590738D01*
G75*
G02*
X232419738Y-170319000I271738J0D01*
G01*
X233126262Y-170319000D01*
G75*
G02*
X233398000Y-170590738I0J-271738D01*
G01*
X233398000Y-171547262D01*
G75*
G02*
X233126262Y-171819000I-271738J0D01*
G01*
X232419738Y-171819000D01*
G75*
G02*
X232148000Y-171547262I0J271738D01*
G01*
G37*
%TD*%
%TO.C,C4*%
G36*
G01*
X238752000Y-162911262D02*
X238752000Y-161954738D01*
G75*
G02*
X239023738Y-161683000I271738J0D01*
G01*
X239730262Y-161683000D01*
G75*
G02*
X240002000Y-161954738I0J-271738D01*
G01*
X240002000Y-162911262D01*
G75*
G02*
X239730262Y-163183000I-271738J0D01*
G01*
X239023738Y-163183000D01*
G75*
G02*
X238752000Y-162911262I0J271738D01*
G01*
G37*
G36*
G01*
X240802000Y-162911262D02*
X240802000Y-161954738D01*
G75*
G02*
X241073738Y-161683000I271738J0D01*
G01*
X241780262Y-161683000D01*
G75*
G02*
X242052000Y-161954738I0J-271738D01*
G01*
X242052000Y-162911262D01*
G75*
G02*
X241780262Y-163183000I-271738J0D01*
G01*
X241073738Y-163183000D01*
G75*
G02*
X240802000Y-162911262I0J271738D01*
G01*
G37*
%TD*%
%TO.C,C5*%
G36*
G01*
X232275000Y-162911262D02*
X232275000Y-161954738D01*
G75*
G02*
X232546738Y-161683000I271738J0D01*
G01*
X233253262Y-161683000D01*
G75*
G02*
X233525000Y-161954738I0J-271738D01*
G01*
X233525000Y-162911262D01*
G75*
G02*
X233253262Y-163183000I-271738J0D01*
G01*
X232546738Y-163183000D01*
G75*
G02*
X232275000Y-162911262I0J271738D01*
G01*
G37*
G36*
G01*
X234325000Y-162911262D02*
X234325000Y-161954738D01*
G75*
G02*
X234596738Y-161683000I271738J0D01*
G01*
X235303262Y-161683000D01*
G75*
G02*
X235575000Y-161954738I0J-271738D01*
G01*
X235575000Y-162911262D01*
G75*
G02*
X235303262Y-163183000I-271738J0D01*
G01*
X234596738Y-163183000D01*
G75*
G02*
X234325000Y-162911262I0J271738D01*
G01*
G37*
%TD*%
%TO.C,C8*%
G36*
G01*
X227935673Y-158439692D02*
X227259308Y-157763328D01*
G75*
G02*
X227259308Y-157379032I192148J192148D01*
G01*
X227758896Y-156879444D01*
G75*
G02*
X228143192Y-156879444I192148J-192148D01*
G01*
X228819556Y-157555808D01*
G75*
G02*
X228819556Y-157940104I-192148J-192148D01*
G01*
X228319968Y-158439692D01*
G75*
G02*
X227935672Y-158439692I-192148J192148D01*
G01*
G37*
G36*
G01*
X229385241Y-156990124D02*
X228708876Y-156313760D01*
G75*
G02*
X228708876Y-155929464I192148J192148D01*
G01*
X229208464Y-155429876D01*
G75*
G02*
X229592760Y-155429876I192148J-192148D01*
G01*
X230269124Y-156106240D01*
G75*
G02*
X230269124Y-156490536I-192148J-192148D01*
G01*
X229769536Y-156990124D01*
G75*
G02*
X229385240Y-156990124I-192148J192148D01*
G01*
G37*
%TD*%
%TO.C,C9*%
G36*
G01*
X221554543Y-159658092D02*
X222230908Y-160334456D01*
G75*
G02*
X222230908Y-160718752I-192148J-192148D01*
G01*
X221731320Y-161218340D01*
G75*
G02*
X221347024Y-161218340I-192148J192148D01*
G01*
X220670660Y-160541976D01*
G75*
G02*
X220670660Y-160157680I192148J192148D01*
G01*
X221170248Y-159658092D01*
G75*
G02*
X221554544Y-159658092I192148J-192148D01*
G01*
G37*
G36*
G01*
X220104975Y-161107660D02*
X220781340Y-161784024D01*
G75*
G02*
X220781340Y-162168320I-192148J-192148D01*
G01*
X220281752Y-162667908D01*
G75*
G02*
X219897456Y-162667908I-192148J192148D01*
G01*
X219221092Y-161991544D01*
G75*
G02*
X219221092Y-161607248I192148J192148D01*
G01*
X219720680Y-161107660D01*
G75*
G02*
X220104976Y-161107660I192148J-192148D01*
G01*
G37*
%TD*%
%TO.C,C33*%
G36*
G01*
X204607000Y-195804262D02*
X204607000Y-194847738D01*
G75*
G02*
X204878738Y-194576000I271738J0D01*
G01*
X205585262Y-194576000D01*
G75*
G02*
X205857000Y-194847738I0J-271738D01*
G01*
X205857000Y-195804262D01*
G75*
G02*
X205585262Y-196076000I-271738J0D01*
G01*
X204878738Y-196076000D01*
G75*
G02*
X204607000Y-195804262I0J271738D01*
G01*
G37*
G36*
G01*
X202557000Y-195804262D02*
X202557000Y-194847738D01*
G75*
G02*
X202828738Y-194576000I271738J0D01*
G01*
X203535262Y-194576000D01*
G75*
G02*
X203807000Y-194847738I0J-271738D01*
G01*
X203807000Y-195804262D01*
G75*
G02*
X203535262Y-196076000I-271738J0D01*
G01*
X202828738Y-196076000D01*
G75*
G02*
X202557000Y-195804262I0J271738D01*
G01*
G37*
%TD*%
%TO.C,C34*%
G36*
G01*
X191018000Y-195804262D02*
X191018000Y-194847738D01*
G75*
G02*
X191289738Y-194576000I271738J0D01*
G01*
X191996262Y-194576000D01*
G75*
G02*
X192268000Y-194847738I0J-271738D01*
G01*
X192268000Y-195804262D01*
G75*
G02*
X191996262Y-196076000I-271738J0D01*
G01*
X191289738Y-196076000D01*
G75*
G02*
X191018000Y-195804262I0J271738D01*
G01*
G37*
G36*
G01*
X193068000Y-195804262D02*
X193068000Y-194847738D01*
G75*
G02*
X193339738Y-194576000I271738J0D01*
G01*
X194046262Y-194576000D01*
G75*
G02*
X194318000Y-194847738I0J-271738D01*
G01*
X194318000Y-195804262D01*
G75*
G02*
X194046262Y-196076000I-271738J0D01*
G01*
X193339738Y-196076000D01*
G75*
G02*
X193068000Y-195804262I0J271738D01*
G01*
G37*
%TD*%
%TO.C,C36*%
G36*
G01*
X144516000Y-174019738D02*
X144516000Y-174976262D01*
G75*
G02*
X144244262Y-175248000I-271738J0D01*
G01*
X143537738Y-175248000D01*
G75*
G02*
X143266000Y-174976262I0J271738D01*
G01*
X143266000Y-174019738D01*
G75*
G02*
X143537738Y-173748000I271738J0D01*
G01*
X144244262Y-173748000D01*
G75*
G02*
X144516000Y-174019738I0J-271738D01*
G01*
G37*
G36*
G01*
X142466000Y-174019738D02*
X142466000Y-174976262D01*
G75*
G02*
X142194262Y-175248000I-271738J0D01*
G01*
X141487738Y-175248000D01*
G75*
G02*
X141216000Y-174976262I0J271738D01*
G01*
X141216000Y-174019738D01*
G75*
G02*
X141487738Y-173748000I271738J0D01*
G01*
X142194262Y-173748000D01*
G75*
G02*
X142466000Y-174019738I0J-271738D01*
G01*
G37*
%TD*%
%TO.C,C37*%
G36*
G01*
X133887738Y-171206000D02*
X134844262Y-171206000D01*
G75*
G02*
X135116000Y-171477738I0J-271738D01*
G01*
X135116000Y-172184262D01*
G75*
G02*
X134844262Y-172456000I-271738J0D01*
G01*
X133887738Y-172456000D01*
G75*
G02*
X133616000Y-172184262I0J271738D01*
G01*
X133616000Y-171477738D01*
G75*
G02*
X133887738Y-171206000I271738J0D01*
G01*
G37*
G36*
G01*
X133887738Y-173256000D02*
X134844262Y-173256000D01*
G75*
G02*
X135116000Y-173527738I0J-271738D01*
G01*
X135116000Y-174234262D01*
G75*
G02*
X134844262Y-174506000I-271738J0D01*
G01*
X133887738Y-174506000D01*
G75*
G02*
X133616000Y-174234262I0J271738D01*
G01*
X133616000Y-173527738D01*
G75*
G02*
X133887738Y-173256000I271738J0D01*
G01*
G37*
%TD*%
%TO.C,C39*%
G36*
G01*
X134844262Y-163838000D02*
X133887738Y-163838000D01*
G75*
G02*
X133616000Y-163566262I0J271738D01*
G01*
X133616000Y-162859738D01*
G75*
G02*
X133887738Y-162588000I271738J0D01*
G01*
X134844262Y-162588000D01*
G75*
G02*
X135116000Y-162859738I0J-271738D01*
G01*
X135116000Y-163566262D01*
G75*
G02*
X134844262Y-163838000I-271738J0D01*
G01*
G37*
G36*
G01*
X134844262Y-161788000D02*
X133887738Y-161788000D01*
G75*
G02*
X133616000Y-161516262I0J271738D01*
G01*
X133616000Y-160809738D01*
G75*
G02*
X133887738Y-160538000I271738J0D01*
G01*
X134844262Y-160538000D01*
G75*
G02*
X135116000Y-160809738I0J-271738D01*
G01*
X135116000Y-161516262D01*
G75*
G02*
X134844262Y-161788000I-271738J0D01*
G01*
G37*
%TD*%
%TO.C,C42*%
G36*
G01*
X155957000Y-92553262D02*
X155957000Y-91596738D01*
G75*
G02*
X156228738Y-91325000I271738J0D01*
G01*
X156935262Y-91325000D01*
G75*
G02*
X157207000Y-91596738I0J-271738D01*
G01*
X157207000Y-92553262D01*
G75*
G02*
X156935262Y-92825000I-271738J0D01*
G01*
X156228738Y-92825000D01*
G75*
G02*
X155957000Y-92553262I0J271738D01*
G01*
G37*
G36*
G01*
X158007000Y-92553262D02*
X158007000Y-91596738D01*
G75*
G02*
X158278738Y-91325000I271738J0D01*
G01*
X158985262Y-91325000D01*
G75*
G02*
X159257000Y-91596738I0J-271738D01*
G01*
X159257000Y-92553262D01*
G75*
G02*
X158985262Y-92825000I-271738J0D01*
G01*
X158278738Y-92825000D01*
G75*
G02*
X158007000Y-92553262I0J271738D01*
G01*
G37*
%TD*%
%TO.C,C43*%
G36*
G01*
X162071000Y-92553262D02*
X162071000Y-91596738D01*
G75*
G02*
X162342738Y-91325000I271738J0D01*
G01*
X163049262Y-91325000D01*
G75*
G02*
X163321000Y-91596738I0J-271738D01*
G01*
X163321000Y-92553262D01*
G75*
G02*
X163049262Y-92825000I-271738J0D01*
G01*
X162342738Y-92825000D01*
G75*
G02*
X162071000Y-92553262I0J271738D01*
G01*
G37*
G36*
G01*
X160021000Y-92553262D02*
X160021000Y-91596738D01*
G75*
G02*
X160292738Y-91325000I271738J0D01*
G01*
X160999262Y-91325000D01*
G75*
G02*
X161271000Y-91596738I0J-271738D01*
G01*
X161271000Y-92553262D01*
G75*
G02*
X160999262Y-92825000I-271738J0D01*
G01*
X160292738Y-92825000D01*
G75*
G02*
X160021000Y-92553262I0J271738D01*
G01*
G37*
%TD*%
%TO.C,C44*%
G36*
G01*
X153152000Y-80039738D02*
X153152000Y-80996262D01*
G75*
G02*
X152880262Y-81268000I-271738J0D01*
G01*
X152173738Y-81268000D01*
G75*
G02*
X151902000Y-80996262I0J271738D01*
G01*
X151902000Y-80039738D01*
G75*
G02*
X152173738Y-79768000I271738J0D01*
G01*
X152880262Y-79768000D01*
G75*
G02*
X153152000Y-80039738I0J-271738D01*
G01*
G37*
G36*
G01*
X155202000Y-80039738D02*
X155202000Y-80996262D01*
G75*
G02*
X154930262Y-81268000I-271738J0D01*
G01*
X154223738Y-81268000D01*
G75*
G02*
X153952000Y-80996262I0J271738D01*
G01*
X153952000Y-80039738D01*
G75*
G02*
X154223738Y-79768000I271738J0D01*
G01*
X154930262Y-79768000D01*
G75*
G02*
X155202000Y-80039738I0J-271738D01*
G01*
G37*
%TD*%
%TO.C,C45*%
G36*
G01*
X151884000Y-89251262D02*
X151884000Y-88294738D01*
G75*
G02*
X152155738Y-88023000I271738J0D01*
G01*
X152862262Y-88023000D01*
G75*
G02*
X153134000Y-88294738I0J-271738D01*
G01*
X153134000Y-89251262D01*
G75*
G02*
X152862262Y-89523000I-271738J0D01*
G01*
X152155738Y-89523000D01*
G75*
G02*
X151884000Y-89251262I0J271738D01*
G01*
G37*
G36*
G01*
X153934000Y-89251262D02*
X153934000Y-88294738D01*
G75*
G02*
X154205738Y-88023000I271738J0D01*
G01*
X154912262Y-88023000D01*
G75*
G02*
X155184000Y-88294738I0J-271738D01*
G01*
X155184000Y-89251262D01*
G75*
G02*
X154912262Y-89523000I-271738J0D01*
G01*
X154205738Y-89523000D01*
G75*
G02*
X153934000Y-89251262I0J271738D01*
G01*
G37*
%TD*%
%TO.C,C46*%
G36*
G01*
X190880000Y-95787738D02*
X190880000Y-96744262D01*
G75*
G02*
X190608262Y-97016000I-271738J0D01*
G01*
X189901738Y-97016000D01*
G75*
G02*
X189630000Y-96744262I0J271738D01*
G01*
X189630000Y-95787738D01*
G75*
G02*
X189901738Y-95516000I271738J0D01*
G01*
X190608262Y-95516000D01*
G75*
G02*
X190880000Y-95787738I0J-271738D01*
G01*
G37*
G36*
G01*
X188830000Y-95787738D02*
X188830000Y-96744262D01*
G75*
G02*
X188558262Y-97016000I-271738J0D01*
G01*
X187851738Y-97016000D01*
G75*
G02*
X187580000Y-96744262I0J271738D01*
G01*
X187580000Y-95787738D01*
G75*
G02*
X187851738Y-95516000I271738J0D01*
G01*
X188558262Y-95516000D01*
G75*
G02*
X188830000Y-95787738I0J-271738D01*
G01*
G37*
%TD*%
%TO.C,C47*%
G36*
G01*
X199616000Y-95787738D02*
X199616000Y-96744262D01*
G75*
G02*
X199344262Y-97016000I-271738J0D01*
G01*
X198637738Y-97016000D01*
G75*
G02*
X198366000Y-96744262I0J271738D01*
G01*
X198366000Y-95787738D01*
G75*
G02*
X198637738Y-95516000I271738J0D01*
G01*
X199344262Y-95516000D01*
G75*
G02*
X199616000Y-95787738I0J-271738D01*
G01*
G37*
G36*
G01*
X201666000Y-95787738D02*
X201666000Y-96744262D01*
G75*
G02*
X201394262Y-97016000I-271738J0D01*
G01*
X200687738Y-97016000D01*
G75*
G02*
X200416000Y-96744262I0J271738D01*
G01*
X200416000Y-95787738D01*
G75*
G02*
X200687738Y-95516000I271738J0D01*
G01*
X201394262Y-95516000D01*
G75*
G02*
X201666000Y-95787738I0J-271738D01*
G01*
G37*
%TD*%
%TO.C,C48*%
G36*
G01*
X165453000Y-88548738D02*
X165453000Y-89505262D01*
G75*
G02*
X165181262Y-89777000I-271738J0D01*
G01*
X164474738Y-89777000D01*
G75*
G02*
X164203000Y-89505262I0J271738D01*
G01*
X164203000Y-88548738D01*
G75*
G02*
X164474738Y-88277000I271738J0D01*
G01*
X165181262Y-88277000D01*
G75*
G02*
X165453000Y-88548738I0J-271738D01*
G01*
G37*
G36*
G01*
X167503000Y-88548738D02*
X167503000Y-89505262D01*
G75*
G02*
X167231262Y-89777000I-271738J0D01*
G01*
X166524738Y-89777000D01*
G75*
G02*
X166253000Y-89505262I0J271738D01*
G01*
X166253000Y-88548738D01*
G75*
G02*
X166524738Y-88277000I271738J0D01*
G01*
X167231262Y-88277000D01*
G75*
G02*
X167503000Y-88548738I0J-271738D01*
G01*
G37*
%TD*%
%TO.C,C49*%
G36*
G01*
X190871000Y-87405738D02*
X190871000Y-88362262D01*
G75*
G02*
X190599262Y-88634000I-271738J0D01*
G01*
X189892738Y-88634000D01*
G75*
G02*
X189621000Y-88362262I0J271738D01*
G01*
X189621000Y-87405738D01*
G75*
G02*
X189892738Y-87134000I271738J0D01*
G01*
X190599262Y-87134000D01*
G75*
G02*
X190871000Y-87405738I0J-271738D01*
G01*
G37*
G36*
G01*
X188821000Y-87405738D02*
X188821000Y-88362262D01*
G75*
G02*
X188549262Y-88634000I-271738J0D01*
G01*
X187842738Y-88634000D01*
G75*
G02*
X187571000Y-88362262I0J271738D01*
G01*
X187571000Y-87405738D01*
G75*
G02*
X187842738Y-87134000I271738J0D01*
G01*
X188549262Y-87134000D01*
G75*
G02*
X188821000Y-87405738I0J-271738D01*
G01*
G37*
%TD*%
%TO.C,C50*%
G36*
G01*
X199625000Y-87405738D02*
X199625000Y-88362262D01*
G75*
G02*
X199353262Y-88634000I-271738J0D01*
G01*
X198646738Y-88634000D01*
G75*
G02*
X198375000Y-88362262I0J271738D01*
G01*
X198375000Y-87405738D01*
G75*
G02*
X198646738Y-87134000I271738J0D01*
G01*
X199353262Y-87134000D01*
G75*
G02*
X199625000Y-87405738I0J-271738D01*
G01*
G37*
G36*
G01*
X201675000Y-87405738D02*
X201675000Y-88362262D01*
G75*
G02*
X201403262Y-88634000I-271738J0D01*
G01*
X200696738Y-88634000D01*
G75*
G02*
X200425000Y-88362262I0J271738D01*
G01*
X200425000Y-87405738D01*
G75*
G02*
X200696738Y-87134000I271738J0D01*
G01*
X201403262Y-87134000D01*
G75*
G02*
X201675000Y-87405738I0J-271738D01*
G01*
G37*
%TD*%
D12*
%TO.C,C51*%
X190246000Y-78105000D03*
X190246000Y-83705000D03*
%TD*%
%TO.C,C52*%
X199009000Y-83699000D03*
X199009000Y-78099000D03*
%TD*%
D13*
%TO.C,D1*%
X225425000Y-219837000D03*
D14*
X227965000Y-219837000D03*
%TD*%
D15*
%TO.C,D2*%
X204597000Y-77663000D03*
X204597000Y-79563000D03*
X206597000Y-78613000D03*
%TD*%
%TO.C,D3*%
X218186000Y-86360000D03*
X216186000Y-87310000D03*
X216186000Y-85410000D03*
%TD*%
%TO.C,D4*%
X222393000Y-77663000D03*
X222393000Y-79563000D03*
X224393000Y-78613000D03*
%TD*%
D16*
%TO.C,IC1*%
X154057000Y-174498000D03*
X154057000Y-173228000D03*
X154057000Y-171958000D03*
X154057000Y-170688000D03*
X154057000Y-169418000D03*
X154057000Y-168148000D03*
X154057000Y-166878000D03*
X154057000Y-165608000D03*
X146933000Y-165608000D03*
X146933000Y-166878000D03*
X146933000Y-168148000D03*
X146933000Y-169418000D03*
X146933000Y-170688000D03*
X146933000Y-171958000D03*
X146933000Y-173228000D03*
X146933000Y-174498000D03*
%TD*%
D17*
%TO.C,IC2*%
X239334000Y-164739000D03*
X241234000Y-164739000D03*
X241234000Y-167239000D03*
X240284000Y-167239000D03*
X239334000Y-167239000D03*
%TD*%
%TO.C,IC3*%
X232857000Y-167239000D03*
X233807000Y-167239000D03*
X234757000Y-167239000D03*
X234757000Y-164739000D03*
X232857000Y-164739000D03*
%TD*%
D18*
%TO.C,IC4*%
X269516000Y-122520000D03*
X269516000Y-123020000D03*
X269516000Y-123520000D03*
X269516000Y-124020000D03*
X269516000Y-124520000D03*
X269516000Y-125020000D03*
X269516000Y-125520000D03*
X269516000Y-126020000D03*
X269516000Y-126520000D03*
X269516000Y-127020000D03*
X269516000Y-127520000D03*
X269516000Y-128020000D03*
X269516000Y-128520000D03*
X269516000Y-129020000D03*
X269516000Y-129520000D03*
X269516000Y-130020000D03*
X269516000Y-130520000D03*
X269516000Y-131020000D03*
X269516000Y-131520000D03*
X269516000Y-132020000D03*
X269516000Y-132520000D03*
X269516000Y-133020000D03*
X269516000Y-133520000D03*
X269516000Y-134020000D03*
X277092000Y-134020000D03*
X277092000Y-133520000D03*
X277092000Y-133020000D03*
X277092000Y-132520000D03*
X277092000Y-132020000D03*
X277092000Y-131520000D03*
X277092000Y-131020000D03*
X277092000Y-130520000D03*
X277092000Y-130020000D03*
X277092000Y-129520000D03*
X277092000Y-129020000D03*
X277092000Y-128520000D03*
X277092000Y-128020000D03*
X277092000Y-127520000D03*
X277092000Y-127020000D03*
X277092000Y-126520000D03*
X277092000Y-126020000D03*
X277092000Y-125520000D03*
X277092000Y-125020000D03*
X277092000Y-124520000D03*
X277092000Y-124020000D03*
X277092000Y-123520000D03*
X277092000Y-123020000D03*
X277092000Y-122520000D03*
%TD*%
%TO.C,IC5*%
X277092000Y-151222000D03*
X277092000Y-151722000D03*
X277092000Y-152222000D03*
X277092000Y-152722000D03*
X277092000Y-153222000D03*
X277092000Y-153722000D03*
X277092000Y-154222000D03*
X277092000Y-154722000D03*
X277092000Y-155222000D03*
X277092000Y-155722000D03*
X277092000Y-156222000D03*
X277092000Y-156722000D03*
X277092000Y-157222000D03*
X277092000Y-157722000D03*
X277092000Y-158222000D03*
X277092000Y-158722000D03*
X277092000Y-159222000D03*
X277092000Y-159722000D03*
X277092000Y-160222000D03*
X277092000Y-160722000D03*
X277092000Y-161222000D03*
X277092000Y-161722000D03*
X277092000Y-162222000D03*
X277092000Y-162722000D03*
X269516000Y-162722000D03*
X269516000Y-162222000D03*
X269516000Y-161722000D03*
X269516000Y-161222000D03*
X269516000Y-160722000D03*
X269516000Y-160222000D03*
X269516000Y-159722000D03*
X269516000Y-159222000D03*
X269516000Y-158722000D03*
X269516000Y-158222000D03*
X269516000Y-157722000D03*
X269516000Y-157222000D03*
X269516000Y-156722000D03*
X269516000Y-156222000D03*
X269516000Y-155722000D03*
X269516000Y-155222000D03*
X269516000Y-154722000D03*
X269516000Y-154222000D03*
X269516000Y-153722000D03*
X269516000Y-153222000D03*
X269516000Y-152722000D03*
X269516000Y-152222000D03*
X269516000Y-151722000D03*
X269516000Y-151222000D03*
%TD*%
%TO.C,IC6*%
X269516000Y-177892000D03*
X269516000Y-178392000D03*
X269516000Y-178892000D03*
X269516000Y-179392000D03*
X269516000Y-179892000D03*
X269516000Y-180392000D03*
X269516000Y-180892000D03*
X269516000Y-181392000D03*
X269516000Y-181892000D03*
X269516000Y-182392000D03*
X269516000Y-182892000D03*
X269516000Y-183392000D03*
X269516000Y-183892000D03*
X269516000Y-184392000D03*
X269516000Y-184892000D03*
X269516000Y-185392000D03*
X269516000Y-185892000D03*
X269516000Y-186392000D03*
X269516000Y-186892000D03*
X269516000Y-187392000D03*
X269516000Y-187892000D03*
X269516000Y-188392000D03*
X269516000Y-188892000D03*
X269516000Y-189392000D03*
X277092000Y-189392000D03*
X277092000Y-188892000D03*
X277092000Y-188392000D03*
X277092000Y-187892000D03*
X277092000Y-187392000D03*
X277092000Y-186892000D03*
X277092000Y-186392000D03*
X277092000Y-185892000D03*
X277092000Y-185392000D03*
X277092000Y-184892000D03*
X277092000Y-184392000D03*
X277092000Y-183892000D03*
X277092000Y-183392000D03*
X277092000Y-182892000D03*
X277092000Y-182392000D03*
X277092000Y-181892000D03*
X277092000Y-181392000D03*
X277092000Y-180892000D03*
X277092000Y-180392000D03*
X277092000Y-179892000D03*
X277092000Y-179392000D03*
X277092000Y-178892000D03*
X277092000Y-178392000D03*
X277092000Y-177892000D03*
%TD*%
D19*
%TO.C,J1*%
X266827000Y-101854000D03*
D20*
X269367000Y-101854000D03*
X271907000Y-101854000D03*
X274447000Y-101854000D03*
X276987000Y-101854000D03*
X279527000Y-101854000D03*
%TD*%
D21*
%TO.C,J2*%
X280207000Y-222005000D03*
D22*
X276007000Y-222005000D03*
X271807000Y-222005000D03*
X267607000Y-222005000D03*
X263407000Y-222005000D03*
X259207000Y-222005000D03*
X255007000Y-222005000D03*
X250807000Y-222005000D03*
X246607000Y-222005000D03*
X242407000Y-222005000D03*
X238207000Y-222005000D03*
X234007000Y-222005000D03*
X280207000Y-217805000D03*
X276007000Y-217805000D03*
X271807000Y-217805000D03*
X267607000Y-217805000D03*
X263407000Y-217805000D03*
X259207000Y-217805000D03*
X255007000Y-217805000D03*
X250807000Y-217805000D03*
X246607000Y-217805000D03*
X242407000Y-217805000D03*
X238207000Y-217805000D03*
X234007000Y-217805000D03*
%TD*%
D19*
%TO.C,J3*%
X199517000Y-218821000D03*
D20*
X199517000Y-221361000D03*
%TD*%
D19*
%TO.C,J4*%
X195961000Y-218821000D03*
D20*
X195961000Y-221361000D03*
%TD*%
D19*
%TO.C,J5*%
X213614000Y-88265000D03*
D20*
X213614000Y-90805000D03*
X213614000Y-93345000D03*
%TD*%
%TO.C,J6*%
X192405000Y-221361000D03*
D19*
X192405000Y-218821000D03*
%TD*%
D23*
%TO.C,J7*%
X243556000Y-65776000D03*
D24*
X246156000Y-65776000D03*
X241456000Y-65776000D03*
X248256000Y-65776000D03*
X241456000Y-68276000D03*
X248256000Y-68276000D03*
D23*
X243556000Y-72776000D03*
D24*
X246156000Y-72776000D03*
X241456000Y-72776000D03*
X248256000Y-72776000D03*
X241456000Y-75276000D03*
X248256000Y-75276000D03*
D25*
X251606000Y-62776000D03*
X244856000Y-61976000D03*
X238106000Y-62776000D03*
X251606000Y-72776000D03*
X238106000Y-72776000D03*
%TD*%
D19*
%TO.C,J8*%
X209931000Y-218821000D03*
D20*
X209931000Y-221361000D03*
%TD*%
%TO.C,J9*%
X206375000Y-221361000D03*
D19*
X206375000Y-218821000D03*
%TD*%
D20*
%TO.C,J10*%
X173736000Y-85598000D03*
X173736000Y-83058000D03*
D19*
X173736000Y-80518000D03*
%TD*%
D26*
%TO.C,J11*%
X161531000Y-211103000D03*
X159031000Y-211603000D03*
X156531000Y-211903000D03*
X154031000Y-211903000D03*
X151531000Y-211603000D03*
X149031000Y-211603000D03*
X146531000Y-211603000D03*
X144906000Y-211603000D03*
X164031000Y-214003000D03*
D27*
X141531000Y-214103000D03*
D28*
X144106000Y-197003000D03*
D29*
X163006000Y-197003000D03*
D30*
X168656000Y-219823000D03*
X141256000Y-219823000D03*
D31*
X164656000Y-199503000D03*
X144656000Y-199503000D03*
%TD*%
D20*
%TO.C,J12*%
X194564000Y-92075000D03*
D19*
X194564000Y-89535000D03*
%TD*%
D14*
%TO.C,J13*%
X266010000Y-72028000D03*
X274320000Y-72028000D03*
X271550000Y-72028000D03*
X268780000Y-72028000D03*
X264625000Y-74868000D03*
X267395000Y-74868000D03*
X275705000Y-74868000D03*
X272935000Y-74868000D03*
X266010000Y-65278000D03*
X274320000Y-65278000D03*
X271550000Y-65278000D03*
X268780000Y-65278000D03*
X264625000Y-68118000D03*
X267395000Y-68118000D03*
X275705000Y-68118000D03*
X272935000Y-68118000D03*
X270165000Y-74868000D03*
X270165000Y-68118000D03*
D32*
X257675000Y-73278000D03*
X257675000Y-65278000D03*
X282655000Y-65278000D03*
X282655000Y-73278000D03*
%TD*%
D33*
%TO.C,J14*%
X165862000Y-70358000D03*
D34*
X167232000Y-67818000D03*
X168602000Y-70358000D03*
X169972000Y-67818000D03*
X171342000Y-70358000D03*
X172712000Y-67818000D03*
X174082000Y-70358000D03*
X175452000Y-67818000D03*
X176822000Y-70358000D03*
D35*
X158847000Y-69088000D03*
X183837000Y-69088000D03*
%TD*%
D36*
%TO.C,J15*%
X191626000Y-59296000D03*
D37*
X191526000Y-68696000D03*
D36*
X199026000Y-61296000D03*
D38*
X195326000Y-60396000D03*
X195326000Y-67396000D03*
%TD*%
D39*
%TO.C,J16*%
X214066000Y-71374000D03*
D40*
X216356000Y-71374000D03*
X218646000Y-71374000D03*
X220936000Y-71374000D03*
X223226000Y-71374000D03*
X212921000Y-68834000D03*
X215211000Y-68834000D03*
X217501000Y-68834000D03*
X219791000Y-68834000D03*
X222081000Y-68834000D03*
X214066000Y-66294000D03*
X216356000Y-66294000D03*
X218646000Y-66294000D03*
X220936000Y-66294000D03*
X223226000Y-66294000D03*
D41*
X205896000Y-68834000D03*
X230886000Y-68834000D03*
%TD*%
%TO.C,R1*%
G36*
G01*
X256421000Y-156493738D02*
X256421000Y-157450262D01*
G75*
G02*
X256149262Y-157722000I-271738J0D01*
G01*
X255442738Y-157722000D01*
G75*
G02*
X255171000Y-157450262I0J271738D01*
G01*
X255171000Y-156493738D01*
G75*
G02*
X255442738Y-156222000I271738J0D01*
G01*
X256149262Y-156222000D01*
G75*
G02*
X256421000Y-156493738I0J-271738D01*
G01*
G37*
G36*
G01*
X254371000Y-156493738D02*
X254371000Y-157450262D01*
G75*
G02*
X254099262Y-157722000I-271738J0D01*
G01*
X253392738Y-157722000D01*
G75*
G02*
X253121000Y-157450262I0J271738D01*
G01*
X253121000Y-156493738D01*
G75*
G02*
X253392738Y-156222000I271738J0D01*
G01*
X254099262Y-156222000D01*
G75*
G02*
X254371000Y-156493738I0J-271738D01*
G01*
G37*
%TD*%
%TO.C,R2*%
G36*
G01*
X254371000Y-159033738D02*
X254371000Y-159990262D01*
G75*
G02*
X254099262Y-160262000I-271738J0D01*
G01*
X253392738Y-160262000D01*
G75*
G02*
X253121000Y-159990262I0J271738D01*
G01*
X253121000Y-159033738D01*
G75*
G02*
X253392738Y-158762000I271738J0D01*
G01*
X254099262Y-158762000D01*
G75*
G02*
X254371000Y-159033738I0J-271738D01*
G01*
G37*
G36*
G01*
X256421000Y-159033738D02*
X256421000Y-159990262D01*
G75*
G02*
X256149262Y-160262000I-271738J0D01*
G01*
X255442738Y-160262000D01*
G75*
G02*
X255171000Y-159990262I0J271738D01*
G01*
X255171000Y-159033738D01*
G75*
G02*
X255442738Y-158762000I271738J0D01*
G01*
X256149262Y-158762000D01*
G75*
G02*
X256421000Y-159033738I0J-271738D01*
G01*
G37*
%TD*%
%TO.C,R3*%
G36*
G01*
X266348738Y-107833000D02*
X267305262Y-107833000D01*
G75*
G02*
X267577000Y-108104738I0J-271738D01*
G01*
X267577000Y-108811262D01*
G75*
G02*
X267305262Y-109083000I-271738J0D01*
G01*
X266348738Y-109083000D01*
G75*
G02*
X266077000Y-108811262I0J271738D01*
G01*
X266077000Y-108104738D01*
G75*
G02*
X266348738Y-107833000I271738J0D01*
G01*
G37*
G36*
G01*
X266348738Y-105783000D02*
X267305262Y-105783000D01*
G75*
G02*
X267577000Y-106054738I0J-271738D01*
G01*
X267577000Y-106761262D01*
G75*
G02*
X267305262Y-107033000I-271738J0D01*
G01*
X266348738Y-107033000D01*
G75*
G02*
X266077000Y-106761262I0J271738D01*
G01*
X266077000Y-106054738D01*
G75*
G02*
X266348738Y-105783000I271738J0D01*
G01*
G37*
%TD*%
%TO.C,R4*%
G36*
G01*
X268888738Y-107833000D02*
X269845262Y-107833000D01*
G75*
G02*
X270117000Y-108104738I0J-271738D01*
G01*
X270117000Y-108811262D01*
G75*
G02*
X269845262Y-109083000I-271738J0D01*
G01*
X268888738Y-109083000D01*
G75*
G02*
X268617000Y-108811262I0J271738D01*
G01*
X268617000Y-108104738D01*
G75*
G02*
X268888738Y-107833000I271738J0D01*
G01*
G37*
G36*
G01*
X268888738Y-105783000D02*
X269845262Y-105783000D01*
G75*
G02*
X270117000Y-106054738I0J-271738D01*
G01*
X270117000Y-106761262D01*
G75*
G02*
X269845262Y-107033000I-271738J0D01*
G01*
X268888738Y-107033000D01*
G75*
G02*
X268617000Y-106761262I0J271738D01*
G01*
X268617000Y-106054738D01*
G75*
G02*
X268888738Y-105783000I271738J0D01*
G01*
G37*
%TD*%
%TO.C,R5*%
G36*
G01*
X271428738Y-105783000D02*
X272385262Y-105783000D01*
G75*
G02*
X272657000Y-106054738I0J-271738D01*
G01*
X272657000Y-106761262D01*
G75*
G02*
X272385262Y-107033000I-271738J0D01*
G01*
X271428738Y-107033000D01*
G75*
G02*
X271157000Y-106761262I0J271738D01*
G01*
X271157000Y-106054738D01*
G75*
G02*
X271428738Y-105783000I271738J0D01*
G01*
G37*
G36*
G01*
X271428738Y-107833000D02*
X272385262Y-107833000D01*
G75*
G02*
X272657000Y-108104738I0J-271738D01*
G01*
X272657000Y-108811262D01*
G75*
G02*
X272385262Y-109083000I-271738J0D01*
G01*
X271428738Y-109083000D01*
G75*
G02*
X271157000Y-108811262I0J271738D01*
G01*
X271157000Y-108104738D01*
G75*
G02*
X271428738Y-107833000I271738J0D01*
G01*
G37*
%TD*%
%TO.C,R6*%
G36*
G01*
X273968738Y-107851000D02*
X274925262Y-107851000D01*
G75*
G02*
X275197000Y-108122738I0J-271738D01*
G01*
X275197000Y-108829262D01*
G75*
G02*
X274925262Y-109101000I-271738J0D01*
G01*
X273968738Y-109101000D01*
G75*
G02*
X273697000Y-108829262I0J271738D01*
G01*
X273697000Y-108122738D01*
G75*
G02*
X273968738Y-107851000I271738J0D01*
G01*
G37*
G36*
G01*
X273968738Y-105801000D02*
X274925262Y-105801000D01*
G75*
G02*
X275197000Y-106072738I0J-271738D01*
G01*
X275197000Y-106779262D01*
G75*
G02*
X274925262Y-107051000I-271738J0D01*
G01*
X273968738Y-107051000D01*
G75*
G02*
X273697000Y-106779262I0J271738D01*
G01*
X273697000Y-106072738D01*
G75*
G02*
X273968738Y-105801000I271738J0D01*
G01*
G37*
%TD*%
%TO.C,R8*%
G36*
G01*
X210589241Y-153561124D02*
X209912876Y-152884760D01*
G75*
G02*
X209912876Y-152500464I192148J192148D01*
G01*
X210412464Y-152000876D01*
G75*
G02*
X210796760Y-152000876I192148J-192148D01*
G01*
X211473124Y-152677240D01*
G75*
G02*
X211473124Y-153061536I-192148J-192148D01*
G01*
X210973536Y-153561124D01*
G75*
G02*
X210589240Y-153561124I-192148J192148D01*
G01*
G37*
G36*
G01*
X209139673Y-155010692D02*
X208463308Y-154334328D01*
G75*
G02*
X208463308Y-153950032I192148J192148D01*
G01*
X208962896Y-153450444D01*
G75*
G02*
X209347192Y-153450444I192148J-192148D01*
G01*
X210023556Y-154126808D01*
G75*
G02*
X210023556Y-154511104I-192148J-192148D01*
G01*
X209523968Y-155010692D01*
G75*
G02*
X209139672Y-155010692I-192148J192148D01*
G01*
G37*
%TD*%
%TO.C,R9*%
G36*
G01*
X213002241Y-167023124D02*
X212325876Y-166346760D01*
G75*
G02*
X212325876Y-165962464I192148J192148D01*
G01*
X212825464Y-165462876D01*
G75*
G02*
X213209760Y-165462876I192148J-192148D01*
G01*
X213886124Y-166139240D01*
G75*
G02*
X213886124Y-166523536I-192148J-192148D01*
G01*
X213386536Y-167023124D01*
G75*
G02*
X213002240Y-167023124I-192148J192148D01*
G01*
G37*
G36*
G01*
X211552673Y-168472692D02*
X210876308Y-167796328D01*
G75*
G02*
X210876308Y-167412032I192148J192148D01*
G01*
X211375896Y-166912444D01*
G75*
G02*
X211760192Y-166912444I192148J-192148D01*
G01*
X212436556Y-167588808D01*
G75*
G02*
X212436556Y-167973104I-192148J-192148D01*
G01*
X211936968Y-168472692D01*
G75*
G02*
X211552672Y-168472692I-192148J192148D01*
G01*
G37*
%TD*%
%TO.C,R10*%
G36*
G01*
X190508000Y-213897738D02*
X190508000Y-214854262D01*
G75*
G02*
X190236262Y-215126000I-271738J0D01*
G01*
X189529738Y-215126000D01*
G75*
G02*
X189258000Y-214854262I0J271738D01*
G01*
X189258000Y-213897738D01*
G75*
G02*
X189529738Y-213626000I271738J0D01*
G01*
X190236262Y-213626000D01*
G75*
G02*
X190508000Y-213897738I0J-271738D01*
G01*
G37*
G36*
G01*
X188458000Y-213897738D02*
X188458000Y-214854262D01*
G75*
G02*
X188186262Y-215126000I-271738J0D01*
G01*
X187479738Y-215126000D01*
G75*
G02*
X187208000Y-214854262I0J271738D01*
G01*
X187208000Y-213897738D01*
G75*
G02*
X187479738Y-213626000I271738J0D01*
G01*
X188186262Y-213626000D01*
G75*
G02*
X188458000Y-213897738I0J-271738D01*
G01*
G37*
%TD*%
%TO.C,R11*%
G36*
G01*
X222982262Y-220462000D02*
X222025738Y-220462000D01*
G75*
G02*
X221754000Y-220190262I0J271738D01*
G01*
X221754000Y-219483738D01*
G75*
G02*
X222025738Y-219212000I271738J0D01*
G01*
X222982262Y-219212000D01*
G75*
G02*
X223254000Y-219483738I0J-271738D01*
G01*
X223254000Y-220190262D01*
G75*
G02*
X222982262Y-220462000I-271738J0D01*
G01*
G37*
G36*
G01*
X222982262Y-222512000D02*
X222025738Y-222512000D01*
G75*
G02*
X221754000Y-222240262I0J271738D01*
G01*
X221754000Y-221533738D01*
G75*
G02*
X222025738Y-221262000I271738J0D01*
G01*
X222982262Y-221262000D01*
G75*
G02*
X223254000Y-221533738I0J-271738D01*
G01*
X223254000Y-222240262D01*
G75*
G02*
X222982262Y-222512000I-271738J0D01*
G01*
G37*
%TD*%
%TO.C,R14*%
G36*
G01*
X188440000Y-210468738D02*
X188440000Y-211425262D01*
G75*
G02*
X188168262Y-211697000I-271738J0D01*
G01*
X187461738Y-211697000D01*
G75*
G02*
X187190000Y-211425262I0J271738D01*
G01*
X187190000Y-210468738D01*
G75*
G02*
X187461738Y-210197000I271738J0D01*
G01*
X188168262Y-210197000D01*
G75*
G02*
X188440000Y-210468738I0J-271738D01*
G01*
G37*
G36*
G01*
X190490000Y-210468738D02*
X190490000Y-211425262D01*
G75*
G02*
X190218262Y-211697000I-271738J0D01*
G01*
X189511738Y-211697000D01*
G75*
G02*
X189240000Y-211425262I0J271738D01*
G01*
X189240000Y-210468738D01*
G75*
G02*
X189511738Y-210197000I271738J0D01*
G01*
X190218262Y-210197000D01*
G75*
G02*
X190490000Y-210468738I0J-271738D01*
G01*
G37*
%TD*%
%TO.C,R15*%
G36*
G01*
X215781000Y-218342738D02*
X215781000Y-219299262D01*
G75*
G02*
X215509262Y-219571000I-271738J0D01*
G01*
X214802738Y-219571000D01*
G75*
G02*
X214531000Y-219299262I0J271738D01*
G01*
X214531000Y-218342738D01*
G75*
G02*
X214802738Y-218071000I271738J0D01*
G01*
X215509262Y-218071000D01*
G75*
G02*
X215781000Y-218342738I0J-271738D01*
G01*
G37*
G36*
G01*
X213731000Y-218342738D02*
X213731000Y-219299262D01*
G75*
G02*
X213459262Y-219571000I-271738J0D01*
G01*
X212752738Y-219571000D01*
G75*
G02*
X212481000Y-219299262I0J271738D01*
G01*
X212481000Y-218342738D01*
G75*
G02*
X212752738Y-218071000I271738J0D01*
G01*
X213459262Y-218071000D01*
G75*
G02*
X213731000Y-218342738I0J-271738D01*
G01*
G37*
%TD*%
%TO.C,R16*%
G36*
G01*
X144516000Y-168685738D02*
X144516000Y-169642262D01*
G75*
G02*
X144244262Y-169914000I-271738J0D01*
G01*
X143537738Y-169914000D01*
G75*
G02*
X143266000Y-169642262I0J271738D01*
G01*
X143266000Y-168685738D01*
G75*
G02*
X143537738Y-168414000I271738J0D01*
G01*
X144244262Y-168414000D01*
G75*
G02*
X144516000Y-168685738I0J-271738D01*
G01*
G37*
G36*
G01*
X142466000Y-168685738D02*
X142466000Y-169642262D01*
G75*
G02*
X142194262Y-169914000I-271738J0D01*
G01*
X141487738Y-169914000D01*
G75*
G02*
X141216000Y-169642262I0J271738D01*
G01*
X141216000Y-168685738D01*
G75*
G02*
X141487738Y-168414000I271738J0D01*
G01*
X142194262Y-168414000D01*
G75*
G02*
X142466000Y-168685738I0J-271738D01*
G01*
G37*
%TD*%
%TO.C,R17*%
G36*
G01*
X143266000Y-166340262D02*
X143266000Y-165383738D01*
G75*
G02*
X143537738Y-165112000I271738J0D01*
G01*
X144244262Y-165112000D01*
G75*
G02*
X144516000Y-165383738I0J-271738D01*
G01*
X144516000Y-166340262D01*
G75*
G02*
X144244262Y-166612000I-271738J0D01*
G01*
X143537738Y-166612000D01*
G75*
G02*
X143266000Y-166340262I0J271738D01*
G01*
G37*
G36*
G01*
X141216000Y-166340262D02*
X141216000Y-165383738D01*
G75*
G02*
X141487738Y-165112000I271738J0D01*
G01*
X142194262Y-165112000D01*
G75*
G02*
X142466000Y-165383738I0J-271738D01*
G01*
X142466000Y-166340262D01*
G75*
G02*
X142194262Y-166612000I-271738J0D01*
G01*
X141487738Y-166612000D01*
G75*
G02*
X141216000Y-166340262I0J271738D01*
G01*
G37*
%TD*%
%TO.C,R19*%
G36*
G01*
X211648543Y-159277092D02*
X212324908Y-159953456D01*
G75*
G02*
X212324908Y-160337752I-192148J-192148D01*
G01*
X211825320Y-160837340D01*
G75*
G02*
X211441024Y-160837340I-192148J192148D01*
G01*
X210764660Y-160160976D01*
G75*
G02*
X210764660Y-159776680I192148J192148D01*
G01*
X211264248Y-159277092D01*
G75*
G02*
X211648544Y-159277092I192148J-192148D01*
G01*
G37*
G36*
G01*
X210198975Y-160726660D02*
X210875340Y-161403024D01*
G75*
G02*
X210875340Y-161787320I-192148J-192148D01*
G01*
X210375752Y-162286908D01*
G75*
G02*
X209991456Y-162286908I-192148J192148D01*
G01*
X209315092Y-161610544D01*
G75*
G02*
X209315092Y-161226248I192148J192148D01*
G01*
X209814680Y-160726660D01*
G75*
G02*
X210198976Y-160726660I192148J-192148D01*
G01*
G37*
%TD*%
%TO.C,R20*%
G36*
G01*
X188370738Y-220736000D02*
X189327262Y-220736000D01*
G75*
G02*
X189599000Y-221007738I0J-271738D01*
G01*
X189599000Y-221714262D01*
G75*
G02*
X189327262Y-221986000I-271738J0D01*
G01*
X188370738Y-221986000D01*
G75*
G02*
X188099000Y-221714262I0J271738D01*
G01*
X188099000Y-221007738D01*
G75*
G02*
X188370738Y-220736000I271738J0D01*
G01*
G37*
G36*
G01*
X188370738Y-218686000D02*
X189327262Y-218686000D01*
G75*
G02*
X189599000Y-218957738I0J-271738D01*
G01*
X189599000Y-219664262D01*
G75*
G02*
X189327262Y-219936000I-271738J0D01*
G01*
X188370738Y-219936000D01*
G75*
G02*
X188099000Y-219664262I0J271738D01*
G01*
X188099000Y-218957738D01*
G75*
G02*
X188370738Y-218686000I271738J0D01*
G01*
G37*
%TD*%
%TO.C,R21*%
G36*
G01*
X239678738Y-81145000D02*
X240635262Y-81145000D01*
G75*
G02*
X240907000Y-81416738I0J-271738D01*
G01*
X240907000Y-82123262D01*
G75*
G02*
X240635262Y-82395000I-271738J0D01*
G01*
X239678738Y-82395000D01*
G75*
G02*
X239407000Y-82123262I0J271738D01*
G01*
X239407000Y-81416738D01*
G75*
G02*
X239678738Y-81145000I271738J0D01*
G01*
G37*
G36*
G01*
X239678738Y-83195000D02*
X240635262Y-83195000D01*
G75*
G02*
X240907000Y-83466738I0J-271738D01*
G01*
X240907000Y-84173262D01*
G75*
G02*
X240635262Y-84445000I-271738J0D01*
G01*
X239678738Y-84445000D01*
G75*
G02*
X239407000Y-84173262I0J271738D01*
G01*
X239407000Y-83466738D01*
G75*
G02*
X239678738Y-83195000I271738J0D01*
G01*
G37*
%TD*%
%TO.C,R22*%
G36*
G01*
X242599738Y-81163000D02*
X243556262Y-81163000D01*
G75*
G02*
X243828000Y-81434738I0J-271738D01*
G01*
X243828000Y-82141262D01*
G75*
G02*
X243556262Y-82413000I-271738J0D01*
G01*
X242599738Y-82413000D01*
G75*
G02*
X242328000Y-82141262I0J271738D01*
G01*
X242328000Y-81434738D01*
G75*
G02*
X242599738Y-81163000I271738J0D01*
G01*
G37*
G36*
G01*
X242599738Y-83213000D02*
X243556262Y-83213000D01*
G75*
G02*
X243828000Y-83484738I0J-271738D01*
G01*
X243828000Y-84191262D01*
G75*
G02*
X243556262Y-84463000I-271738J0D01*
G01*
X242599738Y-84463000D01*
G75*
G02*
X242328000Y-84191262I0J271738D01*
G01*
X242328000Y-83484738D01*
G75*
G02*
X242599738Y-83213000I271738J0D01*
G01*
G37*
%TD*%
%TO.C,R23*%
G36*
G01*
X245393738Y-81163000D02*
X246350262Y-81163000D01*
G75*
G02*
X246622000Y-81434738I0J-271738D01*
G01*
X246622000Y-82141262D01*
G75*
G02*
X246350262Y-82413000I-271738J0D01*
G01*
X245393738Y-82413000D01*
G75*
G02*
X245122000Y-82141262I0J271738D01*
G01*
X245122000Y-81434738D01*
G75*
G02*
X245393738Y-81163000I271738J0D01*
G01*
G37*
G36*
G01*
X245393738Y-83213000D02*
X246350262Y-83213000D01*
G75*
G02*
X246622000Y-83484738I0J-271738D01*
G01*
X246622000Y-84191262D01*
G75*
G02*
X246350262Y-84463000I-271738J0D01*
G01*
X245393738Y-84463000D01*
G75*
G02*
X245122000Y-84191262I0J271738D01*
G01*
X245122000Y-83484738D01*
G75*
G02*
X245393738Y-83213000I271738J0D01*
G01*
G37*
%TD*%
%TO.C,R25*%
G36*
G01*
X209907759Y-157588876D02*
X210584124Y-158265240D01*
G75*
G02*
X210584124Y-158649536I-192148J-192148D01*
G01*
X210084536Y-159149124D01*
G75*
G02*
X209700240Y-159149124I-192148J192148D01*
G01*
X209023876Y-158472760D01*
G75*
G02*
X209023876Y-158088464I192148J192148D01*
G01*
X209523464Y-157588876D01*
G75*
G02*
X209907760Y-157588876I192148J-192148D01*
G01*
G37*
G36*
G01*
X208458191Y-159038444D02*
X209134556Y-159714808D01*
G75*
G02*
X209134556Y-160099104I-192148J-192148D01*
G01*
X208634968Y-160598692D01*
G75*
G02*
X208250672Y-160598692I-192148J192148D01*
G01*
X207574308Y-159922328D01*
G75*
G02*
X207574308Y-159538032I192148J192148D01*
G01*
X208073896Y-159038444D01*
G75*
G02*
X208458192Y-159038444I192148J-192148D01*
G01*
G37*
%TD*%
%TO.C,R26*%
G36*
G01*
X210109191Y-165388444D02*
X210785556Y-166064808D01*
G75*
G02*
X210785556Y-166449104I-192148J-192148D01*
G01*
X210285968Y-166948692D01*
G75*
G02*
X209901672Y-166948692I-192148J192148D01*
G01*
X209225308Y-166272328D01*
G75*
G02*
X209225308Y-165888032I192148J192148D01*
G01*
X209724896Y-165388444D01*
G75*
G02*
X210109192Y-165388444I192148J-192148D01*
G01*
G37*
G36*
G01*
X211558759Y-163938876D02*
X212235124Y-164615240D01*
G75*
G02*
X212235124Y-164999536I-192148J-192148D01*
G01*
X211735536Y-165499124D01*
G75*
G02*
X211351240Y-165499124I-192148J192148D01*
G01*
X210674876Y-164822760D01*
G75*
G02*
X210674876Y-164438464I192148J192148D01*
G01*
X211174464Y-163938876D01*
G75*
G02*
X211558760Y-163938876I192148J-192148D01*
G01*
G37*
%TD*%
%TO.C,R27*%
G36*
G01*
X202467738Y-218196000D02*
X203424262Y-218196000D01*
G75*
G02*
X203696000Y-218467738I0J-271738D01*
G01*
X203696000Y-219174262D01*
G75*
G02*
X203424262Y-219446000I-271738J0D01*
G01*
X202467738Y-219446000D01*
G75*
G02*
X202196000Y-219174262I0J271738D01*
G01*
X202196000Y-218467738D01*
G75*
G02*
X202467738Y-218196000I271738J0D01*
G01*
G37*
G36*
G01*
X202467738Y-220246000D02*
X203424262Y-220246000D01*
G75*
G02*
X203696000Y-220517738I0J-271738D01*
G01*
X203696000Y-221224262D01*
G75*
G02*
X203424262Y-221496000I-271738J0D01*
G01*
X202467738Y-221496000D01*
G75*
G02*
X202196000Y-221224262I0J271738D01*
G01*
X202196000Y-220517738D01*
G75*
G02*
X202467738Y-220246000I271738J0D01*
G01*
G37*
%TD*%
%TO.C,R28*%
G36*
G01*
X249144262Y-84463000D02*
X248187738Y-84463000D01*
G75*
G02*
X247916000Y-84191262I0J271738D01*
G01*
X247916000Y-83484738D01*
G75*
G02*
X248187738Y-83213000I271738J0D01*
G01*
X249144262Y-83213000D01*
G75*
G02*
X249416000Y-83484738I0J-271738D01*
G01*
X249416000Y-84191262D01*
G75*
G02*
X249144262Y-84463000I-271738J0D01*
G01*
G37*
G36*
G01*
X249144262Y-82413000D02*
X248187738Y-82413000D01*
G75*
G02*
X247916000Y-82141262I0J271738D01*
G01*
X247916000Y-81434738D01*
G75*
G02*
X248187738Y-81163000I271738J0D01*
G01*
X249144262Y-81163000D01*
G75*
G02*
X249416000Y-81434738I0J-271738D01*
G01*
X249416000Y-82141262D01*
G75*
G02*
X249144262Y-82413000I-271738J0D01*
G01*
G37*
%TD*%
%TO.C,R34*%
G36*
G01*
X279683738Y-80401000D02*
X280640262Y-80401000D01*
G75*
G02*
X280912000Y-80672738I0J-271738D01*
G01*
X280912000Y-81379262D01*
G75*
G02*
X280640262Y-81651000I-271738J0D01*
G01*
X279683738Y-81651000D01*
G75*
G02*
X279412000Y-81379262I0J271738D01*
G01*
X279412000Y-80672738D01*
G75*
G02*
X279683738Y-80401000I271738J0D01*
G01*
G37*
G36*
G01*
X279683738Y-82451000D02*
X280640262Y-82451000D01*
G75*
G02*
X280912000Y-82722738I0J-271738D01*
G01*
X280912000Y-83429262D01*
G75*
G02*
X280640262Y-83701000I-271738J0D01*
G01*
X279683738Y-83701000D01*
G75*
G02*
X279412000Y-83429262I0J271738D01*
G01*
X279412000Y-82722738D01*
G75*
G02*
X279683738Y-82451000I271738J0D01*
G01*
G37*
%TD*%
%TO.C,R35*%
G36*
G01*
X259744738Y-80401000D02*
X260701262Y-80401000D01*
G75*
G02*
X260973000Y-80672738I0J-271738D01*
G01*
X260973000Y-81379262D01*
G75*
G02*
X260701262Y-81651000I-271738J0D01*
G01*
X259744738Y-81651000D01*
G75*
G02*
X259473000Y-81379262I0J271738D01*
G01*
X259473000Y-80672738D01*
G75*
G02*
X259744738Y-80401000I271738J0D01*
G01*
G37*
G36*
G01*
X259744738Y-82451000D02*
X260701262Y-82451000D01*
G75*
G02*
X260973000Y-82722738I0J-271738D01*
G01*
X260973000Y-83429262D01*
G75*
G02*
X260701262Y-83701000I-271738J0D01*
G01*
X259744738Y-83701000D01*
G75*
G02*
X259473000Y-83429262I0J271738D01*
G01*
X259473000Y-82722738D01*
G75*
G02*
X259744738Y-82451000I271738J0D01*
G01*
G37*
%TD*%
%TO.C,R36*%
G36*
G01*
X268507738Y-82451000D02*
X269464262Y-82451000D01*
G75*
G02*
X269736000Y-82722738I0J-271738D01*
G01*
X269736000Y-83429262D01*
G75*
G02*
X269464262Y-83701000I-271738J0D01*
G01*
X268507738Y-83701000D01*
G75*
G02*
X268236000Y-83429262I0J271738D01*
G01*
X268236000Y-82722738D01*
G75*
G02*
X268507738Y-82451000I271738J0D01*
G01*
G37*
G36*
G01*
X268507738Y-80401000D02*
X269464262Y-80401000D01*
G75*
G02*
X269736000Y-80672738I0J-271738D01*
G01*
X269736000Y-81379262D01*
G75*
G02*
X269464262Y-81651000I-271738J0D01*
G01*
X268507738Y-81651000D01*
G75*
G02*
X268236000Y-81379262I0J271738D01*
G01*
X268236000Y-80672738D01*
G75*
G02*
X268507738Y-80401000I271738J0D01*
G01*
G37*
%TD*%
%TO.C,R37*%
G36*
G01*
X265586738Y-80401000D02*
X266543262Y-80401000D01*
G75*
G02*
X266815000Y-80672738I0J-271738D01*
G01*
X266815000Y-81379262D01*
G75*
G02*
X266543262Y-81651000I-271738J0D01*
G01*
X265586738Y-81651000D01*
G75*
G02*
X265315000Y-81379262I0J271738D01*
G01*
X265315000Y-80672738D01*
G75*
G02*
X265586738Y-80401000I271738J0D01*
G01*
G37*
G36*
G01*
X265586738Y-82451000D02*
X266543262Y-82451000D01*
G75*
G02*
X266815000Y-82722738I0J-271738D01*
G01*
X266815000Y-83429262D01*
G75*
G02*
X266543262Y-83701000I-271738J0D01*
G01*
X265586738Y-83701000D01*
G75*
G02*
X265315000Y-83429262I0J271738D01*
G01*
X265315000Y-82722738D01*
G75*
G02*
X265586738Y-82451000I271738J0D01*
G01*
G37*
%TD*%
%TO.C,R38*%
G36*
G01*
X191671000Y-100046262D02*
X191671000Y-99089738D01*
G75*
G02*
X191942738Y-98818000I271738J0D01*
G01*
X192649262Y-98818000D01*
G75*
G02*
X192921000Y-99089738I0J-271738D01*
G01*
X192921000Y-100046262D01*
G75*
G02*
X192649262Y-100318000I-271738J0D01*
G01*
X191942738Y-100318000D01*
G75*
G02*
X191671000Y-100046262I0J271738D01*
G01*
G37*
G36*
G01*
X189621000Y-100046262D02*
X189621000Y-99089738D01*
G75*
G02*
X189892738Y-98818000I271738J0D01*
G01*
X190599262Y-98818000D01*
G75*
G02*
X190871000Y-99089738I0J-271738D01*
G01*
X190871000Y-100046262D01*
G75*
G02*
X190599262Y-100318000I-271738J0D01*
G01*
X189892738Y-100318000D01*
G75*
G02*
X189621000Y-100046262I0J271738D01*
G01*
G37*
%TD*%
%TO.C,R39*%
G36*
G01*
X199634000Y-99089738D02*
X199634000Y-100046262D01*
G75*
G02*
X199362262Y-100318000I-271738J0D01*
G01*
X198655738Y-100318000D01*
G75*
G02*
X198384000Y-100046262I0J271738D01*
G01*
X198384000Y-99089738D01*
G75*
G02*
X198655738Y-98818000I271738J0D01*
G01*
X199362262Y-98818000D01*
G75*
G02*
X199634000Y-99089738I0J-271738D01*
G01*
G37*
G36*
G01*
X197584000Y-99089738D02*
X197584000Y-100046262D01*
G75*
G02*
X197312262Y-100318000I-271738J0D01*
G01*
X196605738Y-100318000D01*
G75*
G02*
X196334000Y-100046262I0J271738D01*
G01*
X196334000Y-99089738D01*
G75*
G02*
X196605738Y-98818000I271738J0D01*
G01*
X197312262Y-98818000D01*
G75*
G02*
X197584000Y-99089738I0J-271738D01*
G01*
G37*
%TD*%
%TO.C,R40*%
G36*
G01*
X192905000Y-96744262D02*
X192905000Y-95787738D01*
G75*
G02*
X193176738Y-95516000I271738J0D01*
G01*
X193883262Y-95516000D01*
G75*
G02*
X194155000Y-95787738I0J-271738D01*
G01*
X194155000Y-96744262D01*
G75*
G02*
X193883262Y-97016000I-271738J0D01*
G01*
X193176738Y-97016000D01*
G75*
G02*
X192905000Y-96744262I0J271738D01*
G01*
G37*
G36*
G01*
X194955000Y-96744262D02*
X194955000Y-95787738D01*
G75*
G02*
X195226738Y-95516000I271738J0D01*
G01*
X195933262Y-95516000D01*
G75*
G02*
X196205000Y-95787738I0J-271738D01*
G01*
X196205000Y-96744262D01*
G75*
G02*
X195933262Y-97016000I-271738J0D01*
G01*
X195226738Y-97016000D01*
G75*
G02*
X194955000Y-96744262I0J271738D01*
G01*
G37*
%TD*%
%TO.C,R41*%
G36*
G01*
X189767738Y-92475000D02*
X190724262Y-92475000D01*
G75*
G02*
X190996000Y-92746738I0J-271738D01*
G01*
X190996000Y-93453262D01*
G75*
G02*
X190724262Y-93725000I-271738J0D01*
G01*
X189767738Y-93725000D01*
G75*
G02*
X189496000Y-93453262I0J271738D01*
G01*
X189496000Y-92746738D01*
G75*
G02*
X189767738Y-92475000I271738J0D01*
G01*
G37*
G36*
G01*
X189767738Y-90425000D02*
X190724262Y-90425000D01*
G75*
G02*
X190996000Y-90696738I0J-271738D01*
G01*
X190996000Y-91403262D01*
G75*
G02*
X190724262Y-91675000I-271738J0D01*
G01*
X189767738Y-91675000D01*
G75*
G02*
X189496000Y-91403262I0J271738D01*
G01*
X189496000Y-90696738D01*
G75*
G02*
X189767738Y-90425000I271738J0D01*
G01*
G37*
%TD*%
%TO.C,R42*%
G36*
G01*
X198530738Y-90425000D02*
X199487262Y-90425000D01*
G75*
G02*
X199759000Y-90696738I0J-271738D01*
G01*
X199759000Y-91403262D01*
G75*
G02*
X199487262Y-91675000I-271738J0D01*
G01*
X198530738Y-91675000D01*
G75*
G02*
X198259000Y-91403262I0J271738D01*
G01*
X198259000Y-90696738D01*
G75*
G02*
X198530738Y-90425000I271738J0D01*
G01*
G37*
G36*
G01*
X198530738Y-92475000D02*
X199487262Y-92475000D01*
G75*
G02*
X199759000Y-92746738I0J-271738D01*
G01*
X199759000Y-93453262D01*
G75*
G02*
X199487262Y-93725000I-271738J0D01*
G01*
X198530738Y-93725000D01*
G75*
G02*
X198259000Y-93453262I0J271738D01*
G01*
X198259000Y-92746738D01*
G75*
G02*
X198530738Y-92475000I271738J0D01*
G01*
G37*
%TD*%
%TO.C,R43*%
G36*
G01*
X277846262Y-81651000D02*
X276889738Y-81651000D01*
G75*
G02*
X276618000Y-81379262I0J271738D01*
G01*
X276618000Y-80672738D01*
G75*
G02*
X276889738Y-80401000I271738J0D01*
G01*
X277846262Y-80401000D01*
G75*
G02*
X278118000Y-80672738I0J-271738D01*
G01*
X278118000Y-81379262D01*
G75*
G02*
X277846262Y-81651000I-271738J0D01*
G01*
G37*
G36*
G01*
X277846262Y-83701000D02*
X276889738Y-83701000D01*
G75*
G02*
X276618000Y-83429262I0J271738D01*
G01*
X276618000Y-82722738D01*
G75*
G02*
X276889738Y-82451000I271738J0D01*
G01*
X277846262Y-82451000D01*
G75*
G02*
X278118000Y-82722738I0J-271738D01*
G01*
X278118000Y-83429262D01*
G75*
G02*
X277846262Y-83701000I-271738J0D01*
G01*
G37*
%TD*%
%TO.C,R44*%
G36*
G01*
X275052262Y-83701000D02*
X274095738Y-83701000D01*
G75*
G02*
X273824000Y-83429262I0J271738D01*
G01*
X273824000Y-82722738D01*
G75*
G02*
X274095738Y-82451000I271738J0D01*
G01*
X275052262Y-82451000D01*
G75*
G02*
X275324000Y-82722738I0J-271738D01*
G01*
X275324000Y-83429262D01*
G75*
G02*
X275052262Y-83701000I-271738J0D01*
G01*
G37*
G36*
G01*
X275052262Y-81651000D02*
X274095738Y-81651000D01*
G75*
G02*
X273824000Y-81379262I0J271738D01*
G01*
X273824000Y-80672738D01*
G75*
G02*
X274095738Y-80401000I271738J0D01*
G01*
X275052262Y-80401000D01*
G75*
G02*
X275324000Y-80672738I0J-271738D01*
G01*
X275324000Y-81379262D01*
G75*
G02*
X275052262Y-81651000I-271738J0D01*
G01*
G37*
%TD*%
%TO.C,R45*%
G36*
G01*
X272258262Y-81651000D02*
X271301738Y-81651000D01*
G75*
G02*
X271030000Y-81379262I0J271738D01*
G01*
X271030000Y-80672738D01*
G75*
G02*
X271301738Y-80401000I271738J0D01*
G01*
X272258262Y-80401000D01*
G75*
G02*
X272530000Y-80672738I0J-271738D01*
G01*
X272530000Y-81379262D01*
G75*
G02*
X272258262Y-81651000I-271738J0D01*
G01*
G37*
G36*
G01*
X272258262Y-83701000D02*
X271301738Y-83701000D01*
G75*
G02*
X271030000Y-83429262I0J271738D01*
G01*
X271030000Y-82722738D01*
G75*
G02*
X271301738Y-82451000I271738J0D01*
G01*
X272258262Y-82451000D01*
G75*
G02*
X272530000Y-82722738I0J-271738D01*
G01*
X272530000Y-83429262D01*
G75*
G02*
X272258262Y-83701000I-271738J0D01*
G01*
G37*
%TD*%
%TO.C,R46*%
G36*
G01*
X263495262Y-83692000D02*
X262538738Y-83692000D01*
G75*
G02*
X262267000Y-83420262I0J271738D01*
G01*
X262267000Y-82713738D01*
G75*
G02*
X262538738Y-82442000I271738J0D01*
G01*
X263495262Y-82442000D01*
G75*
G02*
X263767000Y-82713738I0J-271738D01*
G01*
X263767000Y-83420262D01*
G75*
G02*
X263495262Y-83692000I-271738J0D01*
G01*
G37*
G36*
G01*
X263495262Y-81642000D02*
X262538738Y-81642000D01*
G75*
G02*
X262267000Y-81370262I0J271738D01*
G01*
X262267000Y-80663738D01*
G75*
G02*
X262538738Y-80392000I271738J0D01*
G01*
X263495262Y-80392000D01*
G75*
G02*
X263767000Y-80663738I0J-271738D01*
G01*
X263767000Y-81370262D01*
G75*
G02*
X263495262Y-81642000I-271738J0D01*
G01*
G37*
%TD*%
%TO.C,R47*%
G36*
G01*
X276195262Y-88255000D02*
X275238738Y-88255000D01*
G75*
G02*
X274967000Y-87983262I0J271738D01*
G01*
X274967000Y-87276738D01*
G75*
G02*
X275238738Y-87005000I271738J0D01*
G01*
X276195262Y-87005000D01*
G75*
G02*
X276467000Y-87276738I0J-271738D01*
G01*
X276467000Y-87983262D01*
G75*
G02*
X276195262Y-88255000I-271738J0D01*
G01*
G37*
G36*
G01*
X276195262Y-90305000D02*
X275238738Y-90305000D01*
G75*
G02*
X274967000Y-90033262I0J271738D01*
G01*
X274967000Y-89326738D01*
G75*
G02*
X275238738Y-89055000I271738J0D01*
G01*
X276195262Y-89055000D01*
G75*
G02*
X276467000Y-89326738I0J-271738D01*
G01*
X276467000Y-90033262D01*
G75*
G02*
X276195262Y-90305000I-271738J0D01*
G01*
G37*
%TD*%
%TO.C,R48*%
G36*
G01*
X273528262Y-90305000D02*
X272571738Y-90305000D01*
G75*
G02*
X272300000Y-90033262I0J271738D01*
G01*
X272300000Y-89326738D01*
G75*
G02*
X272571738Y-89055000I271738J0D01*
G01*
X273528262Y-89055000D01*
G75*
G02*
X273800000Y-89326738I0J-271738D01*
G01*
X273800000Y-90033262D01*
G75*
G02*
X273528262Y-90305000I-271738J0D01*
G01*
G37*
G36*
G01*
X273528262Y-88255000D02*
X272571738Y-88255000D01*
G75*
G02*
X272300000Y-87983262I0J271738D01*
G01*
X272300000Y-87276738D01*
G75*
G02*
X272571738Y-87005000I271738J0D01*
G01*
X273528262Y-87005000D01*
G75*
G02*
X273800000Y-87276738I0J-271738D01*
G01*
X273800000Y-87983262D01*
G75*
G02*
X273528262Y-88255000I-271738J0D01*
G01*
G37*
%TD*%
%TO.C,R49*%
G36*
G01*
X270734262Y-88255000D02*
X269777738Y-88255000D01*
G75*
G02*
X269506000Y-87983262I0J271738D01*
G01*
X269506000Y-87276738D01*
G75*
G02*
X269777738Y-87005000I271738J0D01*
G01*
X270734262Y-87005000D01*
G75*
G02*
X271006000Y-87276738I0J-271738D01*
G01*
X271006000Y-87983262D01*
G75*
G02*
X270734262Y-88255000I-271738J0D01*
G01*
G37*
G36*
G01*
X270734262Y-90305000D02*
X269777738Y-90305000D01*
G75*
G02*
X269506000Y-90033262I0J271738D01*
G01*
X269506000Y-89326738D01*
G75*
G02*
X269777738Y-89055000I271738J0D01*
G01*
X270734262Y-89055000D01*
G75*
G02*
X271006000Y-89326738I0J-271738D01*
G01*
X271006000Y-90033262D01*
G75*
G02*
X270734262Y-90305000I-271738J0D01*
G01*
G37*
%TD*%
%TO.C,R50*%
G36*
G01*
X267940262Y-90296000D02*
X266983738Y-90296000D01*
G75*
G02*
X266712000Y-90024262I0J271738D01*
G01*
X266712000Y-89317738D01*
G75*
G02*
X266983738Y-89046000I271738J0D01*
G01*
X267940262Y-89046000D01*
G75*
G02*
X268212000Y-89317738I0J-271738D01*
G01*
X268212000Y-90024262D01*
G75*
G02*
X267940262Y-90296000I-271738J0D01*
G01*
G37*
G36*
G01*
X267940262Y-88246000D02*
X266983738Y-88246000D01*
G75*
G02*
X266712000Y-87974262I0J271738D01*
G01*
X266712000Y-87267738D01*
G75*
G02*
X266983738Y-86996000I271738J0D01*
G01*
X267940262Y-86996000D01*
G75*
G02*
X268212000Y-87267738I0J-271738D01*
G01*
X268212000Y-87974262D01*
G75*
G02*
X267940262Y-88246000I-271738J0D01*
G01*
G37*
%TD*%
%TO.C,R51*%
G36*
G01*
X216818738Y-80038000D02*
X217775262Y-80038000D01*
G75*
G02*
X218047000Y-80309738I0J-271738D01*
G01*
X218047000Y-81016262D01*
G75*
G02*
X217775262Y-81288000I-271738J0D01*
G01*
X216818738Y-81288000D01*
G75*
G02*
X216547000Y-81016262I0J271738D01*
G01*
X216547000Y-80309738D01*
G75*
G02*
X216818738Y-80038000I271738J0D01*
G01*
G37*
G36*
G01*
X216818738Y-77988000D02*
X217775262Y-77988000D01*
G75*
G02*
X218047000Y-78259738I0J-271738D01*
G01*
X218047000Y-78966262D01*
G75*
G02*
X217775262Y-79238000I-271738J0D01*
G01*
X216818738Y-79238000D01*
G75*
G02*
X216547000Y-78966262I0J271738D01*
G01*
X216547000Y-78259738D01*
G75*
G02*
X216818738Y-77988000I271738J0D01*
G01*
G37*
%TD*%
%TO.C,R52*%
G36*
G01*
X214024738Y-77988000D02*
X214981262Y-77988000D01*
G75*
G02*
X215253000Y-78259738I0J-271738D01*
G01*
X215253000Y-78966262D01*
G75*
G02*
X214981262Y-79238000I-271738J0D01*
G01*
X214024738Y-79238000D01*
G75*
G02*
X213753000Y-78966262I0J271738D01*
G01*
X213753000Y-78259738D01*
G75*
G02*
X214024738Y-77988000I271738J0D01*
G01*
G37*
G36*
G01*
X214024738Y-80038000D02*
X214981262Y-80038000D01*
G75*
G02*
X215253000Y-80309738I0J-271738D01*
G01*
X215253000Y-81016262D01*
G75*
G02*
X214981262Y-81288000I-271738J0D01*
G01*
X214024738Y-81288000D01*
G75*
G02*
X213753000Y-81016262I0J271738D01*
G01*
X213753000Y-80309738D01*
G75*
G02*
X214024738Y-80038000I271738J0D01*
G01*
G37*
%TD*%
%TO.C,R53*%
G36*
G01*
X211230738Y-80020000D02*
X212187262Y-80020000D01*
G75*
G02*
X212459000Y-80291738I0J-271738D01*
G01*
X212459000Y-80998262D01*
G75*
G02*
X212187262Y-81270000I-271738J0D01*
G01*
X211230738Y-81270000D01*
G75*
G02*
X210959000Y-80998262I0J271738D01*
G01*
X210959000Y-80291738D01*
G75*
G02*
X211230738Y-80020000I271738J0D01*
G01*
G37*
G36*
G01*
X211230738Y-77970000D02*
X212187262Y-77970000D01*
G75*
G02*
X212459000Y-78241738I0J-271738D01*
G01*
X212459000Y-78948262D01*
G75*
G02*
X212187262Y-79220000I-271738J0D01*
G01*
X211230738Y-79220000D01*
G75*
G02*
X210959000Y-78948262I0J271738D01*
G01*
X210959000Y-78241738D01*
G75*
G02*
X211230738Y-77970000I271738J0D01*
G01*
G37*
%TD*%
%TO.C,R54*%
G36*
G01*
X208436738Y-77988000D02*
X209393262Y-77988000D01*
G75*
G02*
X209665000Y-78259738I0J-271738D01*
G01*
X209665000Y-78966262D01*
G75*
G02*
X209393262Y-79238000I-271738J0D01*
G01*
X208436738Y-79238000D01*
G75*
G02*
X208165000Y-78966262I0J271738D01*
G01*
X208165000Y-78259738D01*
G75*
G02*
X208436738Y-77988000I271738J0D01*
G01*
G37*
G36*
G01*
X208436738Y-80038000D02*
X209393262Y-80038000D01*
G75*
G02*
X209665000Y-80309738I0J-271738D01*
G01*
X209665000Y-81016262D01*
G75*
G02*
X209393262Y-81288000I-271738J0D01*
G01*
X208436738Y-81288000D01*
G75*
G02*
X208165000Y-81016262I0J271738D01*
G01*
X208165000Y-80309738D01*
G75*
G02*
X208436738Y-80038000I271738J0D01*
G01*
G37*
%TD*%
%TO.C,R55*%
G36*
G01*
X227486738Y-85726000D02*
X228443262Y-85726000D01*
G75*
G02*
X228715000Y-85997738I0J-271738D01*
G01*
X228715000Y-86704262D01*
G75*
G02*
X228443262Y-86976000I-271738J0D01*
G01*
X227486738Y-86976000D01*
G75*
G02*
X227215000Y-86704262I0J271738D01*
G01*
X227215000Y-85997738D01*
G75*
G02*
X227486738Y-85726000I271738J0D01*
G01*
G37*
G36*
G01*
X227486738Y-87776000D02*
X228443262Y-87776000D01*
G75*
G02*
X228715000Y-88047738I0J-271738D01*
G01*
X228715000Y-88754262D01*
G75*
G02*
X228443262Y-89026000I-271738J0D01*
G01*
X227486738Y-89026000D01*
G75*
G02*
X227215000Y-88754262I0J271738D01*
G01*
X227215000Y-88047738D01*
G75*
G02*
X227486738Y-87776000I271738J0D01*
G01*
G37*
%TD*%
%TO.C,R56*%
G36*
G01*
X224946738Y-87776000D02*
X225903262Y-87776000D01*
G75*
G02*
X226175000Y-88047738I0J-271738D01*
G01*
X226175000Y-88754262D01*
G75*
G02*
X225903262Y-89026000I-271738J0D01*
G01*
X224946738Y-89026000D01*
G75*
G02*
X224675000Y-88754262I0J271738D01*
G01*
X224675000Y-88047738D01*
G75*
G02*
X224946738Y-87776000I271738J0D01*
G01*
G37*
G36*
G01*
X224946738Y-85726000D02*
X225903262Y-85726000D01*
G75*
G02*
X226175000Y-85997738I0J-271738D01*
G01*
X226175000Y-86704262D01*
G75*
G02*
X225903262Y-86976000I-271738J0D01*
G01*
X224946738Y-86976000D01*
G75*
G02*
X224675000Y-86704262I0J271738D01*
G01*
X224675000Y-85997738D01*
G75*
G02*
X224946738Y-85726000I271738J0D01*
G01*
G37*
%TD*%
%TO.C,R57*%
G36*
G01*
X222406738Y-85726000D02*
X223363262Y-85726000D01*
G75*
G02*
X223635000Y-85997738I0J-271738D01*
G01*
X223635000Y-86704262D01*
G75*
G02*
X223363262Y-86976000I-271738J0D01*
G01*
X222406738Y-86976000D01*
G75*
G02*
X222135000Y-86704262I0J271738D01*
G01*
X222135000Y-85997738D01*
G75*
G02*
X222406738Y-85726000I271738J0D01*
G01*
G37*
G36*
G01*
X222406738Y-87776000D02*
X223363262Y-87776000D01*
G75*
G02*
X223635000Y-88047738I0J-271738D01*
G01*
X223635000Y-88754262D01*
G75*
G02*
X223363262Y-89026000I-271738J0D01*
G01*
X222406738Y-89026000D01*
G75*
G02*
X222135000Y-88754262I0J271738D01*
G01*
X222135000Y-88047738D01*
G75*
G02*
X222406738Y-87776000I271738J0D01*
G01*
G37*
%TD*%
%TO.C,R58*%
G36*
G01*
X219866738Y-87776000D02*
X220823262Y-87776000D01*
G75*
G02*
X221095000Y-88047738I0J-271738D01*
G01*
X221095000Y-88754262D01*
G75*
G02*
X220823262Y-89026000I-271738J0D01*
G01*
X219866738Y-89026000D01*
G75*
G02*
X219595000Y-88754262I0J271738D01*
G01*
X219595000Y-88047738D01*
G75*
G02*
X219866738Y-87776000I271738J0D01*
G01*
G37*
G36*
G01*
X219866738Y-85726000D02*
X220823262Y-85726000D01*
G75*
G02*
X221095000Y-85997738I0J-271738D01*
G01*
X221095000Y-86704262D01*
G75*
G02*
X220823262Y-86976000I-271738J0D01*
G01*
X219866738Y-86976000D01*
G75*
G02*
X219595000Y-86704262I0J271738D01*
G01*
X219595000Y-85997738D01*
G75*
G02*
X219866738Y-85726000I271738J0D01*
G01*
G37*
%TD*%
%TO.C,R59*%
G36*
G01*
X233328738Y-80029000D02*
X234285262Y-80029000D01*
G75*
G02*
X234557000Y-80300738I0J-271738D01*
G01*
X234557000Y-81007262D01*
G75*
G02*
X234285262Y-81279000I-271738J0D01*
G01*
X233328738Y-81279000D01*
G75*
G02*
X233057000Y-81007262I0J271738D01*
G01*
X233057000Y-80300738D01*
G75*
G02*
X233328738Y-80029000I271738J0D01*
G01*
G37*
G36*
G01*
X233328738Y-77979000D02*
X234285262Y-77979000D01*
G75*
G02*
X234557000Y-78250738I0J-271738D01*
G01*
X234557000Y-78957262D01*
G75*
G02*
X234285262Y-79229000I-271738J0D01*
G01*
X233328738Y-79229000D01*
G75*
G02*
X233057000Y-78957262I0J271738D01*
G01*
X233057000Y-78250738D01*
G75*
G02*
X233328738Y-77979000I271738J0D01*
G01*
G37*
%TD*%
%TO.C,R60*%
G36*
G01*
X230915738Y-80029000D02*
X231872262Y-80029000D01*
G75*
G02*
X232144000Y-80300738I0J-271738D01*
G01*
X232144000Y-81007262D01*
G75*
G02*
X231872262Y-81279000I-271738J0D01*
G01*
X230915738Y-81279000D01*
G75*
G02*
X230644000Y-81007262I0J271738D01*
G01*
X230644000Y-80300738D01*
G75*
G02*
X230915738Y-80029000I271738J0D01*
G01*
G37*
G36*
G01*
X230915738Y-77979000D02*
X231872262Y-77979000D01*
G75*
G02*
X232144000Y-78250738I0J-271738D01*
G01*
X232144000Y-78957262D01*
G75*
G02*
X231872262Y-79229000I-271738J0D01*
G01*
X230915738Y-79229000D01*
G75*
G02*
X230644000Y-78957262I0J271738D01*
G01*
X230644000Y-78250738D01*
G75*
G02*
X230915738Y-77979000I271738J0D01*
G01*
G37*
%TD*%
%TO.C,R61*%
G36*
G01*
X228502738Y-77979000D02*
X229459262Y-77979000D01*
G75*
G02*
X229731000Y-78250738I0J-271738D01*
G01*
X229731000Y-78957262D01*
G75*
G02*
X229459262Y-79229000I-271738J0D01*
G01*
X228502738Y-79229000D01*
G75*
G02*
X228231000Y-78957262I0J271738D01*
G01*
X228231000Y-78250738D01*
G75*
G02*
X228502738Y-77979000I271738J0D01*
G01*
G37*
G36*
G01*
X228502738Y-80029000D02*
X229459262Y-80029000D01*
G75*
G02*
X229731000Y-80300738I0J-271738D01*
G01*
X229731000Y-81007262D01*
G75*
G02*
X229459262Y-81279000I-271738J0D01*
G01*
X228502738Y-81279000D01*
G75*
G02*
X228231000Y-81007262I0J271738D01*
G01*
X228231000Y-80300738D01*
G75*
G02*
X228502738Y-80029000I271738J0D01*
G01*
G37*
%TD*%
%TO.C,R62*%
G36*
G01*
X226089738Y-80029000D02*
X227046262Y-80029000D01*
G75*
G02*
X227318000Y-80300738I0J-271738D01*
G01*
X227318000Y-81007262D01*
G75*
G02*
X227046262Y-81279000I-271738J0D01*
G01*
X226089738Y-81279000D01*
G75*
G02*
X225818000Y-81007262I0J271738D01*
G01*
X225818000Y-80300738D01*
G75*
G02*
X226089738Y-80029000I271738J0D01*
G01*
G37*
G36*
G01*
X226089738Y-77979000D02*
X227046262Y-77979000D01*
G75*
G02*
X227318000Y-78250738I0J-271738D01*
G01*
X227318000Y-78957262D01*
G75*
G02*
X227046262Y-79229000I-271738J0D01*
G01*
X226089738Y-79229000D01*
G75*
G02*
X225818000Y-78957262I0J271738D01*
G01*
X225818000Y-78250738D01*
G75*
G02*
X226089738Y-77979000I271738J0D01*
G01*
G37*
%TD*%
D34*
%TO.C,S1*%
X208606000Y-212979000D03*
X208606000Y-206479000D03*
X213106000Y-212979000D03*
X213106000Y-206479000D03*
%TD*%
%TO.C,S2*%
X206248000Y-206479000D03*
X206248000Y-212979000D03*
X201748000Y-206479000D03*
X201748000Y-212979000D03*
%TD*%
D42*
%TO.C,U1*%
G36*
X221880629Y-118788248D02*
G01*
X220713903Y-117621522D01*
X220996745Y-117338680D01*
X222163471Y-118505406D01*
X221880629Y-118788248D01*
G37*
G36*
X221527076Y-119141802D02*
G01*
X220360350Y-117975076D01*
X220643192Y-117692234D01*
X221809918Y-118858960D01*
X221527076Y-119141802D01*
G37*
G36*
X221173523Y-119495355D02*
G01*
X220006797Y-118328629D01*
X220289639Y-118045787D01*
X221456365Y-119212513D01*
X221173523Y-119495355D01*
G37*
G36*
X220819969Y-119848909D02*
G01*
X219653243Y-118682183D01*
X219936085Y-118399341D01*
X221102811Y-119566067D01*
X220819969Y-119848909D01*
G37*
G36*
X220466416Y-120202462D02*
G01*
X219299690Y-119035736D01*
X219582532Y-118752894D01*
X220749258Y-119919620D01*
X220466416Y-120202462D01*
G37*
G36*
X220112862Y-120556015D02*
G01*
X218946136Y-119389289D01*
X219228978Y-119106447D01*
X220395704Y-120273173D01*
X220112862Y-120556015D01*
G37*
G36*
X219759309Y-120909569D02*
G01*
X218592583Y-119742843D01*
X218875425Y-119460001D01*
X220042151Y-120626727D01*
X219759309Y-120909569D01*
G37*
G36*
X219405756Y-121263122D02*
G01*
X218239030Y-120096396D01*
X218521872Y-119813554D01*
X219688598Y-120980280D01*
X219405756Y-121263122D01*
G37*
G36*
X219052202Y-121616676D02*
G01*
X217885476Y-120449950D01*
X218168318Y-120167108D01*
X219335044Y-121333834D01*
X219052202Y-121616676D01*
G37*
G36*
X218698649Y-121970229D02*
G01*
X217531923Y-120803503D01*
X217814765Y-120520661D01*
X218981491Y-121687387D01*
X218698649Y-121970229D01*
G37*
G36*
X218345096Y-122323782D02*
G01*
X217178370Y-121157056D01*
X217461212Y-120874214D01*
X218627938Y-122040940D01*
X218345096Y-122323782D01*
G37*
G36*
X217991542Y-122677336D02*
G01*
X216824816Y-121510610D01*
X217107658Y-121227768D01*
X218274384Y-122394494D01*
X217991542Y-122677336D01*
G37*
G36*
X217637989Y-123030889D02*
G01*
X216471263Y-121864163D01*
X216754105Y-121581321D01*
X217920831Y-122748047D01*
X217637989Y-123030889D01*
G37*
G36*
X217284435Y-123384443D02*
G01*
X216117709Y-122217717D01*
X216400551Y-121934875D01*
X217567277Y-123101601D01*
X217284435Y-123384443D01*
G37*
G36*
X216930882Y-123737996D02*
G01*
X215764156Y-122571270D01*
X216046998Y-122288428D01*
X217213724Y-123455154D01*
X216930882Y-123737996D01*
G37*
G36*
X216577329Y-124091549D02*
G01*
X215410603Y-122924823D01*
X215693445Y-122641981D01*
X216860171Y-123808707D01*
X216577329Y-124091549D01*
G37*
G36*
X216223775Y-124445103D02*
G01*
X215057049Y-123278377D01*
X215339891Y-122995535D01*
X216506617Y-124162261D01*
X216223775Y-124445103D01*
G37*
G36*
X215870222Y-124798656D02*
G01*
X214703496Y-123631930D01*
X214986338Y-123349088D01*
X216153064Y-124515814D01*
X215870222Y-124798656D01*
G37*
G36*
X215516668Y-125152210D02*
G01*
X214349942Y-123985484D01*
X214632784Y-123702642D01*
X215799510Y-124869368D01*
X215516668Y-125152210D01*
G37*
G36*
X215163115Y-125505763D02*
G01*
X213996389Y-124339037D01*
X214279231Y-124056195D01*
X215445957Y-125222921D01*
X215163115Y-125505763D01*
G37*
G36*
X214809562Y-125859316D02*
G01*
X213642836Y-124692590D01*
X213925678Y-124409748D01*
X215092404Y-125576474D01*
X214809562Y-125859316D01*
G37*
G36*
X214456008Y-126212870D02*
G01*
X213289282Y-125046144D01*
X213572124Y-124763302D01*
X214738850Y-125930028D01*
X214456008Y-126212870D01*
G37*
G36*
X214102455Y-126566423D02*
G01*
X212935729Y-125399697D01*
X213218571Y-125116855D01*
X214385297Y-126283581D01*
X214102455Y-126566423D01*
G37*
G36*
X213748901Y-126919976D02*
G01*
X212582175Y-125753250D01*
X212865017Y-125470408D01*
X214031743Y-126637134D01*
X213748901Y-126919976D01*
G37*
G36*
X213395348Y-127273530D02*
G01*
X212228622Y-126106804D01*
X212511464Y-125823962D01*
X213678190Y-126990688D01*
X213395348Y-127273530D01*
G37*
G36*
X213041795Y-127627083D02*
G01*
X211875069Y-126460357D01*
X212157911Y-126177515D01*
X213324637Y-127344241D01*
X213041795Y-127627083D01*
G37*
G36*
X212688241Y-127980637D02*
G01*
X211521515Y-126813911D01*
X211804357Y-126531069D01*
X212971083Y-127697795D01*
X212688241Y-127980637D01*
G37*
G36*
X212334688Y-128334190D02*
G01*
X211167962Y-127167464D01*
X211450804Y-126884622D01*
X212617530Y-128051348D01*
X212334688Y-128334190D01*
G37*
G36*
X211981134Y-128687743D02*
G01*
X210814408Y-127521017D01*
X211097250Y-127238175D01*
X212263976Y-128404901D01*
X211981134Y-128687743D01*
G37*
G36*
X211627581Y-129041297D02*
G01*
X210460855Y-127874571D01*
X210743697Y-127591729D01*
X211910423Y-128758455D01*
X211627581Y-129041297D01*
G37*
G36*
X211274028Y-129394850D02*
G01*
X210107302Y-128228124D01*
X210390144Y-127945282D01*
X211556870Y-129112008D01*
X211274028Y-129394850D01*
G37*
G36*
X210920474Y-129748404D02*
G01*
X209753748Y-128581678D01*
X210036590Y-128298836D01*
X211203316Y-129465562D01*
X210920474Y-129748404D01*
G37*
G36*
X210566921Y-130101957D02*
G01*
X209400195Y-128935231D01*
X209683037Y-128652389D01*
X210849763Y-129819115D01*
X210566921Y-130101957D01*
G37*
G36*
X210213368Y-130455510D02*
G01*
X209046642Y-129288784D01*
X209329484Y-129005942D01*
X210496210Y-130172668D01*
X210213368Y-130455510D01*
G37*
G36*
X209859814Y-130809064D02*
G01*
X208693088Y-129642338D01*
X208975930Y-129359496D01*
X210142656Y-130526222D01*
X209859814Y-130809064D01*
G37*
G36*
X209506261Y-131162617D02*
G01*
X208339535Y-129995891D01*
X208622377Y-129713049D01*
X209789103Y-130879775D01*
X209506261Y-131162617D01*
G37*
G36*
X209152707Y-131516171D02*
G01*
X207985981Y-130349445D01*
X208268823Y-130066603D01*
X209435549Y-131233329D01*
X209152707Y-131516171D01*
G37*
G36*
X208799154Y-131869724D02*
G01*
X207632428Y-130702998D01*
X207915270Y-130420156D01*
X209081996Y-131586882D01*
X208799154Y-131869724D01*
G37*
G36*
X208445601Y-132223277D02*
G01*
X207278875Y-131056551D01*
X207561717Y-130773709D01*
X208728443Y-131940435D01*
X208445601Y-132223277D01*
G37*
G36*
X208092047Y-132576831D02*
G01*
X206925321Y-131410105D01*
X207208163Y-131127263D01*
X208374889Y-132293989D01*
X208092047Y-132576831D01*
G37*
G36*
X207738494Y-132930384D02*
G01*
X206571768Y-131763658D01*
X206854610Y-131480816D01*
X208021336Y-132647542D01*
X207738494Y-132930384D01*
G37*
G36*
X207384940Y-133283938D02*
G01*
X206218214Y-132117212D01*
X206501056Y-131834370D01*
X207667782Y-133001096D01*
X207384940Y-133283938D01*
G37*
G36*
X207031387Y-133637491D02*
G01*
X205864661Y-132470765D01*
X206147503Y-132187923D01*
X207314229Y-133354649D01*
X207031387Y-133637491D01*
G37*
G36*
X206677834Y-133991044D02*
G01*
X205511108Y-132824318D01*
X205793950Y-132541476D01*
X206960676Y-133708202D01*
X206677834Y-133991044D01*
G37*
G36*
X206324280Y-134344598D02*
G01*
X205157554Y-133177872D01*
X205440396Y-132895030D01*
X206607122Y-134061756D01*
X206324280Y-134344598D01*
G37*
G36*
X205970727Y-134698151D02*
G01*
X204804001Y-133531425D01*
X205086843Y-133248583D01*
X206253569Y-134415309D01*
X205970727Y-134698151D01*
G37*
G36*
X205617173Y-135051704D02*
G01*
X204450447Y-133884978D01*
X204733289Y-133602136D01*
X205900015Y-134768862D01*
X205617173Y-135051704D01*
G37*
G36*
X205263620Y-135405258D02*
G01*
X204096894Y-134238532D01*
X204379736Y-133955690D01*
X205546462Y-135122416D01*
X205263620Y-135405258D01*
G37*
G36*
X204910067Y-135758811D02*
G01*
X203743341Y-134592085D01*
X204026183Y-134309243D01*
X205192909Y-135475969D01*
X204910067Y-135758811D01*
G37*
G36*
X204556513Y-136112365D02*
G01*
X203389787Y-134945639D01*
X203672629Y-134662797D01*
X204839355Y-135829523D01*
X204556513Y-136112365D01*
G37*
G36*
X204202960Y-136465918D02*
G01*
X203036234Y-135299192D01*
X203319076Y-135016350D01*
X204485802Y-136183076D01*
X204202960Y-136465918D01*
G37*
G36*
X203849406Y-136819471D02*
G01*
X202682680Y-135652745D01*
X202965522Y-135369903D01*
X204132248Y-136536629D01*
X203849406Y-136819471D01*
G37*
G36*
X202682680Y-139683255D02*
G01*
X203849406Y-138516529D01*
X204132248Y-138799371D01*
X202965522Y-139966097D01*
X202682680Y-139683255D01*
G37*
G36*
X203036234Y-140036808D02*
G01*
X204202960Y-138870082D01*
X204485802Y-139152924D01*
X203319076Y-140319650D01*
X203036234Y-140036808D01*
G37*
G36*
X203389787Y-140390361D02*
G01*
X204556513Y-139223635D01*
X204839355Y-139506477D01*
X203672629Y-140673203D01*
X203389787Y-140390361D01*
G37*
G36*
X203743341Y-140743915D02*
G01*
X204910067Y-139577189D01*
X205192909Y-139860031D01*
X204026183Y-141026757D01*
X203743341Y-140743915D01*
G37*
G36*
X204096894Y-141097468D02*
G01*
X205263620Y-139930742D01*
X205546462Y-140213584D01*
X204379736Y-141380310D01*
X204096894Y-141097468D01*
G37*
G36*
X204450447Y-141451022D02*
G01*
X205617173Y-140284296D01*
X205900015Y-140567138D01*
X204733289Y-141733864D01*
X204450447Y-141451022D01*
G37*
G36*
X204804001Y-141804575D02*
G01*
X205970727Y-140637849D01*
X206253569Y-140920691D01*
X205086843Y-142087417D01*
X204804001Y-141804575D01*
G37*
G36*
X205157554Y-142158128D02*
G01*
X206324280Y-140991402D01*
X206607122Y-141274244D01*
X205440396Y-142440970D01*
X205157554Y-142158128D01*
G37*
G36*
X205511108Y-142511682D02*
G01*
X206677834Y-141344956D01*
X206960676Y-141627798D01*
X205793950Y-142794524D01*
X205511108Y-142511682D01*
G37*
G36*
X205864661Y-142865235D02*
G01*
X207031387Y-141698509D01*
X207314229Y-141981351D01*
X206147503Y-143148077D01*
X205864661Y-142865235D01*
G37*
G36*
X206218214Y-143218788D02*
G01*
X207384940Y-142052062D01*
X207667782Y-142334904D01*
X206501056Y-143501630D01*
X206218214Y-143218788D01*
G37*
G36*
X206571768Y-143572342D02*
G01*
X207738494Y-142405616D01*
X208021336Y-142688458D01*
X206854610Y-143855184D01*
X206571768Y-143572342D01*
G37*
G36*
X206925321Y-143925895D02*
G01*
X208092047Y-142759169D01*
X208374889Y-143042011D01*
X207208163Y-144208737D01*
X206925321Y-143925895D01*
G37*
G36*
X207278875Y-144279449D02*
G01*
X208445601Y-143112723D01*
X208728443Y-143395565D01*
X207561717Y-144562291D01*
X207278875Y-144279449D01*
G37*
G36*
X207632428Y-144633002D02*
G01*
X208799154Y-143466276D01*
X209081996Y-143749118D01*
X207915270Y-144915844D01*
X207632428Y-144633002D01*
G37*
G36*
X207985981Y-144986555D02*
G01*
X209152707Y-143819829D01*
X209435549Y-144102671D01*
X208268823Y-145269397D01*
X207985981Y-144986555D01*
G37*
G36*
X208339535Y-145340109D02*
G01*
X209506261Y-144173383D01*
X209789103Y-144456225D01*
X208622377Y-145622951D01*
X208339535Y-145340109D01*
G37*
G36*
X208693088Y-145693662D02*
G01*
X209859814Y-144526936D01*
X210142656Y-144809778D01*
X208975930Y-145976504D01*
X208693088Y-145693662D01*
G37*
G36*
X209046642Y-146047216D02*
G01*
X210213368Y-144880490D01*
X210496210Y-145163332D01*
X209329484Y-146330058D01*
X209046642Y-146047216D01*
G37*
G36*
X209400195Y-146400769D02*
G01*
X210566921Y-145234043D01*
X210849763Y-145516885D01*
X209683037Y-146683611D01*
X209400195Y-146400769D01*
G37*
G36*
X209753748Y-146754322D02*
G01*
X210920474Y-145587596D01*
X211203316Y-145870438D01*
X210036590Y-147037164D01*
X209753748Y-146754322D01*
G37*
G36*
X210107302Y-147107876D02*
G01*
X211274028Y-145941150D01*
X211556870Y-146223992D01*
X210390144Y-147390718D01*
X210107302Y-147107876D01*
G37*
G36*
X210460855Y-147461429D02*
G01*
X211627581Y-146294703D01*
X211910423Y-146577545D01*
X210743697Y-147744271D01*
X210460855Y-147461429D01*
G37*
G36*
X210814408Y-147814983D02*
G01*
X211981134Y-146648257D01*
X212263976Y-146931099D01*
X211097250Y-148097825D01*
X210814408Y-147814983D01*
G37*
G36*
X211167962Y-148168536D02*
G01*
X212334688Y-147001810D01*
X212617530Y-147284652D01*
X211450804Y-148451378D01*
X211167962Y-148168536D01*
G37*
G36*
X211521515Y-148522089D02*
G01*
X212688241Y-147355363D01*
X212971083Y-147638205D01*
X211804357Y-148804931D01*
X211521515Y-148522089D01*
G37*
G36*
X211875069Y-148875643D02*
G01*
X213041795Y-147708917D01*
X213324637Y-147991759D01*
X212157911Y-149158485D01*
X211875069Y-148875643D01*
G37*
G36*
X212228622Y-149229196D02*
G01*
X213395348Y-148062470D01*
X213678190Y-148345312D01*
X212511464Y-149512038D01*
X212228622Y-149229196D01*
G37*
G36*
X212582175Y-149582750D02*
G01*
X213748901Y-148416024D01*
X214031743Y-148698866D01*
X212865017Y-149865592D01*
X212582175Y-149582750D01*
G37*
G36*
X212935729Y-149936303D02*
G01*
X214102455Y-148769577D01*
X214385297Y-149052419D01*
X213218571Y-150219145D01*
X212935729Y-149936303D01*
G37*
G36*
X213289282Y-150289856D02*
G01*
X214456008Y-149123130D01*
X214738850Y-149405972D01*
X213572124Y-150572698D01*
X213289282Y-150289856D01*
G37*
G36*
X213642836Y-150643410D02*
G01*
X214809562Y-149476684D01*
X215092404Y-149759526D01*
X213925678Y-150926252D01*
X213642836Y-150643410D01*
G37*
G36*
X213996389Y-150996963D02*
G01*
X215163115Y-149830237D01*
X215445957Y-150113079D01*
X214279231Y-151279805D01*
X213996389Y-150996963D01*
G37*
G36*
X214349942Y-151350516D02*
G01*
X215516668Y-150183790D01*
X215799510Y-150466632D01*
X214632784Y-151633358D01*
X214349942Y-151350516D01*
G37*
G36*
X214703496Y-151704070D02*
G01*
X215870222Y-150537344D01*
X216153064Y-150820186D01*
X214986338Y-151986912D01*
X214703496Y-151704070D01*
G37*
G36*
X215057049Y-152057623D02*
G01*
X216223775Y-150890897D01*
X216506617Y-151173739D01*
X215339891Y-152340465D01*
X215057049Y-152057623D01*
G37*
G36*
X215410603Y-152411177D02*
G01*
X216577329Y-151244451D01*
X216860171Y-151527293D01*
X215693445Y-152694019D01*
X215410603Y-152411177D01*
G37*
G36*
X215764156Y-152764730D02*
G01*
X216930882Y-151598004D01*
X217213724Y-151880846D01*
X216046998Y-153047572D01*
X215764156Y-152764730D01*
G37*
G36*
X216117709Y-153118283D02*
G01*
X217284435Y-151951557D01*
X217567277Y-152234399D01*
X216400551Y-153401125D01*
X216117709Y-153118283D01*
G37*
G36*
X216471263Y-153471837D02*
G01*
X217637989Y-152305111D01*
X217920831Y-152587953D01*
X216754105Y-153754679D01*
X216471263Y-153471837D01*
G37*
G36*
X216824816Y-153825390D02*
G01*
X217991542Y-152658664D01*
X218274384Y-152941506D01*
X217107658Y-154108232D01*
X216824816Y-153825390D01*
G37*
G36*
X217178370Y-154178944D02*
G01*
X218345096Y-153012218D01*
X218627938Y-153295060D01*
X217461212Y-154461786D01*
X217178370Y-154178944D01*
G37*
G36*
X217531923Y-154532497D02*
G01*
X218698649Y-153365771D01*
X218981491Y-153648613D01*
X217814765Y-154815339D01*
X217531923Y-154532497D01*
G37*
G36*
X217885476Y-154886050D02*
G01*
X219052202Y-153719324D01*
X219335044Y-154002166D01*
X218168318Y-155168892D01*
X217885476Y-154886050D01*
G37*
G36*
X218239030Y-155239604D02*
G01*
X219405756Y-154072878D01*
X219688598Y-154355720D01*
X218521872Y-155522446D01*
X218239030Y-155239604D01*
G37*
G36*
X218592583Y-155593157D02*
G01*
X219759309Y-154426431D01*
X220042151Y-154709273D01*
X218875425Y-155875999D01*
X218592583Y-155593157D01*
G37*
G36*
X218946136Y-155946711D02*
G01*
X220112862Y-154779985D01*
X220395704Y-155062827D01*
X219228978Y-156229553D01*
X218946136Y-155946711D01*
G37*
G36*
X219299690Y-156300264D02*
G01*
X220466416Y-155133538D01*
X220749258Y-155416380D01*
X219582532Y-156583106D01*
X219299690Y-156300264D01*
G37*
G36*
X219653243Y-156653817D02*
G01*
X220819969Y-155487091D01*
X221102811Y-155769933D01*
X219936085Y-156936659D01*
X219653243Y-156653817D01*
G37*
G36*
X220006797Y-157007371D02*
G01*
X221173523Y-155840645D01*
X221456365Y-156123487D01*
X220289639Y-157290213D01*
X220006797Y-157007371D01*
G37*
G36*
X220360350Y-157360924D02*
G01*
X221527076Y-156194198D01*
X221809918Y-156477040D01*
X220643192Y-157643766D01*
X220360350Y-157360924D01*
G37*
G36*
X220713903Y-157714478D02*
G01*
X221880629Y-156547752D01*
X222163471Y-156830594D01*
X220996745Y-157997320D01*
X220713903Y-157714478D01*
G37*
G36*
X225027255Y-157997320D02*
G01*
X223860529Y-156830594D01*
X224143371Y-156547752D01*
X225310097Y-157714478D01*
X225027255Y-157997320D01*
G37*
G36*
X225380808Y-157643766D02*
G01*
X224214082Y-156477040D01*
X224496924Y-156194198D01*
X225663650Y-157360924D01*
X225380808Y-157643766D01*
G37*
G36*
X225734361Y-157290213D02*
G01*
X224567635Y-156123487D01*
X224850477Y-155840645D01*
X226017203Y-157007371D01*
X225734361Y-157290213D01*
G37*
G36*
X226087915Y-156936659D02*
G01*
X224921189Y-155769933D01*
X225204031Y-155487091D01*
X226370757Y-156653817D01*
X226087915Y-156936659D01*
G37*
G36*
X226441468Y-156583106D02*
G01*
X225274742Y-155416380D01*
X225557584Y-155133538D01*
X226724310Y-156300264D01*
X226441468Y-156583106D01*
G37*
G36*
X226795022Y-156229553D02*
G01*
X225628296Y-155062827D01*
X225911138Y-154779985D01*
X227077864Y-155946711D01*
X226795022Y-156229553D01*
G37*
G36*
X227148575Y-155875999D02*
G01*
X225981849Y-154709273D01*
X226264691Y-154426431D01*
X227431417Y-155593157D01*
X227148575Y-155875999D01*
G37*
G36*
X227502128Y-155522446D02*
G01*
X226335402Y-154355720D01*
X226618244Y-154072878D01*
X227784970Y-155239604D01*
X227502128Y-155522446D01*
G37*
G36*
X227855682Y-155168892D02*
G01*
X226688956Y-154002166D01*
X226971798Y-153719324D01*
X228138524Y-154886050D01*
X227855682Y-155168892D01*
G37*
G36*
X228209235Y-154815339D02*
G01*
X227042509Y-153648613D01*
X227325351Y-153365771D01*
X228492077Y-154532497D01*
X228209235Y-154815339D01*
G37*
G36*
X228562788Y-154461786D02*
G01*
X227396062Y-153295060D01*
X227678904Y-153012218D01*
X228845630Y-154178944D01*
X228562788Y-154461786D01*
G37*
G36*
X228916342Y-154108232D02*
G01*
X227749616Y-152941506D01*
X228032458Y-152658664D01*
X229199184Y-153825390D01*
X228916342Y-154108232D01*
G37*
G36*
X229269895Y-153754679D02*
G01*
X228103169Y-152587953D01*
X228386011Y-152305111D01*
X229552737Y-153471837D01*
X229269895Y-153754679D01*
G37*
G36*
X229623449Y-153401125D02*
G01*
X228456723Y-152234399D01*
X228739565Y-151951557D01*
X229906291Y-153118283D01*
X229623449Y-153401125D01*
G37*
G36*
X229977002Y-153047572D02*
G01*
X228810276Y-151880846D01*
X229093118Y-151598004D01*
X230259844Y-152764730D01*
X229977002Y-153047572D01*
G37*
G36*
X230330555Y-152694019D02*
G01*
X229163829Y-151527293D01*
X229446671Y-151244451D01*
X230613397Y-152411177D01*
X230330555Y-152694019D01*
G37*
G36*
X230684109Y-152340465D02*
G01*
X229517383Y-151173739D01*
X229800225Y-150890897D01*
X230966951Y-152057623D01*
X230684109Y-152340465D01*
G37*
G36*
X231037662Y-151986912D02*
G01*
X229870936Y-150820186D01*
X230153778Y-150537344D01*
X231320504Y-151704070D01*
X231037662Y-151986912D01*
G37*
G36*
X231391216Y-151633358D02*
G01*
X230224490Y-150466632D01*
X230507332Y-150183790D01*
X231674058Y-151350516D01*
X231391216Y-151633358D01*
G37*
G36*
X231744769Y-151279805D02*
G01*
X230578043Y-150113079D01*
X230860885Y-149830237D01*
X232027611Y-150996963D01*
X231744769Y-151279805D01*
G37*
G36*
X232098322Y-150926252D02*
G01*
X230931596Y-149759526D01*
X231214438Y-149476684D01*
X232381164Y-150643410D01*
X232098322Y-150926252D01*
G37*
G36*
X232451876Y-150572698D02*
G01*
X231285150Y-149405972D01*
X231567992Y-149123130D01*
X232734718Y-150289856D01*
X232451876Y-150572698D01*
G37*
G36*
X232805429Y-150219145D02*
G01*
X231638703Y-149052419D01*
X231921545Y-148769577D01*
X233088271Y-149936303D01*
X232805429Y-150219145D01*
G37*
G36*
X233158983Y-149865592D02*
G01*
X231992257Y-148698866D01*
X232275099Y-148416024D01*
X233441825Y-149582750D01*
X233158983Y-149865592D01*
G37*
G36*
X233512536Y-149512038D02*
G01*
X232345810Y-148345312D01*
X232628652Y-148062470D01*
X233795378Y-149229196D01*
X233512536Y-149512038D01*
G37*
G36*
X233866089Y-149158485D02*
G01*
X232699363Y-147991759D01*
X232982205Y-147708917D01*
X234148931Y-148875643D01*
X233866089Y-149158485D01*
G37*
G36*
X234219643Y-148804931D02*
G01*
X233052917Y-147638205D01*
X233335759Y-147355363D01*
X234502485Y-148522089D01*
X234219643Y-148804931D01*
G37*
G36*
X234573196Y-148451378D02*
G01*
X233406470Y-147284652D01*
X233689312Y-147001810D01*
X234856038Y-148168536D01*
X234573196Y-148451378D01*
G37*
G36*
X234926750Y-148097825D02*
G01*
X233760024Y-146931099D01*
X234042866Y-146648257D01*
X235209592Y-147814983D01*
X234926750Y-148097825D01*
G37*
G36*
X235280303Y-147744271D02*
G01*
X234113577Y-146577545D01*
X234396419Y-146294703D01*
X235563145Y-147461429D01*
X235280303Y-147744271D01*
G37*
G36*
X235633856Y-147390718D02*
G01*
X234467130Y-146223992D01*
X234749972Y-145941150D01*
X235916698Y-147107876D01*
X235633856Y-147390718D01*
G37*
G36*
X235987410Y-147037164D02*
G01*
X234820684Y-145870438D01*
X235103526Y-145587596D01*
X236270252Y-146754322D01*
X235987410Y-147037164D01*
G37*
G36*
X236340963Y-146683611D02*
G01*
X235174237Y-145516885D01*
X235457079Y-145234043D01*
X236623805Y-146400769D01*
X236340963Y-146683611D01*
G37*
G36*
X236694516Y-146330058D02*
G01*
X235527790Y-145163332D01*
X235810632Y-144880490D01*
X236977358Y-146047216D01*
X236694516Y-146330058D01*
G37*
G36*
X237048070Y-145976504D02*
G01*
X235881344Y-144809778D01*
X236164186Y-144526936D01*
X237330912Y-145693662D01*
X237048070Y-145976504D01*
G37*
G36*
X237401623Y-145622951D02*
G01*
X236234897Y-144456225D01*
X236517739Y-144173383D01*
X237684465Y-145340109D01*
X237401623Y-145622951D01*
G37*
G36*
X237755177Y-145269397D02*
G01*
X236588451Y-144102671D01*
X236871293Y-143819829D01*
X238038019Y-144986555D01*
X237755177Y-145269397D01*
G37*
G36*
X238108730Y-144915844D02*
G01*
X236942004Y-143749118D01*
X237224846Y-143466276D01*
X238391572Y-144633002D01*
X238108730Y-144915844D01*
G37*
G36*
X238462283Y-144562291D02*
G01*
X237295557Y-143395565D01*
X237578399Y-143112723D01*
X238745125Y-144279449D01*
X238462283Y-144562291D01*
G37*
G36*
X238815837Y-144208737D02*
G01*
X237649111Y-143042011D01*
X237931953Y-142759169D01*
X239098679Y-143925895D01*
X238815837Y-144208737D01*
G37*
G36*
X239169390Y-143855184D02*
G01*
X238002664Y-142688458D01*
X238285506Y-142405616D01*
X239452232Y-143572342D01*
X239169390Y-143855184D01*
G37*
G36*
X239522944Y-143501630D02*
G01*
X238356218Y-142334904D01*
X238639060Y-142052062D01*
X239805786Y-143218788D01*
X239522944Y-143501630D01*
G37*
G36*
X239876497Y-143148077D02*
G01*
X238709771Y-141981351D01*
X238992613Y-141698509D01*
X240159339Y-142865235D01*
X239876497Y-143148077D01*
G37*
G36*
X240230050Y-142794524D02*
G01*
X239063324Y-141627798D01*
X239346166Y-141344956D01*
X240512892Y-142511682D01*
X240230050Y-142794524D01*
G37*
G36*
X240583604Y-142440970D02*
G01*
X239416878Y-141274244D01*
X239699720Y-140991402D01*
X240866446Y-142158128D01*
X240583604Y-142440970D01*
G37*
G36*
X240937157Y-142087417D02*
G01*
X239770431Y-140920691D01*
X240053273Y-140637849D01*
X241219999Y-141804575D01*
X240937157Y-142087417D01*
G37*
G36*
X241290711Y-141733864D02*
G01*
X240123985Y-140567138D01*
X240406827Y-140284296D01*
X241573553Y-141451022D01*
X241290711Y-141733864D01*
G37*
G36*
X241644264Y-141380310D02*
G01*
X240477538Y-140213584D01*
X240760380Y-139930742D01*
X241927106Y-141097468D01*
X241644264Y-141380310D01*
G37*
G36*
X241997817Y-141026757D02*
G01*
X240831091Y-139860031D01*
X241113933Y-139577189D01*
X242280659Y-140743915D01*
X241997817Y-141026757D01*
G37*
G36*
X242351371Y-140673203D02*
G01*
X241184645Y-139506477D01*
X241467487Y-139223635D01*
X242634213Y-140390361D01*
X242351371Y-140673203D01*
G37*
G36*
X242704924Y-140319650D02*
G01*
X241538198Y-139152924D01*
X241821040Y-138870082D01*
X242987766Y-140036808D01*
X242704924Y-140319650D01*
G37*
G36*
X243058478Y-139966097D02*
G01*
X241891752Y-138799371D01*
X242174594Y-138516529D01*
X243341320Y-139683255D01*
X243058478Y-139966097D01*
G37*
G36*
X241891752Y-136536629D02*
G01*
X243058478Y-135369903D01*
X243341320Y-135652745D01*
X242174594Y-136819471D01*
X241891752Y-136536629D01*
G37*
G36*
X241538198Y-136183076D02*
G01*
X242704924Y-135016350D01*
X242987766Y-135299192D01*
X241821040Y-136465918D01*
X241538198Y-136183076D01*
G37*
G36*
X241184645Y-135829523D02*
G01*
X242351371Y-134662797D01*
X242634213Y-134945639D01*
X241467487Y-136112365D01*
X241184645Y-135829523D01*
G37*
G36*
X240831091Y-135475969D02*
G01*
X241997817Y-134309243D01*
X242280659Y-134592085D01*
X241113933Y-135758811D01*
X240831091Y-135475969D01*
G37*
G36*
X240477538Y-135122416D02*
G01*
X241644264Y-133955690D01*
X241927106Y-134238532D01*
X240760380Y-135405258D01*
X240477538Y-135122416D01*
G37*
G36*
X240123985Y-134768862D02*
G01*
X241290711Y-133602136D01*
X241573553Y-133884978D01*
X240406827Y-135051704D01*
X240123985Y-134768862D01*
G37*
G36*
X239770431Y-134415309D02*
G01*
X240937157Y-133248583D01*
X241219999Y-133531425D01*
X240053273Y-134698151D01*
X239770431Y-134415309D01*
G37*
G36*
X239416878Y-134061756D02*
G01*
X240583604Y-132895030D01*
X240866446Y-133177872D01*
X239699720Y-134344598D01*
X239416878Y-134061756D01*
G37*
G36*
X239063324Y-133708202D02*
G01*
X240230050Y-132541476D01*
X240512892Y-132824318D01*
X239346166Y-133991044D01*
X239063324Y-133708202D01*
G37*
G36*
X238709771Y-133354649D02*
G01*
X239876497Y-132187923D01*
X240159339Y-132470765D01*
X238992613Y-133637491D01*
X238709771Y-133354649D01*
G37*
G36*
X238356218Y-133001096D02*
G01*
X239522944Y-131834370D01*
X239805786Y-132117212D01*
X238639060Y-133283938D01*
X238356218Y-133001096D01*
G37*
G36*
X238002664Y-132647542D02*
G01*
X239169390Y-131480816D01*
X239452232Y-131763658D01*
X238285506Y-132930384D01*
X238002664Y-132647542D01*
G37*
G36*
X237649111Y-132293989D02*
G01*
X238815837Y-131127263D01*
X239098679Y-131410105D01*
X237931953Y-132576831D01*
X237649111Y-132293989D01*
G37*
G36*
X237295557Y-131940435D02*
G01*
X238462283Y-130773709D01*
X238745125Y-131056551D01*
X237578399Y-132223277D01*
X237295557Y-131940435D01*
G37*
G36*
X236942004Y-131586882D02*
G01*
X238108730Y-130420156D01*
X238391572Y-130702998D01*
X237224846Y-131869724D01*
X236942004Y-131586882D01*
G37*
G36*
X236588451Y-131233329D02*
G01*
X237755177Y-130066603D01*
X238038019Y-130349445D01*
X236871293Y-131516171D01*
X236588451Y-131233329D01*
G37*
G36*
X236234897Y-130879775D02*
G01*
X237401623Y-129713049D01*
X237684465Y-129995891D01*
X236517739Y-131162617D01*
X236234897Y-130879775D01*
G37*
G36*
X235881344Y-130526222D02*
G01*
X237048070Y-129359496D01*
X237330912Y-129642338D01*
X236164186Y-130809064D01*
X235881344Y-130526222D01*
G37*
G36*
X235527790Y-130172668D02*
G01*
X236694516Y-129005942D01*
X236977358Y-129288784D01*
X235810632Y-130455510D01*
X235527790Y-130172668D01*
G37*
G36*
X235174237Y-129819115D02*
G01*
X236340963Y-128652389D01*
X236623805Y-128935231D01*
X235457079Y-130101957D01*
X235174237Y-129819115D01*
G37*
G36*
X234820684Y-129465562D02*
G01*
X235987410Y-128298836D01*
X236270252Y-128581678D01*
X235103526Y-129748404D01*
X234820684Y-129465562D01*
G37*
G36*
X234467130Y-129112008D02*
G01*
X235633856Y-127945282D01*
X235916698Y-128228124D01*
X234749972Y-129394850D01*
X234467130Y-129112008D01*
G37*
G36*
X234113577Y-128758455D02*
G01*
X235280303Y-127591729D01*
X235563145Y-127874571D01*
X234396419Y-129041297D01*
X234113577Y-128758455D01*
G37*
G36*
X233760024Y-128404901D02*
G01*
X234926750Y-127238175D01*
X235209592Y-127521017D01*
X234042866Y-128687743D01*
X233760024Y-128404901D01*
G37*
G36*
X233406470Y-128051348D02*
G01*
X234573196Y-126884622D01*
X234856038Y-127167464D01*
X233689312Y-128334190D01*
X233406470Y-128051348D01*
G37*
G36*
X233052917Y-127697795D02*
G01*
X234219643Y-126531069D01*
X234502485Y-126813911D01*
X233335759Y-127980637D01*
X233052917Y-127697795D01*
G37*
G36*
X232699363Y-127344241D02*
G01*
X233866089Y-126177515D01*
X234148931Y-126460357D01*
X232982205Y-127627083D01*
X232699363Y-127344241D01*
G37*
G36*
X232345810Y-126990688D02*
G01*
X233512536Y-125823962D01*
X233795378Y-126106804D01*
X232628652Y-127273530D01*
X232345810Y-126990688D01*
G37*
G36*
X231992257Y-126637134D02*
G01*
X233158983Y-125470408D01*
X233441825Y-125753250D01*
X232275099Y-126919976D01*
X231992257Y-126637134D01*
G37*
G36*
X231638703Y-126283581D02*
G01*
X232805429Y-125116855D01*
X233088271Y-125399697D01*
X231921545Y-126566423D01*
X231638703Y-126283581D01*
G37*
G36*
X231285150Y-125930028D02*
G01*
X232451876Y-124763302D01*
X232734718Y-125046144D01*
X231567992Y-126212870D01*
X231285150Y-125930028D01*
G37*
G36*
X230931596Y-125576474D02*
G01*
X232098322Y-124409748D01*
X232381164Y-124692590D01*
X231214438Y-125859316D01*
X230931596Y-125576474D01*
G37*
G36*
X230578043Y-125222921D02*
G01*
X231744769Y-124056195D01*
X232027611Y-124339037D01*
X230860885Y-125505763D01*
X230578043Y-125222921D01*
G37*
G36*
X230224490Y-124869368D02*
G01*
X231391216Y-123702642D01*
X231674058Y-123985484D01*
X230507332Y-125152210D01*
X230224490Y-124869368D01*
G37*
G36*
X229870936Y-124515814D02*
G01*
X231037662Y-123349088D01*
X231320504Y-123631930D01*
X230153778Y-124798656D01*
X229870936Y-124515814D01*
G37*
G36*
X229517383Y-124162261D02*
G01*
X230684109Y-122995535D01*
X230966951Y-123278377D01*
X229800225Y-124445103D01*
X229517383Y-124162261D01*
G37*
G36*
X229163829Y-123808707D02*
G01*
X230330555Y-122641981D01*
X230613397Y-122924823D01*
X229446671Y-124091549D01*
X229163829Y-123808707D01*
G37*
G36*
X228810276Y-123455154D02*
G01*
X229977002Y-122288428D01*
X230259844Y-122571270D01*
X229093118Y-123737996D01*
X228810276Y-123455154D01*
G37*
G36*
X228456723Y-123101601D02*
G01*
X229623449Y-121934875D01*
X229906291Y-122217717D01*
X228739565Y-123384443D01*
X228456723Y-123101601D01*
G37*
G36*
X228103169Y-122748047D02*
G01*
X229269895Y-121581321D01*
X229552737Y-121864163D01*
X228386011Y-123030889D01*
X228103169Y-122748047D01*
G37*
G36*
X227749616Y-122394494D02*
G01*
X228916342Y-121227768D01*
X229199184Y-121510610D01*
X228032458Y-122677336D01*
X227749616Y-122394494D01*
G37*
G36*
X227396062Y-122040940D02*
G01*
X228562788Y-120874214D01*
X228845630Y-121157056D01*
X227678904Y-122323782D01*
X227396062Y-122040940D01*
G37*
G36*
X227042509Y-121687387D02*
G01*
X228209235Y-120520661D01*
X228492077Y-120803503D01*
X227325351Y-121970229D01*
X227042509Y-121687387D01*
G37*
G36*
X226688956Y-121333834D02*
G01*
X227855682Y-120167108D01*
X228138524Y-120449950D01*
X226971798Y-121616676D01*
X226688956Y-121333834D01*
G37*
G36*
X226335402Y-120980280D02*
G01*
X227502128Y-119813554D01*
X227784970Y-120096396D01*
X226618244Y-121263122D01*
X226335402Y-120980280D01*
G37*
G36*
X225981849Y-120626727D02*
G01*
X227148575Y-119460001D01*
X227431417Y-119742843D01*
X226264691Y-120909569D01*
X225981849Y-120626727D01*
G37*
G36*
X225628296Y-120273173D02*
G01*
X226795022Y-119106447D01*
X227077864Y-119389289D01*
X225911138Y-120556015D01*
X225628296Y-120273173D01*
G37*
G36*
X225274742Y-119919620D02*
G01*
X226441468Y-118752894D01*
X226724310Y-119035736D01*
X225557584Y-120202462D01*
X225274742Y-119919620D01*
G37*
G36*
X224921189Y-119566067D02*
G01*
X226087915Y-118399341D01*
X226370757Y-118682183D01*
X225204031Y-119848909D01*
X224921189Y-119566067D01*
G37*
G36*
X224567635Y-119212513D02*
G01*
X225734361Y-118045787D01*
X226017203Y-118328629D01*
X224850477Y-119495355D01*
X224567635Y-119212513D01*
G37*
G36*
X224214082Y-118858960D02*
G01*
X225380808Y-117692234D01*
X225663650Y-117975076D01*
X224496924Y-119141802D01*
X224214082Y-118858960D01*
G37*
G36*
X223860529Y-118505406D02*
G01*
X225027255Y-117338680D01*
X225310097Y-117621522D01*
X224143371Y-118788248D01*
X223860529Y-118505406D01*
G37*
%TD*%
D43*
%TO.C,U3*%
X145148000Y-115552000D03*
X145148000Y-116352000D03*
X145148000Y-117152000D03*
X145148000Y-117952000D03*
X145148000Y-118752000D03*
X145148000Y-119552000D03*
X145148000Y-120352000D03*
X145148000Y-121152000D03*
X145148000Y-121952000D03*
X145148000Y-122752000D03*
X145148000Y-123552000D03*
X145148000Y-124352000D03*
X145148000Y-125152000D03*
X145148000Y-125952000D03*
X145148000Y-126752000D03*
X145148000Y-127552000D03*
X145148000Y-128352000D03*
X145148000Y-129152000D03*
X145148000Y-129952000D03*
X145148000Y-130752000D03*
X145148000Y-131552000D03*
X145148000Y-132352000D03*
X156604000Y-132352000D03*
X156604000Y-131552000D03*
X156604000Y-130752000D03*
X156604000Y-129952000D03*
X156604000Y-129152000D03*
X156604000Y-128352000D03*
X156604000Y-127552000D03*
X156604000Y-126752000D03*
X156604000Y-125952000D03*
X156604000Y-125152000D03*
X156604000Y-124352000D03*
X156604000Y-123552000D03*
X156604000Y-122752000D03*
X156604000Y-121952000D03*
X156604000Y-121152000D03*
X156604000Y-120352000D03*
X156604000Y-119552000D03*
X156604000Y-118752000D03*
X156604000Y-117952000D03*
X156604000Y-117152000D03*
X156604000Y-116352000D03*
X156604000Y-115552000D03*
%TD*%
%TO.C,U4*%
X172072000Y-115552000D03*
X172072000Y-116352000D03*
X172072000Y-117152000D03*
X172072000Y-117952000D03*
X172072000Y-118752000D03*
X172072000Y-119552000D03*
X172072000Y-120352000D03*
X172072000Y-121152000D03*
X172072000Y-121952000D03*
X172072000Y-122752000D03*
X172072000Y-123552000D03*
X172072000Y-124352000D03*
X172072000Y-125152000D03*
X172072000Y-125952000D03*
X172072000Y-126752000D03*
X172072000Y-127552000D03*
X172072000Y-128352000D03*
X172072000Y-129152000D03*
X172072000Y-129952000D03*
X172072000Y-130752000D03*
X172072000Y-131552000D03*
X172072000Y-132352000D03*
X183528000Y-132352000D03*
X183528000Y-131552000D03*
X183528000Y-130752000D03*
X183528000Y-129952000D03*
X183528000Y-129152000D03*
X183528000Y-128352000D03*
X183528000Y-127552000D03*
X183528000Y-126752000D03*
X183528000Y-125952000D03*
X183528000Y-125152000D03*
X183528000Y-124352000D03*
X183528000Y-123552000D03*
X183528000Y-122752000D03*
X183528000Y-121952000D03*
X183528000Y-121152000D03*
X183528000Y-120352000D03*
X183528000Y-119552000D03*
X183528000Y-118752000D03*
X183528000Y-117952000D03*
X183528000Y-117152000D03*
X183528000Y-116352000D03*
X183528000Y-115552000D03*
%TD*%
%TO.C,U5*%
X156604000Y-141968000D03*
X156604000Y-142768000D03*
X156604000Y-143568000D03*
X156604000Y-144368000D03*
X156604000Y-145168000D03*
X156604000Y-145968000D03*
X156604000Y-146768000D03*
X156604000Y-147568000D03*
X156604000Y-148368000D03*
X156604000Y-149168000D03*
X156604000Y-149968000D03*
X156604000Y-150768000D03*
X156604000Y-151568000D03*
X156604000Y-152368000D03*
X156604000Y-153168000D03*
X156604000Y-153968000D03*
X156604000Y-154768000D03*
X156604000Y-155568000D03*
X156604000Y-156368000D03*
X156604000Y-157168000D03*
X156604000Y-157968000D03*
X156604000Y-158768000D03*
X145148000Y-158768000D03*
X145148000Y-157968000D03*
X145148000Y-157168000D03*
X145148000Y-156368000D03*
X145148000Y-155568000D03*
X145148000Y-154768000D03*
X145148000Y-153968000D03*
X145148000Y-153168000D03*
X145148000Y-152368000D03*
X145148000Y-151568000D03*
X145148000Y-150768000D03*
X145148000Y-149968000D03*
X145148000Y-149168000D03*
X145148000Y-148368000D03*
X145148000Y-147568000D03*
X145148000Y-146768000D03*
X145148000Y-145968000D03*
X145148000Y-145168000D03*
X145148000Y-144368000D03*
X145148000Y-143568000D03*
X145148000Y-142768000D03*
X145148000Y-141968000D03*
%TD*%
%TO.C,U6*%
X183528000Y-141968000D03*
X183528000Y-142768000D03*
X183528000Y-143568000D03*
X183528000Y-144368000D03*
X183528000Y-145168000D03*
X183528000Y-145968000D03*
X183528000Y-146768000D03*
X183528000Y-147568000D03*
X183528000Y-148368000D03*
X183528000Y-149168000D03*
X183528000Y-149968000D03*
X183528000Y-150768000D03*
X183528000Y-151568000D03*
X183528000Y-152368000D03*
X183528000Y-153168000D03*
X183528000Y-153968000D03*
X183528000Y-154768000D03*
X183528000Y-155568000D03*
X183528000Y-156368000D03*
X183528000Y-157168000D03*
X183528000Y-157968000D03*
X183528000Y-158768000D03*
X172072000Y-158768000D03*
X172072000Y-157968000D03*
X172072000Y-157168000D03*
X172072000Y-156368000D03*
X172072000Y-155568000D03*
X172072000Y-154768000D03*
X172072000Y-153968000D03*
X172072000Y-153168000D03*
X172072000Y-152368000D03*
X172072000Y-151568000D03*
X172072000Y-150768000D03*
X172072000Y-149968000D03*
X172072000Y-149168000D03*
X172072000Y-148368000D03*
X172072000Y-147568000D03*
X172072000Y-146768000D03*
X172072000Y-145968000D03*
X172072000Y-145168000D03*
X172072000Y-144368000D03*
X172072000Y-143568000D03*
X172072000Y-142768000D03*
X172072000Y-141968000D03*
%TD*%
%TO.C,U8*%
G36*
G01*
X156766000Y-86558000D02*
X156416000Y-86558000D01*
G75*
G02*
X156241000Y-86383000I0J175000D01*
G01*
X156241000Y-84683000D01*
G75*
G02*
X156416000Y-84508000I175000J0D01*
G01*
X156766000Y-84508000D01*
G75*
G02*
X156941000Y-84683000I0J-175000D01*
G01*
X156941000Y-86383000D01*
G75*
G02*
X156766000Y-86558000I-175000J0D01*
G01*
G37*
G36*
G01*
X158036000Y-86558000D02*
X157686000Y-86558000D01*
G75*
G02*
X157511000Y-86383000I0J175000D01*
G01*
X157511000Y-84683000D01*
G75*
G02*
X157686000Y-84508000I175000J0D01*
G01*
X158036000Y-84508000D01*
G75*
G02*
X158211000Y-84683000I0J-175000D01*
G01*
X158211000Y-86383000D01*
G75*
G02*
X158036000Y-86558000I-175000J0D01*
G01*
G37*
G36*
G01*
X159306000Y-86558000D02*
X158956000Y-86558000D01*
G75*
G02*
X158781000Y-86383000I0J175000D01*
G01*
X158781000Y-84683000D01*
G75*
G02*
X158956000Y-84508000I175000J0D01*
G01*
X159306000Y-84508000D01*
G75*
G02*
X159481000Y-84683000I0J-175000D01*
G01*
X159481000Y-86383000D01*
G75*
G02*
X159306000Y-86558000I-175000J0D01*
G01*
G37*
G36*
G01*
X160576000Y-86558000D02*
X160226000Y-86558000D01*
G75*
G02*
X160051000Y-86383000I0J175000D01*
G01*
X160051000Y-84683000D01*
G75*
G02*
X160226000Y-84508000I175000J0D01*
G01*
X160576000Y-84508000D01*
G75*
G02*
X160751000Y-84683000I0J-175000D01*
G01*
X160751000Y-86383000D01*
G75*
G02*
X160576000Y-86558000I-175000J0D01*
G01*
G37*
G36*
G01*
X161846000Y-86558000D02*
X161496000Y-86558000D01*
G75*
G02*
X161321000Y-86383000I0J175000D01*
G01*
X161321000Y-84683000D01*
G75*
G02*
X161496000Y-84508000I175000J0D01*
G01*
X161846000Y-84508000D01*
G75*
G02*
X162021000Y-84683000I0J-175000D01*
G01*
X162021000Y-86383000D01*
G75*
G02*
X161846000Y-86558000I-175000J0D01*
G01*
G37*
G36*
G01*
X163116000Y-86558000D02*
X162766000Y-86558000D01*
G75*
G02*
X162591000Y-86383000I0J175000D01*
G01*
X162591000Y-84683000D01*
G75*
G02*
X162766000Y-84508000I175000J0D01*
G01*
X163116000Y-84508000D01*
G75*
G02*
X163291000Y-84683000I0J-175000D01*
G01*
X163291000Y-86383000D01*
G75*
G02*
X163116000Y-86558000I-175000J0D01*
G01*
G37*
G36*
G01*
X164386000Y-86558000D02*
X164036000Y-86558000D01*
G75*
G02*
X163861000Y-86383000I0J175000D01*
G01*
X163861000Y-84683000D01*
G75*
G02*
X164036000Y-84508000I175000J0D01*
G01*
X164386000Y-84508000D01*
G75*
G02*
X164561000Y-84683000I0J-175000D01*
G01*
X164561000Y-86383000D01*
G75*
G02*
X164386000Y-86558000I-175000J0D01*
G01*
G37*
G36*
G01*
X165656000Y-86558000D02*
X165306000Y-86558000D01*
G75*
G02*
X165131000Y-86383000I0J175000D01*
G01*
X165131000Y-84683000D01*
G75*
G02*
X165306000Y-84508000I175000J0D01*
G01*
X165656000Y-84508000D01*
G75*
G02*
X165831000Y-84683000I0J-175000D01*
G01*
X165831000Y-86383000D01*
G75*
G02*
X165656000Y-86558000I-175000J0D01*
G01*
G37*
G36*
G01*
X165656000Y-81608000D02*
X165306000Y-81608000D01*
G75*
G02*
X165131000Y-81433000I0J175000D01*
G01*
X165131000Y-79733000D01*
G75*
G02*
X165306000Y-79558000I175000J0D01*
G01*
X165656000Y-79558000D01*
G75*
G02*
X165831000Y-79733000I0J-175000D01*
G01*
X165831000Y-81433000D01*
G75*
G02*
X165656000Y-81608000I-175000J0D01*
G01*
G37*
G36*
G01*
X164386000Y-81608000D02*
X164036000Y-81608000D01*
G75*
G02*
X163861000Y-81433000I0J175000D01*
G01*
X163861000Y-79733000D01*
G75*
G02*
X164036000Y-79558000I175000J0D01*
G01*
X164386000Y-79558000D01*
G75*
G02*
X164561000Y-79733000I0J-175000D01*
G01*
X164561000Y-81433000D01*
G75*
G02*
X164386000Y-81608000I-175000J0D01*
G01*
G37*
G36*
G01*
X163116000Y-81608000D02*
X162766000Y-81608000D01*
G75*
G02*
X162591000Y-81433000I0J175000D01*
G01*
X162591000Y-79733000D01*
G75*
G02*
X162766000Y-79558000I175000J0D01*
G01*
X163116000Y-79558000D01*
G75*
G02*
X163291000Y-79733000I0J-175000D01*
G01*
X163291000Y-81433000D01*
G75*
G02*
X163116000Y-81608000I-175000J0D01*
G01*
G37*
G36*
G01*
X161846000Y-81608000D02*
X161496000Y-81608000D01*
G75*
G02*
X161321000Y-81433000I0J175000D01*
G01*
X161321000Y-79733000D01*
G75*
G02*
X161496000Y-79558000I175000J0D01*
G01*
X161846000Y-79558000D01*
G75*
G02*
X162021000Y-79733000I0J-175000D01*
G01*
X162021000Y-81433000D01*
G75*
G02*
X161846000Y-81608000I-175000J0D01*
G01*
G37*
G36*
G01*
X160576000Y-81608000D02*
X160226000Y-81608000D01*
G75*
G02*
X160051000Y-81433000I0J175000D01*
G01*
X160051000Y-79733000D01*
G75*
G02*
X160226000Y-79558000I175000J0D01*
G01*
X160576000Y-79558000D01*
G75*
G02*
X160751000Y-79733000I0J-175000D01*
G01*
X160751000Y-81433000D01*
G75*
G02*
X160576000Y-81608000I-175000J0D01*
G01*
G37*
G36*
G01*
X159306000Y-81608000D02*
X158956000Y-81608000D01*
G75*
G02*
X158781000Y-81433000I0J175000D01*
G01*
X158781000Y-79733000D01*
G75*
G02*
X158956000Y-79558000I175000J0D01*
G01*
X159306000Y-79558000D01*
G75*
G02*
X159481000Y-79733000I0J-175000D01*
G01*
X159481000Y-81433000D01*
G75*
G02*
X159306000Y-81608000I-175000J0D01*
G01*
G37*
G36*
G01*
X158036000Y-81608000D02*
X157686000Y-81608000D01*
G75*
G02*
X157511000Y-81433000I0J175000D01*
G01*
X157511000Y-79733000D01*
G75*
G02*
X157686000Y-79558000I175000J0D01*
G01*
X158036000Y-79558000D01*
G75*
G02*
X158211000Y-79733000I0J-175000D01*
G01*
X158211000Y-81433000D01*
G75*
G02*
X158036000Y-81608000I-175000J0D01*
G01*
G37*
G36*
G01*
X156766000Y-81608000D02*
X156416000Y-81608000D01*
G75*
G02*
X156241000Y-81433000I0J175000D01*
G01*
X156241000Y-79733000D01*
G75*
G02*
X156416000Y-79558000I175000J0D01*
G01*
X156766000Y-79558000D01*
G75*
G02*
X156941000Y-79733000I0J-175000D01*
G01*
X156941000Y-81433000D01*
G75*
G02*
X156766000Y-81608000I-175000J0D01*
G01*
G37*
%TD*%
D44*
%TO.C,Y1*%
X193548000Y-200025000D03*
X203048000Y-200025000D03*
%TD*%
D45*
%TO.C,Y2*%
X138049000Y-171822000D03*
X138049000Y-163322000D03*
%TD*%
D46*
%TO.C,IC7*%
X184531000Y-221996000D03*
D47*
X176911000Y-188976000D03*
X184531000Y-219456000D03*
X176911000Y-191516000D03*
X184531000Y-216916000D03*
X176911000Y-194056000D03*
X184531000Y-214376000D03*
X176911000Y-196596000D03*
X184531000Y-211836000D03*
X176911000Y-199136000D03*
X184531000Y-209296000D03*
X176911000Y-201676000D03*
X184531000Y-206756000D03*
X176911000Y-204216000D03*
X184531000Y-204216000D03*
X176911000Y-206756000D03*
X184531000Y-201676000D03*
X176911000Y-209296000D03*
X184531000Y-199136000D03*
X176911000Y-211836000D03*
X184531000Y-196596000D03*
X176911000Y-214376000D03*
X184531000Y-194056000D03*
X176911000Y-216916000D03*
X184531000Y-191516000D03*
X176911000Y-219456000D03*
X184531000Y-188976000D03*
X176911000Y-221996000D03*
%TD*%
D19*
%TO.C,J17*%
X280289000Y-206121000D03*
D20*
X280289000Y-208661000D03*
%TD*%
D48*
%TO.C,C53*%
X217923000Y-210312000D03*
X226323000Y-210312000D03*
%TD*%
%TO.C,C54*%
X226323000Y-198755000D03*
X217923000Y-198755000D03*
%TD*%
D49*
%TO.C,C55*%
X288270000Y-213360000D03*
X293370000Y-213360000D03*
%TD*%
%TO.C,C56*%
X293370000Y-205359000D03*
X288270000Y-205359000D03*
%TD*%
D46*
%TO.C,U2*%
X260604000Y-116332000D03*
D47*
X283464000Y-195072000D03*
X260604000Y-118872000D03*
X283464000Y-192532000D03*
X260604000Y-121412000D03*
X283464000Y-189992000D03*
X260604000Y-123952000D03*
X283464000Y-187452000D03*
X260604000Y-126492000D03*
X283464000Y-184912000D03*
X260604000Y-129032000D03*
X283464000Y-182372000D03*
X260604000Y-131572000D03*
X283464000Y-179832000D03*
X260604000Y-134112000D03*
X283464000Y-177292000D03*
X260604000Y-136652000D03*
X283464000Y-174752000D03*
X260604000Y-139192000D03*
X283464000Y-172212000D03*
X260604000Y-141732000D03*
X283464000Y-169672000D03*
X260604000Y-144272000D03*
X283464000Y-167132000D03*
X260604000Y-146812000D03*
X283464000Y-164592000D03*
X260604000Y-149352000D03*
X283464000Y-162052000D03*
X260604000Y-151892000D03*
X283464000Y-159512000D03*
X260604000Y-154432000D03*
X283464000Y-156972000D03*
X260604000Y-156972000D03*
X283464000Y-154432000D03*
X260604000Y-159512000D03*
X283464000Y-151892000D03*
X260604000Y-162052000D03*
X283464000Y-149352000D03*
X260604000Y-164592000D03*
X283464000Y-146812000D03*
X260604000Y-167132000D03*
X283464000Y-144272000D03*
X260604000Y-169672000D03*
X283464000Y-141732000D03*
X260604000Y-172212000D03*
X283464000Y-139192000D03*
X260604000Y-174752000D03*
X283464000Y-136652000D03*
X260604000Y-177292000D03*
X283464000Y-134112000D03*
X260604000Y-179832000D03*
X283464000Y-131572000D03*
X260604000Y-182372000D03*
X283464000Y-129032000D03*
X260604000Y-184912000D03*
X283464000Y-126492000D03*
X260604000Y-187452000D03*
X283464000Y-123952000D03*
X260604000Y-189992000D03*
X283464000Y-121412000D03*
X260604000Y-192532000D03*
X283464000Y-118872000D03*
X260604000Y-195072000D03*
X283464000Y-116332000D03*
%TD*%
D50*
%TO.C,IC8*%
X255950400Y-211063800D03*
X255950400Y-212013800D03*
X255950400Y-212963800D03*
X258450400Y-212963800D03*
X258450400Y-212013800D03*
X258450400Y-211063800D03*
%TD*%
M02*
